%TF.GenerationSoftware,KiCad,Pcbnew,(5.1.9-0-10_14)*%
%TF.CreationDate,2021-05-04T15:56:22-07:00*%
%TF.ProjectId,fm-streamer,666d2d73-7472-4656-916d-65722e6b6963,rev?*%
%TF.SameCoordinates,Original*%
%TF.FileFunction,Legend,Top*%
%TF.FilePolarity,Positive*%
%FSLAX46Y46*%
G04 Gerber Fmt 4.6, Leading zero omitted, Abs format (unit mm)*
G04 Created by KiCad (PCBNEW (5.1.9-0-10_14)) date 2021-05-04 15:56:22*
%MOMM*%
%LPD*%
G01*
G04 APERTURE LIST*
%ADD10C,0.120000*%
%ADD11C,1.000000*%
%ADD12C,0.150000*%
G04 APERTURE END LIST*
D10*
%TO.C,U1*%
X119500000Y-70460000D02*
G75*
G03*
X119500000Y-70460000I-1500000J0D01*
G01*
X142900000Y-70460000D02*
G75*
G03*
X142900000Y-70460000I-1500000J0D01*
G01*
X143700000Y-117960000D02*
X143700000Y-70460000D01*
X115700000Y-70460000D02*
X115700000Y-117960000D01*
X117700000Y-119960000D02*
X141700000Y-119960000D01*
X117700000Y-68460000D02*
X141700000Y-68460000D01*
X119500000Y-117960000D02*
G75*
G03*
X119500000Y-117960000I-1500000J0D01*
G01*
X142900000Y-117960000D02*
G75*
G03*
X142900000Y-117960000I-1500000J0D01*
G01*
X125700000Y-113960000D02*
X125700000Y-119960000D01*
X133700000Y-113960000D02*
X133700000Y-119960000D01*
X125700000Y-113960000D02*
X133700000Y-113960000D01*
X136050000Y-115450000D02*
X138590000Y-115450000D01*
X138590000Y-115450000D02*
X138590000Y-119260000D01*
X138590000Y-119260000D02*
X136050000Y-119260000D01*
X136050000Y-119260000D02*
X136050000Y-115450000D01*
X123350000Y-119260000D02*
X120810000Y-119260000D01*
X120810000Y-119260000D02*
X120810000Y-115450000D01*
X120810000Y-115450000D02*
X123350000Y-115450000D01*
X123350000Y-115450000D02*
X123350000Y-119260000D01*
D11*
X122380000Y-117355000D02*
G75*
G03*
X122380000Y-117355000I-300000J0D01*
G01*
X137620000Y-117355000D02*
G75*
G03*
X137620000Y-117355000I-300000J0D01*
G01*
D10*
X143700000Y-117960000D02*
G75*
G02*
X141700000Y-119960000I-2000000J0D01*
G01*
X117700000Y-119960000D02*
G75*
G02*
X115700000Y-117960000I0J2000000D01*
G01*
X115700000Y-70460000D02*
G75*
G02*
X117700000Y-68460000I2000000J0D01*
G01*
X141700000Y-68460000D02*
G75*
G02*
X143700000Y-70460000I0J-2000000D01*
G01*
%TO.C,TP1*%
X115100000Y-118400000D02*
G75*
G03*
X115100000Y-118400000I-1200000J0D01*
G01*
%TO.C,U1*%
D12*
X119818095Y-114108571D02*
X120151428Y-114108571D01*
X120294285Y-114632380D02*
X119818095Y-114632380D01*
X119818095Y-113632380D01*
X120294285Y-113632380D01*
X120722857Y-113965714D02*
X120722857Y-114632380D01*
X120722857Y-114060952D02*
X120770476Y-114013333D01*
X120865714Y-113965714D01*
X121008571Y-113965714D01*
X121103809Y-114013333D01*
X121151428Y-114108571D01*
X121151428Y-114632380D01*
X122056190Y-114632380D02*
X122056190Y-114108571D01*
X122008571Y-114013333D01*
X121913333Y-113965714D01*
X121722857Y-113965714D01*
X121627619Y-114013333D01*
X122056190Y-114584761D02*
X121960952Y-114632380D01*
X121722857Y-114632380D01*
X121627619Y-114584761D01*
X121580000Y-114489523D01*
X121580000Y-114394285D01*
X121627619Y-114299047D01*
X121722857Y-114251428D01*
X121960952Y-114251428D01*
X122056190Y-114203809D01*
X122532380Y-114632380D02*
X122532380Y-113632380D01*
X122532380Y-114013333D02*
X122627619Y-113965714D01*
X122818095Y-113965714D01*
X122913333Y-114013333D01*
X122960952Y-114060952D01*
X123008571Y-114156190D01*
X123008571Y-114441904D01*
X122960952Y-114537142D01*
X122913333Y-114584761D01*
X122818095Y-114632380D01*
X122627619Y-114632380D01*
X122532380Y-114584761D01*
X123580000Y-114632380D02*
X123484761Y-114584761D01*
X123437142Y-114489523D01*
X123437142Y-113632380D01*
X124341904Y-114584761D02*
X124246666Y-114632380D01*
X124056190Y-114632380D01*
X123960952Y-114584761D01*
X123913333Y-114489523D01*
X123913333Y-114108571D01*
X123960952Y-114013333D01*
X124056190Y-113965714D01*
X124246666Y-113965714D01*
X124341904Y-114013333D01*
X124389523Y-114108571D01*
X124389523Y-114203809D01*
X123913333Y-114299047D01*
X136200952Y-114108571D02*
X136343809Y-114156190D01*
X136391428Y-114203809D01*
X136439047Y-114299047D01*
X136439047Y-114441904D01*
X136391428Y-114537142D01*
X136343809Y-114584761D01*
X136248571Y-114632380D01*
X135867619Y-114632380D01*
X135867619Y-113632380D01*
X136200952Y-113632380D01*
X136296190Y-113680000D01*
X136343809Y-113727619D01*
X136391428Y-113822857D01*
X136391428Y-113918095D01*
X136343809Y-114013333D01*
X136296190Y-114060952D01*
X136200952Y-114108571D01*
X135867619Y-114108571D01*
X137010476Y-114632380D02*
X136915238Y-114584761D01*
X136867619Y-114537142D01*
X136820000Y-114441904D01*
X136820000Y-114156190D01*
X136867619Y-114060952D01*
X136915238Y-114013333D01*
X137010476Y-113965714D01*
X137153333Y-113965714D01*
X137248571Y-114013333D01*
X137296190Y-114060952D01*
X137343809Y-114156190D01*
X137343809Y-114441904D01*
X137296190Y-114537142D01*
X137248571Y-114584761D01*
X137153333Y-114632380D01*
X137010476Y-114632380D01*
X137915238Y-114632380D02*
X137820000Y-114584761D01*
X137772380Y-114537142D01*
X137724761Y-114441904D01*
X137724761Y-114156190D01*
X137772380Y-114060952D01*
X137820000Y-114013333D01*
X137915238Y-113965714D01*
X138058095Y-113965714D01*
X138153333Y-114013333D01*
X138200952Y-114060952D01*
X138248571Y-114156190D01*
X138248571Y-114441904D01*
X138200952Y-114537142D01*
X138153333Y-114584761D01*
X138058095Y-114632380D01*
X137915238Y-114632380D01*
X138534285Y-113965714D02*
X138915238Y-113965714D01*
X138677142Y-113632380D02*
X138677142Y-114489523D01*
X138724761Y-114584761D01*
X138820000Y-114632380D01*
X138915238Y-114632380D01*
X128438095Y-117442380D02*
X128438095Y-118251904D01*
X128485714Y-118347142D01*
X128533333Y-118394761D01*
X128628571Y-118442380D01*
X128819047Y-118442380D01*
X128914285Y-118394761D01*
X128961904Y-118347142D01*
X129009523Y-118251904D01*
X129009523Y-117442380D01*
X129438095Y-118394761D02*
X129580952Y-118442380D01*
X129819047Y-118442380D01*
X129914285Y-118394761D01*
X129961904Y-118347142D01*
X130009523Y-118251904D01*
X130009523Y-118156666D01*
X129961904Y-118061428D01*
X129914285Y-118013809D01*
X129819047Y-117966190D01*
X129628571Y-117918571D01*
X129533333Y-117870952D01*
X129485714Y-117823333D01*
X129438095Y-117728095D01*
X129438095Y-117632857D01*
X129485714Y-117537619D01*
X129533333Y-117490000D01*
X129628571Y-117442380D01*
X129866666Y-117442380D01*
X130009523Y-117490000D01*
X130771428Y-117918571D02*
X130914285Y-117966190D01*
X130961904Y-118013809D01*
X131009523Y-118109047D01*
X131009523Y-118251904D01*
X130961904Y-118347142D01*
X130914285Y-118394761D01*
X130819047Y-118442380D01*
X130438095Y-118442380D01*
X130438095Y-117442380D01*
X130771428Y-117442380D01*
X130866666Y-117490000D01*
X130914285Y-117537619D01*
X130961904Y-117632857D01*
X130961904Y-117728095D01*
X130914285Y-117823333D01*
X130866666Y-117870952D01*
X130771428Y-117918571D01*
X130438095Y-117918571D01*
%TD*%
M02*
