%TF.GenerationSoftware,KiCad,Pcbnew,(5.1.9-0-10_14)*%
%TF.CreationDate,2021-05-04T15:56:22-07:00*%
%TF.ProjectId,fm-streamer,666d2d73-7472-4656-916d-65722e6b6963,rev?*%
%TF.SameCoordinates,Original*%
%TF.FileFunction,Legend,Bot*%
%TF.FilePolarity,Positive*%
%FSLAX46Y46*%
G04 Gerber Fmt 4.6, Leading zero omitted, Abs format (unit mm)*
G04 Created by KiCad (PCBNEW (5.1.9-0-10_14)) date 2021-05-04 15:56:22*
%MOMM*%
%LPD*%
G01*
G04 APERTURE LIST*
%ADD10C,0.300000*%
%ADD11C,0.152400*%
%ADD12C,0.500000*%
%ADD13C,0.120000*%
%ADD14C,0.100000*%
%ADD15C,0.203200*%
%ADD16C,0.150000*%
%ADD17C,0.015000*%
G04 APERTURE END LIST*
D10*
X139142857Y-73607142D02*
X139809523Y-73607142D01*
X139809523Y-74654761D02*
X139809523Y-72654761D01*
X138857142Y-72654761D01*
X138095238Y-74654761D02*
X138095238Y-72654761D01*
X137428571Y-74083333D01*
X136761904Y-72654761D01*
X136761904Y-74654761D01*
X134380952Y-74559523D02*
X134095238Y-74654761D01*
X133619047Y-74654761D01*
X133428571Y-74559523D01*
X133333333Y-74464285D01*
X133238095Y-74273809D01*
X133238095Y-74083333D01*
X133333333Y-73892857D01*
X133428571Y-73797619D01*
X133619047Y-73702380D01*
X134000000Y-73607142D01*
X134190476Y-73511904D01*
X134285714Y-73416666D01*
X134380952Y-73226190D01*
X134380952Y-73035714D01*
X134285714Y-72845238D01*
X134190476Y-72750000D01*
X134000000Y-72654761D01*
X133523809Y-72654761D01*
X133238095Y-72750000D01*
X132666666Y-72654761D02*
X131523809Y-72654761D01*
X132095238Y-74654761D02*
X132095238Y-72654761D01*
X129714285Y-74654761D02*
X130380952Y-73702380D01*
X130857142Y-74654761D02*
X130857142Y-72654761D01*
X130095238Y-72654761D01*
X129904761Y-72750000D01*
X129809523Y-72845238D01*
X129714285Y-73035714D01*
X129714285Y-73321428D01*
X129809523Y-73511904D01*
X129904761Y-73607142D01*
X130095238Y-73702380D01*
X130857142Y-73702380D01*
X128857142Y-73607142D02*
X128190476Y-73607142D01*
X127904761Y-74654761D02*
X128857142Y-74654761D01*
X128857142Y-72654761D01*
X127904761Y-72654761D01*
X127142857Y-74083333D02*
X126190476Y-74083333D01*
X127333333Y-74654761D02*
X126666666Y-72654761D01*
X126000000Y-74654761D01*
X125333333Y-74654761D02*
X125333333Y-72654761D01*
X124666666Y-74083333D01*
X124000000Y-72654761D01*
X124000000Y-74654761D01*
X123047619Y-73607142D02*
X122380952Y-73607142D01*
X122095238Y-74654761D02*
X123047619Y-74654761D01*
X123047619Y-72654761D01*
X122095238Y-72654761D01*
X120095238Y-74654761D02*
X120761904Y-73702380D01*
X121238095Y-74654761D02*
X121238095Y-72654761D01*
X120476190Y-72654761D01*
X120285714Y-72750000D01*
X120190476Y-72845238D01*
X120095238Y-73035714D01*
X120095238Y-73321428D01*
X120190476Y-73511904D01*
X120285714Y-73607142D01*
X120476190Y-73702380D01*
X121238095Y-73702380D01*
X132095238Y-77954761D02*
X132761904Y-77002380D01*
X133238095Y-77954761D02*
X133238095Y-75954761D01*
X132476190Y-75954761D01*
X132285714Y-76050000D01*
X132190476Y-76145238D01*
X132095238Y-76335714D01*
X132095238Y-76621428D01*
X132190476Y-76811904D01*
X132285714Y-76907142D01*
X132476190Y-77002380D01*
X133238095Y-77002380D01*
X131238095Y-76907142D02*
X130571428Y-76907142D01*
X130285714Y-77954761D02*
X131238095Y-77954761D01*
X131238095Y-75954761D01*
X130285714Y-75954761D01*
X129714285Y-75954761D02*
X129047619Y-77954761D01*
X128380952Y-75954761D01*
X127333333Y-75954761D02*
X127142857Y-75954761D01*
X126952380Y-76050000D01*
X126857142Y-76145238D01*
X126761904Y-76335714D01*
X126666666Y-76716666D01*
X126666666Y-77192857D01*
X126761904Y-77573809D01*
X126857142Y-77764285D01*
X126952380Y-77859523D01*
X127142857Y-77954761D01*
X127333333Y-77954761D01*
X127523809Y-77859523D01*
X127619047Y-77764285D01*
X127714285Y-77573809D01*
X127809523Y-77192857D01*
X127809523Y-76716666D01*
X127714285Y-76335714D01*
X127619047Y-76145238D01*
X127523809Y-76050000D01*
X127333333Y-75954761D01*
X113650000Y-116419285D02*
X113650000Y-115705000D01*
X113221428Y-116562142D02*
X114721428Y-116062142D01*
X113221428Y-115562142D01*
X113221428Y-115062142D02*
X114721428Y-115062142D01*
X113221428Y-114205000D01*
X114721428Y-114205000D01*
X114721428Y-113705000D02*
X114721428Y-112847857D01*
X113221428Y-113276428D02*
X114721428Y-113276428D01*
D11*
%TO.C,U2*%
X128373002Y-81570300D02*
X132266998Y-81570300D01*
X132266998Y-86929700D02*
X128373002Y-86929700D01*
D12*
X133078841Y-80948000D02*
G75*
G03*
X133078841Y-80948000I-193441J0D01*
G01*
D11*
X130624800Y-81697300D02*
G75*
G02*
X130015200Y-81697300I-304800J0D01*
G01*
D13*
%TO.C,J1*%
X137200000Y-98900000D02*
X122200000Y-98900000D01*
X122200000Y-98900000D02*
X122200000Y-106900000D01*
X122200000Y-106900000D02*
X137200000Y-106900000D01*
X137200000Y-106900000D02*
X137200000Y-98900000D01*
X133700000Y-106900000D02*
X133700000Y-105900000D01*
X133700000Y-105900000D02*
X132700000Y-105900000D01*
X132700000Y-105900000D02*
X132700000Y-106900000D01*
X131200000Y-106900000D02*
X131200000Y-105900000D01*
X131200000Y-105900000D02*
X130200000Y-105900000D01*
X130200000Y-105900000D02*
X130200000Y-106900000D01*
X128200000Y-105900000D02*
X128200000Y-106900000D01*
X129200000Y-105900000D02*
X128200000Y-105900000D01*
X129200000Y-106900000D02*
X129200000Y-105900000D01*
X126700000Y-105900000D02*
X125700000Y-105900000D01*
X126700000Y-106900000D02*
X126700000Y-105900000D01*
X125700000Y-105900000D02*
X125700000Y-106900000D01*
X125700000Y-105900000D02*
X125700000Y-106900000D01*
X126700000Y-106900000D02*
X126700000Y-105900000D01*
X126700000Y-105900000D02*
X125700000Y-105900000D01*
X129200000Y-106900000D02*
X129200000Y-105900000D01*
X129200000Y-105900000D02*
X128200000Y-105900000D01*
X128200000Y-105900000D02*
X128200000Y-106900000D01*
X130200000Y-105900000D02*
X130200000Y-106900000D01*
X131200000Y-105900000D02*
X130200000Y-105900000D01*
X131200000Y-106900000D02*
X131200000Y-105900000D01*
X132700000Y-105900000D02*
X132700000Y-106900000D01*
X133700000Y-105900000D02*
X132700000Y-105900000D01*
X133700000Y-106900000D02*
X133700000Y-105900000D01*
X137200000Y-106900000D02*
X137200000Y-98900000D01*
X122200000Y-106900000D02*
X137200000Y-106900000D01*
X122200000Y-98900000D02*
X122200000Y-106900000D01*
X137200000Y-98900000D02*
X122200000Y-98900000D01*
%TO.C,C1*%
X125840000Y-98407836D02*
X125840000Y-98192164D01*
X126560000Y-98407836D02*
X126560000Y-98192164D01*
%TO.C,J1*%
X137200000Y-98900000D02*
X122200000Y-98900000D01*
X122200000Y-98900000D02*
X122200000Y-106900000D01*
X122200000Y-106900000D02*
X137200000Y-106900000D01*
X137200000Y-106900000D02*
X137200000Y-98900000D01*
X133700000Y-106900000D02*
X133700000Y-105900000D01*
X133700000Y-105900000D02*
X132700000Y-105900000D01*
X132700000Y-105900000D02*
X132700000Y-106900000D01*
X131200000Y-106900000D02*
X131200000Y-105900000D01*
X131200000Y-105900000D02*
X130200000Y-105900000D01*
X130200000Y-105900000D02*
X130200000Y-106900000D01*
X128200000Y-105900000D02*
X128200000Y-106900000D01*
X129200000Y-105900000D02*
X128200000Y-105900000D01*
X129200000Y-106900000D02*
X129200000Y-105900000D01*
X126700000Y-105900000D02*
X125700000Y-105900000D01*
X126700000Y-106900000D02*
X126700000Y-105900000D01*
X125700000Y-105900000D02*
X125700000Y-106900000D01*
%TO.C,R16*%
X119553641Y-82520000D02*
X119246359Y-82520000D01*
X119553641Y-83280000D02*
X119246359Y-83280000D01*
%TO.C,C8*%
X119527836Y-80290000D02*
X119312164Y-80290000D01*
X119527836Y-81010000D02*
X119312164Y-81010000D01*
%TO.C,R8*%
X119553641Y-82030000D02*
X119246359Y-82030000D01*
X119553641Y-81270000D02*
X119246359Y-81270000D01*
%TO.C,C19*%
X130340000Y-92090580D02*
X130340000Y-91809420D01*
X131360000Y-92090580D02*
X131360000Y-91809420D01*
%TO.C,C20*%
X125360000Y-92090580D02*
X125360000Y-91809420D01*
X124340000Y-92090580D02*
X124340000Y-91809420D01*
%TO.C,C22*%
X129610000Y-94809420D02*
X129610000Y-95090580D01*
X128590000Y-94809420D02*
X128590000Y-95090580D01*
%TO.C,C23*%
X128110000Y-95090580D02*
X128110000Y-94809420D01*
X127090000Y-95090580D02*
X127090000Y-94809420D01*
%TO.C,R17*%
X127220000Y-91296359D02*
X127220000Y-91603641D01*
X127980000Y-91296359D02*
X127980000Y-91603641D01*
%TO.C,R24*%
X129220000Y-92603641D02*
X129220000Y-92296359D01*
X129980000Y-92603641D02*
X129980000Y-92296359D01*
%TO.C,R25*%
X126480000Y-92296359D02*
X126480000Y-92603641D01*
X125720000Y-92296359D02*
X125720000Y-92603641D01*
%TO.C,R26*%
X130730000Y-95353641D02*
X130730000Y-95046359D01*
X129970000Y-95353641D02*
X129970000Y-95046359D01*
%TO.C,R27*%
X125970000Y-95353641D02*
X125970000Y-95046359D01*
X126730000Y-95353641D02*
X126730000Y-95046359D01*
%TO.C,R30*%
X139746359Y-94280000D02*
X140053641Y-94280000D01*
X139746359Y-93520000D02*
X140053641Y-93520000D01*
%TO.C,R29*%
X139746359Y-92280000D02*
X140053641Y-92280000D01*
X139746359Y-91520000D02*
X140053641Y-91520000D01*
%TO.C,R28*%
X139746359Y-97280000D02*
X140053641Y-97280000D01*
X139746359Y-96520000D02*
X140053641Y-96520000D01*
%TO.C,C7*%
X119527836Y-91090000D02*
X119312164Y-91090000D01*
X119527836Y-91810000D02*
X119312164Y-91810000D01*
%TO.C,R3*%
X118720000Y-95846359D02*
X118720000Y-96153641D01*
X119480000Y-95846359D02*
X119480000Y-96153641D01*
%TO.C,R7*%
X119553641Y-92830000D02*
X119246359Y-92830000D01*
X119553641Y-92070000D02*
X119246359Y-92070000D01*
%TO.C,R12*%
X118720000Y-98653641D02*
X118720000Y-98346359D01*
X119480000Y-98653641D02*
X119480000Y-98346359D01*
%TO.C,C2*%
X119810000Y-108440580D02*
X119810000Y-108159420D01*
X118790000Y-108440580D02*
X118790000Y-108159420D01*
%TO.C,C3*%
X140410000Y-108759420D02*
X140410000Y-109040580D01*
X139390000Y-108759420D02*
X139390000Y-109040580D01*
%TO.C,C4*%
X139772164Y-95540000D02*
X139987836Y-95540000D01*
X139772164Y-96260000D02*
X139987836Y-96260000D01*
%TO.C,C5*%
X139772164Y-91260000D02*
X139987836Y-91260000D01*
X139772164Y-90540000D02*
X139987836Y-90540000D01*
%TO.C,C6*%
X139792164Y-98540000D02*
X140007836Y-98540000D01*
X139792164Y-99260000D02*
X140007836Y-99260000D01*
%TO.C,C9*%
X119527836Y-88540000D02*
X119312164Y-88540000D01*
X119527836Y-89260000D02*
X119312164Y-89260000D01*
%TO.C,C10*%
X119507836Y-86760000D02*
X119292164Y-86760000D01*
X119507836Y-86040000D02*
X119292164Y-86040000D01*
%TO.C,C11*%
X119527836Y-84260000D02*
X119312164Y-84260000D01*
X119527836Y-83540000D02*
X119312164Y-83540000D01*
%TO.C,C12*%
X123540580Y-86390000D02*
X123259420Y-86390000D01*
X123540580Y-87410000D02*
X123259420Y-87410000D01*
%TO.C,C13*%
X124007836Y-86010000D02*
X123792164Y-86010000D01*
X124007836Y-85290000D02*
X123792164Y-85290000D01*
%TO.C,C14*%
X123540580Y-83910000D02*
X123259420Y-83910000D01*
X123540580Y-82890000D02*
X123259420Y-82890000D01*
%TO.C,C15*%
X124007836Y-84290000D02*
X123792164Y-84290000D01*
X124007836Y-85010000D02*
X123792164Y-85010000D01*
%TO.C,C16*%
X135990000Y-85240580D02*
X135990000Y-84959420D01*
X137010000Y-85240580D02*
X137010000Y-84959420D01*
%TO.C,C17*%
X123540000Y-111757836D02*
X123540000Y-111542164D01*
X124260000Y-111757836D02*
X124260000Y-111542164D01*
%TO.C,C18*%
X125310000Y-111757836D02*
X125310000Y-111542164D01*
X124590000Y-111757836D02*
X124590000Y-111542164D01*
%TO.C,C21*%
X126710000Y-111540580D02*
X126710000Y-111259420D01*
X125690000Y-111540580D02*
X125690000Y-111259420D01*
%TO.C,L1*%
X117410000Y-117237221D02*
X117410000Y-117562779D01*
X116390000Y-117237221D02*
X116390000Y-117562779D01*
%TO.C,R1*%
X130320000Y-98146359D02*
X130320000Y-98453641D01*
X131080000Y-98146359D02*
X131080000Y-98453641D01*
%TO.C,R2*%
X129080000Y-98146359D02*
X129080000Y-98453641D01*
X128320000Y-98146359D02*
X128320000Y-98453641D01*
%TO.C,R4*%
X139746359Y-94520000D02*
X140053641Y-94520000D01*
X139746359Y-95280000D02*
X140053641Y-95280000D01*
%TO.C,R5*%
X139746359Y-90280000D02*
X140053641Y-90280000D01*
X139746359Y-89520000D02*
X140053641Y-89520000D01*
%TO.C,R6*%
X139746359Y-97520000D02*
X140053641Y-97520000D01*
X139746359Y-98280000D02*
X140053641Y-98280000D01*
%TO.C,R9*%
X119553641Y-89520000D02*
X119246359Y-89520000D01*
X119553641Y-90280000D02*
X119246359Y-90280000D01*
%TO.C,R10*%
X119553641Y-87020000D02*
X119246359Y-87020000D01*
X119553641Y-87780000D02*
X119246359Y-87780000D01*
%TO.C,R11*%
X119553641Y-85280000D02*
X119246359Y-85280000D01*
X119553641Y-84520000D02*
X119246359Y-84520000D01*
%TO.C,R13*%
X123803641Y-88530000D02*
X123496359Y-88530000D01*
X123803641Y-87770000D02*
X123496359Y-87770000D01*
%TO.C,R14*%
X112077341Y-117839940D02*
X111860060Y-117622659D01*
X111539940Y-118377341D02*
X111322659Y-118160060D01*
%TO.C,R15*%
X139520000Y-80553641D02*
X139520000Y-80246359D01*
X140280000Y-80553641D02*
X140280000Y-80246359D01*
%TO.C,R18*%
X117803641Y-113520000D02*
X117496359Y-113520000D01*
X117803641Y-114280000D02*
X117496359Y-114280000D01*
%TO.C,R19*%
X120730000Y-111803641D02*
X120730000Y-111496359D01*
X119970000Y-111803641D02*
X119970000Y-111496359D01*
%TO.C,R20*%
X120053641Y-118520000D02*
X119746359Y-118520000D01*
X120053641Y-119280000D02*
X119746359Y-119280000D01*
%TO.C,R21*%
X122546359Y-118520000D02*
X122853641Y-118520000D01*
X122546359Y-119280000D02*
X122853641Y-119280000D01*
%TO.C,R22*%
X127953641Y-117480000D02*
X127646359Y-117480000D01*
X127953641Y-116720000D02*
X127646359Y-116720000D01*
%TO.C,R23*%
X127953641Y-115520000D02*
X127646359Y-115520000D01*
X127953641Y-116280000D02*
X127646359Y-116280000D01*
D14*
%TO.C,U3*%
X120001000Y-117673000D02*
G75*
G03*
X120001000Y-117673000I-254000J0D01*
G01*
D15*
X123270000Y-114700000D02*
X123270000Y-114150000D01*
X123270000Y-114150000D02*
X122720000Y-114150000D01*
X120520000Y-114150000D02*
X119970000Y-114150000D01*
X119970000Y-114150000D02*
X119970000Y-114700000D01*
X123270000Y-117450000D02*
X123270000Y-116900000D01*
X122720000Y-117450000D02*
X123270000Y-117450000D01*
X120320000Y-117650000D02*
X119770000Y-117100000D01*
%TO.C,U2*%
D16*
X131081904Y-83702380D02*
X131081904Y-84511904D01*
X131034285Y-84607142D01*
X130986666Y-84654761D01*
X130891428Y-84702380D01*
X130700952Y-84702380D01*
X130605714Y-84654761D01*
X130558095Y-84607142D01*
X130510476Y-84511904D01*
X130510476Y-83702380D01*
X130081904Y-83797619D02*
X130034285Y-83750000D01*
X129939047Y-83702380D01*
X129700952Y-83702380D01*
X129605714Y-83750000D01*
X129558095Y-83797619D01*
X129510476Y-83892857D01*
X129510476Y-83988095D01*
X129558095Y-84130952D01*
X130129523Y-84702380D01*
X129510476Y-84702380D01*
%TO.C,J1*%
X130133333Y-107252380D02*
X130133333Y-107966666D01*
X130180952Y-108109523D01*
X130276190Y-108204761D01*
X130419047Y-108252380D01*
X130514285Y-108252380D01*
X129133333Y-108252380D02*
X129704761Y-108252380D01*
X129419047Y-108252380D02*
X129419047Y-107252380D01*
X129514285Y-107395238D01*
X129609523Y-107490476D01*
X129704761Y-107538095D01*
%TO.C,C1*%
X125357142Y-97733333D02*
X125404761Y-97685714D01*
X125452380Y-97542857D01*
X125452380Y-97447619D01*
X125404761Y-97304761D01*
X125309523Y-97209523D01*
X125214285Y-97161904D01*
X125023809Y-97114285D01*
X124880952Y-97114285D01*
X124690476Y-97161904D01*
X124595238Y-97209523D01*
X124500000Y-97304761D01*
X124452380Y-97447619D01*
X124452380Y-97542857D01*
X124500000Y-97685714D01*
X124547619Y-97733333D01*
X125452380Y-98685714D02*
X125452380Y-98114285D01*
X125452380Y-98400000D02*
X124452380Y-98400000D01*
X124595238Y-98304761D01*
X124690476Y-98209523D01*
X124738095Y-98114285D01*
%TO.C,C8*%
X121466666Y-80757142D02*
X121514285Y-80804761D01*
X121657142Y-80852380D01*
X121752380Y-80852380D01*
X121895238Y-80804761D01*
X121990476Y-80709523D01*
X122038095Y-80614285D01*
X122085714Y-80423809D01*
X122085714Y-80280952D01*
X122038095Y-80090476D01*
X121990476Y-79995238D01*
X121895238Y-79900000D01*
X121752380Y-79852380D01*
X121657142Y-79852380D01*
X121514285Y-79900000D01*
X121466666Y-79947619D01*
X120895238Y-80280952D02*
X120990476Y-80233333D01*
X121038095Y-80185714D01*
X121085714Y-80090476D01*
X121085714Y-80042857D01*
X121038095Y-79947619D01*
X120990476Y-79900000D01*
X120895238Y-79852380D01*
X120704761Y-79852380D01*
X120609523Y-79900000D01*
X120561904Y-79947619D01*
X120514285Y-80042857D01*
X120514285Y-80090476D01*
X120561904Y-80185714D01*
X120609523Y-80233333D01*
X120704761Y-80280952D01*
X120895238Y-80280952D01*
X120990476Y-80328571D01*
X121038095Y-80376190D01*
X121085714Y-80471428D01*
X121085714Y-80661904D01*
X121038095Y-80757142D01*
X120990476Y-80804761D01*
X120895238Y-80852380D01*
X120704761Y-80852380D01*
X120609523Y-80804761D01*
X120561904Y-80757142D01*
X120514285Y-80661904D01*
X120514285Y-80471428D01*
X120561904Y-80376190D01*
X120609523Y-80328571D01*
X120704761Y-80280952D01*
%TO.C,R8*%
X121466666Y-82152380D02*
X121800000Y-81676190D01*
X122038095Y-82152380D02*
X122038095Y-81152380D01*
X121657142Y-81152380D01*
X121561904Y-81200000D01*
X121514285Y-81247619D01*
X121466666Y-81342857D01*
X121466666Y-81485714D01*
X121514285Y-81580952D01*
X121561904Y-81628571D01*
X121657142Y-81676190D01*
X122038095Y-81676190D01*
X120895238Y-81580952D02*
X120990476Y-81533333D01*
X121038095Y-81485714D01*
X121085714Y-81390476D01*
X121085714Y-81342857D01*
X121038095Y-81247619D01*
X120990476Y-81200000D01*
X120895238Y-81152380D01*
X120704761Y-81152380D01*
X120609523Y-81200000D01*
X120561904Y-81247619D01*
X120514285Y-81342857D01*
X120514285Y-81390476D01*
X120561904Y-81485714D01*
X120609523Y-81533333D01*
X120704761Y-81580952D01*
X120895238Y-81580952D01*
X120990476Y-81628571D01*
X121038095Y-81676190D01*
X121085714Y-81771428D01*
X121085714Y-81961904D01*
X121038095Y-82057142D01*
X120990476Y-82104761D01*
X120895238Y-82152380D01*
X120704761Y-82152380D01*
X120609523Y-82104761D01*
X120561904Y-82057142D01*
X120514285Y-81961904D01*
X120514285Y-81771428D01*
X120561904Y-81676190D01*
X120609523Y-81628571D01*
X120704761Y-81580952D01*
%TO.C,C19*%
X132637142Y-91307142D02*
X132684761Y-91259523D01*
X132732380Y-91116666D01*
X132732380Y-91021428D01*
X132684761Y-90878571D01*
X132589523Y-90783333D01*
X132494285Y-90735714D01*
X132303809Y-90688095D01*
X132160952Y-90688095D01*
X131970476Y-90735714D01*
X131875238Y-90783333D01*
X131780000Y-90878571D01*
X131732380Y-91021428D01*
X131732380Y-91116666D01*
X131780000Y-91259523D01*
X131827619Y-91307142D01*
X132732380Y-92259523D02*
X132732380Y-91688095D01*
X132732380Y-91973809D02*
X131732380Y-91973809D01*
X131875238Y-91878571D01*
X131970476Y-91783333D01*
X132018095Y-91688095D01*
X132732380Y-92735714D02*
X132732380Y-92926190D01*
X132684761Y-93021428D01*
X132637142Y-93069047D01*
X132494285Y-93164285D01*
X132303809Y-93211904D01*
X131922857Y-93211904D01*
X131827619Y-93164285D01*
X131780000Y-93116666D01*
X131732380Y-93021428D01*
X131732380Y-92830952D01*
X131780000Y-92735714D01*
X131827619Y-92688095D01*
X131922857Y-92640476D01*
X132160952Y-92640476D01*
X132256190Y-92688095D01*
X132303809Y-92735714D01*
X132351428Y-92830952D01*
X132351428Y-93021428D01*
X132303809Y-93116666D01*
X132256190Y-93164285D01*
X132160952Y-93211904D01*
%TO.C,C20*%
X126637142Y-91307142D02*
X126684761Y-91259523D01*
X126732380Y-91116666D01*
X126732380Y-91021428D01*
X126684761Y-90878571D01*
X126589523Y-90783333D01*
X126494285Y-90735714D01*
X126303809Y-90688095D01*
X126160952Y-90688095D01*
X125970476Y-90735714D01*
X125875238Y-90783333D01*
X125780000Y-90878571D01*
X125732380Y-91021428D01*
X125732380Y-91116666D01*
X125780000Y-91259523D01*
X125827619Y-91307142D01*
X125827619Y-91688095D02*
X125780000Y-91735714D01*
X125732380Y-91830952D01*
X125732380Y-92069047D01*
X125780000Y-92164285D01*
X125827619Y-92211904D01*
X125922857Y-92259523D01*
X126018095Y-92259523D01*
X126160952Y-92211904D01*
X126732380Y-91640476D01*
X126732380Y-92259523D01*
X125732380Y-92878571D02*
X125732380Y-92973809D01*
X125780000Y-93069047D01*
X125827619Y-93116666D01*
X125922857Y-93164285D01*
X126113333Y-93211904D01*
X126351428Y-93211904D01*
X126541904Y-93164285D01*
X126637142Y-93116666D01*
X126684761Y-93069047D01*
X126732380Y-92973809D01*
X126732380Y-92878571D01*
X126684761Y-92783333D01*
X126637142Y-92735714D01*
X126541904Y-92688095D01*
X126351428Y-92640476D01*
X126113333Y-92640476D01*
X125922857Y-92688095D01*
X125827619Y-92735714D01*
X125780000Y-92783333D01*
X125732380Y-92878571D01*
%TO.C,C22*%
X128027142Y-94307142D02*
X128074761Y-94259523D01*
X128122380Y-94116666D01*
X128122380Y-94021428D01*
X128074761Y-93878571D01*
X127979523Y-93783333D01*
X127884285Y-93735714D01*
X127693809Y-93688095D01*
X127550952Y-93688095D01*
X127360476Y-93735714D01*
X127265238Y-93783333D01*
X127170000Y-93878571D01*
X127122380Y-94021428D01*
X127122380Y-94116666D01*
X127170000Y-94259523D01*
X127217619Y-94307142D01*
X127217619Y-94688095D02*
X127170000Y-94735714D01*
X127122380Y-94830952D01*
X127122380Y-95069047D01*
X127170000Y-95164285D01*
X127217619Y-95211904D01*
X127312857Y-95259523D01*
X127408095Y-95259523D01*
X127550952Y-95211904D01*
X128122380Y-94640476D01*
X128122380Y-95259523D01*
X127217619Y-95640476D02*
X127170000Y-95688095D01*
X127122380Y-95783333D01*
X127122380Y-96021428D01*
X127170000Y-96116666D01*
X127217619Y-96164285D01*
X127312857Y-96211904D01*
X127408095Y-96211904D01*
X127550952Y-96164285D01*
X128122380Y-95592857D01*
X128122380Y-96211904D01*
%TO.C,C23*%
X129387142Y-94307142D02*
X129434761Y-94259523D01*
X129482380Y-94116666D01*
X129482380Y-94021428D01*
X129434761Y-93878571D01*
X129339523Y-93783333D01*
X129244285Y-93735714D01*
X129053809Y-93688095D01*
X128910952Y-93688095D01*
X128720476Y-93735714D01*
X128625238Y-93783333D01*
X128530000Y-93878571D01*
X128482380Y-94021428D01*
X128482380Y-94116666D01*
X128530000Y-94259523D01*
X128577619Y-94307142D01*
X128577619Y-94688095D02*
X128530000Y-94735714D01*
X128482380Y-94830952D01*
X128482380Y-95069047D01*
X128530000Y-95164285D01*
X128577619Y-95211904D01*
X128672857Y-95259523D01*
X128768095Y-95259523D01*
X128910952Y-95211904D01*
X129482380Y-94640476D01*
X129482380Y-95259523D01*
X128482380Y-95592857D02*
X128482380Y-96211904D01*
X128863333Y-95878571D01*
X128863333Y-96021428D01*
X128910952Y-96116666D01*
X128958571Y-96164285D01*
X129053809Y-96211904D01*
X129291904Y-96211904D01*
X129387142Y-96164285D01*
X129434761Y-96116666D01*
X129482380Y-96021428D01*
X129482380Y-95735714D01*
X129434761Y-95640476D01*
X129387142Y-95592857D01*
%TO.C,R17*%
X126882380Y-90807142D02*
X126406190Y-90473809D01*
X126882380Y-90235714D02*
X125882380Y-90235714D01*
X125882380Y-90616666D01*
X125930000Y-90711904D01*
X125977619Y-90759523D01*
X126072857Y-90807142D01*
X126215714Y-90807142D01*
X126310952Y-90759523D01*
X126358571Y-90711904D01*
X126406190Y-90616666D01*
X126406190Y-90235714D01*
X126882380Y-91759523D02*
X126882380Y-91188095D01*
X126882380Y-91473809D02*
X125882380Y-91473809D01*
X126025238Y-91378571D01*
X126120476Y-91283333D01*
X126168095Y-91188095D01*
X125882380Y-92092857D02*
X125882380Y-92759523D01*
X126882380Y-92330952D01*
%TO.C,R24*%
X131222380Y-91807142D02*
X130746190Y-91473809D01*
X131222380Y-91235714D02*
X130222380Y-91235714D01*
X130222380Y-91616666D01*
X130270000Y-91711904D01*
X130317619Y-91759523D01*
X130412857Y-91807142D01*
X130555714Y-91807142D01*
X130650952Y-91759523D01*
X130698571Y-91711904D01*
X130746190Y-91616666D01*
X130746190Y-91235714D01*
X130317619Y-92188095D02*
X130270000Y-92235714D01*
X130222380Y-92330952D01*
X130222380Y-92569047D01*
X130270000Y-92664285D01*
X130317619Y-92711904D01*
X130412857Y-92759523D01*
X130508095Y-92759523D01*
X130650952Y-92711904D01*
X131222380Y-92140476D01*
X131222380Y-92759523D01*
X130555714Y-93616666D02*
X131222380Y-93616666D01*
X130174761Y-93378571D02*
X130889047Y-93140476D01*
X130889047Y-93759523D01*
%TO.C,R25*%
X125382380Y-91807142D02*
X124906190Y-91473809D01*
X125382380Y-91235714D02*
X124382380Y-91235714D01*
X124382380Y-91616666D01*
X124430000Y-91711904D01*
X124477619Y-91759523D01*
X124572857Y-91807142D01*
X124715714Y-91807142D01*
X124810952Y-91759523D01*
X124858571Y-91711904D01*
X124906190Y-91616666D01*
X124906190Y-91235714D01*
X124477619Y-92188095D02*
X124430000Y-92235714D01*
X124382380Y-92330952D01*
X124382380Y-92569047D01*
X124430000Y-92664285D01*
X124477619Y-92711904D01*
X124572857Y-92759523D01*
X124668095Y-92759523D01*
X124810952Y-92711904D01*
X125382380Y-92140476D01*
X125382380Y-92759523D01*
X124382380Y-93664285D02*
X124382380Y-93188095D01*
X124858571Y-93140476D01*
X124810952Y-93188095D01*
X124763333Y-93283333D01*
X124763333Y-93521428D01*
X124810952Y-93616666D01*
X124858571Y-93664285D01*
X124953809Y-93711904D01*
X125191904Y-93711904D01*
X125287142Y-93664285D01*
X125334761Y-93616666D01*
X125382380Y-93521428D01*
X125382380Y-93283333D01*
X125334761Y-93188095D01*
X125287142Y-93140476D01*
%TO.C,R26*%
X131972380Y-94557142D02*
X131496190Y-94223809D01*
X131972380Y-93985714D02*
X130972380Y-93985714D01*
X130972380Y-94366666D01*
X131020000Y-94461904D01*
X131067619Y-94509523D01*
X131162857Y-94557142D01*
X131305714Y-94557142D01*
X131400952Y-94509523D01*
X131448571Y-94461904D01*
X131496190Y-94366666D01*
X131496190Y-93985714D01*
X131067619Y-94938095D02*
X131020000Y-94985714D01*
X130972380Y-95080952D01*
X130972380Y-95319047D01*
X131020000Y-95414285D01*
X131067619Y-95461904D01*
X131162857Y-95509523D01*
X131258095Y-95509523D01*
X131400952Y-95461904D01*
X131972380Y-94890476D01*
X131972380Y-95509523D01*
X130972380Y-96366666D02*
X130972380Y-96176190D01*
X131020000Y-96080952D01*
X131067619Y-96033333D01*
X131210476Y-95938095D01*
X131400952Y-95890476D01*
X131781904Y-95890476D01*
X131877142Y-95938095D01*
X131924761Y-95985714D01*
X131972380Y-96080952D01*
X131972380Y-96271428D01*
X131924761Y-96366666D01*
X131877142Y-96414285D01*
X131781904Y-96461904D01*
X131543809Y-96461904D01*
X131448571Y-96414285D01*
X131400952Y-96366666D01*
X131353333Y-96271428D01*
X131353333Y-96080952D01*
X131400952Y-95985714D01*
X131448571Y-95938095D01*
X131543809Y-95890476D01*
%TO.C,R27*%
X127972380Y-94557142D02*
X127496190Y-94223809D01*
X127972380Y-93985714D02*
X126972380Y-93985714D01*
X126972380Y-94366666D01*
X127020000Y-94461904D01*
X127067619Y-94509523D01*
X127162857Y-94557142D01*
X127305714Y-94557142D01*
X127400952Y-94509523D01*
X127448571Y-94461904D01*
X127496190Y-94366666D01*
X127496190Y-93985714D01*
X127067619Y-94938095D02*
X127020000Y-94985714D01*
X126972380Y-95080952D01*
X126972380Y-95319047D01*
X127020000Y-95414285D01*
X127067619Y-95461904D01*
X127162857Y-95509523D01*
X127258095Y-95509523D01*
X127400952Y-95461904D01*
X127972380Y-94890476D01*
X127972380Y-95509523D01*
X126972380Y-95842857D02*
X126972380Y-96509523D01*
X127972380Y-96080952D01*
%TO.C,R30*%
X138142857Y-94152380D02*
X138476190Y-93676190D01*
X138714285Y-94152380D02*
X138714285Y-93152380D01*
X138333333Y-93152380D01*
X138238095Y-93200000D01*
X138190476Y-93247619D01*
X138142857Y-93342857D01*
X138142857Y-93485714D01*
X138190476Y-93580952D01*
X138238095Y-93628571D01*
X138333333Y-93676190D01*
X138714285Y-93676190D01*
X137809523Y-93152380D02*
X137190476Y-93152380D01*
X137523809Y-93533333D01*
X137380952Y-93533333D01*
X137285714Y-93580952D01*
X137238095Y-93628571D01*
X137190476Y-93723809D01*
X137190476Y-93961904D01*
X137238095Y-94057142D01*
X137285714Y-94104761D01*
X137380952Y-94152380D01*
X137666666Y-94152380D01*
X137761904Y-94104761D01*
X137809523Y-94057142D01*
X136571428Y-93152380D02*
X136476190Y-93152380D01*
X136380952Y-93200000D01*
X136333333Y-93247619D01*
X136285714Y-93342857D01*
X136238095Y-93533333D01*
X136238095Y-93771428D01*
X136285714Y-93961904D01*
X136333333Y-94057142D01*
X136380952Y-94104761D01*
X136476190Y-94152380D01*
X136571428Y-94152380D01*
X136666666Y-94104761D01*
X136714285Y-94057142D01*
X136761904Y-93961904D01*
X136809523Y-93771428D01*
X136809523Y-93533333D01*
X136761904Y-93342857D01*
X136714285Y-93247619D01*
X136666666Y-93200000D01*
X136571428Y-93152380D01*
%TO.C,R29*%
X138142857Y-92852380D02*
X138476190Y-92376190D01*
X138714285Y-92852380D02*
X138714285Y-91852380D01*
X138333333Y-91852380D01*
X138238095Y-91900000D01*
X138190476Y-91947619D01*
X138142857Y-92042857D01*
X138142857Y-92185714D01*
X138190476Y-92280952D01*
X138238095Y-92328571D01*
X138333333Y-92376190D01*
X138714285Y-92376190D01*
X137761904Y-91947619D02*
X137714285Y-91900000D01*
X137619047Y-91852380D01*
X137380952Y-91852380D01*
X137285714Y-91900000D01*
X137238095Y-91947619D01*
X137190476Y-92042857D01*
X137190476Y-92138095D01*
X137238095Y-92280952D01*
X137809523Y-92852380D01*
X137190476Y-92852380D01*
X136714285Y-92852380D02*
X136523809Y-92852380D01*
X136428571Y-92804761D01*
X136380952Y-92757142D01*
X136285714Y-92614285D01*
X136238095Y-92423809D01*
X136238095Y-92042857D01*
X136285714Y-91947619D01*
X136333333Y-91900000D01*
X136428571Y-91852380D01*
X136619047Y-91852380D01*
X136714285Y-91900000D01*
X136761904Y-91947619D01*
X136809523Y-92042857D01*
X136809523Y-92280952D01*
X136761904Y-92376190D01*
X136714285Y-92423809D01*
X136619047Y-92471428D01*
X136428571Y-92471428D01*
X136333333Y-92423809D01*
X136285714Y-92376190D01*
X136238095Y-92280952D01*
%TO.C,R28*%
X138142857Y-97752380D02*
X138476190Y-97276190D01*
X138714285Y-97752380D02*
X138714285Y-96752380D01*
X138333333Y-96752380D01*
X138238095Y-96800000D01*
X138190476Y-96847619D01*
X138142857Y-96942857D01*
X138142857Y-97085714D01*
X138190476Y-97180952D01*
X138238095Y-97228571D01*
X138333333Y-97276190D01*
X138714285Y-97276190D01*
X137761904Y-96847619D02*
X137714285Y-96800000D01*
X137619047Y-96752380D01*
X137380952Y-96752380D01*
X137285714Y-96800000D01*
X137238095Y-96847619D01*
X137190476Y-96942857D01*
X137190476Y-97038095D01*
X137238095Y-97180952D01*
X137809523Y-97752380D01*
X137190476Y-97752380D01*
X136619047Y-97180952D02*
X136714285Y-97133333D01*
X136761904Y-97085714D01*
X136809523Y-96990476D01*
X136809523Y-96942857D01*
X136761904Y-96847619D01*
X136714285Y-96800000D01*
X136619047Y-96752380D01*
X136428571Y-96752380D01*
X136333333Y-96800000D01*
X136285714Y-96847619D01*
X136238095Y-96942857D01*
X136238095Y-96990476D01*
X136285714Y-97085714D01*
X136333333Y-97133333D01*
X136428571Y-97180952D01*
X136619047Y-97180952D01*
X136714285Y-97228571D01*
X136761904Y-97276190D01*
X136809523Y-97371428D01*
X136809523Y-97561904D01*
X136761904Y-97657142D01*
X136714285Y-97704761D01*
X136619047Y-97752380D01*
X136428571Y-97752380D01*
X136333333Y-97704761D01*
X136285714Y-97657142D01*
X136238095Y-97561904D01*
X136238095Y-97371428D01*
X136285714Y-97276190D01*
X136333333Y-97228571D01*
X136428571Y-97180952D01*
%TO.C,C7*%
X121566666Y-91957142D02*
X121614285Y-92004761D01*
X121757142Y-92052380D01*
X121852380Y-92052380D01*
X121995238Y-92004761D01*
X122090476Y-91909523D01*
X122138095Y-91814285D01*
X122185714Y-91623809D01*
X122185714Y-91480952D01*
X122138095Y-91290476D01*
X122090476Y-91195238D01*
X121995238Y-91100000D01*
X121852380Y-91052380D01*
X121757142Y-91052380D01*
X121614285Y-91100000D01*
X121566666Y-91147619D01*
X121233333Y-91052380D02*
X120566666Y-91052380D01*
X120995238Y-92052380D01*
%TO.C,R3*%
X120852380Y-95833333D02*
X120376190Y-95500000D01*
X120852380Y-95261904D02*
X119852380Y-95261904D01*
X119852380Y-95642857D01*
X119900000Y-95738095D01*
X119947619Y-95785714D01*
X120042857Y-95833333D01*
X120185714Y-95833333D01*
X120280952Y-95785714D01*
X120328571Y-95738095D01*
X120376190Y-95642857D01*
X120376190Y-95261904D01*
X119852380Y-96166666D02*
X119852380Y-96785714D01*
X120233333Y-96452380D01*
X120233333Y-96595238D01*
X120280952Y-96690476D01*
X120328571Y-96738095D01*
X120423809Y-96785714D01*
X120661904Y-96785714D01*
X120757142Y-96738095D01*
X120804761Y-96690476D01*
X120852380Y-96595238D01*
X120852380Y-96309523D01*
X120804761Y-96214285D01*
X120757142Y-96166666D01*
%TO.C,R7*%
X121566666Y-93252380D02*
X121900000Y-92776190D01*
X122138095Y-93252380D02*
X122138095Y-92252380D01*
X121757142Y-92252380D01*
X121661904Y-92300000D01*
X121614285Y-92347619D01*
X121566666Y-92442857D01*
X121566666Y-92585714D01*
X121614285Y-92680952D01*
X121661904Y-92728571D01*
X121757142Y-92776190D01*
X122138095Y-92776190D01*
X121233333Y-92252380D02*
X120566666Y-92252380D01*
X120995238Y-93252380D01*
%TO.C,R12*%
X120752380Y-98357142D02*
X120276190Y-98023809D01*
X120752380Y-97785714D02*
X119752380Y-97785714D01*
X119752380Y-98166666D01*
X119800000Y-98261904D01*
X119847619Y-98309523D01*
X119942857Y-98357142D01*
X120085714Y-98357142D01*
X120180952Y-98309523D01*
X120228571Y-98261904D01*
X120276190Y-98166666D01*
X120276190Y-97785714D01*
X120752380Y-99309523D02*
X120752380Y-98738095D01*
X120752380Y-99023809D02*
X119752380Y-99023809D01*
X119895238Y-98928571D01*
X119990476Y-98833333D01*
X120038095Y-98738095D01*
X119847619Y-99690476D02*
X119800000Y-99738095D01*
X119752380Y-99833333D01*
X119752380Y-100071428D01*
X119800000Y-100166666D01*
X119847619Y-100214285D01*
X119942857Y-100261904D01*
X120038095Y-100261904D01*
X120180952Y-100214285D01*
X120752380Y-99642857D01*
X120752380Y-100261904D01*
%TO.C,C2*%
X121087142Y-108133333D02*
X121134761Y-108085714D01*
X121182380Y-107942857D01*
X121182380Y-107847619D01*
X121134761Y-107704761D01*
X121039523Y-107609523D01*
X120944285Y-107561904D01*
X120753809Y-107514285D01*
X120610952Y-107514285D01*
X120420476Y-107561904D01*
X120325238Y-107609523D01*
X120230000Y-107704761D01*
X120182380Y-107847619D01*
X120182380Y-107942857D01*
X120230000Y-108085714D01*
X120277619Y-108133333D01*
X120277619Y-108514285D02*
X120230000Y-108561904D01*
X120182380Y-108657142D01*
X120182380Y-108895238D01*
X120230000Y-108990476D01*
X120277619Y-109038095D01*
X120372857Y-109085714D01*
X120468095Y-109085714D01*
X120610952Y-109038095D01*
X121182380Y-108466666D01*
X121182380Y-109085714D01*
%TO.C,C3*%
X138827142Y-108733333D02*
X138874761Y-108685714D01*
X138922380Y-108542857D01*
X138922380Y-108447619D01*
X138874761Y-108304761D01*
X138779523Y-108209523D01*
X138684285Y-108161904D01*
X138493809Y-108114285D01*
X138350952Y-108114285D01*
X138160476Y-108161904D01*
X138065238Y-108209523D01*
X137970000Y-108304761D01*
X137922380Y-108447619D01*
X137922380Y-108542857D01*
X137970000Y-108685714D01*
X138017619Y-108733333D01*
X137922380Y-109066666D02*
X137922380Y-109685714D01*
X138303333Y-109352380D01*
X138303333Y-109495238D01*
X138350952Y-109590476D01*
X138398571Y-109638095D01*
X138493809Y-109685714D01*
X138731904Y-109685714D01*
X138827142Y-109638095D01*
X138874761Y-109590476D01*
X138922380Y-109495238D01*
X138922380Y-109209523D01*
X138874761Y-109114285D01*
X138827142Y-109066666D01*
%TO.C,C4*%
X138166666Y-96457142D02*
X138214285Y-96504761D01*
X138357142Y-96552380D01*
X138452380Y-96552380D01*
X138595238Y-96504761D01*
X138690476Y-96409523D01*
X138738095Y-96314285D01*
X138785714Y-96123809D01*
X138785714Y-95980952D01*
X138738095Y-95790476D01*
X138690476Y-95695238D01*
X138595238Y-95600000D01*
X138452380Y-95552380D01*
X138357142Y-95552380D01*
X138214285Y-95600000D01*
X138166666Y-95647619D01*
X137309523Y-95885714D02*
X137309523Y-96552380D01*
X137547619Y-95504761D02*
X137785714Y-96219047D01*
X137166666Y-96219047D01*
%TO.C,C5*%
X138166666Y-91457142D02*
X138214285Y-91504761D01*
X138357142Y-91552380D01*
X138452380Y-91552380D01*
X138595238Y-91504761D01*
X138690476Y-91409523D01*
X138738095Y-91314285D01*
X138785714Y-91123809D01*
X138785714Y-90980952D01*
X138738095Y-90790476D01*
X138690476Y-90695238D01*
X138595238Y-90600000D01*
X138452380Y-90552380D01*
X138357142Y-90552380D01*
X138214285Y-90600000D01*
X138166666Y-90647619D01*
X137261904Y-90552380D02*
X137738095Y-90552380D01*
X137785714Y-91028571D01*
X137738095Y-90980952D01*
X137642857Y-90933333D01*
X137404761Y-90933333D01*
X137309523Y-90980952D01*
X137261904Y-91028571D01*
X137214285Y-91123809D01*
X137214285Y-91361904D01*
X137261904Y-91457142D01*
X137309523Y-91504761D01*
X137404761Y-91552380D01*
X137642857Y-91552380D01*
X137738095Y-91504761D01*
X137785714Y-91457142D01*
%TO.C,C6*%
X140066666Y-100417142D02*
X140114285Y-100464761D01*
X140257142Y-100512380D01*
X140352380Y-100512380D01*
X140495238Y-100464761D01*
X140590476Y-100369523D01*
X140638095Y-100274285D01*
X140685714Y-100083809D01*
X140685714Y-99940952D01*
X140638095Y-99750476D01*
X140590476Y-99655238D01*
X140495238Y-99560000D01*
X140352380Y-99512380D01*
X140257142Y-99512380D01*
X140114285Y-99560000D01*
X140066666Y-99607619D01*
X139209523Y-99512380D02*
X139400000Y-99512380D01*
X139495238Y-99560000D01*
X139542857Y-99607619D01*
X139638095Y-99750476D01*
X139685714Y-99940952D01*
X139685714Y-100321904D01*
X139638095Y-100417142D01*
X139590476Y-100464761D01*
X139495238Y-100512380D01*
X139304761Y-100512380D01*
X139209523Y-100464761D01*
X139161904Y-100417142D01*
X139114285Y-100321904D01*
X139114285Y-100083809D01*
X139161904Y-99988571D01*
X139209523Y-99940952D01*
X139304761Y-99893333D01*
X139495238Y-99893333D01*
X139590476Y-99940952D01*
X139638095Y-99988571D01*
X139685714Y-100083809D01*
%TO.C,C9*%
X121566666Y-89157142D02*
X121614285Y-89204761D01*
X121757142Y-89252380D01*
X121852380Y-89252380D01*
X121995238Y-89204761D01*
X122090476Y-89109523D01*
X122138095Y-89014285D01*
X122185714Y-88823809D01*
X122185714Y-88680952D01*
X122138095Y-88490476D01*
X122090476Y-88395238D01*
X121995238Y-88300000D01*
X121852380Y-88252380D01*
X121757142Y-88252380D01*
X121614285Y-88300000D01*
X121566666Y-88347619D01*
X121090476Y-89252380D02*
X120900000Y-89252380D01*
X120804761Y-89204761D01*
X120757142Y-89157142D01*
X120661904Y-89014285D01*
X120614285Y-88823809D01*
X120614285Y-88442857D01*
X120661904Y-88347619D01*
X120709523Y-88300000D01*
X120804761Y-88252380D01*
X120995238Y-88252380D01*
X121090476Y-88300000D01*
X121138095Y-88347619D01*
X121185714Y-88442857D01*
X121185714Y-88680952D01*
X121138095Y-88776190D01*
X121090476Y-88823809D01*
X120995238Y-88871428D01*
X120804761Y-88871428D01*
X120709523Y-88823809D01*
X120661904Y-88776190D01*
X120614285Y-88680952D01*
%TO.C,C12*%
X124142857Y-81257142D02*
X124190476Y-81304761D01*
X124333333Y-81352380D01*
X124428571Y-81352380D01*
X124571428Y-81304761D01*
X124666666Y-81209523D01*
X124714285Y-81114285D01*
X124761904Y-80923809D01*
X124761904Y-80780952D01*
X124714285Y-80590476D01*
X124666666Y-80495238D01*
X124571428Y-80400000D01*
X124428571Y-80352380D01*
X124333333Y-80352380D01*
X124190476Y-80400000D01*
X124142857Y-80447619D01*
X123190476Y-81352380D02*
X123761904Y-81352380D01*
X123476190Y-81352380D02*
X123476190Y-80352380D01*
X123571428Y-80495238D01*
X123666666Y-80590476D01*
X123761904Y-80638095D01*
X122809523Y-80447619D02*
X122761904Y-80400000D01*
X122666666Y-80352380D01*
X122428571Y-80352380D01*
X122333333Y-80400000D01*
X122285714Y-80447619D01*
X122238095Y-80542857D01*
X122238095Y-80638095D01*
X122285714Y-80780952D01*
X122857142Y-81352380D01*
X122238095Y-81352380D01*
%TO.C,C13*%
X124142857Y-80057142D02*
X124190476Y-80104761D01*
X124333333Y-80152380D01*
X124428571Y-80152380D01*
X124571428Y-80104761D01*
X124666666Y-80009523D01*
X124714285Y-79914285D01*
X124761904Y-79723809D01*
X124761904Y-79580952D01*
X124714285Y-79390476D01*
X124666666Y-79295238D01*
X124571428Y-79200000D01*
X124428571Y-79152380D01*
X124333333Y-79152380D01*
X124190476Y-79200000D01*
X124142857Y-79247619D01*
X123190476Y-80152380D02*
X123761904Y-80152380D01*
X123476190Y-80152380D02*
X123476190Y-79152380D01*
X123571428Y-79295238D01*
X123666666Y-79390476D01*
X123761904Y-79438095D01*
X122857142Y-79152380D02*
X122238095Y-79152380D01*
X122571428Y-79533333D01*
X122428571Y-79533333D01*
X122333333Y-79580952D01*
X122285714Y-79628571D01*
X122238095Y-79723809D01*
X122238095Y-79961904D01*
X122285714Y-80057142D01*
X122333333Y-80104761D01*
X122428571Y-80152380D01*
X122714285Y-80152380D01*
X122809523Y-80104761D01*
X122857142Y-80057142D01*
%TO.C,C14*%
X124142857Y-77557142D02*
X124190476Y-77604761D01*
X124333333Y-77652380D01*
X124428571Y-77652380D01*
X124571428Y-77604761D01*
X124666666Y-77509523D01*
X124714285Y-77414285D01*
X124761904Y-77223809D01*
X124761904Y-77080952D01*
X124714285Y-76890476D01*
X124666666Y-76795238D01*
X124571428Y-76700000D01*
X124428571Y-76652380D01*
X124333333Y-76652380D01*
X124190476Y-76700000D01*
X124142857Y-76747619D01*
X123190476Y-77652380D02*
X123761904Y-77652380D01*
X123476190Y-77652380D02*
X123476190Y-76652380D01*
X123571428Y-76795238D01*
X123666666Y-76890476D01*
X123761904Y-76938095D01*
X122333333Y-76985714D02*
X122333333Y-77652380D01*
X122571428Y-76604761D02*
X122809523Y-77319047D01*
X122190476Y-77319047D01*
%TO.C,C15*%
X124142857Y-78757142D02*
X124190476Y-78804761D01*
X124333333Y-78852380D01*
X124428571Y-78852380D01*
X124571428Y-78804761D01*
X124666666Y-78709523D01*
X124714285Y-78614285D01*
X124761904Y-78423809D01*
X124761904Y-78280952D01*
X124714285Y-78090476D01*
X124666666Y-77995238D01*
X124571428Y-77900000D01*
X124428571Y-77852380D01*
X124333333Y-77852380D01*
X124190476Y-77900000D01*
X124142857Y-77947619D01*
X123190476Y-78852380D02*
X123761904Y-78852380D01*
X123476190Y-78852380D02*
X123476190Y-77852380D01*
X123571428Y-77995238D01*
X123666666Y-78090476D01*
X123761904Y-78138095D01*
X122285714Y-77852380D02*
X122761904Y-77852380D01*
X122809523Y-78328571D01*
X122761904Y-78280952D01*
X122666666Y-78233333D01*
X122428571Y-78233333D01*
X122333333Y-78280952D01*
X122285714Y-78328571D01*
X122238095Y-78423809D01*
X122238095Y-78661904D01*
X122285714Y-78757142D01*
X122333333Y-78804761D01*
X122428571Y-78852380D01*
X122666666Y-78852380D01*
X122761904Y-78804761D01*
X122809523Y-78757142D01*
%TO.C,C16*%
X138287142Y-84457142D02*
X138334761Y-84409523D01*
X138382380Y-84266666D01*
X138382380Y-84171428D01*
X138334761Y-84028571D01*
X138239523Y-83933333D01*
X138144285Y-83885714D01*
X137953809Y-83838095D01*
X137810952Y-83838095D01*
X137620476Y-83885714D01*
X137525238Y-83933333D01*
X137430000Y-84028571D01*
X137382380Y-84171428D01*
X137382380Y-84266666D01*
X137430000Y-84409523D01*
X137477619Y-84457142D01*
X138382380Y-85409523D02*
X138382380Y-84838095D01*
X138382380Y-85123809D02*
X137382380Y-85123809D01*
X137525238Y-85028571D01*
X137620476Y-84933333D01*
X137668095Y-84838095D01*
X137382380Y-86266666D02*
X137382380Y-86076190D01*
X137430000Y-85980952D01*
X137477619Y-85933333D01*
X137620476Y-85838095D01*
X137810952Y-85790476D01*
X138191904Y-85790476D01*
X138287142Y-85838095D01*
X138334761Y-85885714D01*
X138382380Y-85980952D01*
X138382380Y-86171428D01*
X138334761Y-86266666D01*
X138287142Y-86314285D01*
X138191904Y-86361904D01*
X137953809Y-86361904D01*
X137858571Y-86314285D01*
X137810952Y-86266666D01*
X137763333Y-86171428D01*
X137763333Y-85980952D01*
X137810952Y-85885714D01*
X137858571Y-85838095D01*
X137953809Y-85790476D01*
%TO.C,C17*%
X124357142Y-107957142D02*
X124404761Y-107909523D01*
X124452380Y-107766666D01*
X124452380Y-107671428D01*
X124404761Y-107528571D01*
X124309523Y-107433333D01*
X124214285Y-107385714D01*
X124023809Y-107338095D01*
X123880952Y-107338095D01*
X123690476Y-107385714D01*
X123595238Y-107433333D01*
X123500000Y-107528571D01*
X123452380Y-107671428D01*
X123452380Y-107766666D01*
X123500000Y-107909523D01*
X123547619Y-107957142D01*
X124452380Y-108909523D02*
X124452380Y-108338095D01*
X124452380Y-108623809D02*
X123452380Y-108623809D01*
X123595238Y-108528571D01*
X123690476Y-108433333D01*
X123738095Y-108338095D01*
X123452380Y-109242857D02*
X123452380Y-109909523D01*
X124452380Y-109480952D01*
%TO.C,C18*%
X125657142Y-107857142D02*
X125704761Y-107809523D01*
X125752380Y-107666666D01*
X125752380Y-107571428D01*
X125704761Y-107428571D01*
X125609523Y-107333333D01*
X125514285Y-107285714D01*
X125323809Y-107238095D01*
X125180952Y-107238095D01*
X124990476Y-107285714D01*
X124895238Y-107333333D01*
X124800000Y-107428571D01*
X124752380Y-107571428D01*
X124752380Y-107666666D01*
X124800000Y-107809523D01*
X124847619Y-107857142D01*
X125752380Y-108809523D02*
X125752380Y-108238095D01*
X125752380Y-108523809D02*
X124752380Y-108523809D01*
X124895238Y-108428571D01*
X124990476Y-108333333D01*
X125038095Y-108238095D01*
X125180952Y-109380952D02*
X125133333Y-109285714D01*
X125085714Y-109238095D01*
X124990476Y-109190476D01*
X124942857Y-109190476D01*
X124847619Y-109238095D01*
X124800000Y-109285714D01*
X124752380Y-109380952D01*
X124752380Y-109571428D01*
X124800000Y-109666666D01*
X124847619Y-109714285D01*
X124942857Y-109761904D01*
X124990476Y-109761904D01*
X125085714Y-109714285D01*
X125133333Y-109666666D01*
X125180952Y-109571428D01*
X125180952Y-109380952D01*
X125228571Y-109285714D01*
X125276190Y-109238095D01*
X125371428Y-109190476D01*
X125561904Y-109190476D01*
X125657142Y-109238095D01*
X125704761Y-109285714D01*
X125752380Y-109380952D01*
X125752380Y-109571428D01*
X125704761Y-109666666D01*
X125657142Y-109714285D01*
X125561904Y-109761904D01*
X125371428Y-109761904D01*
X125276190Y-109714285D01*
X125228571Y-109666666D01*
X125180952Y-109571428D01*
%TO.C,C21*%
X127057142Y-107957142D02*
X127104761Y-107909523D01*
X127152380Y-107766666D01*
X127152380Y-107671428D01*
X127104761Y-107528571D01*
X127009523Y-107433333D01*
X126914285Y-107385714D01*
X126723809Y-107338095D01*
X126580952Y-107338095D01*
X126390476Y-107385714D01*
X126295238Y-107433333D01*
X126200000Y-107528571D01*
X126152380Y-107671428D01*
X126152380Y-107766666D01*
X126200000Y-107909523D01*
X126247619Y-107957142D01*
X126247619Y-108338095D02*
X126200000Y-108385714D01*
X126152380Y-108480952D01*
X126152380Y-108719047D01*
X126200000Y-108814285D01*
X126247619Y-108861904D01*
X126342857Y-108909523D01*
X126438095Y-108909523D01*
X126580952Y-108861904D01*
X127152380Y-108290476D01*
X127152380Y-108909523D01*
X127152380Y-109861904D02*
X127152380Y-109290476D01*
X127152380Y-109576190D02*
X126152380Y-109576190D01*
X126295238Y-109480952D01*
X126390476Y-109385714D01*
X126438095Y-109290476D01*
%TO.C,L1*%
X117066666Y-115752380D02*
X117542857Y-115752380D01*
X117542857Y-114752380D01*
X116209523Y-115752380D02*
X116780952Y-115752380D01*
X116495238Y-115752380D02*
X116495238Y-114752380D01*
X116590476Y-114895238D01*
X116685714Y-114990476D01*
X116780952Y-115038095D01*
%TO.C,R1*%
X132352380Y-97733333D02*
X131876190Y-97400000D01*
X132352380Y-97161904D02*
X131352380Y-97161904D01*
X131352380Y-97542857D01*
X131400000Y-97638095D01*
X131447619Y-97685714D01*
X131542857Y-97733333D01*
X131685714Y-97733333D01*
X131780952Y-97685714D01*
X131828571Y-97638095D01*
X131876190Y-97542857D01*
X131876190Y-97161904D01*
X132352380Y-98685714D02*
X132352380Y-98114285D01*
X132352380Y-98400000D02*
X131352380Y-98400000D01*
X131495238Y-98304761D01*
X131590476Y-98209523D01*
X131638095Y-98114285D01*
%TO.C,R2*%
X127982380Y-97733333D02*
X127506190Y-97400000D01*
X127982380Y-97161904D02*
X126982380Y-97161904D01*
X126982380Y-97542857D01*
X127030000Y-97638095D01*
X127077619Y-97685714D01*
X127172857Y-97733333D01*
X127315714Y-97733333D01*
X127410952Y-97685714D01*
X127458571Y-97638095D01*
X127506190Y-97542857D01*
X127506190Y-97161904D01*
X127077619Y-98114285D02*
X127030000Y-98161904D01*
X126982380Y-98257142D01*
X126982380Y-98495238D01*
X127030000Y-98590476D01*
X127077619Y-98638095D01*
X127172857Y-98685714D01*
X127268095Y-98685714D01*
X127410952Y-98638095D01*
X127982380Y-98066666D01*
X127982380Y-98685714D01*
%TO.C,R4*%
X138166666Y-95352380D02*
X138500000Y-94876190D01*
X138738095Y-95352380D02*
X138738095Y-94352380D01*
X138357142Y-94352380D01*
X138261904Y-94400000D01*
X138214285Y-94447619D01*
X138166666Y-94542857D01*
X138166666Y-94685714D01*
X138214285Y-94780952D01*
X138261904Y-94828571D01*
X138357142Y-94876190D01*
X138738095Y-94876190D01*
X137309523Y-94685714D02*
X137309523Y-95352380D01*
X137547619Y-94304761D02*
X137785714Y-95019047D01*
X137166666Y-95019047D01*
%TO.C,R5*%
X138166666Y-90352380D02*
X138500000Y-89876190D01*
X138738095Y-90352380D02*
X138738095Y-89352380D01*
X138357142Y-89352380D01*
X138261904Y-89400000D01*
X138214285Y-89447619D01*
X138166666Y-89542857D01*
X138166666Y-89685714D01*
X138214285Y-89780952D01*
X138261904Y-89828571D01*
X138357142Y-89876190D01*
X138738095Y-89876190D01*
X137261904Y-89352380D02*
X137738095Y-89352380D01*
X137785714Y-89828571D01*
X137738095Y-89780952D01*
X137642857Y-89733333D01*
X137404761Y-89733333D01*
X137309523Y-89780952D01*
X137261904Y-89828571D01*
X137214285Y-89923809D01*
X137214285Y-90161904D01*
X137261904Y-90257142D01*
X137309523Y-90304761D01*
X137404761Y-90352380D01*
X137642857Y-90352380D01*
X137738095Y-90304761D01*
X137785714Y-90257142D01*
%TO.C,R6*%
X138166666Y-99052380D02*
X138500000Y-98576190D01*
X138738095Y-99052380D02*
X138738095Y-98052380D01*
X138357142Y-98052380D01*
X138261904Y-98100000D01*
X138214285Y-98147619D01*
X138166666Y-98242857D01*
X138166666Y-98385714D01*
X138214285Y-98480952D01*
X138261904Y-98528571D01*
X138357142Y-98576190D01*
X138738095Y-98576190D01*
X137309523Y-98052380D02*
X137500000Y-98052380D01*
X137595238Y-98100000D01*
X137642857Y-98147619D01*
X137738095Y-98290476D01*
X137785714Y-98480952D01*
X137785714Y-98861904D01*
X137738095Y-98957142D01*
X137690476Y-99004761D01*
X137595238Y-99052380D01*
X137404761Y-99052380D01*
X137309523Y-99004761D01*
X137261904Y-98957142D01*
X137214285Y-98861904D01*
X137214285Y-98623809D01*
X137261904Y-98528571D01*
X137309523Y-98480952D01*
X137404761Y-98433333D01*
X137595238Y-98433333D01*
X137690476Y-98480952D01*
X137738095Y-98528571D01*
X137785714Y-98623809D01*
%TO.C,R9*%
X121566666Y-90452380D02*
X121900000Y-89976190D01*
X122138095Y-90452380D02*
X122138095Y-89452380D01*
X121757142Y-89452380D01*
X121661904Y-89500000D01*
X121614285Y-89547619D01*
X121566666Y-89642857D01*
X121566666Y-89785714D01*
X121614285Y-89880952D01*
X121661904Y-89928571D01*
X121757142Y-89976190D01*
X122138095Y-89976190D01*
X121090476Y-90452380D02*
X120900000Y-90452380D01*
X120804761Y-90404761D01*
X120757142Y-90357142D01*
X120661904Y-90214285D01*
X120614285Y-90023809D01*
X120614285Y-89642857D01*
X120661904Y-89547619D01*
X120709523Y-89500000D01*
X120804761Y-89452380D01*
X120995238Y-89452380D01*
X121090476Y-89500000D01*
X121138095Y-89547619D01*
X121185714Y-89642857D01*
X121185714Y-89880952D01*
X121138095Y-89976190D01*
X121090476Y-90023809D01*
X120995238Y-90071428D01*
X120804761Y-90071428D01*
X120709523Y-90023809D01*
X120661904Y-89976190D01*
X120614285Y-89880952D01*
%TO.C,R10*%
X121752380Y-86057142D02*
X121276190Y-85723809D01*
X121752380Y-85485714D02*
X120752380Y-85485714D01*
X120752380Y-85866666D01*
X120800000Y-85961904D01*
X120847619Y-86009523D01*
X120942857Y-86057142D01*
X121085714Y-86057142D01*
X121180952Y-86009523D01*
X121228571Y-85961904D01*
X121276190Y-85866666D01*
X121276190Y-85485714D01*
X121752380Y-87009523D02*
X121752380Y-86438095D01*
X121752380Y-86723809D02*
X120752380Y-86723809D01*
X120895238Y-86628571D01*
X120990476Y-86533333D01*
X121038095Y-86438095D01*
X120752380Y-87628571D02*
X120752380Y-87723809D01*
X120800000Y-87819047D01*
X120847619Y-87866666D01*
X120942857Y-87914285D01*
X121133333Y-87961904D01*
X121371428Y-87961904D01*
X121561904Y-87914285D01*
X121657142Y-87866666D01*
X121704761Y-87819047D01*
X121752380Y-87723809D01*
X121752380Y-87628571D01*
X121704761Y-87533333D01*
X121657142Y-87485714D01*
X121561904Y-87438095D01*
X121371428Y-87390476D01*
X121133333Y-87390476D01*
X120942857Y-87438095D01*
X120847619Y-87485714D01*
X120800000Y-87533333D01*
X120752380Y-87628571D01*
%TO.C,R11*%
X121752380Y-83357142D02*
X121276190Y-83023809D01*
X121752380Y-82785714D02*
X120752380Y-82785714D01*
X120752380Y-83166666D01*
X120800000Y-83261904D01*
X120847619Y-83309523D01*
X120942857Y-83357142D01*
X121085714Y-83357142D01*
X121180952Y-83309523D01*
X121228571Y-83261904D01*
X121276190Y-83166666D01*
X121276190Y-82785714D01*
X121752380Y-84309523D02*
X121752380Y-83738095D01*
X121752380Y-84023809D02*
X120752380Y-84023809D01*
X120895238Y-83928571D01*
X120990476Y-83833333D01*
X121038095Y-83738095D01*
X121752380Y-85261904D02*
X121752380Y-84690476D01*
X121752380Y-84976190D02*
X120752380Y-84976190D01*
X120895238Y-84880952D01*
X120990476Y-84785714D01*
X121038095Y-84690476D01*
%TO.C,R13*%
X124142857Y-82552380D02*
X124476190Y-82076190D01*
X124714285Y-82552380D02*
X124714285Y-81552380D01*
X124333333Y-81552380D01*
X124238095Y-81600000D01*
X124190476Y-81647619D01*
X124142857Y-81742857D01*
X124142857Y-81885714D01*
X124190476Y-81980952D01*
X124238095Y-82028571D01*
X124333333Y-82076190D01*
X124714285Y-82076190D01*
X123190476Y-82552380D02*
X123761904Y-82552380D01*
X123476190Y-82552380D02*
X123476190Y-81552380D01*
X123571428Y-81695238D01*
X123666666Y-81790476D01*
X123761904Y-81838095D01*
X122857142Y-81552380D02*
X122238095Y-81552380D01*
X122571428Y-81933333D01*
X122428571Y-81933333D01*
X122333333Y-81980952D01*
X122285714Y-82028571D01*
X122238095Y-82123809D01*
X122238095Y-82361904D01*
X122285714Y-82457142D01*
X122333333Y-82504761D01*
X122428571Y-82552380D01*
X122714285Y-82552380D01*
X122809523Y-82504761D01*
X122857142Y-82457142D01*
%TO.C,R14*%
X111834687Y-117074450D02*
X112407106Y-116973435D01*
X112238748Y-117478511D02*
X112945854Y-116771404D01*
X112676480Y-116502030D01*
X112575465Y-116468358D01*
X112508122Y-116468358D01*
X112407106Y-116502030D01*
X112306091Y-116603045D01*
X112272419Y-116704061D01*
X112272419Y-116771404D01*
X112306091Y-116872419D01*
X112575465Y-117141793D01*
X111161251Y-116401015D02*
X111565312Y-116805076D01*
X111363282Y-116603045D02*
X112070389Y-115895938D01*
X112036717Y-116064297D01*
X112036717Y-116198984D01*
X112070389Y-116300000D01*
X111026564Y-115323519D02*
X110555160Y-115794923D01*
X111464297Y-115222503D02*
X111127580Y-115895938D01*
X110689847Y-115458206D01*
%TO.C,R15*%
X139252380Y-79657142D02*
X138776190Y-79323809D01*
X139252380Y-79085714D02*
X138252380Y-79085714D01*
X138252380Y-79466666D01*
X138300000Y-79561904D01*
X138347619Y-79609523D01*
X138442857Y-79657142D01*
X138585714Y-79657142D01*
X138680952Y-79609523D01*
X138728571Y-79561904D01*
X138776190Y-79466666D01*
X138776190Y-79085714D01*
X139252380Y-80609523D02*
X139252380Y-80038095D01*
X139252380Y-80323809D02*
X138252380Y-80323809D01*
X138395238Y-80228571D01*
X138490476Y-80133333D01*
X138538095Y-80038095D01*
X138252380Y-81514285D02*
X138252380Y-81038095D01*
X138728571Y-80990476D01*
X138680952Y-81038095D01*
X138633333Y-81133333D01*
X138633333Y-81371428D01*
X138680952Y-81466666D01*
X138728571Y-81514285D01*
X138823809Y-81561904D01*
X139061904Y-81561904D01*
X139157142Y-81514285D01*
X139204761Y-81466666D01*
X139252380Y-81371428D01*
X139252380Y-81133333D01*
X139204761Y-81038095D01*
X139157142Y-80990476D01*
%TO.C,R18*%
X117542857Y-113252380D02*
X117876190Y-112776190D01*
X118114285Y-113252380D02*
X118114285Y-112252380D01*
X117733333Y-112252380D01*
X117638095Y-112300000D01*
X117590476Y-112347619D01*
X117542857Y-112442857D01*
X117542857Y-112585714D01*
X117590476Y-112680952D01*
X117638095Y-112728571D01*
X117733333Y-112776190D01*
X118114285Y-112776190D01*
X116590476Y-113252380D02*
X117161904Y-113252380D01*
X116876190Y-113252380D02*
X116876190Y-112252380D01*
X116971428Y-112395238D01*
X117066666Y-112490476D01*
X117161904Y-112538095D01*
X116019047Y-112680952D02*
X116114285Y-112633333D01*
X116161904Y-112585714D01*
X116209523Y-112490476D01*
X116209523Y-112442857D01*
X116161904Y-112347619D01*
X116114285Y-112300000D01*
X116019047Y-112252380D01*
X115828571Y-112252380D01*
X115733333Y-112300000D01*
X115685714Y-112347619D01*
X115638095Y-112442857D01*
X115638095Y-112490476D01*
X115685714Y-112585714D01*
X115733333Y-112633333D01*
X115828571Y-112680952D01*
X116019047Y-112680952D01*
X116114285Y-112728571D01*
X116161904Y-112776190D01*
X116209523Y-112871428D01*
X116209523Y-113061904D01*
X116161904Y-113157142D01*
X116114285Y-113204761D01*
X116019047Y-113252380D01*
X115828571Y-113252380D01*
X115733333Y-113204761D01*
X115685714Y-113157142D01*
X115638095Y-113061904D01*
X115638095Y-112871428D01*
X115685714Y-112776190D01*
X115733333Y-112728571D01*
X115828571Y-112680952D01*
%TO.C,R19*%
X121067619Y-112292857D02*
X121543809Y-112626190D01*
X121067619Y-112864285D02*
X122067619Y-112864285D01*
X122067619Y-112483333D01*
X122020000Y-112388095D01*
X121972380Y-112340476D01*
X121877142Y-112292857D01*
X121734285Y-112292857D01*
X121639047Y-112340476D01*
X121591428Y-112388095D01*
X121543809Y-112483333D01*
X121543809Y-112864285D01*
X121067619Y-111340476D02*
X121067619Y-111911904D01*
X121067619Y-111626190D02*
X122067619Y-111626190D01*
X121924761Y-111721428D01*
X121829523Y-111816666D01*
X121781904Y-111911904D01*
X121067619Y-110864285D02*
X121067619Y-110673809D01*
X121115238Y-110578571D01*
X121162857Y-110530952D01*
X121305714Y-110435714D01*
X121496190Y-110388095D01*
X121877142Y-110388095D01*
X121972380Y-110435714D01*
X122020000Y-110483333D01*
X122067619Y-110578571D01*
X122067619Y-110769047D01*
X122020000Y-110864285D01*
X121972380Y-110911904D01*
X121877142Y-110959523D01*
X121639047Y-110959523D01*
X121543809Y-110911904D01*
X121496190Y-110864285D01*
X121448571Y-110769047D01*
X121448571Y-110578571D01*
X121496190Y-110483333D01*
X121543809Y-110435714D01*
X121639047Y-110388095D01*
%TO.C,R20*%
X126442857Y-119252380D02*
X126776190Y-118776190D01*
X127014285Y-119252380D02*
X127014285Y-118252380D01*
X126633333Y-118252380D01*
X126538095Y-118300000D01*
X126490476Y-118347619D01*
X126442857Y-118442857D01*
X126442857Y-118585714D01*
X126490476Y-118680952D01*
X126538095Y-118728571D01*
X126633333Y-118776190D01*
X127014285Y-118776190D01*
X126061904Y-118347619D02*
X126014285Y-118300000D01*
X125919047Y-118252380D01*
X125680952Y-118252380D01*
X125585714Y-118300000D01*
X125538095Y-118347619D01*
X125490476Y-118442857D01*
X125490476Y-118538095D01*
X125538095Y-118680952D01*
X126109523Y-119252380D01*
X125490476Y-119252380D01*
X124871428Y-118252380D02*
X124776190Y-118252380D01*
X124680952Y-118300000D01*
X124633333Y-118347619D01*
X124585714Y-118442857D01*
X124538095Y-118633333D01*
X124538095Y-118871428D01*
X124585714Y-119061904D01*
X124633333Y-119157142D01*
X124680952Y-119204761D01*
X124776190Y-119252380D01*
X124871428Y-119252380D01*
X124966666Y-119204761D01*
X125014285Y-119157142D01*
X125061904Y-119061904D01*
X125109523Y-118871428D01*
X125109523Y-118633333D01*
X125061904Y-118442857D01*
X125014285Y-118347619D01*
X124966666Y-118300000D01*
X124871428Y-118252380D01*
%TO.C,R21*%
X129542857Y-119252380D02*
X129876190Y-118776190D01*
X130114285Y-119252380D02*
X130114285Y-118252380D01*
X129733333Y-118252380D01*
X129638095Y-118300000D01*
X129590476Y-118347619D01*
X129542857Y-118442857D01*
X129542857Y-118585714D01*
X129590476Y-118680952D01*
X129638095Y-118728571D01*
X129733333Y-118776190D01*
X130114285Y-118776190D01*
X129161904Y-118347619D02*
X129114285Y-118300000D01*
X129019047Y-118252380D01*
X128780952Y-118252380D01*
X128685714Y-118300000D01*
X128638095Y-118347619D01*
X128590476Y-118442857D01*
X128590476Y-118538095D01*
X128638095Y-118680952D01*
X129209523Y-119252380D01*
X128590476Y-119252380D01*
X127638095Y-119252380D02*
X128209523Y-119252380D01*
X127923809Y-119252380D02*
X127923809Y-118252380D01*
X128019047Y-118395238D01*
X128114285Y-118490476D01*
X128209523Y-118538095D01*
%TO.C,R22*%
X130842857Y-117152380D02*
X131176190Y-116676190D01*
X131414285Y-117152380D02*
X131414285Y-116152380D01*
X131033333Y-116152380D01*
X130938095Y-116200000D01*
X130890476Y-116247619D01*
X130842857Y-116342857D01*
X130842857Y-116485714D01*
X130890476Y-116580952D01*
X130938095Y-116628571D01*
X131033333Y-116676190D01*
X131414285Y-116676190D01*
X130461904Y-116247619D02*
X130414285Y-116200000D01*
X130319047Y-116152380D01*
X130080952Y-116152380D01*
X129985714Y-116200000D01*
X129938095Y-116247619D01*
X129890476Y-116342857D01*
X129890476Y-116438095D01*
X129938095Y-116580952D01*
X130509523Y-117152380D01*
X129890476Y-117152380D01*
X129509523Y-116247619D02*
X129461904Y-116200000D01*
X129366666Y-116152380D01*
X129128571Y-116152380D01*
X129033333Y-116200000D01*
X128985714Y-116247619D01*
X128938095Y-116342857D01*
X128938095Y-116438095D01*
X128985714Y-116580952D01*
X129557142Y-117152380D01*
X128938095Y-117152380D01*
%TO.C,R23*%
X130842857Y-115852380D02*
X131176190Y-115376190D01*
X131414285Y-115852380D02*
X131414285Y-114852380D01*
X131033333Y-114852380D01*
X130938095Y-114900000D01*
X130890476Y-114947619D01*
X130842857Y-115042857D01*
X130842857Y-115185714D01*
X130890476Y-115280952D01*
X130938095Y-115328571D01*
X131033333Y-115376190D01*
X131414285Y-115376190D01*
X130461904Y-114947619D02*
X130414285Y-114900000D01*
X130319047Y-114852380D01*
X130080952Y-114852380D01*
X129985714Y-114900000D01*
X129938095Y-114947619D01*
X129890476Y-115042857D01*
X129890476Y-115138095D01*
X129938095Y-115280952D01*
X130509523Y-115852380D01*
X129890476Y-115852380D01*
X129557142Y-114852380D02*
X128938095Y-114852380D01*
X129271428Y-115233333D01*
X129128571Y-115233333D01*
X129033333Y-115280952D01*
X128985714Y-115328571D01*
X128938095Y-115423809D01*
X128938095Y-115661904D01*
X128985714Y-115757142D01*
X129033333Y-115804761D01*
X129128571Y-115852380D01*
X129414285Y-115852380D01*
X129509523Y-115804761D01*
X129557142Y-115757142D01*
%TO.C,U3*%
D17*
X121985714Y-117746942D02*
X121985714Y-118135514D01*
X121962857Y-118181228D01*
X121940000Y-118204085D01*
X121894285Y-118226942D01*
X121802857Y-118226942D01*
X121757142Y-118204085D01*
X121734285Y-118181228D01*
X121711428Y-118135514D01*
X121711428Y-117746942D01*
X121528571Y-117746942D02*
X121231428Y-117746942D01*
X121391428Y-117929800D01*
X121322857Y-117929800D01*
X121277142Y-117952657D01*
X121254285Y-117975514D01*
X121231428Y-118021228D01*
X121231428Y-118135514D01*
X121254285Y-118181228D01*
X121277142Y-118204085D01*
X121322857Y-118226942D01*
X121460000Y-118226942D01*
X121505714Y-118204085D01*
X121528571Y-118181228D01*
%TD*%
M02*
