%TF.GenerationSoftware,KiCad,Pcbnew,(5.1.9-0-10_14)*%
%TF.CreationDate,2021-05-04T15:56:22-07:00*%
%TF.ProjectId,fm-streamer,666d2d73-7472-4656-916d-65722e6b6963,rev?*%
%TF.SameCoordinates,Original*%
%TF.FileFunction,Copper,L2,Bot*%
%TF.FilePolarity,Positive*%
%FSLAX46Y46*%
G04 Gerber Fmt 4.6, Leading zero omitted, Abs format (unit mm)*
G04 Created by KiCad (PCBNEW (5.1.9-0-10_14)) date 2021-05-04 15:56:22*
%MOMM*%
%LPD*%
G01*
G04 APERTURE LIST*
%TA.AperFunction,SMDPad,CuDef*%
%ADD10R,1.461999X0.354800*%
%TD*%
%TA.AperFunction,ComponentPad*%
%ADD11C,1.524000*%
%TD*%
%TA.AperFunction,ComponentPad*%
%ADD12R,1.524000X1.524000*%
%TD*%
%TA.AperFunction,SMDPad,CuDef*%
%ADD13R,2.000000X6.500000*%
%TD*%
%TA.AperFunction,SMDPad,CuDef*%
%ADD14R,1.200000X2.500000*%
%TD*%
%TA.AperFunction,ComponentPad*%
%ADD15C,2.000000*%
%TD*%
%TA.AperFunction,SMDPad,CuDef*%
%ADD16O,0.610000X0.280000*%
%TD*%
%TA.AperFunction,SMDPad,CuDef*%
%ADD17R,0.340000X0.340000*%
%TD*%
%TA.AperFunction,SMDPad,CuDef*%
%ADD18O,0.280000X0.610000*%
%TD*%
%TA.AperFunction,SMDPad,CuDef*%
%ADD19R,1.600000X1.600000*%
%TD*%
%TA.AperFunction,ViaPad*%
%ADD20C,0.609600*%
%TD*%
%TA.AperFunction,Conductor*%
%ADD21C,0.508000*%
%TD*%
%TA.AperFunction,Conductor*%
%ADD22C,0.254000*%
%TD*%
%TA.AperFunction,Conductor*%
%ADD23C,0.100000*%
%TD*%
G04 APERTURE END LIST*
D10*
%TO.P,U2,1*%
%TO.N,Net-(R30-Pad1)*%
X133241000Y-81975001D03*
%TO.P,U2,2*%
%TO.N,Net-(R29-Pad1)*%
X133241000Y-82624999D03*
%TO.P,U2,3*%
%TO.N,Net-(R28-Pad1)*%
X133241000Y-83275001D03*
%TO.P,U2,4*%
%TO.N,DAC_~RST~*%
X133241000Y-83924999D03*
%TO.P,U2,5*%
%TO.N,GND*%
X133241000Y-84574998D03*
%TO.P,U2,6*%
X133241000Y-85224999D03*
%TO.P,U2,7*%
%TO.N,Net-(C16-Pad1)*%
X133241000Y-85874998D03*
%TO.P,U2,8*%
%TO.N,Net-(C19-Pad2)*%
X133241000Y-86524999D03*
%TO.P,U2,9*%
%TO.N,Net-(C20-Pad2)*%
X127399000Y-86524999D03*
%TO.P,U2,10*%
%TO.N,Net-(R17-Pad1)*%
X127399000Y-85875001D03*
%TO.P,U2,11*%
%TO.N,Net-(C12-Pad1)*%
X127399000Y-85224999D03*
%TO.P,U2,12*%
%TO.N,+3V3*%
X127399000Y-84575001D03*
%TO.P,U2,13*%
%TO.N,SPI_MOSI*%
X127399000Y-83925002D03*
%TO.P,U2,14*%
%TO.N,SPI_CLK*%
X127399000Y-83275001D03*
%TO.P,U2,15*%
%TO.N,SPI_~CS~*%
X127399000Y-82625002D03*
%TO.P,U2,16*%
%TO.N,DAC_REFCLK*%
X127399000Y-81975001D03*
%TD*%
D11*
%TO.P,U1,30*%
%TO.N,Net-(U1-Pad30)*%
X142400000Y-74500000D03*
%TO.P,U1,29*%
%TO.N,Net-(U1-Pad29)*%
X142400000Y-77040000D03*
%TO.P,U1,28*%
%TO.N,Net-(U1-Pad28)*%
X142400000Y-79580000D03*
%TO.P,U1,27*%
%TO.N,Net-(U1-Pad27)*%
X142400000Y-82120000D03*
%TO.P,U1,26*%
%TO.N,DAC_~RST~*%
X142400000Y-84660000D03*
%TO.P,U1,25*%
%TO.N,Net-(U1-Pad25)*%
X142400000Y-87200000D03*
%TO.P,U1,24*%
%TO.N,/I2S_DATA_R*%
X142400000Y-89740000D03*
%TO.P,U1,23*%
%TO.N,Net-(U1-Pad23)*%
X142400000Y-92280000D03*
%TO.P,U1,22*%
%TO.N,/I2S_WCLK_R*%
X142400000Y-94820000D03*
%TO.P,U1,21*%
%TO.N,/I2S_DCLK_R*%
X142400000Y-97360000D03*
%TO.P,U1,20*%
%TO.N,Net-(U1-Pad20)*%
X142400000Y-99900000D03*
%TO.P,U1,19*%
%TO.N,Net-(U1-Pad19)*%
X142400000Y-102440000D03*
%TO.P,U1,18*%
%TO.N,Net-(U1-Pad18)*%
X142400000Y-104980000D03*
%TO.P,U1,17*%
%TO.N,GND*%
X142400000Y-107520000D03*
%TO.P,U1,16*%
%TO.N,+3V3*%
X142400000Y-110060000D03*
%TO.P,U1,15*%
%TO.N,+5V*%
X117000000Y-110060000D03*
%TO.P,U1,14*%
%TO.N,GND*%
X117000000Y-107520000D03*
%TO.P,U1,13*%
%TO.N,RADIO_~RST~*%
X117000000Y-104980000D03*
%TO.P,U1,12*%
%TO.N,Net-(U1-Pad12)*%
X117000000Y-102440000D03*
%TO.P,U1,11*%
%TO.N,Net-(U1-Pad11)*%
X117000000Y-99900000D03*
%TO.P,U1,10*%
%TO.N,I2C_SCL*%
X117000000Y-97360000D03*
%TO.P,U1,9*%
%TO.N,I2C_SDA*%
X117000000Y-94820000D03*
%TO.P,U1,8*%
%TO.N,/RAD_CLK_R*%
X117000000Y-92280000D03*
%TO.P,U1,7*%
%TO.N,/SPI_MOSI_R*%
X117000000Y-89740000D03*
%TO.P,U1,6*%
%TO.N,/SPI_CLK_R*%
X117000000Y-87200000D03*
%TO.P,U1,5*%
%TO.N,/SPI_CS_R*%
X117000000Y-84660000D03*
%TO.P,U1,4*%
%TO.N,/DAC_CLK_R*%
X117000000Y-82120000D03*
%TO.P,U1,3*%
%TO.N,Net-(U1-Pad3)*%
X117000000Y-79580000D03*
%TO.P,U1,2*%
%TO.N,Net-(U1-Pad2)*%
X117000000Y-77040000D03*
D12*
%TO.P,U1,1*%
%TO.N,Net-(U1-Pad1)*%
X117000000Y-74500000D03*
%TD*%
D13*
%TO.P,J1,5*%
%TO.N,GND*%
X135400000Y-103150000D03*
X124000000Y-103150000D03*
D14*
%TO.P,J1,1*%
%TO.N,+5V*%
X126200000Y-101130000D03*
%TO.P,J1,2*%
%TO.N,Net-(J1-Pad2)*%
X128700000Y-101130000D03*
%TO.P,J1,3*%
%TO.N,Net-(J1-Pad3)*%
X130700000Y-101130000D03*
%TO.P,J1,4*%
%TO.N,GND*%
X133200000Y-101130000D03*
%TD*%
%TO.P,J1,4*%
%TO.N,GND*%
X133200000Y-101130000D03*
%TO.P,J1,3*%
%TO.N,Net-(J1-Pad3)*%
X130700000Y-101130000D03*
%TO.P,J1,2*%
%TO.N,Net-(J1-Pad2)*%
X128700000Y-101130000D03*
%TO.P,J1,1*%
%TO.N,+5V*%
X126200000Y-101130000D03*
D13*
%TO.P,J1,5*%
%TO.N,GND*%
X124000000Y-103150000D03*
X135400000Y-103150000D03*
%TD*%
%TO.P,C1,1*%
%TO.N,+5V*%
%TA.AperFunction,SMDPad,CuDef*%
G36*
G01*
X126370000Y-99060000D02*
X126030000Y-99060000D01*
G75*
G02*
X125890000Y-98920000I0J140000D01*
G01*
X125890000Y-98640000D01*
G75*
G02*
X126030000Y-98500000I140000J0D01*
G01*
X126370000Y-98500000D01*
G75*
G02*
X126510000Y-98640000I0J-140000D01*
G01*
X126510000Y-98920000D01*
G75*
G02*
X126370000Y-99060000I-140000J0D01*
G01*
G37*
%TD.AperFunction*%
%TO.P,C1,2*%
%TO.N,GND*%
%TA.AperFunction,SMDPad,CuDef*%
G36*
G01*
X126370000Y-98100000D02*
X126030000Y-98100000D01*
G75*
G02*
X125890000Y-97960000I0J140000D01*
G01*
X125890000Y-97680000D01*
G75*
G02*
X126030000Y-97540000I140000J0D01*
G01*
X126370000Y-97540000D01*
G75*
G02*
X126510000Y-97680000I0J-140000D01*
G01*
X126510000Y-97960000D01*
G75*
G02*
X126370000Y-98100000I-140000J0D01*
G01*
G37*
%TD.AperFunction*%
%TD*%
%TO.P,J1,5*%
%TO.N,GND*%
X135400000Y-103150000D03*
X124000000Y-103150000D03*
D14*
%TO.P,J1,1*%
%TO.N,+5V*%
X126200000Y-101130000D03*
%TO.P,J1,2*%
%TO.N,Net-(J1-Pad2)*%
X128700000Y-101130000D03*
%TO.P,J1,3*%
%TO.N,Net-(J1-Pad3)*%
X130700000Y-101130000D03*
%TO.P,J1,4*%
%TO.N,GND*%
X133200000Y-101130000D03*
%TD*%
%TO.P,R16,2*%
%TO.N,GND*%
%TA.AperFunction,SMDPad,CuDef*%
G36*
G01*
X119160000Y-82715000D02*
X119160000Y-83085000D01*
G75*
G02*
X119025000Y-83220000I-135000J0D01*
G01*
X118755000Y-83220000D01*
G75*
G02*
X118620000Y-83085000I0J135000D01*
G01*
X118620000Y-82715000D01*
G75*
G02*
X118755000Y-82580000I135000J0D01*
G01*
X119025000Y-82580000D01*
G75*
G02*
X119160000Y-82715000I0J-135000D01*
G01*
G37*
%TD.AperFunction*%
%TO.P,R16,1*%
%TO.N,SPI_~CS~*%
%TA.AperFunction,SMDPad,CuDef*%
G36*
G01*
X120180000Y-82715000D02*
X120180000Y-83085000D01*
G75*
G02*
X120045000Y-83220000I-135000J0D01*
G01*
X119775000Y-83220000D01*
G75*
G02*
X119640000Y-83085000I0J135000D01*
G01*
X119640000Y-82715000D01*
G75*
G02*
X119775000Y-82580000I135000J0D01*
G01*
X120045000Y-82580000D01*
G75*
G02*
X120180000Y-82715000I0J-135000D01*
G01*
G37*
%TD.AperFunction*%
%TD*%
%TO.P,C8,2*%
%TO.N,GND*%
%TA.AperFunction,SMDPad,CuDef*%
G36*
G01*
X119220000Y-80480000D02*
X119220000Y-80820000D01*
G75*
G02*
X119080000Y-80960000I-140000J0D01*
G01*
X118800000Y-80960000D01*
G75*
G02*
X118660000Y-80820000I0J140000D01*
G01*
X118660000Y-80480000D01*
G75*
G02*
X118800000Y-80340000I140000J0D01*
G01*
X119080000Y-80340000D01*
G75*
G02*
X119220000Y-80480000I0J-140000D01*
G01*
G37*
%TD.AperFunction*%
%TO.P,C8,1*%
%TO.N,DAC_REFCLK*%
%TA.AperFunction,SMDPad,CuDef*%
G36*
G01*
X120180000Y-80480000D02*
X120180000Y-80820000D01*
G75*
G02*
X120040000Y-80960000I-140000J0D01*
G01*
X119760000Y-80960000D01*
G75*
G02*
X119620000Y-80820000I0J140000D01*
G01*
X119620000Y-80480000D01*
G75*
G02*
X119760000Y-80340000I140000J0D01*
G01*
X120040000Y-80340000D01*
G75*
G02*
X120180000Y-80480000I0J-140000D01*
G01*
G37*
%TD.AperFunction*%
%TD*%
%TO.P,R8,1*%
%TO.N,DAC_REFCLK*%
%TA.AperFunction,SMDPad,CuDef*%
G36*
G01*
X120180000Y-81465000D02*
X120180000Y-81835000D01*
G75*
G02*
X120045000Y-81970000I-135000J0D01*
G01*
X119775000Y-81970000D01*
G75*
G02*
X119640000Y-81835000I0J135000D01*
G01*
X119640000Y-81465000D01*
G75*
G02*
X119775000Y-81330000I135000J0D01*
G01*
X120045000Y-81330000D01*
G75*
G02*
X120180000Y-81465000I0J-135000D01*
G01*
G37*
%TD.AperFunction*%
%TO.P,R8,2*%
%TO.N,/DAC_CLK_R*%
%TA.AperFunction,SMDPad,CuDef*%
G36*
G01*
X119160000Y-81465000D02*
X119160000Y-81835000D01*
G75*
G02*
X119025000Y-81970000I-135000J0D01*
G01*
X118755000Y-81970000D01*
G75*
G02*
X118620000Y-81835000I0J135000D01*
G01*
X118620000Y-81465000D01*
G75*
G02*
X118755000Y-81330000I135000J0D01*
G01*
X119025000Y-81330000D01*
G75*
G02*
X119160000Y-81465000I0J-135000D01*
G01*
G37*
%TD.AperFunction*%
%TD*%
%TO.P,C19,1*%
%TO.N,Net-(C19-Pad1)*%
%TA.AperFunction,SMDPad,CuDef*%
G36*
G01*
X131100000Y-93175000D02*
X130600000Y-93175000D01*
G75*
G02*
X130375000Y-92950000I0J225000D01*
G01*
X130375000Y-92500000D01*
G75*
G02*
X130600000Y-92275000I225000J0D01*
G01*
X131100000Y-92275000D01*
G75*
G02*
X131325000Y-92500000I0J-225000D01*
G01*
X131325000Y-92950000D01*
G75*
G02*
X131100000Y-93175000I-225000J0D01*
G01*
G37*
%TD.AperFunction*%
%TO.P,C19,2*%
%TO.N,Net-(C19-Pad2)*%
%TA.AperFunction,SMDPad,CuDef*%
G36*
G01*
X131100000Y-91625000D02*
X130600000Y-91625000D01*
G75*
G02*
X130375000Y-91400000I0J225000D01*
G01*
X130375000Y-90950000D01*
G75*
G02*
X130600000Y-90725000I225000J0D01*
G01*
X131100000Y-90725000D01*
G75*
G02*
X131325000Y-90950000I0J-225000D01*
G01*
X131325000Y-91400000D01*
G75*
G02*
X131100000Y-91625000I-225000J0D01*
G01*
G37*
%TD.AperFunction*%
%TD*%
%TO.P,C20,2*%
%TO.N,Net-(C20-Pad2)*%
%TA.AperFunction,SMDPad,CuDef*%
G36*
G01*
X125100000Y-91625000D02*
X124600000Y-91625000D01*
G75*
G02*
X124375000Y-91400000I0J225000D01*
G01*
X124375000Y-90950000D01*
G75*
G02*
X124600000Y-90725000I225000J0D01*
G01*
X125100000Y-90725000D01*
G75*
G02*
X125325000Y-90950000I0J-225000D01*
G01*
X125325000Y-91400000D01*
G75*
G02*
X125100000Y-91625000I-225000J0D01*
G01*
G37*
%TD.AperFunction*%
%TO.P,C20,1*%
%TO.N,Net-(C20-Pad1)*%
%TA.AperFunction,SMDPad,CuDef*%
G36*
G01*
X125100000Y-93175000D02*
X124600000Y-93175000D01*
G75*
G02*
X124375000Y-92950000I0J225000D01*
G01*
X124375000Y-92500000D01*
G75*
G02*
X124600000Y-92275000I225000J0D01*
G01*
X125100000Y-92275000D01*
G75*
G02*
X125325000Y-92500000I0J-225000D01*
G01*
X125325000Y-92950000D01*
G75*
G02*
X125100000Y-93175000I-225000J0D01*
G01*
G37*
%TD.AperFunction*%
%TD*%
%TO.P,C22,1*%
%TO.N,GND*%
%TA.AperFunction,SMDPad,CuDef*%
G36*
G01*
X128850000Y-93725000D02*
X129350000Y-93725000D01*
G75*
G02*
X129575000Y-93950000I0J-225000D01*
G01*
X129575000Y-94400000D01*
G75*
G02*
X129350000Y-94625000I-225000J0D01*
G01*
X128850000Y-94625000D01*
G75*
G02*
X128625000Y-94400000I0J225000D01*
G01*
X128625000Y-93950000D01*
G75*
G02*
X128850000Y-93725000I225000J0D01*
G01*
G37*
%TD.AperFunction*%
%TO.P,C22,2*%
%TO.N,AUDIO_R*%
%TA.AperFunction,SMDPad,CuDef*%
G36*
G01*
X128850000Y-95275000D02*
X129350000Y-95275000D01*
G75*
G02*
X129575000Y-95500000I0J-225000D01*
G01*
X129575000Y-95950000D01*
G75*
G02*
X129350000Y-96175000I-225000J0D01*
G01*
X128850000Y-96175000D01*
G75*
G02*
X128625000Y-95950000I0J225000D01*
G01*
X128625000Y-95500000D01*
G75*
G02*
X128850000Y-95275000I225000J0D01*
G01*
G37*
%TD.AperFunction*%
%TD*%
%TO.P,C23,2*%
%TO.N,GND*%
%TA.AperFunction,SMDPad,CuDef*%
G36*
G01*
X127850000Y-94625000D02*
X127350000Y-94625000D01*
G75*
G02*
X127125000Y-94400000I0J225000D01*
G01*
X127125000Y-93950000D01*
G75*
G02*
X127350000Y-93725000I225000J0D01*
G01*
X127850000Y-93725000D01*
G75*
G02*
X128075000Y-93950000I0J-225000D01*
G01*
X128075000Y-94400000D01*
G75*
G02*
X127850000Y-94625000I-225000J0D01*
G01*
G37*
%TD.AperFunction*%
%TO.P,C23,1*%
%TO.N,AUDIO_L*%
%TA.AperFunction,SMDPad,CuDef*%
G36*
G01*
X127850000Y-96175000D02*
X127350000Y-96175000D01*
G75*
G02*
X127125000Y-95950000I0J225000D01*
G01*
X127125000Y-95500000D01*
G75*
G02*
X127350000Y-95275000I225000J0D01*
G01*
X127850000Y-95275000D01*
G75*
G02*
X128075000Y-95500000I0J-225000D01*
G01*
X128075000Y-95950000D01*
G75*
G02*
X127850000Y-96175000I-225000J0D01*
G01*
G37*
%TD.AperFunction*%
%TD*%
%TO.P,R17,2*%
%TO.N,GND*%
%TA.AperFunction,SMDPad,CuDef*%
G36*
G01*
X127415000Y-91690000D02*
X127785000Y-91690000D01*
G75*
G02*
X127920000Y-91825000I0J-135000D01*
G01*
X127920000Y-92095000D01*
G75*
G02*
X127785000Y-92230000I-135000J0D01*
G01*
X127415000Y-92230000D01*
G75*
G02*
X127280000Y-92095000I0J135000D01*
G01*
X127280000Y-91825000D01*
G75*
G02*
X127415000Y-91690000I135000J0D01*
G01*
G37*
%TD.AperFunction*%
%TO.P,R17,1*%
%TO.N,Net-(R17-Pad1)*%
%TA.AperFunction,SMDPad,CuDef*%
G36*
G01*
X127415000Y-90670000D02*
X127785000Y-90670000D01*
G75*
G02*
X127920000Y-90805000I0J-135000D01*
G01*
X127920000Y-91075000D01*
G75*
G02*
X127785000Y-91210000I-135000J0D01*
G01*
X127415000Y-91210000D01*
G75*
G02*
X127280000Y-91075000I0J135000D01*
G01*
X127280000Y-90805000D01*
G75*
G02*
X127415000Y-90670000I135000J0D01*
G01*
G37*
%TD.AperFunction*%
%TD*%
%TO.P,R24,1*%
%TO.N,Net-(C19-Pad1)*%
%TA.AperFunction,SMDPad,CuDef*%
G36*
G01*
X129785000Y-93230000D02*
X129415000Y-93230000D01*
G75*
G02*
X129280000Y-93095000I0J135000D01*
G01*
X129280000Y-92825000D01*
G75*
G02*
X129415000Y-92690000I135000J0D01*
G01*
X129785000Y-92690000D01*
G75*
G02*
X129920000Y-92825000I0J-135000D01*
G01*
X129920000Y-93095000D01*
G75*
G02*
X129785000Y-93230000I-135000J0D01*
G01*
G37*
%TD.AperFunction*%
%TO.P,R24,2*%
%TO.N,GND*%
%TA.AperFunction,SMDPad,CuDef*%
G36*
G01*
X129785000Y-92210000D02*
X129415000Y-92210000D01*
G75*
G02*
X129280000Y-92075000I0J135000D01*
G01*
X129280000Y-91805000D01*
G75*
G02*
X129415000Y-91670000I135000J0D01*
G01*
X129785000Y-91670000D01*
G75*
G02*
X129920000Y-91805000I0J-135000D01*
G01*
X129920000Y-92075000D01*
G75*
G02*
X129785000Y-92210000I-135000J0D01*
G01*
G37*
%TD.AperFunction*%
%TD*%
%TO.P,R25,1*%
%TO.N,GND*%
%TA.AperFunction,SMDPad,CuDef*%
G36*
G01*
X125915000Y-91670000D02*
X126285000Y-91670000D01*
G75*
G02*
X126420000Y-91805000I0J-135000D01*
G01*
X126420000Y-92075000D01*
G75*
G02*
X126285000Y-92210000I-135000J0D01*
G01*
X125915000Y-92210000D01*
G75*
G02*
X125780000Y-92075000I0J135000D01*
G01*
X125780000Y-91805000D01*
G75*
G02*
X125915000Y-91670000I135000J0D01*
G01*
G37*
%TD.AperFunction*%
%TO.P,R25,2*%
%TO.N,Net-(C20-Pad1)*%
%TA.AperFunction,SMDPad,CuDef*%
G36*
G01*
X125915000Y-92690000D02*
X126285000Y-92690000D01*
G75*
G02*
X126420000Y-92825000I0J-135000D01*
G01*
X126420000Y-93095000D01*
G75*
G02*
X126285000Y-93230000I-135000J0D01*
G01*
X125915000Y-93230000D01*
G75*
G02*
X125780000Y-93095000I0J135000D01*
G01*
X125780000Y-92825000D01*
G75*
G02*
X125915000Y-92690000I135000J0D01*
G01*
G37*
%TD.AperFunction*%
%TD*%
%TO.P,R26,2*%
%TO.N,Net-(C19-Pad1)*%
%TA.AperFunction,SMDPad,CuDef*%
G36*
G01*
X130535000Y-94960000D02*
X130165000Y-94960000D01*
G75*
G02*
X130030000Y-94825000I0J135000D01*
G01*
X130030000Y-94555000D01*
G75*
G02*
X130165000Y-94420000I135000J0D01*
G01*
X130535000Y-94420000D01*
G75*
G02*
X130670000Y-94555000I0J-135000D01*
G01*
X130670000Y-94825000D01*
G75*
G02*
X130535000Y-94960000I-135000J0D01*
G01*
G37*
%TD.AperFunction*%
%TO.P,R26,1*%
%TO.N,AUDIO_R*%
%TA.AperFunction,SMDPad,CuDef*%
G36*
G01*
X130535000Y-95980000D02*
X130165000Y-95980000D01*
G75*
G02*
X130030000Y-95845000I0J135000D01*
G01*
X130030000Y-95575000D01*
G75*
G02*
X130165000Y-95440000I135000J0D01*
G01*
X130535000Y-95440000D01*
G75*
G02*
X130670000Y-95575000I0J-135000D01*
G01*
X130670000Y-95845000D01*
G75*
G02*
X130535000Y-95980000I-135000J0D01*
G01*
G37*
%TD.AperFunction*%
%TD*%
%TO.P,R27,1*%
%TO.N,AUDIO_L*%
%TA.AperFunction,SMDPad,CuDef*%
G36*
G01*
X126535000Y-95980000D02*
X126165000Y-95980000D01*
G75*
G02*
X126030000Y-95845000I0J135000D01*
G01*
X126030000Y-95575000D01*
G75*
G02*
X126165000Y-95440000I135000J0D01*
G01*
X126535000Y-95440000D01*
G75*
G02*
X126670000Y-95575000I0J-135000D01*
G01*
X126670000Y-95845000D01*
G75*
G02*
X126535000Y-95980000I-135000J0D01*
G01*
G37*
%TD.AperFunction*%
%TO.P,R27,2*%
%TO.N,Net-(C20-Pad1)*%
%TA.AperFunction,SMDPad,CuDef*%
G36*
G01*
X126535000Y-94960000D02*
X126165000Y-94960000D01*
G75*
G02*
X126030000Y-94825000I0J135000D01*
G01*
X126030000Y-94555000D01*
G75*
G02*
X126165000Y-94420000I135000J0D01*
G01*
X126535000Y-94420000D01*
G75*
G02*
X126670000Y-94555000I0J-135000D01*
G01*
X126670000Y-94825000D01*
G75*
G02*
X126535000Y-94960000I-135000J0D01*
G01*
G37*
%TD.AperFunction*%
%TD*%
%TO.P,R30,2*%
%TO.N,I2S_WCLK*%
%TA.AperFunction,SMDPad,CuDef*%
G36*
G01*
X140140000Y-94085000D02*
X140140000Y-93715000D01*
G75*
G02*
X140275000Y-93580000I135000J0D01*
G01*
X140545000Y-93580000D01*
G75*
G02*
X140680000Y-93715000I0J-135000D01*
G01*
X140680000Y-94085000D01*
G75*
G02*
X140545000Y-94220000I-135000J0D01*
G01*
X140275000Y-94220000D01*
G75*
G02*
X140140000Y-94085000I0J135000D01*
G01*
G37*
%TD.AperFunction*%
%TO.P,R30,1*%
%TO.N,Net-(R30-Pad1)*%
%TA.AperFunction,SMDPad,CuDef*%
G36*
G01*
X139120000Y-94085000D02*
X139120000Y-93715000D01*
G75*
G02*
X139255000Y-93580000I135000J0D01*
G01*
X139525000Y-93580000D01*
G75*
G02*
X139660000Y-93715000I0J-135000D01*
G01*
X139660000Y-94085000D01*
G75*
G02*
X139525000Y-94220000I-135000J0D01*
G01*
X139255000Y-94220000D01*
G75*
G02*
X139120000Y-94085000I0J135000D01*
G01*
G37*
%TD.AperFunction*%
%TD*%
%TO.P,R29,2*%
%TO.N,I2S_DATA*%
%TA.AperFunction,SMDPad,CuDef*%
G36*
G01*
X140140000Y-92085000D02*
X140140000Y-91715000D01*
G75*
G02*
X140275000Y-91580000I135000J0D01*
G01*
X140545000Y-91580000D01*
G75*
G02*
X140680000Y-91715000I0J-135000D01*
G01*
X140680000Y-92085000D01*
G75*
G02*
X140545000Y-92220000I-135000J0D01*
G01*
X140275000Y-92220000D01*
G75*
G02*
X140140000Y-92085000I0J135000D01*
G01*
G37*
%TD.AperFunction*%
%TO.P,R29,1*%
%TO.N,Net-(R29-Pad1)*%
%TA.AperFunction,SMDPad,CuDef*%
G36*
G01*
X139120000Y-92085000D02*
X139120000Y-91715000D01*
G75*
G02*
X139255000Y-91580000I135000J0D01*
G01*
X139525000Y-91580000D01*
G75*
G02*
X139660000Y-91715000I0J-135000D01*
G01*
X139660000Y-92085000D01*
G75*
G02*
X139525000Y-92220000I-135000J0D01*
G01*
X139255000Y-92220000D01*
G75*
G02*
X139120000Y-92085000I0J135000D01*
G01*
G37*
%TD.AperFunction*%
%TD*%
%TO.P,R28,2*%
%TO.N,I2S_DCLK*%
%TA.AperFunction,SMDPad,CuDef*%
G36*
G01*
X140140000Y-97085000D02*
X140140000Y-96715000D01*
G75*
G02*
X140275000Y-96580000I135000J0D01*
G01*
X140545000Y-96580000D01*
G75*
G02*
X140680000Y-96715000I0J-135000D01*
G01*
X140680000Y-97085000D01*
G75*
G02*
X140545000Y-97220000I-135000J0D01*
G01*
X140275000Y-97220000D01*
G75*
G02*
X140140000Y-97085000I0J135000D01*
G01*
G37*
%TD.AperFunction*%
%TO.P,R28,1*%
%TO.N,Net-(R28-Pad1)*%
%TA.AperFunction,SMDPad,CuDef*%
G36*
G01*
X139120000Y-97085000D02*
X139120000Y-96715000D01*
G75*
G02*
X139255000Y-96580000I135000J0D01*
G01*
X139525000Y-96580000D01*
G75*
G02*
X139660000Y-96715000I0J-135000D01*
G01*
X139660000Y-97085000D01*
G75*
G02*
X139525000Y-97220000I-135000J0D01*
G01*
X139255000Y-97220000D01*
G75*
G02*
X139120000Y-97085000I0J135000D01*
G01*
G37*
%TD.AperFunction*%
%TD*%
%TO.P,C7,2*%
%TO.N,GND*%
%TA.AperFunction,SMDPad,CuDef*%
G36*
G01*
X119220000Y-91280000D02*
X119220000Y-91620000D01*
G75*
G02*
X119080000Y-91760000I-140000J0D01*
G01*
X118800000Y-91760000D01*
G75*
G02*
X118660000Y-91620000I0J140000D01*
G01*
X118660000Y-91280000D01*
G75*
G02*
X118800000Y-91140000I140000J0D01*
G01*
X119080000Y-91140000D01*
G75*
G02*
X119220000Y-91280000I0J-140000D01*
G01*
G37*
%TD.AperFunction*%
%TO.P,C7,1*%
%TO.N,RADIO_REFCLK*%
%TA.AperFunction,SMDPad,CuDef*%
G36*
G01*
X120180000Y-91280000D02*
X120180000Y-91620000D01*
G75*
G02*
X120040000Y-91760000I-140000J0D01*
G01*
X119760000Y-91760000D01*
G75*
G02*
X119620000Y-91620000I0J140000D01*
G01*
X119620000Y-91280000D01*
G75*
G02*
X119760000Y-91140000I140000J0D01*
G01*
X120040000Y-91140000D01*
G75*
G02*
X120180000Y-91280000I0J-140000D01*
G01*
G37*
%TD.AperFunction*%
%TD*%
%TO.P,R3,2*%
%TO.N,+3V3*%
%TA.AperFunction,SMDPad,CuDef*%
G36*
G01*
X118915000Y-96240000D02*
X119285000Y-96240000D01*
G75*
G02*
X119420000Y-96375000I0J-135000D01*
G01*
X119420000Y-96645000D01*
G75*
G02*
X119285000Y-96780000I-135000J0D01*
G01*
X118915000Y-96780000D01*
G75*
G02*
X118780000Y-96645000I0J135000D01*
G01*
X118780000Y-96375000D01*
G75*
G02*
X118915000Y-96240000I135000J0D01*
G01*
G37*
%TD.AperFunction*%
%TO.P,R3,1*%
%TO.N,I2C_SDA*%
%TA.AperFunction,SMDPad,CuDef*%
G36*
G01*
X118915000Y-95220000D02*
X119285000Y-95220000D01*
G75*
G02*
X119420000Y-95355000I0J-135000D01*
G01*
X119420000Y-95625000D01*
G75*
G02*
X119285000Y-95760000I-135000J0D01*
G01*
X118915000Y-95760000D01*
G75*
G02*
X118780000Y-95625000I0J135000D01*
G01*
X118780000Y-95355000D01*
G75*
G02*
X118915000Y-95220000I135000J0D01*
G01*
G37*
%TD.AperFunction*%
%TD*%
%TO.P,R7,1*%
%TO.N,RADIO_REFCLK*%
%TA.AperFunction,SMDPad,CuDef*%
G36*
G01*
X120180000Y-92265000D02*
X120180000Y-92635000D01*
G75*
G02*
X120045000Y-92770000I-135000J0D01*
G01*
X119775000Y-92770000D01*
G75*
G02*
X119640000Y-92635000I0J135000D01*
G01*
X119640000Y-92265000D01*
G75*
G02*
X119775000Y-92130000I135000J0D01*
G01*
X120045000Y-92130000D01*
G75*
G02*
X120180000Y-92265000I0J-135000D01*
G01*
G37*
%TD.AperFunction*%
%TO.P,R7,2*%
%TO.N,/RAD_CLK_R*%
%TA.AperFunction,SMDPad,CuDef*%
G36*
G01*
X119160000Y-92265000D02*
X119160000Y-92635000D01*
G75*
G02*
X119025000Y-92770000I-135000J0D01*
G01*
X118755000Y-92770000D01*
G75*
G02*
X118620000Y-92635000I0J135000D01*
G01*
X118620000Y-92265000D01*
G75*
G02*
X118755000Y-92130000I135000J0D01*
G01*
X119025000Y-92130000D01*
G75*
G02*
X119160000Y-92265000I0J-135000D01*
G01*
G37*
%TD.AperFunction*%
%TD*%
%TO.P,R12,1*%
%TO.N,I2C_SCL*%
%TA.AperFunction,SMDPad,CuDef*%
G36*
G01*
X119285000Y-99280000D02*
X118915000Y-99280000D01*
G75*
G02*
X118780000Y-99145000I0J135000D01*
G01*
X118780000Y-98875000D01*
G75*
G02*
X118915000Y-98740000I135000J0D01*
G01*
X119285000Y-98740000D01*
G75*
G02*
X119420000Y-98875000I0J-135000D01*
G01*
X119420000Y-99145000D01*
G75*
G02*
X119285000Y-99280000I-135000J0D01*
G01*
G37*
%TD.AperFunction*%
%TO.P,R12,2*%
%TO.N,+3V3*%
%TA.AperFunction,SMDPad,CuDef*%
G36*
G01*
X119285000Y-98260000D02*
X118915000Y-98260000D01*
G75*
G02*
X118780000Y-98125000I0J135000D01*
G01*
X118780000Y-97855000D01*
G75*
G02*
X118915000Y-97720000I135000J0D01*
G01*
X119285000Y-97720000D01*
G75*
G02*
X119420000Y-97855000I0J-135000D01*
G01*
X119420000Y-98125000D01*
G75*
G02*
X119285000Y-98260000I-135000J0D01*
G01*
G37*
%TD.AperFunction*%
%TD*%
D15*
%TO.P,TP1,1*%
%TO.N,Net-(L1-Pad1)*%
X113900000Y-118400000D03*
%TD*%
%TO.P,C2,2*%
%TO.N,GND*%
%TA.AperFunction,SMDPad,CuDef*%
G36*
G01*
X119550000Y-107975000D02*
X119050000Y-107975000D01*
G75*
G02*
X118825000Y-107750000I0J225000D01*
G01*
X118825000Y-107300000D01*
G75*
G02*
X119050000Y-107075000I225000J0D01*
G01*
X119550000Y-107075000D01*
G75*
G02*
X119775000Y-107300000I0J-225000D01*
G01*
X119775000Y-107750000D01*
G75*
G02*
X119550000Y-107975000I-225000J0D01*
G01*
G37*
%TD.AperFunction*%
%TO.P,C2,1*%
%TO.N,+5V*%
%TA.AperFunction,SMDPad,CuDef*%
G36*
G01*
X119550000Y-109525000D02*
X119050000Y-109525000D01*
G75*
G02*
X118825000Y-109300000I0J225000D01*
G01*
X118825000Y-108850000D01*
G75*
G02*
X119050000Y-108625000I225000J0D01*
G01*
X119550000Y-108625000D01*
G75*
G02*
X119775000Y-108850000I0J-225000D01*
G01*
X119775000Y-109300000D01*
G75*
G02*
X119550000Y-109525000I-225000J0D01*
G01*
G37*
%TD.AperFunction*%
%TD*%
%TO.P,C3,1*%
%TO.N,GND*%
%TA.AperFunction,SMDPad,CuDef*%
G36*
G01*
X139650000Y-107675000D02*
X140150000Y-107675000D01*
G75*
G02*
X140375000Y-107900000I0J-225000D01*
G01*
X140375000Y-108350000D01*
G75*
G02*
X140150000Y-108575000I-225000J0D01*
G01*
X139650000Y-108575000D01*
G75*
G02*
X139425000Y-108350000I0J225000D01*
G01*
X139425000Y-107900000D01*
G75*
G02*
X139650000Y-107675000I225000J0D01*
G01*
G37*
%TD.AperFunction*%
%TO.P,C3,2*%
%TO.N,+3V3*%
%TA.AperFunction,SMDPad,CuDef*%
G36*
G01*
X139650000Y-109225000D02*
X140150000Y-109225000D01*
G75*
G02*
X140375000Y-109450000I0J-225000D01*
G01*
X140375000Y-109900000D01*
G75*
G02*
X140150000Y-110125000I-225000J0D01*
G01*
X139650000Y-110125000D01*
G75*
G02*
X139425000Y-109900000I0J225000D01*
G01*
X139425000Y-109450000D01*
G75*
G02*
X139650000Y-109225000I225000J0D01*
G01*
G37*
%TD.AperFunction*%
%TD*%
%TO.P,C4,1*%
%TO.N,I2S_WCLK*%
%TA.AperFunction,SMDPad,CuDef*%
G36*
G01*
X139120000Y-96070000D02*
X139120000Y-95730000D01*
G75*
G02*
X139260000Y-95590000I140000J0D01*
G01*
X139540000Y-95590000D01*
G75*
G02*
X139680000Y-95730000I0J-140000D01*
G01*
X139680000Y-96070000D01*
G75*
G02*
X139540000Y-96210000I-140000J0D01*
G01*
X139260000Y-96210000D01*
G75*
G02*
X139120000Y-96070000I0J140000D01*
G01*
G37*
%TD.AperFunction*%
%TO.P,C4,2*%
%TO.N,GND*%
%TA.AperFunction,SMDPad,CuDef*%
G36*
G01*
X140080000Y-96070000D02*
X140080000Y-95730000D01*
G75*
G02*
X140220000Y-95590000I140000J0D01*
G01*
X140500000Y-95590000D01*
G75*
G02*
X140640000Y-95730000I0J-140000D01*
G01*
X140640000Y-96070000D01*
G75*
G02*
X140500000Y-96210000I-140000J0D01*
G01*
X140220000Y-96210000D01*
G75*
G02*
X140080000Y-96070000I0J140000D01*
G01*
G37*
%TD.AperFunction*%
%TD*%
%TO.P,C5,2*%
%TO.N,GND*%
%TA.AperFunction,SMDPad,CuDef*%
G36*
G01*
X140080000Y-91070000D02*
X140080000Y-90730000D01*
G75*
G02*
X140220000Y-90590000I140000J0D01*
G01*
X140500000Y-90590000D01*
G75*
G02*
X140640000Y-90730000I0J-140000D01*
G01*
X140640000Y-91070000D01*
G75*
G02*
X140500000Y-91210000I-140000J0D01*
G01*
X140220000Y-91210000D01*
G75*
G02*
X140080000Y-91070000I0J140000D01*
G01*
G37*
%TD.AperFunction*%
%TO.P,C5,1*%
%TO.N,I2S_DATA*%
%TA.AperFunction,SMDPad,CuDef*%
G36*
G01*
X139120000Y-91070000D02*
X139120000Y-90730000D01*
G75*
G02*
X139260000Y-90590000I140000J0D01*
G01*
X139540000Y-90590000D01*
G75*
G02*
X139680000Y-90730000I0J-140000D01*
G01*
X139680000Y-91070000D01*
G75*
G02*
X139540000Y-91210000I-140000J0D01*
G01*
X139260000Y-91210000D01*
G75*
G02*
X139120000Y-91070000I0J140000D01*
G01*
G37*
%TD.AperFunction*%
%TD*%
%TO.P,C6,1*%
%TO.N,I2S_DCLK*%
%TA.AperFunction,SMDPad,CuDef*%
G36*
G01*
X139140000Y-99070000D02*
X139140000Y-98730000D01*
G75*
G02*
X139280000Y-98590000I140000J0D01*
G01*
X139560000Y-98590000D01*
G75*
G02*
X139700000Y-98730000I0J-140000D01*
G01*
X139700000Y-99070000D01*
G75*
G02*
X139560000Y-99210000I-140000J0D01*
G01*
X139280000Y-99210000D01*
G75*
G02*
X139140000Y-99070000I0J140000D01*
G01*
G37*
%TD.AperFunction*%
%TO.P,C6,2*%
%TO.N,GND*%
%TA.AperFunction,SMDPad,CuDef*%
G36*
G01*
X140100000Y-99070000D02*
X140100000Y-98730000D01*
G75*
G02*
X140240000Y-98590000I140000J0D01*
G01*
X140520000Y-98590000D01*
G75*
G02*
X140660000Y-98730000I0J-140000D01*
G01*
X140660000Y-99070000D01*
G75*
G02*
X140520000Y-99210000I-140000J0D01*
G01*
X140240000Y-99210000D01*
G75*
G02*
X140100000Y-99070000I0J140000D01*
G01*
G37*
%TD.AperFunction*%
%TD*%
%TO.P,C9,2*%
%TO.N,GND*%
%TA.AperFunction,SMDPad,CuDef*%
G36*
G01*
X119220000Y-88730000D02*
X119220000Y-89070000D01*
G75*
G02*
X119080000Y-89210000I-140000J0D01*
G01*
X118800000Y-89210000D01*
G75*
G02*
X118660000Y-89070000I0J140000D01*
G01*
X118660000Y-88730000D01*
G75*
G02*
X118800000Y-88590000I140000J0D01*
G01*
X119080000Y-88590000D01*
G75*
G02*
X119220000Y-88730000I0J-140000D01*
G01*
G37*
%TD.AperFunction*%
%TO.P,C9,1*%
%TO.N,SPI_MOSI*%
%TA.AperFunction,SMDPad,CuDef*%
G36*
G01*
X120180000Y-88730000D02*
X120180000Y-89070000D01*
G75*
G02*
X120040000Y-89210000I-140000J0D01*
G01*
X119760000Y-89210000D01*
G75*
G02*
X119620000Y-89070000I0J140000D01*
G01*
X119620000Y-88730000D01*
G75*
G02*
X119760000Y-88590000I140000J0D01*
G01*
X120040000Y-88590000D01*
G75*
G02*
X120180000Y-88730000I0J-140000D01*
G01*
G37*
%TD.AperFunction*%
%TD*%
%TO.P,C10,1*%
%TO.N,SPI_CLK*%
%TA.AperFunction,SMDPad,CuDef*%
G36*
G01*
X120160000Y-86230000D02*
X120160000Y-86570000D01*
G75*
G02*
X120020000Y-86710000I-140000J0D01*
G01*
X119740000Y-86710000D01*
G75*
G02*
X119600000Y-86570000I0J140000D01*
G01*
X119600000Y-86230000D01*
G75*
G02*
X119740000Y-86090000I140000J0D01*
G01*
X120020000Y-86090000D01*
G75*
G02*
X120160000Y-86230000I0J-140000D01*
G01*
G37*
%TD.AperFunction*%
%TO.P,C10,2*%
%TO.N,GND*%
%TA.AperFunction,SMDPad,CuDef*%
G36*
G01*
X119200000Y-86230000D02*
X119200000Y-86570000D01*
G75*
G02*
X119060000Y-86710000I-140000J0D01*
G01*
X118780000Y-86710000D01*
G75*
G02*
X118640000Y-86570000I0J140000D01*
G01*
X118640000Y-86230000D01*
G75*
G02*
X118780000Y-86090000I140000J0D01*
G01*
X119060000Y-86090000D01*
G75*
G02*
X119200000Y-86230000I0J-140000D01*
G01*
G37*
%TD.AperFunction*%
%TD*%
%TO.P,C11,1*%
%TO.N,SPI_~CS~*%
%TA.AperFunction,SMDPad,CuDef*%
G36*
G01*
X120180000Y-83730000D02*
X120180000Y-84070000D01*
G75*
G02*
X120040000Y-84210000I-140000J0D01*
G01*
X119760000Y-84210000D01*
G75*
G02*
X119620000Y-84070000I0J140000D01*
G01*
X119620000Y-83730000D01*
G75*
G02*
X119760000Y-83590000I140000J0D01*
G01*
X120040000Y-83590000D01*
G75*
G02*
X120180000Y-83730000I0J-140000D01*
G01*
G37*
%TD.AperFunction*%
%TO.P,C11,2*%
%TO.N,GND*%
%TA.AperFunction,SMDPad,CuDef*%
G36*
G01*
X119220000Y-83730000D02*
X119220000Y-84070000D01*
G75*
G02*
X119080000Y-84210000I-140000J0D01*
G01*
X118800000Y-84210000D01*
G75*
G02*
X118660000Y-84070000I0J140000D01*
G01*
X118660000Y-83730000D01*
G75*
G02*
X118800000Y-83590000I140000J0D01*
G01*
X119080000Y-83590000D01*
G75*
G02*
X119220000Y-83730000I0J-140000D01*
G01*
G37*
%TD.AperFunction*%
%TD*%
%TO.P,C12,2*%
%TO.N,GND*%
%TA.AperFunction,SMDPad,CuDef*%
G36*
G01*
X123075000Y-86650000D02*
X123075000Y-87150000D01*
G75*
G02*
X122850000Y-87375000I-225000J0D01*
G01*
X122400000Y-87375000D01*
G75*
G02*
X122175000Y-87150000I0J225000D01*
G01*
X122175000Y-86650000D01*
G75*
G02*
X122400000Y-86425000I225000J0D01*
G01*
X122850000Y-86425000D01*
G75*
G02*
X123075000Y-86650000I0J-225000D01*
G01*
G37*
%TD.AperFunction*%
%TO.P,C12,1*%
%TO.N,Net-(C12-Pad1)*%
%TA.AperFunction,SMDPad,CuDef*%
G36*
G01*
X124625000Y-86650000D02*
X124625000Y-87150000D01*
G75*
G02*
X124400000Y-87375000I-225000J0D01*
G01*
X123950000Y-87375000D01*
G75*
G02*
X123725000Y-87150000I0J225000D01*
G01*
X123725000Y-86650000D01*
G75*
G02*
X123950000Y-86425000I225000J0D01*
G01*
X124400000Y-86425000D01*
G75*
G02*
X124625000Y-86650000I0J-225000D01*
G01*
G37*
%TD.AperFunction*%
%TD*%
%TO.P,C13,1*%
%TO.N,Net-(C12-Pad1)*%
%TA.AperFunction,SMDPad,CuDef*%
G36*
G01*
X124660000Y-85480000D02*
X124660000Y-85820000D01*
G75*
G02*
X124520000Y-85960000I-140000J0D01*
G01*
X124240000Y-85960000D01*
G75*
G02*
X124100000Y-85820000I0J140000D01*
G01*
X124100000Y-85480000D01*
G75*
G02*
X124240000Y-85340000I140000J0D01*
G01*
X124520000Y-85340000D01*
G75*
G02*
X124660000Y-85480000I0J-140000D01*
G01*
G37*
%TD.AperFunction*%
%TO.P,C13,2*%
%TO.N,GND*%
%TA.AperFunction,SMDPad,CuDef*%
G36*
G01*
X123700000Y-85480000D02*
X123700000Y-85820000D01*
G75*
G02*
X123560000Y-85960000I-140000J0D01*
G01*
X123280000Y-85960000D01*
G75*
G02*
X123140000Y-85820000I0J140000D01*
G01*
X123140000Y-85480000D01*
G75*
G02*
X123280000Y-85340000I140000J0D01*
G01*
X123560000Y-85340000D01*
G75*
G02*
X123700000Y-85480000I0J-140000D01*
G01*
G37*
%TD.AperFunction*%
%TD*%
%TO.P,C14,1*%
%TO.N,+3V3*%
%TA.AperFunction,SMDPad,CuDef*%
G36*
G01*
X124625000Y-83150000D02*
X124625000Y-83650000D01*
G75*
G02*
X124400000Y-83875000I-225000J0D01*
G01*
X123950000Y-83875000D01*
G75*
G02*
X123725000Y-83650000I0J225000D01*
G01*
X123725000Y-83150000D01*
G75*
G02*
X123950000Y-82925000I225000J0D01*
G01*
X124400000Y-82925000D01*
G75*
G02*
X124625000Y-83150000I0J-225000D01*
G01*
G37*
%TD.AperFunction*%
%TO.P,C14,2*%
%TO.N,GND*%
%TA.AperFunction,SMDPad,CuDef*%
G36*
G01*
X123075000Y-83150000D02*
X123075000Y-83650000D01*
G75*
G02*
X122850000Y-83875000I-225000J0D01*
G01*
X122400000Y-83875000D01*
G75*
G02*
X122175000Y-83650000I0J225000D01*
G01*
X122175000Y-83150000D01*
G75*
G02*
X122400000Y-82925000I225000J0D01*
G01*
X122850000Y-82925000D01*
G75*
G02*
X123075000Y-83150000I0J-225000D01*
G01*
G37*
%TD.AperFunction*%
%TD*%
%TO.P,C15,2*%
%TO.N,GND*%
%TA.AperFunction,SMDPad,CuDef*%
G36*
G01*
X123700000Y-84480000D02*
X123700000Y-84820000D01*
G75*
G02*
X123560000Y-84960000I-140000J0D01*
G01*
X123280000Y-84960000D01*
G75*
G02*
X123140000Y-84820000I0J140000D01*
G01*
X123140000Y-84480000D01*
G75*
G02*
X123280000Y-84340000I140000J0D01*
G01*
X123560000Y-84340000D01*
G75*
G02*
X123700000Y-84480000I0J-140000D01*
G01*
G37*
%TD.AperFunction*%
%TO.P,C15,1*%
%TO.N,+3V3*%
%TA.AperFunction,SMDPad,CuDef*%
G36*
G01*
X124660000Y-84480000D02*
X124660000Y-84820000D01*
G75*
G02*
X124520000Y-84960000I-140000J0D01*
G01*
X124240000Y-84960000D01*
G75*
G02*
X124100000Y-84820000I0J140000D01*
G01*
X124100000Y-84480000D01*
G75*
G02*
X124240000Y-84340000I140000J0D01*
G01*
X124520000Y-84340000D01*
G75*
G02*
X124660000Y-84480000I0J-140000D01*
G01*
G37*
%TD.AperFunction*%
%TD*%
%TO.P,C16,1*%
%TO.N,Net-(C16-Pad1)*%
%TA.AperFunction,SMDPad,CuDef*%
G36*
G01*
X136750000Y-86325000D02*
X136250000Y-86325000D01*
G75*
G02*
X136025000Y-86100000I0J225000D01*
G01*
X136025000Y-85650000D01*
G75*
G02*
X136250000Y-85425000I225000J0D01*
G01*
X136750000Y-85425000D01*
G75*
G02*
X136975000Y-85650000I0J-225000D01*
G01*
X136975000Y-86100000D01*
G75*
G02*
X136750000Y-86325000I-225000J0D01*
G01*
G37*
%TD.AperFunction*%
%TO.P,C16,2*%
%TO.N,GND*%
%TA.AperFunction,SMDPad,CuDef*%
G36*
G01*
X136750000Y-84775000D02*
X136250000Y-84775000D01*
G75*
G02*
X136025000Y-84550000I0J225000D01*
G01*
X136025000Y-84100000D01*
G75*
G02*
X136250000Y-83875000I225000J0D01*
G01*
X136750000Y-83875000D01*
G75*
G02*
X136975000Y-84100000I0J-225000D01*
G01*
X136975000Y-84550000D01*
G75*
G02*
X136750000Y-84775000I-225000J0D01*
G01*
G37*
%TD.AperFunction*%
%TD*%
%TO.P,C17,1*%
%TO.N,+3V3*%
%TA.AperFunction,SMDPad,CuDef*%
G36*
G01*
X124070000Y-112410000D02*
X123730000Y-112410000D01*
G75*
G02*
X123590000Y-112270000I0J140000D01*
G01*
X123590000Y-111990000D01*
G75*
G02*
X123730000Y-111850000I140000J0D01*
G01*
X124070000Y-111850000D01*
G75*
G02*
X124210000Y-111990000I0J-140000D01*
G01*
X124210000Y-112270000D01*
G75*
G02*
X124070000Y-112410000I-140000J0D01*
G01*
G37*
%TD.AperFunction*%
%TO.P,C17,2*%
%TO.N,GND*%
%TA.AperFunction,SMDPad,CuDef*%
G36*
G01*
X124070000Y-111450000D02*
X123730000Y-111450000D01*
G75*
G02*
X123590000Y-111310000I0J140000D01*
G01*
X123590000Y-111030000D01*
G75*
G02*
X123730000Y-110890000I140000J0D01*
G01*
X124070000Y-110890000D01*
G75*
G02*
X124210000Y-111030000I0J-140000D01*
G01*
X124210000Y-111310000D01*
G75*
G02*
X124070000Y-111450000I-140000J0D01*
G01*
G37*
%TD.AperFunction*%
%TD*%
%TO.P,C18,2*%
%TO.N,GND*%
%TA.AperFunction,SMDPad,CuDef*%
G36*
G01*
X125120000Y-111450000D02*
X124780000Y-111450000D01*
G75*
G02*
X124640000Y-111310000I0J140000D01*
G01*
X124640000Y-111030000D01*
G75*
G02*
X124780000Y-110890000I140000J0D01*
G01*
X125120000Y-110890000D01*
G75*
G02*
X125260000Y-111030000I0J-140000D01*
G01*
X125260000Y-111310000D01*
G75*
G02*
X125120000Y-111450000I-140000J0D01*
G01*
G37*
%TD.AperFunction*%
%TO.P,C18,1*%
%TO.N,+3V3*%
%TA.AperFunction,SMDPad,CuDef*%
G36*
G01*
X125120000Y-112410000D02*
X124780000Y-112410000D01*
G75*
G02*
X124640000Y-112270000I0J140000D01*
G01*
X124640000Y-111990000D01*
G75*
G02*
X124780000Y-111850000I140000J0D01*
G01*
X125120000Y-111850000D01*
G75*
G02*
X125260000Y-111990000I0J-140000D01*
G01*
X125260000Y-112270000D01*
G75*
G02*
X125120000Y-112410000I-140000J0D01*
G01*
G37*
%TD.AperFunction*%
%TD*%
%TO.P,C21,2*%
%TO.N,GND*%
%TA.AperFunction,SMDPad,CuDef*%
G36*
G01*
X126450000Y-111075000D02*
X125950000Y-111075000D01*
G75*
G02*
X125725000Y-110850000I0J225000D01*
G01*
X125725000Y-110400000D01*
G75*
G02*
X125950000Y-110175000I225000J0D01*
G01*
X126450000Y-110175000D01*
G75*
G02*
X126675000Y-110400000I0J-225000D01*
G01*
X126675000Y-110850000D01*
G75*
G02*
X126450000Y-111075000I-225000J0D01*
G01*
G37*
%TD.AperFunction*%
%TO.P,C21,1*%
%TO.N,+3V3*%
%TA.AperFunction,SMDPad,CuDef*%
G36*
G01*
X126450000Y-112625000D02*
X125950000Y-112625000D01*
G75*
G02*
X125725000Y-112400000I0J225000D01*
G01*
X125725000Y-111950000D01*
G75*
G02*
X125950000Y-111725000I225000J0D01*
G01*
X126450000Y-111725000D01*
G75*
G02*
X126675000Y-111950000I0J-225000D01*
G01*
X126675000Y-112400000D01*
G75*
G02*
X126450000Y-112625000I-225000J0D01*
G01*
G37*
%TD.AperFunction*%
%TD*%
%TO.P,L1,1*%
%TO.N,Net-(L1-Pad1)*%
%TA.AperFunction,SMDPad,CuDef*%
G36*
G01*
X116643750Y-116175000D02*
X117156250Y-116175000D01*
G75*
G02*
X117375000Y-116393750I0J-218750D01*
G01*
X117375000Y-116831250D01*
G75*
G02*
X117156250Y-117050000I-218750J0D01*
G01*
X116643750Y-117050000D01*
G75*
G02*
X116425000Y-116831250I0J218750D01*
G01*
X116425000Y-116393750D01*
G75*
G02*
X116643750Y-116175000I218750J0D01*
G01*
G37*
%TD.AperFunction*%
%TO.P,L1,2*%
%TO.N,GND*%
%TA.AperFunction,SMDPad,CuDef*%
G36*
G01*
X116643750Y-117750000D02*
X117156250Y-117750000D01*
G75*
G02*
X117375000Y-117968750I0J-218750D01*
G01*
X117375000Y-118406250D01*
G75*
G02*
X117156250Y-118625000I-218750J0D01*
G01*
X116643750Y-118625000D01*
G75*
G02*
X116425000Y-118406250I0J218750D01*
G01*
X116425000Y-117968750D01*
G75*
G02*
X116643750Y-117750000I218750J0D01*
G01*
G37*
%TD.AperFunction*%
%TD*%
%TO.P,R1,2*%
%TO.N,Net-(J1-Pad3)*%
%TA.AperFunction,SMDPad,CuDef*%
G36*
G01*
X130515000Y-98540000D02*
X130885000Y-98540000D01*
G75*
G02*
X131020000Y-98675000I0J-135000D01*
G01*
X131020000Y-98945000D01*
G75*
G02*
X130885000Y-99080000I-135000J0D01*
G01*
X130515000Y-99080000D01*
G75*
G02*
X130380000Y-98945000I0J135000D01*
G01*
X130380000Y-98675000D01*
G75*
G02*
X130515000Y-98540000I135000J0D01*
G01*
G37*
%TD.AperFunction*%
%TO.P,R1,1*%
%TO.N,GND*%
%TA.AperFunction,SMDPad,CuDef*%
G36*
G01*
X130515000Y-97520000D02*
X130885000Y-97520000D01*
G75*
G02*
X131020000Y-97655000I0J-135000D01*
G01*
X131020000Y-97925000D01*
G75*
G02*
X130885000Y-98060000I-135000J0D01*
G01*
X130515000Y-98060000D01*
G75*
G02*
X130380000Y-97925000I0J135000D01*
G01*
X130380000Y-97655000D01*
G75*
G02*
X130515000Y-97520000I135000J0D01*
G01*
G37*
%TD.AperFunction*%
%TD*%
%TO.P,R2,1*%
%TO.N,GND*%
%TA.AperFunction,SMDPad,CuDef*%
G36*
G01*
X128515000Y-97520000D02*
X128885000Y-97520000D01*
G75*
G02*
X129020000Y-97655000I0J-135000D01*
G01*
X129020000Y-97925000D01*
G75*
G02*
X128885000Y-98060000I-135000J0D01*
G01*
X128515000Y-98060000D01*
G75*
G02*
X128380000Y-97925000I0J135000D01*
G01*
X128380000Y-97655000D01*
G75*
G02*
X128515000Y-97520000I135000J0D01*
G01*
G37*
%TD.AperFunction*%
%TO.P,R2,2*%
%TO.N,Net-(J1-Pad2)*%
%TA.AperFunction,SMDPad,CuDef*%
G36*
G01*
X128515000Y-98540000D02*
X128885000Y-98540000D01*
G75*
G02*
X129020000Y-98675000I0J-135000D01*
G01*
X129020000Y-98945000D01*
G75*
G02*
X128885000Y-99080000I-135000J0D01*
G01*
X128515000Y-99080000D01*
G75*
G02*
X128380000Y-98945000I0J135000D01*
G01*
X128380000Y-98675000D01*
G75*
G02*
X128515000Y-98540000I135000J0D01*
G01*
G37*
%TD.AperFunction*%
%TD*%
%TO.P,R4,1*%
%TO.N,I2S_WCLK*%
%TA.AperFunction,SMDPad,CuDef*%
G36*
G01*
X139120000Y-95085000D02*
X139120000Y-94715000D01*
G75*
G02*
X139255000Y-94580000I135000J0D01*
G01*
X139525000Y-94580000D01*
G75*
G02*
X139660000Y-94715000I0J-135000D01*
G01*
X139660000Y-95085000D01*
G75*
G02*
X139525000Y-95220000I-135000J0D01*
G01*
X139255000Y-95220000D01*
G75*
G02*
X139120000Y-95085000I0J135000D01*
G01*
G37*
%TD.AperFunction*%
%TO.P,R4,2*%
%TO.N,/I2S_WCLK_R*%
%TA.AperFunction,SMDPad,CuDef*%
G36*
G01*
X140140000Y-95085000D02*
X140140000Y-94715000D01*
G75*
G02*
X140275000Y-94580000I135000J0D01*
G01*
X140545000Y-94580000D01*
G75*
G02*
X140680000Y-94715000I0J-135000D01*
G01*
X140680000Y-95085000D01*
G75*
G02*
X140545000Y-95220000I-135000J0D01*
G01*
X140275000Y-95220000D01*
G75*
G02*
X140140000Y-95085000I0J135000D01*
G01*
G37*
%TD.AperFunction*%
%TD*%
%TO.P,R5,2*%
%TO.N,/I2S_DATA_R*%
%TA.AperFunction,SMDPad,CuDef*%
G36*
G01*
X140140000Y-90085000D02*
X140140000Y-89715000D01*
G75*
G02*
X140275000Y-89580000I135000J0D01*
G01*
X140545000Y-89580000D01*
G75*
G02*
X140680000Y-89715000I0J-135000D01*
G01*
X140680000Y-90085000D01*
G75*
G02*
X140545000Y-90220000I-135000J0D01*
G01*
X140275000Y-90220000D01*
G75*
G02*
X140140000Y-90085000I0J135000D01*
G01*
G37*
%TD.AperFunction*%
%TO.P,R5,1*%
%TO.N,I2S_DATA*%
%TA.AperFunction,SMDPad,CuDef*%
G36*
G01*
X139120000Y-90085000D02*
X139120000Y-89715000D01*
G75*
G02*
X139255000Y-89580000I135000J0D01*
G01*
X139525000Y-89580000D01*
G75*
G02*
X139660000Y-89715000I0J-135000D01*
G01*
X139660000Y-90085000D01*
G75*
G02*
X139525000Y-90220000I-135000J0D01*
G01*
X139255000Y-90220000D01*
G75*
G02*
X139120000Y-90085000I0J135000D01*
G01*
G37*
%TD.AperFunction*%
%TD*%
%TO.P,R6,1*%
%TO.N,I2S_DCLK*%
%TA.AperFunction,SMDPad,CuDef*%
G36*
G01*
X139120000Y-98085000D02*
X139120000Y-97715000D01*
G75*
G02*
X139255000Y-97580000I135000J0D01*
G01*
X139525000Y-97580000D01*
G75*
G02*
X139660000Y-97715000I0J-135000D01*
G01*
X139660000Y-98085000D01*
G75*
G02*
X139525000Y-98220000I-135000J0D01*
G01*
X139255000Y-98220000D01*
G75*
G02*
X139120000Y-98085000I0J135000D01*
G01*
G37*
%TD.AperFunction*%
%TO.P,R6,2*%
%TO.N,/I2S_DCLK_R*%
%TA.AperFunction,SMDPad,CuDef*%
G36*
G01*
X140140000Y-98085000D02*
X140140000Y-97715000D01*
G75*
G02*
X140275000Y-97580000I135000J0D01*
G01*
X140545000Y-97580000D01*
G75*
G02*
X140680000Y-97715000I0J-135000D01*
G01*
X140680000Y-98085000D01*
G75*
G02*
X140545000Y-98220000I-135000J0D01*
G01*
X140275000Y-98220000D01*
G75*
G02*
X140140000Y-98085000I0J135000D01*
G01*
G37*
%TD.AperFunction*%
%TD*%
%TO.P,R9,2*%
%TO.N,/SPI_MOSI_R*%
%TA.AperFunction,SMDPad,CuDef*%
G36*
G01*
X119160000Y-89715000D02*
X119160000Y-90085000D01*
G75*
G02*
X119025000Y-90220000I-135000J0D01*
G01*
X118755000Y-90220000D01*
G75*
G02*
X118620000Y-90085000I0J135000D01*
G01*
X118620000Y-89715000D01*
G75*
G02*
X118755000Y-89580000I135000J0D01*
G01*
X119025000Y-89580000D01*
G75*
G02*
X119160000Y-89715000I0J-135000D01*
G01*
G37*
%TD.AperFunction*%
%TO.P,R9,1*%
%TO.N,SPI_MOSI*%
%TA.AperFunction,SMDPad,CuDef*%
G36*
G01*
X120180000Y-89715000D02*
X120180000Y-90085000D01*
G75*
G02*
X120045000Y-90220000I-135000J0D01*
G01*
X119775000Y-90220000D01*
G75*
G02*
X119640000Y-90085000I0J135000D01*
G01*
X119640000Y-89715000D01*
G75*
G02*
X119775000Y-89580000I135000J0D01*
G01*
X120045000Y-89580000D01*
G75*
G02*
X120180000Y-89715000I0J-135000D01*
G01*
G37*
%TD.AperFunction*%
%TD*%
%TO.P,R10,2*%
%TO.N,/SPI_CLK_R*%
%TA.AperFunction,SMDPad,CuDef*%
G36*
G01*
X119160000Y-87215000D02*
X119160000Y-87585000D01*
G75*
G02*
X119025000Y-87720000I-135000J0D01*
G01*
X118755000Y-87720000D01*
G75*
G02*
X118620000Y-87585000I0J135000D01*
G01*
X118620000Y-87215000D01*
G75*
G02*
X118755000Y-87080000I135000J0D01*
G01*
X119025000Y-87080000D01*
G75*
G02*
X119160000Y-87215000I0J-135000D01*
G01*
G37*
%TD.AperFunction*%
%TO.P,R10,1*%
%TO.N,SPI_CLK*%
%TA.AperFunction,SMDPad,CuDef*%
G36*
G01*
X120180000Y-87215000D02*
X120180000Y-87585000D01*
G75*
G02*
X120045000Y-87720000I-135000J0D01*
G01*
X119775000Y-87720000D01*
G75*
G02*
X119640000Y-87585000I0J135000D01*
G01*
X119640000Y-87215000D01*
G75*
G02*
X119775000Y-87080000I135000J0D01*
G01*
X120045000Y-87080000D01*
G75*
G02*
X120180000Y-87215000I0J-135000D01*
G01*
G37*
%TD.AperFunction*%
%TD*%
%TO.P,R11,1*%
%TO.N,SPI_~CS~*%
%TA.AperFunction,SMDPad,CuDef*%
G36*
G01*
X120180000Y-84715000D02*
X120180000Y-85085000D01*
G75*
G02*
X120045000Y-85220000I-135000J0D01*
G01*
X119775000Y-85220000D01*
G75*
G02*
X119640000Y-85085000I0J135000D01*
G01*
X119640000Y-84715000D01*
G75*
G02*
X119775000Y-84580000I135000J0D01*
G01*
X120045000Y-84580000D01*
G75*
G02*
X120180000Y-84715000I0J-135000D01*
G01*
G37*
%TD.AperFunction*%
%TO.P,R11,2*%
%TO.N,/SPI_CS_R*%
%TA.AperFunction,SMDPad,CuDef*%
G36*
G01*
X119160000Y-84715000D02*
X119160000Y-85085000D01*
G75*
G02*
X119025000Y-85220000I-135000J0D01*
G01*
X118755000Y-85220000D01*
G75*
G02*
X118620000Y-85085000I0J135000D01*
G01*
X118620000Y-84715000D01*
G75*
G02*
X118755000Y-84580000I135000J0D01*
G01*
X119025000Y-84580000D01*
G75*
G02*
X119160000Y-84715000I0J-135000D01*
G01*
G37*
%TD.AperFunction*%
%TD*%
%TO.P,R13,1*%
%TO.N,Net-(C12-Pad1)*%
%TA.AperFunction,SMDPad,CuDef*%
G36*
G01*
X124430000Y-87965000D02*
X124430000Y-88335000D01*
G75*
G02*
X124295000Y-88470000I-135000J0D01*
G01*
X124025000Y-88470000D01*
G75*
G02*
X123890000Y-88335000I0J135000D01*
G01*
X123890000Y-87965000D01*
G75*
G02*
X124025000Y-87830000I135000J0D01*
G01*
X124295000Y-87830000D01*
G75*
G02*
X124430000Y-87965000I0J-135000D01*
G01*
G37*
%TD.AperFunction*%
%TO.P,R13,2*%
%TO.N,+3V3*%
%TA.AperFunction,SMDPad,CuDef*%
G36*
G01*
X123410000Y-87965000D02*
X123410000Y-88335000D01*
G75*
G02*
X123275000Y-88470000I-135000J0D01*
G01*
X123005000Y-88470000D01*
G75*
G02*
X122870000Y-88335000I0J135000D01*
G01*
X122870000Y-87965000D01*
G75*
G02*
X123005000Y-87830000I135000J0D01*
G01*
X123275000Y-87830000D01*
G75*
G02*
X123410000Y-87965000I0J-135000D01*
G01*
G37*
%TD.AperFunction*%
%TD*%
%TO.P,R14,2*%
%TO.N,/ANTENNA*%
%TA.AperFunction,SMDPad,CuDef*%
G36*
G01*
X111661109Y-117699480D02*
X111399480Y-117961109D01*
G75*
G02*
X111208562Y-117961109I-95459J95459D01*
G01*
X111017643Y-117770190D01*
G75*
G02*
X111017643Y-117579272I95459J95459D01*
G01*
X111279272Y-117317643D01*
G75*
G02*
X111470190Y-117317643I95459J-95459D01*
G01*
X111661109Y-117508562D01*
G75*
G02*
X111661109Y-117699480I-95459J-95459D01*
G01*
G37*
%TD.AperFunction*%
%TO.P,R14,1*%
%TO.N,Net-(L1-Pad1)*%
%TA.AperFunction,SMDPad,CuDef*%
G36*
G01*
X112382357Y-118420728D02*
X112120728Y-118682357D01*
G75*
G02*
X111929810Y-118682357I-95459J95459D01*
G01*
X111738891Y-118491438D01*
G75*
G02*
X111738891Y-118300520I95459J95459D01*
G01*
X112000520Y-118038891D01*
G75*
G02*
X112191438Y-118038891I95459J-95459D01*
G01*
X112382357Y-118229810D01*
G75*
G02*
X112382357Y-118420728I-95459J-95459D01*
G01*
G37*
%TD.AperFunction*%
%TD*%
%TO.P,R15,1*%
%TO.N,DAC_~RST~*%
%TA.AperFunction,SMDPad,CuDef*%
G36*
G01*
X140085000Y-81180000D02*
X139715000Y-81180000D01*
G75*
G02*
X139580000Y-81045000I0J135000D01*
G01*
X139580000Y-80775000D01*
G75*
G02*
X139715000Y-80640000I135000J0D01*
G01*
X140085000Y-80640000D01*
G75*
G02*
X140220000Y-80775000I0J-135000D01*
G01*
X140220000Y-81045000D01*
G75*
G02*
X140085000Y-81180000I-135000J0D01*
G01*
G37*
%TD.AperFunction*%
%TO.P,R15,2*%
%TO.N,GND*%
%TA.AperFunction,SMDPad,CuDef*%
G36*
G01*
X140085000Y-80160000D02*
X139715000Y-80160000D01*
G75*
G02*
X139580000Y-80025000I0J135000D01*
G01*
X139580000Y-79755000D01*
G75*
G02*
X139715000Y-79620000I135000J0D01*
G01*
X140085000Y-79620000D01*
G75*
G02*
X140220000Y-79755000I0J-135000D01*
G01*
X140220000Y-80025000D01*
G75*
G02*
X140085000Y-80160000I-135000J0D01*
G01*
G37*
%TD.AperFunction*%
%TD*%
%TO.P,R18,2*%
%TO.N,GND*%
%TA.AperFunction,SMDPad,CuDef*%
G36*
G01*
X117410000Y-113715000D02*
X117410000Y-114085000D01*
G75*
G02*
X117275000Y-114220000I-135000J0D01*
G01*
X117005000Y-114220000D01*
G75*
G02*
X116870000Y-114085000I0J135000D01*
G01*
X116870000Y-113715000D01*
G75*
G02*
X117005000Y-113580000I135000J0D01*
G01*
X117275000Y-113580000D01*
G75*
G02*
X117410000Y-113715000I0J-135000D01*
G01*
G37*
%TD.AperFunction*%
%TO.P,R18,1*%
%TO.N,RADIO_~RST~*%
%TA.AperFunction,SMDPad,CuDef*%
G36*
G01*
X118430000Y-113715000D02*
X118430000Y-114085000D01*
G75*
G02*
X118295000Y-114220000I-135000J0D01*
G01*
X118025000Y-114220000D01*
G75*
G02*
X117890000Y-114085000I0J135000D01*
G01*
X117890000Y-113715000D01*
G75*
G02*
X118025000Y-113580000I135000J0D01*
G01*
X118295000Y-113580000D01*
G75*
G02*
X118430000Y-113715000I0J-135000D01*
G01*
G37*
%TD.AperFunction*%
%TD*%
%TO.P,R19,2*%
%TO.N,GND*%
%TA.AperFunction,SMDPad,CuDef*%
G36*
G01*
X120535000Y-111410000D02*
X120165000Y-111410000D01*
G75*
G02*
X120030000Y-111275000I0J135000D01*
G01*
X120030000Y-111005000D01*
G75*
G02*
X120165000Y-110870000I135000J0D01*
G01*
X120535000Y-110870000D01*
G75*
G02*
X120670000Y-111005000I0J-135000D01*
G01*
X120670000Y-111275000D01*
G75*
G02*
X120535000Y-111410000I-135000J0D01*
G01*
G37*
%TD.AperFunction*%
%TO.P,R19,1*%
%TO.N,Net-(R19-Pad1)*%
%TA.AperFunction,SMDPad,CuDef*%
G36*
G01*
X120535000Y-112430000D02*
X120165000Y-112430000D01*
G75*
G02*
X120030000Y-112295000I0J135000D01*
G01*
X120030000Y-112025000D01*
G75*
G02*
X120165000Y-111890000I135000J0D01*
G01*
X120535000Y-111890000D01*
G75*
G02*
X120670000Y-112025000I0J-135000D01*
G01*
X120670000Y-112295000D01*
G75*
G02*
X120535000Y-112430000I-135000J0D01*
G01*
G37*
%TD.AperFunction*%
%TD*%
%TO.P,R20,2*%
%TO.N,GND*%
%TA.AperFunction,SMDPad,CuDef*%
G36*
G01*
X119660000Y-118715000D02*
X119660000Y-119085000D01*
G75*
G02*
X119525000Y-119220000I-135000J0D01*
G01*
X119255000Y-119220000D01*
G75*
G02*
X119120000Y-119085000I0J135000D01*
G01*
X119120000Y-118715000D01*
G75*
G02*
X119255000Y-118580000I135000J0D01*
G01*
X119525000Y-118580000D01*
G75*
G02*
X119660000Y-118715000I0J-135000D01*
G01*
G37*
%TD.AperFunction*%
%TO.P,R20,1*%
%TO.N,Net-(R20-Pad1)*%
%TA.AperFunction,SMDPad,CuDef*%
G36*
G01*
X120680000Y-118715000D02*
X120680000Y-119085000D01*
G75*
G02*
X120545000Y-119220000I-135000J0D01*
G01*
X120275000Y-119220000D01*
G75*
G02*
X120140000Y-119085000I0J135000D01*
G01*
X120140000Y-118715000D01*
G75*
G02*
X120275000Y-118580000I135000J0D01*
G01*
X120545000Y-118580000D01*
G75*
G02*
X120680000Y-118715000I0J-135000D01*
G01*
G37*
%TD.AperFunction*%
%TD*%
%TO.P,R21,1*%
%TO.N,Net-(R21-Pad1)*%
%TA.AperFunction,SMDPad,CuDef*%
G36*
G01*
X121920000Y-119085000D02*
X121920000Y-118715000D01*
G75*
G02*
X122055000Y-118580000I135000J0D01*
G01*
X122325000Y-118580000D01*
G75*
G02*
X122460000Y-118715000I0J-135000D01*
G01*
X122460000Y-119085000D01*
G75*
G02*
X122325000Y-119220000I-135000J0D01*
G01*
X122055000Y-119220000D01*
G75*
G02*
X121920000Y-119085000I0J135000D01*
G01*
G37*
%TD.AperFunction*%
%TO.P,R21,2*%
%TO.N,GND*%
%TA.AperFunction,SMDPad,CuDef*%
G36*
G01*
X122940000Y-119085000D02*
X122940000Y-118715000D01*
G75*
G02*
X123075000Y-118580000I135000J0D01*
G01*
X123345000Y-118580000D01*
G75*
G02*
X123480000Y-118715000I0J-135000D01*
G01*
X123480000Y-119085000D01*
G75*
G02*
X123345000Y-119220000I-135000J0D01*
G01*
X123075000Y-119220000D01*
G75*
G02*
X122940000Y-119085000I0J135000D01*
G01*
G37*
%TD.AperFunction*%
%TD*%
%TO.P,R22,1*%
%TO.N,AUDIO_L*%
%TA.AperFunction,SMDPad,CuDef*%
G36*
G01*
X128580000Y-116915000D02*
X128580000Y-117285000D01*
G75*
G02*
X128445000Y-117420000I-135000J0D01*
G01*
X128175000Y-117420000D01*
G75*
G02*
X128040000Y-117285000I0J135000D01*
G01*
X128040000Y-116915000D01*
G75*
G02*
X128175000Y-116780000I135000J0D01*
G01*
X128445000Y-116780000D01*
G75*
G02*
X128580000Y-116915000I0J-135000D01*
G01*
G37*
%TD.AperFunction*%
%TO.P,R22,2*%
%TO.N,Net-(R22-Pad2)*%
%TA.AperFunction,SMDPad,CuDef*%
G36*
G01*
X127560000Y-116915000D02*
X127560000Y-117285000D01*
G75*
G02*
X127425000Y-117420000I-135000J0D01*
G01*
X127155000Y-117420000D01*
G75*
G02*
X127020000Y-117285000I0J135000D01*
G01*
X127020000Y-116915000D01*
G75*
G02*
X127155000Y-116780000I135000J0D01*
G01*
X127425000Y-116780000D01*
G75*
G02*
X127560000Y-116915000I0J-135000D01*
G01*
G37*
%TD.AperFunction*%
%TD*%
%TO.P,R23,2*%
%TO.N,Net-(R23-Pad2)*%
%TA.AperFunction,SMDPad,CuDef*%
G36*
G01*
X127560000Y-115715000D02*
X127560000Y-116085000D01*
G75*
G02*
X127425000Y-116220000I-135000J0D01*
G01*
X127155000Y-116220000D01*
G75*
G02*
X127020000Y-116085000I0J135000D01*
G01*
X127020000Y-115715000D01*
G75*
G02*
X127155000Y-115580000I135000J0D01*
G01*
X127425000Y-115580000D01*
G75*
G02*
X127560000Y-115715000I0J-135000D01*
G01*
G37*
%TD.AperFunction*%
%TO.P,R23,1*%
%TO.N,AUDIO_R*%
%TA.AperFunction,SMDPad,CuDef*%
G36*
G01*
X128580000Y-115715000D02*
X128580000Y-116085000D01*
G75*
G02*
X128445000Y-116220000I-135000J0D01*
G01*
X128175000Y-116220000D01*
G75*
G02*
X128040000Y-116085000I0J135000D01*
G01*
X128040000Y-115715000D01*
G75*
G02*
X128175000Y-115580000I135000J0D01*
G01*
X128445000Y-115580000D01*
G75*
G02*
X128580000Y-115715000I0J-135000D01*
G01*
G37*
%TD.AperFunction*%
%TD*%
D16*
%TO.P,U3,2*%
%TO.N,GND*%
X120285000Y-116550000D03*
%TO.P,U3,3*%
X120285000Y-116050000D03*
%TO.P,U3,4*%
%TO.N,Net-(L1-Pad1)*%
X120285000Y-115550000D03*
%TO.P,U3,5*%
%TO.N,RADIO_~RST~*%
X120285000Y-115050000D03*
D17*
%TO.P,U3,6*%
%TO.N,Net-(R19-Pad1)*%
X120355000Y-114535000D03*
D18*
%TO.P,U3,7*%
%TO.N,I2C_SCL*%
X120870000Y-114465000D03*
%TO.P,U3,8*%
%TO.N,I2C_SDA*%
X121370000Y-114465000D03*
%TO.P,U3,9*%
%TO.N,RADIO_REFCLK*%
X121870000Y-114465000D03*
%TO.P,U3,10*%
%TO.N,+3V3*%
X122370000Y-114465000D03*
D17*
%TO.P,U3,11*%
X122885000Y-114535000D03*
D16*
%TO.P,U3,12*%
%TO.N,GND*%
X122955000Y-115050000D03*
%TO.P,U3,13*%
%TO.N,I2S_DATA*%
X122955000Y-115550000D03*
%TO.P,U3,14*%
%TO.N,I2S_WCLK*%
X122955000Y-116050000D03*
%TO.P,U3,15*%
%TO.N,Net-(R23-Pad2)*%
X122955000Y-116550000D03*
D17*
%TO.P,U3,16*%
%TO.N,Net-(R22-Pad2)*%
X122885000Y-117065000D03*
D18*
%TO.P,U3,17*%
%TO.N,I2S_DCLK*%
X122370000Y-117135000D03*
%TO.P,U3,18*%
%TO.N,Net-(R21-Pad1)*%
X121870000Y-117135000D03*
%TO.P,U3,19*%
%TO.N,Net-(R20-Pad1)*%
X121370000Y-117135000D03*
%TO.P,U3,20*%
%TO.N,N/C*%
X120870000Y-117135000D03*
D19*
%TO.P,U3,21*%
%TO.N,GND*%
X121620000Y-115800000D03*
D17*
%TO.P,U3,1*%
%TO.N,N/C*%
X120345000Y-117065000D03*
%TD*%
D20*
%TO.N,GND*%
X139350000Y-87900000D03*
X140400000Y-84800000D03*
X136450000Y-95350000D03*
X137350000Y-90900000D03*
X135500000Y-97350000D03*
X131900000Y-107700000D03*
X128700000Y-110100000D03*
X128200000Y-113900000D03*
X119700000Y-114000000D03*
%TO.N,+5V*%
X124050204Y-109332739D03*
X118599990Y-112700000D03*
%TO.N,GND*%
X122350000Y-84600000D03*
X122350000Y-85700000D03*
X134700000Y-84900000D03*
X116300000Y-113800000D03*
X118177500Y-118187500D03*
X118100000Y-91100000D03*
X127650000Y-93000000D03*
X141400000Y-98650000D03*
X141400000Y-96150000D03*
X141400000Y-90900000D03*
X117900000Y-80900000D03*
X117900000Y-83400000D03*
X118150000Y-85900000D03*
X118150000Y-88400000D03*
X139900000Y-78900000D03*
X133200000Y-98700000D03*
X124000000Y-107500000D03*
X127068190Y-97800000D03*
X124200000Y-118900000D03*
X135400000Y-98700000D03*
X124000000Y-98699998D03*
X135400000Y-107500000D03*
X124900000Y-110400000D03*
X123900000Y-110400000D03*
X120800567Y-110411390D03*
X122568190Y-112050000D03*
X122568190Y-108550000D03*
X131999994Y-111781748D03*
X133400000Y-114200010D03*
X133450000Y-111900000D03*
X121681810Y-96150000D03*
X121681810Y-98400000D03*
X118550000Y-106100000D03*
X137018190Y-92950000D03*
X124150000Y-114650000D03*
X119200000Y-116550000D03*
X132030296Y-114215759D03*
X131050000Y-116450000D03*
X132650000Y-110450000D03*
X129600000Y-117450000D03*
X132850000Y-118850000D03*
X135000000Y-116850000D03*
X135000000Y-115000000D03*
X135000000Y-118850000D03*
X140000000Y-118850000D03*
X140000000Y-115000000D03*
X137500000Y-118850000D03*
X137500000Y-115000000D03*
X142500000Y-115000000D03*
X142500000Y-117500000D03*
X142500000Y-112500000D03*
X132500000Y-105000000D03*
X132500000Y-95000000D03*
X132500000Y-90000000D03*
X122500000Y-90000000D03*
X122500000Y-92500000D03*
X120000000Y-72500000D03*
X125000000Y-72500000D03*
X130000000Y-72500000D03*
X135000000Y-72500000D03*
X140000000Y-72500000D03*
X120000000Y-77500000D03*
X125000000Y-77500000D03*
X130000000Y-77500000D03*
X135000000Y-77500000D03*
X140000000Y-77500000D03*
X126100000Y-117700000D03*
X124900000Y-113400000D03*
X128800000Y-105000000D03*
X118177500Y-116600000D03*
X116100000Y-115400000D03*
X116900000Y-119200000D03*
X118598600Y-114792115D03*
X119400000Y-103900000D03*
X119400000Y-100900000D03*
X119800000Y-94000000D03*
X136400000Y-111900000D03*
X137900000Y-110400000D03*
X140500000Y-101800000D03*
X140500000Y-105600000D03*
%TO.N,+3V3*%
X123499998Y-89100000D03*
X123700000Y-82300000D03*
X133881810Y-113104799D03*
X120418190Y-97300000D03*
X127400000Y-111231030D03*
%TO.N,AUDIO_R*%
X128970620Y-96829380D03*
X130751688Y-112570082D03*
%TO.N,AUDIO_L*%
X127650000Y-96900000D03*
X130022155Y-112219035D03*
%TO.N,Net-(R28-Pad1)*%
X138400000Y-96900000D03*
X135400000Y-95800000D03*
%TO.N,Net-(R29-Pad1)*%
X138400000Y-91900000D03*
X135768190Y-91842842D03*
%TO.N,Net-(R30-Pad1)*%
X138400000Y-93900000D03*
X136386380Y-93900000D03*
%TD*%
D21*
%TO.N,+5V*%
X126200000Y-99500000D02*
X126200000Y-98780000D01*
X126200000Y-99500000D02*
X126200000Y-101130000D01*
X118329999Y-110070001D02*
X119300000Y-109100000D01*
X117030001Y-110070001D02*
X118329999Y-110070001D01*
X126200000Y-101130000D02*
X126200000Y-107182943D01*
X126200000Y-107182943D02*
X124050204Y-109332739D01*
X117000000Y-110060000D02*
X118599990Y-111659990D01*
X118599990Y-111659990D02*
X118599990Y-112700000D01*
%TO.N,GND*%
X123420000Y-84195000D02*
X123420000Y-84650000D01*
X122625000Y-83400000D02*
X123420000Y-84195000D01*
X122400000Y-84650000D02*
X122350000Y-84600000D01*
X123420000Y-84650000D02*
X122400000Y-84650000D01*
X122400000Y-85650000D02*
X122350000Y-85700000D01*
X123420000Y-85650000D02*
X122400000Y-85650000D01*
X122625000Y-86900000D02*
X122650000Y-86900000D01*
X123420000Y-86130000D02*
X123420000Y-85650000D01*
X122650000Y-86900000D02*
X123420000Y-86130000D01*
X133241000Y-84574998D02*
X134374998Y-84574998D01*
X134374998Y-84574998D02*
X134700000Y-84900000D01*
X134375001Y-85224999D02*
X134700000Y-84900000D01*
X133241000Y-85224999D02*
X134375001Y-85224999D01*
D22*
X122629549Y-115050000D02*
X122955000Y-115050000D01*
X121879549Y-115800000D02*
X122629549Y-115050000D01*
X121620000Y-115800000D02*
X121879549Y-115800000D01*
X121370000Y-116050000D02*
X121620000Y-115800000D01*
X120285000Y-116050000D02*
X121370000Y-116050000D01*
X116400000Y-113900000D02*
X116300000Y-113800000D01*
X117140000Y-113900000D02*
X116400000Y-113900000D01*
D21*
X116900000Y-118187500D02*
X118177500Y-118187500D01*
D22*
X118940000Y-91450000D02*
X118450000Y-91450000D01*
X118450000Y-91450000D02*
X118100000Y-91100000D01*
X127580000Y-91940000D02*
X127600000Y-91960000D01*
X126100000Y-91940000D02*
X127580000Y-91940000D01*
X129100000Y-94175000D02*
X127600000Y-94175000D01*
X127600000Y-91960000D02*
X129580000Y-91960000D01*
X129580000Y-91960000D02*
X129600000Y-91940000D01*
X127600000Y-91960000D02*
X127600000Y-92950000D01*
X127600000Y-92950000D02*
X127600000Y-94175000D01*
X127600000Y-92950000D02*
X127650000Y-93000000D01*
X141150000Y-98900000D02*
X141400000Y-98650000D01*
X140380000Y-98900000D02*
X141150000Y-98900000D01*
X140360000Y-95900000D02*
X141150000Y-95900000D01*
X141150000Y-95900000D02*
X141400000Y-96150000D01*
X140360000Y-90900000D02*
X141400000Y-90900000D01*
X118150000Y-80650000D02*
X117900000Y-80900000D01*
X118940000Y-80650000D02*
X118150000Y-80650000D01*
X118400000Y-82900000D02*
X117900000Y-83400000D01*
X118890000Y-82900000D02*
X118400000Y-82900000D01*
X118400000Y-83900000D02*
X117900000Y-83400000D01*
X118940000Y-83900000D02*
X118400000Y-83900000D01*
X118650000Y-86400000D02*
X118150000Y-85900000D01*
X118920000Y-86400000D02*
X118650000Y-86400000D01*
X118940000Y-88900000D02*
X118900000Y-88900000D01*
X118400000Y-88400000D02*
X118150000Y-88400000D01*
X118900000Y-88900000D02*
X118400000Y-88400000D01*
X139900000Y-79890000D02*
X139900000Y-78900000D01*
D21*
X136475000Y-84300000D02*
X136500000Y-84325000D01*
X135700000Y-84300000D02*
X136475000Y-84300000D01*
X135100000Y-84900000D02*
X135700000Y-84300000D01*
X134700000Y-84900000D02*
X135100000Y-84900000D01*
X142360002Y-107600000D02*
X142430001Y-107530001D01*
X140775000Y-108125000D02*
X141300000Y-107600000D01*
X141300000Y-107600000D02*
X142360002Y-107600000D01*
X139900000Y-108125000D02*
X140775000Y-108125000D01*
X130670000Y-97820000D02*
X130700000Y-97790000D01*
X130700000Y-97790000D02*
X132290000Y-97790000D01*
X133200000Y-98700000D02*
X133200000Y-101130000D01*
X132290000Y-97790000D02*
X133200000Y-98700000D01*
X126200000Y-97820000D02*
X127480000Y-97820000D01*
X127480000Y-97820000D02*
X130670000Y-97820000D01*
X124000000Y-103150000D02*
X124000000Y-107500000D01*
X135400000Y-103150000D02*
X135400000Y-107500000D01*
X127088190Y-97820000D02*
X127068190Y-97800000D01*
X127480000Y-97820000D02*
X127088190Y-97820000D01*
X117060002Y-107500000D02*
X117030001Y-107530001D01*
X119300000Y-107500000D02*
X117060002Y-107500000D01*
D22*
X123200000Y-118900000D02*
X124200000Y-118900000D01*
X120917010Y-116502990D02*
X121620000Y-115800000D01*
X120676559Y-116502990D02*
X120917010Y-116502990D01*
X120629549Y-116550000D02*
X120676559Y-116502990D01*
X120285000Y-116550000D02*
X120629549Y-116550000D01*
X118890000Y-118900000D02*
X118177500Y-118187500D01*
X119390000Y-118900000D02*
X118890000Y-118900000D01*
D21*
X135400000Y-103150000D02*
X135400000Y-98700000D01*
X124000000Y-103150000D02*
X124000000Y-98699998D01*
X125325000Y-111200000D02*
X123850000Y-111200000D01*
X125900000Y-110625000D02*
X125325000Y-111200000D01*
X123950000Y-111200000D02*
X123900000Y-111150000D01*
X123900000Y-111150000D02*
X123900000Y-110400000D01*
X124950000Y-111200000D02*
X123950000Y-111200000D01*
X124900000Y-111150000D02*
X124950000Y-111200000D01*
X124900000Y-110400000D02*
X124900000Y-111150000D01*
X120350000Y-111140000D02*
X120350000Y-110861957D01*
X120350000Y-110861957D02*
X120800567Y-110411390D01*
X122600000Y-112036427D02*
X122604002Y-112040429D01*
X122600000Y-108558004D02*
X122600000Y-112036427D01*
X122604002Y-108554002D02*
X122600000Y-108558004D01*
D22*
X122568190Y-112076241D02*
X122568190Y-112050000D01*
X122604002Y-112040429D02*
X122568190Y-112076241D01*
X122604002Y-108554002D02*
X122600000Y-108550000D01*
X122600000Y-108550000D02*
X122568190Y-108550000D01*
X131999994Y-111781748D02*
X131999994Y-114185457D01*
X131999994Y-114185457D02*
X132030296Y-114215759D01*
X133250000Y-114050010D02*
X133250000Y-112100000D01*
X133250000Y-112100000D02*
X133450000Y-111900000D01*
X133400000Y-114200010D02*
X133250000Y-114050010D01*
D21*
X121681810Y-98400000D02*
X121681810Y-96150000D01*
D22*
X137018190Y-91231810D02*
X137018190Y-92950000D01*
X122955000Y-115050000D02*
X123750000Y-115050000D01*
X137018190Y-94781810D02*
X137018190Y-92950000D01*
X136450000Y-95350000D02*
X137018190Y-94781810D01*
X123750000Y-115050000D02*
X124150000Y-114650000D01*
X137350000Y-90900000D02*
X137018190Y-91231810D01*
X120285000Y-116550000D02*
X119200000Y-116550000D01*
X119700000Y-116050000D02*
X119200000Y-116550000D01*
X120285000Y-116050000D02*
X119700000Y-116050000D01*
D21*
X117300000Y-114800000D02*
X118590715Y-114800000D01*
X118590715Y-114800000D02*
X118598600Y-114792115D01*
%TO.N,+3V3*%
X124430000Y-84600000D02*
X124380000Y-84650000D01*
X124150000Y-83375000D02*
X124175000Y-83400000D01*
D22*
X122370000Y-114465000D02*
X122370000Y-114180000D01*
X122370000Y-114180000D02*
X122900000Y-113650000D01*
X122885000Y-113665000D02*
X122900000Y-113650000D01*
X122885000Y-114535000D02*
X122885000Y-113665000D01*
D21*
X125700000Y-84600000D02*
X124680000Y-84600000D01*
X126298398Y-84600000D02*
X125700000Y-84600000D01*
X126323397Y-84575001D02*
X126298398Y-84600000D01*
X127399000Y-84575001D02*
X126323397Y-84575001D01*
X124380000Y-83530000D02*
X124380000Y-84650000D01*
X124250000Y-83400000D02*
X124380000Y-83530000D01*
X124175000Y-83400000D02*
X124250000Y-83400000D01*
X141219999Y-110119999D02*
X142430001Y-110119999D01*
X140775000Y-109675000D02*
X141219999Y-110119999D01*
X139900000Y-109675000D02*
X140775000Y-109675000D01*
X123140000Y-88150000D02*
X123140000Y-88740002D01*
X123140000Y-88740002D02*
X123499998Y-89100000D01*
X124150000Y-82750000D02*
X123700000Y-82300000D01*
X124150000Y-83400000D02*
X124150000Y-82750000D01*
X139900000Y-109675000D02*
X139900000Y-110125000D01*
X139900000Y-110125000D02*
X136920201Y-113104799D01*
X136920201Y-113104799D02*
X133881810Y-113104799D01*
D22*
X119100000Y-97990000D02*
X119728190Y-97990000D01*
X119728190Y-97990000D02*
X120418190Y-97300000D01*
X119628190Y-96510000D02*
X120418190Y-97300000D01*
X119100000Y-96510000D02*
X119628190Y-96510000D01*
D21*
X123945000Y-112175000D02*
X123900000Y-112130000D01*
X126200000Y-112175000D02*
X123945000Y-112175000D01*
X123900000Y-112650000D02*
X122900000Y-113650000D01*
X123900000Y-112130000D02*
X123900000Y-112650000D01*
X127400000Y-111450000D02*
X127400000Y-111231030D01*
X126200000Y-112175000D02*
X126675000Y-112175000D01*
X126675000Y-112175000D02*
X127400000Y-111450000D01*
D22*
%TO.N,I2S_WCLK*%
X140390000Y-93900000D02*
X139390000Y-94900000D01*
X140410000Y-93900000D02*
X140390000Y-93900000D01*
X139390000Y-95890000D02*
X139400000Y-95900000D01*
X139390000Y-94900000D02*
X139390000Y-95890000D01*
X137768198Y-96596734D02*
X138464932Y-95900000D01*
X137768198Y-97453266D02*
X137768198Y-96596734D01*
X138300000Y-97985068D02*
X137768198Y-97453266D01*
X138300000Y-106900000D02*
X138300000Y-97985068D01*
X135600000Y-109600000D02*
X138300000Y-106900000D01*
X131300000Y-109600000D02*
X135600000Y-109600000D01*
X127300000Y-113600000D02*
X131300000Y-109600000D01*
X127300000Y-113994490D02*
X127300000Y-113600000D01*
X125244490Y-116050000D02*
X127300000Y-113994490D01*
X138464932Y-95900000D02*
X139400000Y-95900000D01*
X122955000Y-116050000D02*
X125244490Y-116050000D01*
%TO.N,I2S_DATA*%
X139390000Y-90890000D02*
X139400000Y-90900000D01*
X139390000Y-89900000D02*
X139390000Y-90890000D01*
X140363382Y-91900000D02*
X140410000Y-91900000D01*
X139752990Y-91252990D02*
X139752990Y-91289608D01*
X139752990Y-91289608D02*
X140363382Y-91900000D01*
X139400000Y-90900000D02*
X139752990Y-91252990D01*
X122986802Y-115581802D02*
X124318198Y-115581802D01*
X137150000Y-96050000D02*
X137650000Y-95550000D01*
X124318198Y-115581802D02*
X131400000Y-108500000D01*
X137150000Y-106900000D02*
X137150000Y-96050000D01*
X137650000Y-91650000D02*
X138400000Y-90900000D01*
X135550000Y-108500000D02*
X137150000Y-106900000D01*
X138400000Y-90900000D02*
X139400000Y-90900000D01*
X137650000Y-95550000D02*
X137650000Y-91650000D01*
X122955000Y-115550000D02*
X122986802Y-115581802D01*
X131400000Y-108500000D02*
X135550000Y-108500000D01*
%TO.N,I2S_DCLK*%
X139410000Y-97900000D02*
X140410000Y-96900000D01*
X139390000Y-97900000D02*
X139410000Y-97900000D01*
X139390000Y-98220000D02*
X139390000Y-97900000D01*
X139400000Y-98230000D02*
X139390000Y-98220000D01*
X139400000Y-98900000D02*
X139400000Y-98230000D01*
X138900000Y-107800000D02*
X138900000Y-99400000D01*
X133146734Y-111268198D02*
X135431802Y-111268198D01*
X122370000Y-117694000D02*
X124994000Y-117694000D01*
X132681802Y-111733130D02*
X133146734Y-111268198D01*
X132681802Y-116618198D02*
X132681802Y-111733130D01*
X138900000Y-99400000D02*
X139400000Y-98900000D01*
X130900000Y-118400000D02*
X132681802Y-116618198D01*
X124994000Y-117694000D02*
X125700000Y-118400000D01*
X135431802Y-111268198D02*
X138900000Y-107800000D01*
X125700000Y-118400000D02*
X130900000Y-118400000D01*
X122370000Y-117135000D02*
X122370000Y-117694000D01*
%TO.N,RADIO_REFCLK*%
X119910000Y-91460000D02*
X119900000Y-91450000D01*
X119910000Y-92450000D02*
X119910000Y-91460000D01*
X120180000Y-92450000D02*
X119910000Y-92450000D01*
X122313612Y-94583612D02*
X120180000Y-92450000D01*
X122313612Y-98886388D02*
X122313612Y-94583612D01*
X122200000Y-99000000D02*
X122313612Y-98886388D01*
X123200000Y-108250000D02*
X122200000Y-107250000D01*
X122200000Y-107250000D02*
X122200000Y-99000000D01*
X123200000Y-112400000D02*
X123200000Y-108250000D01*
X121870000Y-113730000D02*
X123200000Y-112400000D01*
X121870000Y-114465000D02*
X121870000Y-113730000D01*
%TO.N,DAC_REFCLK*%
X119900000Y-81640000D02*
X119910000Y-81650000D01*
X119900000Y-80650000D02*
X119900000Y-81640000D01*
X126000000Y-79500000D02*
X121050000Y-79500000D01*
X121050000Y-79500000D02*
X119900000Y-80650000D01*
X127399000Y-80899000D02*
X126000000Y-79500000D01*
X127399000Y-81975001D02*
X127399000Y-80899000D01*
%TO.N,SPI_MOSI*%
X119900000Y-89890000D02*
X119910000Y-89900000D01*
X119900000Y-88900000D02*
X119900000Y-89890000D01*
X124400000Y-81650000D02*
X122150000Y-81650000D01*
X122150000Y-81650000D02*
X121650000Y-82150000D01*
X125150000Y-83400000D02*
X125150000Y-82400000D01*
X125675002Y-83925002D02*
X125150000Y-83400000D01*
X121650000Y-87150000D02*
X119900000Y-88900000D01*
X125150000Y-82400000D02*
X124400000Y-81650000D01*
X121650000Y-82150000D02*
X121650000Y-87150000D01*
X127399000Y-83925002D02*
X125675002Y-83925002D01*
%TO.N,SPI_CLK*%
X119880000Y-87370000D02*
X119910000Y-87400000D01*
X119880000Y-86400000D02*
X119880000Y-87370000D01*
X121900000Y-80900000D02*
X121150000Y-81650000D01*
X121150000Y-82900000D02*
X120905000Y-83145000D01*
X125650000Y-82507932D02*
X125650000Y-81900000D01*
X125650000Y-81900000D02*
X124650000Y-80900000D01*
X120905000Y-86405000D02*
X119910000Y-87400000D01*
X127399000Y-83275001D02*
X126417069Y-83275001D01*
X124650000Y-80900000D02*
X121900000Y-80900000D01*
X121150000Y-81650000D02*
X121150000Y-82900000D01*
X126417069Y-83275001D02*
X125650000Y-82507932D01*
X120905000Y-83145000D02*
X120905000Y-86405000D01*
D21*
%TO.N,Net-(C12-Pad1)*%
X124175000Y-86900000D02*
X124250000Y-86900000D01*
X124380000Y-86770000D02*
X124380000Y-85650000D01*
X124250000Y-86900000D02*
X124380000Y-86770000D01*
D22*
X126183011Y-85224999D02*
X126100000Y-85308010D01*
X127399000Y-85224999D02*
X126183011Y-85224999D01*
D21*
X124380000Y-85650000D02*
X125108010Y-85650000D01*
X124175000Y-88135000D02*
X124160000Y-88150000D01*
X124175000Y-86900000D02*
X124175000Y-88135000D01*
X125491990Y-85308010D02*
X126300000Y-85308010D01*
X125150000Y-85650000D02*
X125491990Y-85308010D01*
D22*
%TO.N,Net-(C16-Pad1)*%
X133241000Y-85874998D02*
X134674998Y-85874998D01*
D21*
X136499998Y-85874998D02*
X136500000Y-85875000D01*
X134674998Y-85874998D02*
X136499998Y-85874998D01*
D22*
%TO.N,Net-(C19-Pad1)*%
X129600000Y-92960000D02*
X130350000Y-93710000D01*
X130350000Y-93710000D02*
X130350000Y-94690000D01*
X129835000Y-92725000D02*
X129600000Y-92960000D01*
X130850000Y-92725000D02*
X129835000Y-92725000D01*
%TO.N,Net-(C19-Pad2)*%
X130850000Y-86950000D02*
X131275001Y-86524999D01*
X131275001Y-86524999D02*
X133241000Y-86524999D01*
X130850000Y-91175000D02*
X130850000Y-86950000D01*
%TO.N,Net-(C20-Pad2)*%
X125700000Y-90325000D02*
X124850000Y-91175000D01*
X125700000Y-86900000D02*
X125700000Y-90325000D01*
X126075001Y-86524999D02*
X125700000Y-86900000D01*
X127399000Y-86524999D02*
X126075001Y-86524999D01*
%TO.N,Net-(C20-Pad1)*%
X124850000Y-92725000D02*
X125865000Y-92725000D01*
X125865000Y-92725000D02*
X126100000Y-92960000D01*
X125987653Y-94327653D02*
X126350000Y-94690000D01*
X126100000Y-92960000D02*
X125987653Y-93072347D01*
X125987653Y-93072347D02*
X125987653Y-94327653D01*
%TO.N,AUDIO_R*%
X129100000Y-95725000D02*
X129100000Y-95750000D01*
X129100000Y-95725000D02*
X129100000Y-96050000D01*
X129125000Y-95700000D02*
X129100000Y-95725000D01*
X130350000Y-95700000D02*
X129125000Y-95700000D01*
X130350000Y-95710000D02*
X130350000Y-95700000D01*
X129100000Y-96700000D02*
X128970620Y-96829380D01*
X129100000Y-95725000D02*
X129100000Y-96700000D01*
X130751688Y-113448312D02*
X130751688Y-112570082D01*
X128200000Y-116000000D02*
X130751688Y-113448312D01*
%TO.N,AUDIO_L*%
X127585000Y-95710000D02*
X127600000Y-95725000D01*
X126350000Y-95710000D02*
X127585000Y-95710000D01*
X127600000Y-96850000D02*
X127650000Y-96900000D01*
X127600000Y-95725000D02*
X127600000Y-96850000D01*
X131383498Y-114016502D02*
X131383498Y-112037925D01*
X131259809Y-111914236D02*
X130326954Y-111914236D01*
X131383498Y-112037925D02*
X131259809Y-111914236D01*
X128300000Y-117100000D02*
X131383498Y-114016502D01*
X130326954Y-111914236D02*
X130022155Y-112219035D01*
D21*
%TO.N,Net-(J1-Pad2)*%
X128700000Y-98810000D02*
X128700000Y-101130000D01*
%TO.N,Net-(J1-Pad3)*%
X130700000Y-98810000D02*
X130700000Y-101130000D01*
D22*
%TO.N,Net-(L1-Pad1)*%
X120250000Y-115550000D02*
X119350000Y-115550000D01*
X120285000Y-115550000D02*
X120250000Y-115550000D01*
D21*
X115687500Y-116612500D02*
X113900000Y-118400000D01*
X116900000Y-116612500D02*
X115687500Y-116612500D01*
D22*
X112071248Y-118350000D02*
X112060624Y-118360624D01*
X113850000Y-118350000D02*
X112071248Y-118350000D01*
X113900000Y-118400000D02*
X113850000Y-118350000D01*
D21*
X119349083Y-115550917D02*
X117961583Y-115550917D01*
X119350000Y-115550000D02*
X119349083Y-115550917D01*
X117961583Y-115550917D02*
X116900000Y-116612500D01*
D22*
%TO.N,I2C_SDA*%
X117690000Y-95490000D02*
X117030001Y-94830001D01*
X119100000Y-95490000D02*
X117690000Y-95490000D01*
X121050000Y-99618205D02*
X121050000Y-95950000D01*
X121886388Y-109136388D02*
X121400000Y-108650000D01*
X121400000Y-108650000D02*
X121400000Y-99968205D01*
X121886388Y-111978544D02*
X121886388Y-109136388D01*
X121868198Y-111996734D02*
X121886388Y-111978544D01*
X121868198Y-113023870D02*
X121868198Y-111996734D01*
X121370000Y-113522068D02*
X121868198Y-113023870D01*
X121370000Y-114465000D02*
X121370000Y-113522068D01*
X121050000Y-95950000D02*
X120590000Y-95490000D01*
X120590000Y-95490000D02*
X119100000Y-95490000D01*
X121400000Y-99968205D02*
X121050000Y-99618205D01*
%TO.N,/I2S_WCLK_R*%
X140479999Y-94830001D02*
X140410000Y-94900000D01*
X142430001Y-94830001D02*
X140479999Y-94830001D01*
%TO.N,/I2S_DATA_R*%
X142280002Y-89900000D02*
X142430001Y-89750001D01*
X140410000Y-89900000D02*
X142280002Y-89900000D01*
%TO.N,/I2S_DCLK_R*%
X141900002Y-97900000D02*
X142430001Y-97370001D01*
X140410000Y-97900000D02*
X141900002Y-97900000D01*
%TO.N,/RAD_CLK_R*%
X117140000Y-92400000D02*
X117030001Y-92290001D01*
X118840000Y-92400000D02*
X117140000Y-92400000D01*
X118890000Y-92450000D02*
X118840000Y-92400000D01*
%TO.N,/DAC_CLK_R*%
X117050000Y-82150000D02*
X117030001Y-82130001D01*
X118390000Y-82150000D02*
X117050000Y-82150000D01*
X118890000Y-81650000D02*
X118390000Y-82150000D01*
%TO.N,/SPI_MOSI_R*%
X117180000Y-89900000D02*
X117030001Y-89750001D01*
X118890000Y-89900000D02*
X117180000Y-89900000D01*
%TO.N,/SPI_CLK_R*%
X117090002Y-87150000D02*
X117030001Y-87210001D01*
X118640000Y-87150000D02*
X117090002Y-87150000D01*
X118890000Y-87400000D02*
X118640000Y-87150000D01*
%TO.N,/SPI_CS_R*%
X118660001Y-84670001D02*
X117030001Y-84670001D01*
X118890000Y-84900000D02*
X118660001Y-84670001D01*
%TO.N,/ANTENNA*%
X148800000Y-110400000D02*
X148800000Y-117200000D01*
X148800000Y-65200000D02*
X148800000Y-110400000D01*
X147000000Y-63400000D02*
X148800000Y-65200000D01*
X112500000Y-63400000D02*
X147000000Y-63400000D01*
X110600000Y-65300000D02*
X112500000Y-63400000D01*
X110600000Y-116900000D02*
X110600000Y-65300000D01*
X111339376Y-117639376D02*
X110600000Y-116900000D01*
%TO.N,DAC_~RST~*%
X141150000Y-83390000D02*
X142430001Y-84670001D01*
X139900000Y-80900000D02*
X141150000Y-82150000D01*
X141150000Y-82150000D02*
X141150000Y-83390000D01*
X132400000Y-80900000D02*
X139900000Y-80900000D01*
X131650000Y-81650000D02*
X132400000Y-80900000D01*
X131650000Y-83318998D02*
X131650000Y-81650000D01*
X132256001Y-83924999D02*
X131650000Y-83318998D01*
X133241000Y-83924999D02*
X132256001Y-83924999D01*
%TO.N,SPI_~CS~*%
X119910000Y-82900000D02*
X119910000Y-84900000D01*
X125150000Y-80150000D02*
X126150000Y-81150000D01*
X120650000Y-80900000D02*
X121400000Y-80150000D01*
X119910000Y-82900000D02*
X119910000Y-82890000D01*
X119910000Y-82890000D02*
X120650000Y-82150000D01*
X126150000Y-81150000D02*
X126150000Y-82223002D01*
X121400000Y-80150000D02*
X125150000Y-80150000D01*
X126150000Y-82223002D02*
X126552000Y-82625002D01*
X120650000Y-82150000D02*
X120650000Y-80900000D01*
X126552000Y-82625002D02*
X127399000Y-82625002D01*
%TO.N,Net-(R17-Pad1)*%
X129100000Y-87900000D02*
X127600000Y-89400000D01*
X129100000Y-86400000D02*
X129100000Y-87900000D01*
X127600000Y-89400000D02*
X127600000Y-90940000D01*
X128575001Y-85875001D02*
X129100000Y-86400000D01*
X127399000Y-85875001D02*
X128575001Y-85875001D01*
%TO.N,RADIO_~RST~*%
X119000000Y-113900000D02*
X118160000Y-113900000D01*
X120400000Y-106150000D02*
X119240001Y-104990001D01*
X119240001Y-104990001D02*
X117030001Y-104990001D01*
X119500000Y-113100000D02*
X119500000Y-110800000D01*
X120400000Y-109900000D02*
X120400000Y-106150000D01*
X119500000Y-110800000D02*
X120400000Y-109900000D01*
X119000000Y-113600000D02*
X119500000Y-113100000D01*
X119000000Y-113900000D02*
X119000000Y-113600000D01*
X119000000Y-114300000D02*
X119000000Y-113900000D01*
X120285000Y-115050000D02*
X119750000Y-115050000D01*
X119750000Y-115050000D02*
X119000000Y-114300000D01*
%TO.N,Net-(R19-Pad1)*%
X120355000Y-112165000D02*
X120350000Y-112160000D01*
X120355000Y-114535000D02*
X120355000Y-112165000D01*
%TO.N,Net-(R20-Pad1)*%
X121337010Y-117972990D02*
X120410000Y-118900000D01*
X121337010Y-117362990D02*
X121337010Y-117972990D01*
X121370000Y-117330000D02*
X121337010Y-117362990D01*
X121370000Y-117135000D02*
X121370000Y-117330000D01*
%TO.N,Net-(R21-Pad1)*%
X121870000Y-118570000D02*
X122200000Y-118900000D01*
X121870000Y-117135000D02*
X121870000Y-118570000D01*
%TO.N,Net-(R22-Pad2)*%
X127265000Y-117065000D02*
X127300000Y-117100000D01*
X122885000Y-117065000D02*
X127265000Y-117065000D01*
%TO.N,Net-(R23-Pad2)*%
X125450000Y-116550000D02*
X126100000Y-115900000D01*
X126100000Y-115900000D02*
X127300000Y-115900000D01*
X122955000Y-116550000D02*
X125450000Y-116550000D01*
%TO.N,I2C_SCL*%
X118670000Y-99010000D02*
X119100000Y-99010000D01*
X117030001Y-97370001D02*
X118670000Y-99010000D01*
X120900000Y-109400000D02*
X121432377Y-109932377D01*
X120900000Y-100490000D02*
X120900000Y-109400000D01*
X121432377Y-109932377D02*
X121432377Y-111790487D01*
X120870000Y-113380000D02*
X120870000Y-114465000D01*
X121414187Y-112835813D02*
X120870000Y-113380000D01*
X121432377Y-111790487D02*
X121414187Y-111808677D01*
X121414187Y-111808677D02*
X121414187Y-112835813D01*
X119420000Y-99010000D02*
X120900000Y-100490000D01*
X119100000Y-99010000D02*
X119420000Y-99010000D01*
%TO.N,Net-(R28-Pad1)*%
X139390000Y-96900000D02*
X138400000Y-96900000D01*
X135095201Y-88904799D02*
X135095201Y-95495201D01*
X137800000Y-86200000D02*
X135095201Y-88904799D01*
X137800000Y-83800000D02*
X137800000Y-86200000D01*
X137275001Y-83275001D02*
X137800000Y-83800000D01*
X135095201Y-95495201D02*
X135400000Y-95800000D01*
X133241000Y-83275001D02*
X137275001Y-83275001D01*
%TO.N,Net-(R29-Pad1)*%
X139390000Y-91900000D02*
X138400000Y-91900000D01*
X138500000Y-86300000D02*
X135768190Y-89031810D01*
X138500000Y-83250000D02*
X138500000Y-86300000D01*
X137874999Y-82624999D02*
X138500000Y-83250000D01*
X135768190Y-89031810D02*
X135768190Y-91842842D01*
X133241000Y-82624999D02*
X137874999Y-82624999D01*
%TO.N,Net-(R30-Pad1)*%
X139390000Y-93900000D02*
X138400000Y-93900000D01*
X136400000Y-92633122D02*
X136386380Y-92646742D01*
X139400000Y-83050000D02*
X139400000Y-86200000D01*
X136400000Y-89200000D02*
X136400000Y-92633122D01*
X136386380Y-92646742D02*
X136386380Y-93900000D01*
X133241000Y-81975001D02*
X138325001Y-81975001D01*
X139400000Y-86200000D02*
X136400000Y-89200000D01*
X138325001Y-81975001D02*
X139400000Y-83050000D01*
%TD*%
%TO.N,GND*%
X140588340Y-110751658D02*
X140723708Y-110862752D01*
X140878148Y-110945302D01*
X140994891Y-110980715D01*
X141045724Y-110996135D01*
X141062324Y-110997770D01*
X141176332Y-111008999D01*
X141176339Y-111008999D01*
X141219999Y-111013299D01*
X141263659Y-111008999D01*
X141373344Y-111008999D01*
X141509465Y-111145120D01*
X141738273Y-111298005D01*
X141992510Y-111403314D01*
X142262408Y-111457000D01*
X142537592Y-111457000D01*
X142807490Y-111403314D01*
X143061727Y-111298005D01*
X143290535Y-111145120D01*
X143485120Y-110950535D01*
X143573000Y-110819014D01*
X143573000Y-118493766D01*
X143555624Y-118670189D01*
X143505978Y-118833850D01*
X143425362Y-118984672D01*
X143316870Y-119116870D01*
X143184672Y-119225362D01*
X143033850Y-119305978D01*
X142921694Y-119340000D01*
X124106356Y-119340000D01*
X124107301Y-119336742D01*
X124118023Y-119212119D01*
X124115000Y-119185750D01*
X123956250Y-119027000D01*
X123337000Y-119027000D01*
X123337000Y-119047000D01*
X123098072Y-119047000D01*
X123098072Y-118753000D01*
X123337000Y-118753000D01*
X123337000Y-118773000D01*
X123956250Y-118773000D01*
X124115000Y-118614250D01*
X124118023Y-118587881D01*
X124107301Y-118463258D01*
X124105197Y-118456000D01*
X124678370Y-118456000D01*
X125134720Y-118912351D01*
X125158578Y-118941422D01*
X125187648Y-118965279D01*
X125274607Y-119036645D01*
X125317357Y-119059495D01*
X125406985Y-119107402D01*
X125550622Y-119150974D01*
X125662574Y-119162000D01*
X125662577Y-119162000D01*
X125700000Y-119165686D01*
X125737423Y-119162000D01*
X130862577Y-119162000D01*
X130900000Y-119165686D01*
X130937423Y-119162000D01*
X130937426Y-119162000D01*
X131049378Y-119150974D01*
X131193015Y-119107402D01*
X131325392Y-119036645D01*
X131441422Y-118941422D01*
X131465284Y-118912346D01*
X133194149Y-117183481D01*
X133223224Y-117159620D01*
X133296793Y-117069976D01*
X133318447Y-117043591D01*
X133366146Y-116954351D01*
X133389204Y-116911213D01*
X133432776Y-116767576D01*
X133443802Y-116655624D01*
X133443802Y-116655621D01*
X133447488Y-116618198D01*
X133443802Y-116580775D01*
X133443802Y-113940602D01*
X133607681Y-114008483D01*
X133789248Y-114044599D01*
X133974372Y-114044599D01*
X134155939Y-114008483D01*
X134191389Y-113993799D01*
X136876541Y-113993799D01*
X136920201Y-113998099D01*
X136963861Y-113993799D01*
X136963868Y-113993799D01*
X137094475Y-113980935D01*
X137262052Y-113930102D01*
X137416492Y-113847552D01*
X137551860Y-113736458D01*
X137579700Y-113702535D01*
X140497742Y-110784494D01*
X140531659Y-110756659D01*
X140562052Y-110719626D01*
X140588340Y-110751658D01*
%TA.AperFunction,Conductor*%
D23*
G36*
X140588340Y-110751658D02*
G01*
X140723708Y-110862752D01*
X140878148Y-110945302D01*
X140994891Y-110980715D01*
X141045724Y-110996135D01*
X141062324Y-110997770D01*
X141176332Y-111008999D01*
X141176339Y-111008999D01*
X141219999Y-111013299D01*
X141263659Y-111008999D01*
X141373344Y-111008999D01*
X141509465Y-111145120D01*
X141738273Y-111298005D01*
X141992510Y-111403314D01*
X142262408Y-111457000D01*
X142537592Y-111457000D01*
X142807490Y-111403314D01*
X143061727Y-111298005D01*
X143290535Y-111145120D01*
X143485120Y-110950535D01*
X143573000Y-110819014D01*
X143573000Y-118493766D01*
X143555624Y-118670189D01*
X143505978Y-118833850D01*
X143425362Y-118984672D01*
X143316870Y-119116870D01*
X143184672Y-119225362D01*
X143033850Y-119305978D01*
X142921694Y-119340000D01*
X124106356Y-119340000D01*
X124107301Y-119336742D01*
X124118023Y-119212119D01*
X124115000Y-119185750D01*
X123956250Y-119027000D01*
X123337000Y-119027000D01*
X123337000Y-119047000D01*
X123098072Y-119047000D01*
X123098072Y-118753000D01*
X123337000Y-118753000D01*
X123337000Y-118773000D01*
X123956250Y-118773000D01*
X124115000Y-118614250D01*
X124118023Y-118587881D01*
X124107301Y-118463258D01*
X124105197Y-118456000D01*
X124678370Y-118456000D01*
X125134720Y-118912351D01*
X125158578Y-118941422D01*
X125187648Y-118965279D01*
X125274607Y-119036645D01*
X125317357Y-119059495D01*
X125406985Y-119107402D01*
X125550622Y-119150974D01*
X125662574Y-119162000D01*
X125662577Y-119162000D01*
X125700000Y-119165686D01*
X125737423Y-119162000D01*
X130862577Y-119162000D01*
X130900000Y-119165686D01*
X130937423Y-119162000D01*
X130937426Y-119162000D01*
X131049378Y-119150974D01*
X131193015Y-119107402D01*
X131325392Y-119036645D01*
X131441422Y-118941422D01*
X131465284Y-118912346D01*
X133194149Y-117183481D01*
X133223224Y-117159620D01*
X133296793Y-117069976D01*
X133318447Y-117043591D01*
X133366146Y-116954351D01*
X133389204Y-116911213D01*
X133432776Y-116767576D01*
X133443802Y-116655624D01*
X133443802Y-116655621D01*
X133447488Y-116618198D01*
X133443802Y-116580775D01*
X133443802Y-113940602D01*
X133607681Y-114008483D01*
X133789248Y-114044599D01*
X133974372Y-114044599D01*
X134155939Y-114008483D01*
X134191389Y-113993799D01*
X136876541Y-113993799D01*
X136920201Y-113998099D01*
X136963861Y-113993799D01*
X136963868Y-113993799D01*
X137094475Y-113980935D01*
X137262052Y-113930102D01*
X137416492Y-113847552D01*
X137551860Y-113736458D01*
X137579700Y-113702535D01*
X140497742Y-110784494D01*
X140531659Y-110756659D01*
X140562052Y-110719626D01*
X140588340Y-110751658D01*
G37*
%TD.AperFunction*%
D22*
X119349083Y-116444217D02*
X119386577Y-116440524D01*
X119503887Y-116537000D01*
X119512116Y-116537000D01*
X119512836Y-116538102D01*
X119537236Y-116563000D01*
X119503887Y-116563000D01*
X119356683Y-116684060D01*
X119372266Y-116768596D01*
X119429279Y-116910271D01*
X119512836Y-117038102D01*
X119536928Y-117062686D01*
X119536928Y-117235000D01*
X119549188Y-117359482D01*
X119585498Y-117479180D01*
X119644463Y-117589494D01*
X119723815Y-117686185D01*
X119820506Y-117765537D01*
X119930820Y-117824502D01*
X120050518Y-117860812D01*
X120175000Y-117873072D01*
X120346652Y-117873072D01*
X120353597Y-117878772D01*
X120290442Y-117941928D01*
X120275000Y-117941928D01*
X120124181Y-117956782D01*
X119979158Y-118000775D01*
X119951451Y-118015584D01*
X119911442Y-117993559D01*
X119792202Y-117955774D01*
X119675750Y-117945000D01*
X119517000Y-118103750D01*
X119517000Y-118563462D01*
X119516782Y-118564181D01*
X119501928Y-118715000D01*
X119501928Y-119047000D01*
X119263000Y-119047000D01*
X119263000Y-119027000D01*
X118643750Y-119027000D01*
X118485000Y-119185750D01*
X118481977Y-119212119D01*
X118492699Y-119336742D01*
X118493644Y-119340000D01*
X116478306Y-119340000D01*
X116366150Y-119305978D01*
X116215328Y-119225362D01*
X116214570Y-119224740D01*
X116300518Y-119250812D01*
X116425000Y-119263072D01*
X116614250Y-119260000D01*
X116773000Y-119101250D01*
X116773000Y-118314500D01*
X117027000Y-118314500D01*
X117027000Y-119101250D01*
X117185750Y-119260000D01*
X117375000Y-119263072D01*
X117499482Y-119250812D01*
X117619180Y-119214502D01*
X117729494Y-119155537D01*
X117826185Y-119076185D01*
X117905537Y-118979494D01*
X117964502Y-118869180D01*
X118000812Y-118749482D01*
X118013072Y-118625000D01*
X118012321Y-118587881D01*
X118481977Y-118587881D01*
X118485000Y-118614250D01*
X118643750Y-118773000D01*
X119263000Y-118773000D01*
X119263000Y-118103750D01*
X119104250Y-117945000D01*
X118987798Y-117955774D01*
X118868558Y-117993559D01*
X118758980Y-118053882D01*
X118663276Y-118134422D01*
X118585124Y-118232086D01*
X118527527Y-118343121D01*
X118492699Y-118463258D01*
X118481977Y-118587881D01*
X118012321Y-118587881D01*
X118010000Y-118473250D01*
X117851250Y-118314500D01*
X117027000Y-118314500D01*
X116773000Y-118314500D01*
X116753000Y-118314500D01*
X116753000Y-118060500D01*
X116773000Y-118060500D01*
X116773000Y-118040500D01*
X117027000Y-118040500D01*
X117027000Y-118060500D01*
X117851250Y-118060500D01*
X118010000Y-117901750D01*
X118013072Y-117750000D01*
X118000812Y-117625518D01*
X117964502Y-117505820D01*
X117905537Y-117395506D01*
X117850900Y-117328930D01*
X117868671Y-117307275D01*
X117947850Y-117159142D01*
X117996608Y-116998408D01*
X118013072Y-116831250D01*
X118013072Y-116756663D01*
X118329819Y-116439917D01*
X119305423Y-116439917D01*
X119349083Y-116444217D01*
%TA.AperFunction,Conductor*%
D23*
G36*
X119349083Y-116444217D02*
G01*
X119386577Y-116440524D01*
X119503887Y-116537000D01*
X119512116Y-116537000D01*
X119512836Y-116538102D01*
X119537236Y-116563000D01*
X119503887Y-116563000D01*
X119356683Y-116684060D01*
X119372266Y-116768596D01*
X119429279Y-116910271D01*
X119512836Y-117038102D01*
X119536928Y-117062686D01*
X119536928Y-117235000D01*
X119549188Y-117359482D01*
X119585498Y-117479180D01*
X119644463Y-117589494D01*
X119723815Y-117686185D01*
X119820506Y-117765537D01*
X119930820Y-117824502D01*
X120050518Y-117860812D01*
X120175000Y-117873072D01*
X120346652Y-117873072D01*
X120353597Y-117878772D01*
X120290442Y-117941928D01*
X120275000Y-117941928D01*
X120124181Y-117956782D01*
X119979158Y-118000775D01*
X119951451Y-118015584D01*
X119911442Y-117993559D01*
X119792202Y-117955774D01*
X119675750Y-117945000D01*
X119517000Y-118103750D01*
X119517000Y-118563462D01*
X119516782Y-118564181D01*
X119501928Y-118715000D01*
X119501928Y-119047000D01*
X119263000Y-119047000D01*
X119263000Y-119027000D01*
X118643750Y-119027000D01*
X118485000Y-119185750D01*
X118481977Y-119212119D01*
X118492699Y-119336742D01*
X118493644Y-119340000D01*
X116478306Y-119340000D01*
X116366150Y-119305978D01*
X116215328Y-119225362D01*
X116214570Y-119224740D01*
X116300518Y-119250812D01*
X116425000Y-119263072D01*
X116614250Y-119260000D01*
X116773000Y-119101250D01*
X116773000Y-118314500D01*
X117027000Y-118314500D01*
X117027000Y-119101250D01*
X117185750Y-119260000D01*
X117375000Y-119263072D01*
X117499482Y-119250812D01*
X117619180Y-119214502D01*
X117729494Y-119155537D01*
X117826185Y-119076185D01*
X117905537Y-118979494D01*
X117964502Y-118869180D01*
X118000812Y-118749482D01*
X118013072Y-118625000D01*
X118012321Y-118587881D01*
X118481977Y-118587881D01*
X118485000Y-118614250D01*
X118643750Y-118773000D01*
X119263000Y-118773000D01*
X119263000Y-118103750D01*
X119104250Y-117945000D01*
X118987798Y-117955774D01*
X118868558Y-117993559D01*
X118758980Y-118053882D01*
X118663276Y-118134422D01*
X118585124Y-118232086D01*
X118527527Y-118343121D01*
X118492699Y-118463258D01*
X118481977Y-118587881D01*
X118012321Y-118587881D01*
X118010000Y-118473250D01*
X117851250Y-118314500D01*
X117027000Y-118314500D01*
X116773000Y-118314500D01*
X116753000Y-118314500D01*
X116753000Y-118060500D01*
X116773000Y-118060500D01*
X116773000Y-118040500D01*
X117027000Y-118040500D01*
X117027000Y-118060500D01*
X117851250Y-118060500D01*
X118010000Y-117901750D01*
X118013072Y-117750000D01*
X118000812Y-117625518D01*
X117964502Y-117505820D01*
X117905537Y-117395506D01*
X117850900Y-117328930D01*
X117868671Y-117307275D01*
X117947850Y-117159142D01*
X117996608Y-116998408D01*
X118013072Y-116831250D01*
X118013072Y-116756663D01*
X118329819Y-116439917D01*
X119305423Y-116439917D01*
X119349083Y-116444217D01*
G37*
%TD.AperFunction*%
D22*
X131919802Y-116302568D02*
X130584370Y-117638000D01*
X129128674Y-117638000D01*
X129159225Y-117580842D01*
X129203218Y-117435819D01*
X129218072Y-117285000D01*
X129218072Y-117259558D01*
X131895845Y-114581785D01*
X131919802Y-114562124D01*
X131919802Y-116302568D01*
%TA.AperFunction,Conductor*%
D23*
G36*
X131919802Y-116302568D02*
G01*
X130584370Y-117638000D01*
X129128674Y-117638000D01*
X129159225Y-117580842D01*
X129203218Y-117435819D01*
X129218072Y-117285000D01*
X129218072Y-117259558D01*
X131895845Y-114581785D01*
X131919802Y-114562124D01*
X131919802Y-116302568D01*
G37*
%TD.AperFunction*%
D22*
X121747000Y-115673000D02*
X121767000Y-115673000D01*
X121767000Y-115927000D01*
X121747000Y-115927000D01*
X121747000Y-115947000D01*
X121493000Y-115947000D01*
X121493000Y-115927000D01*
X121473000Y-115927000D01*
X121473000Y-115673000D01*
X121493000Y-115673000D01*
X121493000Y-115653000D01*
X121747000Y-115653000D01*
X121747000Y-115673000D01*
%TA.AperFunction,Conductor*%
D23*
G36*
X121747000Y-115673000D02*
G01*
X121767000Y-115673000D01*
X121767000Y-115927000D01*
X121747000Y-115927000D01*
X121747000Y-115947000D01*
X121493000Y-115947000D01*
X121493000Y-115927000D01*
X121473000Y-115927000D01*
X121473000Y-115673000D01*
X121493000Y-115673000D01*
X121493000Y-115653000D01*
X121747000Y-115653000D01*
X121747000Y-115673000D01*
G37*
%TD.AperFunction*%
D22*
X115914880Y-110950535D02*
X116109465Y-111145120D01*
X116338273Y-111298005D01*
X116592510Y-111403314D01*
X116862408Y-111457000D01*
X117137592Y-111457000D01*
X117139404Y-111456640D01*
X117710990Y-112028226D01*
X117710991Y-112390419D01*
X117696306Y-112425871D01*
X117660190Y-112607438D01*
X117660190Y-112792562D01*
X117696306Y-112974129D01*
X117711297Y-113010322D01*
X117701451Y-113015584D01*
X117661442Y-112993559D01*
X117542202Y-112955774D01*
X117425750Y-112945000D01*
X117267000Y-113103750D01*
X117267000Y-113563462D01*
X117266782Y-113564181D01*
X117251928Y-113715000D01*
X117251928Y-114085000D01*
X117266782Y-114235819D01*
X117267000Y-114236538D01*
X117267000Y-114696250D01*
X117417849Y-114847099D01*
X117383221Y-114875518D01*
X117364960Y-114890505D01*
X117329924Y-114919258D01*
X117302088Y-114953176D01*
X116718337Y-115536928D01*
X116643750Y-115536928D01*
X116476592Y-115553392D01*
X116315858Y-115602150D01*
X116167725Y-115681329D01*
X116116339Y-115723500D01*
X115827000Y-115723500D01*
X115827000Y-114212119D01*
X116231977Y-114212119D01*
X116242699Y-114336742D01*
X116277527Y-114456879D01*
X116335124Y-114567914D01*
X116413276Y-114665578D01*
X116508980Y-114746118D01*
X116618558Y-114806441D01*
X116737798Y-114844226D01*
X116854250Y-114855000D01*
X117013000Y-114696250D01*
X117013000Y-114027000D01*
X116393750Y-114027000D01*
X116235000Y-114185750D01*
X116231977Y-114212119D01*
X115827000Y-114212119D01*
X115827000Y-113587881D01*
X116231977Y-113587881D01*
X116235000Y-113614250D01*
X116393750Y-113773000D01*
X117013000Y-113773000D01*
X117013000Y-113103750D01*
X116854250Y-112945000D01*
X116737798Y-112955774D01*
X116618558Y-112993559D01*
X116508980Y-113053882D01*
X116413276Y-113134422D01*
X116335124Y-113232086D01*
X116277527Y-113343121D01*
X116242699Y-113463258D01*
X116231977Y-113587881D01*
X115827000Y-113587881D01*
X115827000Y-110819014D01*
X115914880Y-110950535D01*
%TA.AperFunction,Conductor*%
D23*
G36*
X115914880Y-110950535D02*
G01*
X116109465Y-111145120D01*
X116338273Y-111298005D01*
X116592510Y-111403314D01*
X116862408Y-111457000D01*
X117137592Y-111457000D01*
X117139404Y-111456640D01*
X117710990Y-112028226D01*
X117710991Y-112390419D01*
X117696306Y-112425871D01*
X117660190Y-112607438D01*
X117660190Y-112792562D01*
X117696306Y-112974129D01*
X117711297Y-113010322D01*
X117701451Y-113015584D01*
X117661442Y-112993559D01*
X117542202Y-112955774D01*
X117425750Y-112945000D01*
X117267000Y-113103750D01*
X117267000Y-113563462D01*
X117266782Y-113564181D01*
X117251928Y-113715000D01*
X117251928Y-114085000D01*
X117266782Y-114235819D01*
X117267000Y-114236538D01*
X117267000Y-114696250D01*
X117417849Y-114847099D01*
X117383221Y-114875518D01*
X117364960Y-114890505D01*
X117329924Y-114919258D01*
X117302088Y-114953176D01*
X116718337Y-115536928D01*
X116643750Y-115536928D01*
X116476592Y-115553392D01*
X116315858Y-115602150D01*
X116167725Y-115681329D01*
X116116339Y-115723500D01*
X115827000Y-115723500D01*
X115827000Y-114212119D01*
X116231977Y-114212119D01*
X116242699Y-114336742D01*
X116277527Y-114456879D01*
X116335124Y-114567914D01*
X116413276Y-114665578D01*
X116508980Y-114746118D01*
X116618558Y-114806441D01*
X116737798Y-114844226D01*
X116854250Y-114855000D01*
X117013000Y-114696250D01*
X117013000Y-114027000D01*
X116393750Y-114027000D01*
X116235000Y-114185750D01*
X116231977Y-114212119D01*
X115827000Y-114212119D01*
X115827000Y-113587881D01*
X116231977Y-113587881D01*
X116235000Y-113614250D01*
X116393750Y-113773000D01*
X117013000Y-113773000D01*
X117013000Y-113103750D01*
X116854250Y-112945000D01*
X116737798Y-112955774D01*
X116618558Y-112993559D01*
X116508980Y-113053882D01*
X116413276Y-113134422D01*
X116335124Y-113232086D01*
X116277527Y-113343121D01*
X116242699Y-113463258D01*
X116231977Y-113587881D01*
X115827000Y-113587881D01*
X115827000Y-110819014D01*
X115914880Y-110950535D01*
G37*
%TD.AperFunction*%
D22*
X129292165Y-112818122D02*
X129423068Y-112949025D01*
X129576993Y-113051875D01*
X129748026Y-113122719D01*
X129929593Y-113158835D01*
X129963534Y-113158835D01*
X128180442Y-114941928D01*
X128175000Y-114941928D01*
X128024181Y-114956782D01*
X127879158Y-115000775D01*
X127800000Y-115043086D01*
X127720842Y-115000775D01*
X127575819Y-114956782D01*
X127429727Y-114942394D01*
X127812353Y-114559768D01*
X127841422Y-114535912D01*
X127936645Y-114419882D01*
X128007402Y-114287505D01*
X128050974Y-114143868D01*
X128062000Y-114031916D01*
X128062000Y-114031914D01*
X128065686Y-113994491D01*
X128062000Y-113957068D01*
X128062000Y-113915630D01*
X129239030Y-112738600D01*
X129292165Y-112818122D01*
%TA.AperFunction,Conductor*%
D23*
G36*
X129292165Y-112818122D02*
G01*
X129423068Y-112949025D01*
X129576993Y-113051875D01*
X129748026Y-113122719D01*
X129929593Y-113158835D01*
X129963534Y-113158835D01*
X128180442Y-114941928D01*
X128175000Y-114941928D01*
X128024181Y-114956782D01*
X127879158Y-115000775D01*
X127800000Y-115043086D01*
X127720842Y-115000775D01*
X127575819Y-114956782D01*
X127429727Y-114942394D01*
X127812353Y-114559768D01*
X127841422Y-114535912D01*
X127936645Y-114419882D01*
X128007402Y-114287505D01*
X128050974Y-114143868D01*
X128062000Y-114031916D01*
X128062000Y-114031914D01*
X128065686Y-113994491D01*
X128062000Y-113957068D01*
X128062000Y-113915630D01*
X129239030Y-112738600D01*
X129292165Y-112818122D01*
G37*
%TD.AperFunction*%
D22*
X125470503Y-113117618D02*
X125619717Y-113197375D01*
X125623766Y-113198603D01*
X124002568Y-114819802D01*
X123863065Y-114819802D01*
X123810721Y-114689729D01*
X123727164Y-114561898D01*
X123693072Y-114527110D01*
X123693072Y-114365000D01*
X123680812Y-114240518D01*
X123654257Y-114152978D01*
X124497741Y-113309495D01*
X124531659Y-113281659D01*
X124562962Y-113243517D01*
X124642752Y-113146292D01*
X124643356Y-113145162D01*
X124686739Y-113064000D01*
X125405169Y-113064000D01*
X125470503Y-113117618D01*
%TA.AperFunction,Conductor*%
D23*
G36*
X125470503Y-113117618D02*
G01*
X125619717Y-113197375D01*
X125623766Y-113198603D01*
X124002568Y-114819802D01*
X123863065Y-114819802D01*
X123810721Y-114689729D01*
X123727164Y-114561898D01*
X123693072Y-114527110D01*
X123693072Y-114365000D01*
X123680812Y-114240518D01*
X123654257Y-114152978D01*
X124497741Y-113309495D01*
X124531659Y-113281659D01*
X124562962Y-113243517D01*
X124642752Y-113146292D01*
X124643356Y-113145162D01*
X124686739Y-113064000D01*
X125405169Y-113064000D01*
X125470503Y-113117618D01*
G37*
%TD.AperFunction*%
D22*
X138894463Y-108929494D02*
X138930700Y-108973649D01*
X138852625Y-109119717D01*
X138803512Y-109281623D01*
X138786928Y-109450000D01*
X138786928Y-109900000D01*
X138794176Y-109973588D01*
X136551966Y-112215799D01*
X134191389Y-112215799D01*
X134155939Y-112201115D01*
X133974372Y-112164999D01*
X133789248Y-112164999D01*
X133607681Y-112201115D01*
X133443802Y-112268996D01*
X133443802Y-112048760D01*
X133462364Y-112030198D01*
X135394379Y-112030198D01*
X135431802Y-112033884D01*
X135469225Y-112030198D01*
X135469228Y-112030198D01*
X135581180Y-112019172D01*
X135724817Y-111975600D01*
X135857194Y-111904843D01*
X135973224Y-111809620D01*
X135997086Y-111780544D01*
X138878326Y-108899304D01*
X138894463Y-108929494D01*
%TA.AperFunction,Conductor*%
D23*
G36*
X138894463Y-108929494D02*
G01*
X138930700Y-108973649D01*
X138852625Y-109119717D01*
X138803512Y-109281623D01*
X138786928Y-109450000D01*
X138786928Y-109900000D01*
X138794176Y-109973588D01*
X136551966Y-112215799D01*
X134191389Y-112215799D01*
X134155939Y-112201115D01*
X133974372Y-112164999D01*
X133789248Y-112164999D01*
X133607681Y-112201115D01*
X133443802Y-112268996D01*
X133443802Y-112048760D01*
X133462364Y-112030198D01*
X135394379Y-112030198D01*
X135431802Y-112033884D01*
X135469225Y-112030198D01*
X135469228Y-112030198D01*
X135581180Y-112019172D01*
X135724817Y-111975600D01*
X135857194Y-111904843D01*
X135973224Y-111809620D01*
X135997086Y-111780544D01*
X138878326Y-108899304D01*
X138894463Y-108929494D01*
G37*
%TD.AperFunction*%
D22*
X135116172Y-110506198D02*
X133184156Y-110506198D01*
X133146733Y-110502512D01*
X133109310Y-110506198D01*
X133109308Y-110506198D01*
X132997356Y-110517224D01*
X132853719Y-110560796D01*
X132721342Y-110631553D01*
X132605312Y-110726776D01*
X132581450Y-110755852D01*
X132169451Y-111167851D01*
X132140381Y-111191708D01*
X132116524Y-111220778D01*
X132116523Y-111220779D01*
X132045157Y-111307738D01*
X131974401Y-111440115D01*
X131948558Y-111525306D01*
X131924920Y-111496503D01*
X131895840Y-111472638D01*
X131825094Y-111401891D01*
X131801231Y-111372814D01*
X131685201Y-111277591D01*
X131552824Y-111206834D01*
X131409187Y-111163262D01*
X131297235Y-111152236D01*
X131297232Y-111152236D01*
X131259809Y-111148550D01*
X131222386Y-111152236D01*
X130825395Y-111152236D01*
X131615631Y-110362000D01*
X135260370Y-110362000D01*
X135116172Y-110506198D01*
%TA.AperFunction,Conductor*%
D23*
G36*
X135116172Y-110506198D02*
G01*
X133184156Y-110506198D01*
X133146733Y-110502512D01*
X133109310Y-110506198D01*
X133109308Y-110506198D01*
X132997356Y-110517224D01*
X132853719Y-110560796D01*
X132721342Y-110631553D01*
X132605312Y-110726776D01*
X132581450Y-110755852D01*
X132169451Y-111167851D01*
X132140381Y-111191708D01*
X132116524Y-111220778D01*
X132116523Y-111220779D01*
X132045157Y-111307738D01*
X131974401Y-111440115D01*
X131948558Y-111525306D01*
X131924920Y-111496503D01*
X131895840Y-111472638D01*
X131825094Y-111401891D01*
X131801231Y-111372814D01*
X131685201Y-111277591D01*
X131552824Y-111206834D01*
X131409187Y-111163262D01*
X131297235Y-111152236D01*
X131297232Y-111152236D01*
X131259809Y-111148550D01*
X131222386Y-111152236D01*
X130825395Y-111152236D01*
X131615631Y-110362000D01*
X135260370Y-110362000D01*
X135116172Y-110506198D01*
G37*
%TD.AperFunction*%
D22*
X134631331Y-86763998D02*
X135705167Y-86763998D01*
X135770503Y-86817618D01*
X135919717Y-86897375D01*
X136000492Y-86921877D01*
X134582855Y-88339515D01*
X134553779Y-88363377D01*
X134525242Y-88398150D01*
X134458556Y-88479407D01*
X134420736Y-88550164D01*
X134387799Y-88611785D01*
X134344227Y-88755422D01*
X134333674Y-88862574D01*
X134329515Y-88904799D01*
X134333201Y-88942222D01*
X134333202Y-95457768D01*
X134329515Y-95495201D01*
X134344228Y-95644579D01*
X134387800Y-95788216D01*
X134458556Y-95920593D01*
X134468085Y-95932205D01*
X134496316Y-96074129D01*
X134567160Y-96245162D01*
X134670010Y-96399087D01*
X134800913Y-96529990D01*
X134954838Y-96632840D01*
X135125871Y-96703684D01*
X135307438Y-96739800D01*
X135492562Y-96739800D01*
X135674129Y-96703684D01*
X135845162Y-96632840D01*
X135999087Y-96529990D01*
X136129990Y-96399087D01*
X136232840Y-96245162D01*
X136303684Y-96074129D01*
X136339800Y-95892562D01*
X136339800Y-95707438D01*
X136303684Y-95525871D01*
X136232840Y-95354838D01*
X136129990Y-95200913D01*
X135999087Y-95070010D01*
X135857201Y-94975204D01*
X135857201Y-94676701D01*
X135941218Y-94732840D01*
X136112251Y-94803684D01*
X136293818Y-94839800D01*
X136478942Y-94839800D01*
X136660509Y-94803684D01*
X136831542Y-94732840D01*
X136888000Y-94695116D01*
X136888000Y-95234370D01*
X136637649Y-95484721D01*
X136608579Y-95508578D01*
X136584722Y-95537648D01*
X136584721Y-95537649D01*
X136513355Y-95624608D01*
X136442599Y-95756985D01*
X136399027Y-95900622D01*
X136384314Y-96050000D01*
X136388001Y-96087433D01*
X136388001Y-99261980D01*
X135685750Y-99265000D01*
X135527000Y-99423750D01*
X135527000Y-103023000D01*
X135547000Y-103023000D01*
X135547000Y-103277000D01*
X135527000Y-103277000D01*
X135527000Y-106876250D01*
X135685750Y-107035000D01*
X135936292Y-107036078D01*
X135234370Y-107738000D01*
X131437422Y-107738000D01*
X131399999Y-107734314D01*
X131362576Y-107738000D01*
X131362574Y-107738000D01*
X131250622Y-107749026D01*
X131106985Y-107792598D01*
X130974608Y-107863355D01*
X130858578Y-107958578D01*
X130834721Y-107987648D01*
X128154198Y-110668172D01*
X128129990Y-110631943D01*
X127999087Y-110501040D01*
X127845162Y-110398190D01*
X127674129Y-110327346D01*
X127492562Y-110291230D01*
X127310898Y-110291230D01*
X127313072Y-110175000D01*
X127300812Y-110050518D01*
X127264502Y-109930820D01*
X127205537Y-109820506D01*
X127126185Y-109723815D01*
X127029494Y-109644463D01*
X126919180Y-109585498D01*
X126799482Y-109549188D01*
X126675000Y-109536928D01*
X126485750Y-109540000D01*
X126327000Y-109698750D01*
X126327000Y-110498000D01*
X126347000Y-110498000D01*
X126347000Y-110752000D01*
X126327000Y-110752000D01*
X126327000Y-110772000D01*
X126073000Y-110772000D01*
X126073000Y-110752000D01*
X126053000Y-110752000D01*
X126053000Y-110498000D01*
X126073000Y-110498000D01*
X126073000Y-109698750D01*
X125914250Y-109540000D01*
X125725000Y-109536928D01*
X125600518Y-109549188D01*
X125480820Y-109585498D01*
X125370506Y-109644463D01*
X125273815Y-109723815D01*
X125194463Y-109820506D01*
X125135498Y-109930820D01*
X125099188Y-110050518D01*
X125086928Y-110175000D01*
X125090000Y-110339250D01*
X125120750Y-110370000D01*
X125077000Y-110413750D01*
X125077000Y-111043000D01*
X125087527Y-111043000D01*
X125086928Y-111075000D01*
X125097000Y-111177266D01*
X125097000Y-111211928D01*
X124780000Y-111211928D01*
X124628206Y-111226878D01*
X124482245Y-111271155D01*
X124454472Y-111286000D01*
X124395528Y-111286000D01*
X124367755Y-111271155D01*
X124221794Y-111226878D01*
X124070000Y-111211928D01*
X123962000Y-111211928D01*
X123962000Y-111023000D01*
X124027000Y-111023000D01*
X124027000Y-111043000D01*
X124823000Y-111043000D01*
X124823000Y-110906250D01*
X124845000Y-110884250D01*
X124835235Y-110762652D01*
X124823000Y-110722974D01*
X124823000Y-110413750D01*
X124664250Y-110255000D01*
X124642923Y-110251935D01*
X124518387Y-110263625D01*
X124425000Y-110291487D01*
X124331613Y-110263625D01*
X124233758Y-110254440D01*
X124324333Y-110236423D01*
X124495366Y-110165579D01*
X124649291Y-110062729D01*
X124780194Y-109931826D01*
X124883044Y-109777901D01*
X124897728Y-109742450D01*
X126797742Y-107842437D01*
X126831659Y-107814602D01*
X126942753Y-107679234D01*
X127025303Y-107524794D01*
X127076136Y-107357217D01*
X127089000Y-107226610D01*
X127089000Y-107226603D01*
X127093300Y-107182943D01*
X127089000Y-107139283D01*
X127089000Y-106400000D01*
X133761928Y-106400000D01*
X133774188Y-106524482D01*
X133810498Y-106644180D01*
X133869463Y-106754494D01*
X133948815Y-106851185D01*
X134045506Y-106930537D01*
X134155820Y-106989502D01*
X134275518Y-107025812D01*
X134400000Y-107038072D01*
X135114250Y-107035000D01*
X135273000Y-106876250D01*
X135273000Y-103277000D01*
X133923750Y-103277000D01*
X133765000Y-103435750D01*
X133761928Y-106400000D01*
X127089000Y-106400000D01*
X127089000Y-102945545D01*
X127154494Y-102910537D01*
X127251185Y-102831185D01*
X127330537Y-102734494D01*
X127389502Y-102624180D01*
X127425812Y-102504482D01*
X127438072Y-102380000D01*
X127438072Y-99880000D01*
X127425812Y-99755518D01*
X127389502Y-99635820D01*
X127330537Y-99525506D01*
X127251185Y-99428815D01*
X127154494Y-99349463D01*
X127089000Y-99314455D01*
X127089000Y-99217244D01*
X127133122Y-99071794D01*
X127148072Y-98920000D01*
X127148072Y-98640000D01*
X127133122Y-98488206D01*
X127093172Y-98356509D01*
X127098377Y-98346878D01*
X127135235Y-98227348D01*
X127145000Y-98105750D01*
X126986250Y-97947000D01*
X126716108Y-97947000D01*
X126667755Y-97921155D01*
X126521794Y-97876878D01*
X126370000Y-97861928D01*
X126030000Y-97861928D01*
X125878206Y-97876878D01*
X125732245Y-97921155D01*
X125683892Y-97947000D01*
X125413750Y-97947000D01*
X125255000Y-98105750D01*
X125264765Y-98227348D01*
X125301623Y-98346878D01*
X125306828Y-98356509D01*
X125266878Y-98488206D01*
X125251928Y-98640000D01*
X125251928Y-98920000D01*
X125266878Y-99071794D01*
X125311000Y-99217244D01*
X125311000Y-99314455D01*
X125281292Y-99330335D01*
X125244180Y-99310498D01*
X125124482Y-99274188D01*
X125000000Y-99261928D01*
X124285750Y-99265000D01*
X124127000Y-99423750D01*
X124127000Y-103023000D01*
X124147000Y-103023000D01*
X124147000Y-103277000D01*
X124127000Y-103277000D01*
X124127000Y-106876250D01*
X124285750Y-107035000D01*
X125000000Y-107038072D01*
X125097209Y-107028498D01*
X123957619Y-108168089D01*
X123950974Y-108100622D01*
X123907402Y-107956985D01*
X123874465Y-107895364D01*
X123836645Y-107824607D01*
X123785552Y-107762351D01*
X123741422Y-107708578D01*
X123712346Y-107684716D01*
X123065421Y-107037791D01*
X123714250Y-107035000D01*
X123873000Y-106876250D01*
X123873000Y-103277000D01*
X123853000Y-103277000D01*
X123853000Y-103023000D01*
X123873000Y-103023000D01*
X123873000Y-99423750D01*
X123714250Y-99265000D01*
X123000000Y-99261928D01*
X122975620Y-99264329D01*
X123021014Y-99179403D01*
X123064586Y-99035766D01*
X123075612Y-98923814D01*
X123075612Y-98923811D01*
X123079298Y-98886388D01*
X123075612Y-98848965D01*
X123075612Y-97534250D01*
X125255000Y-97534250D01*
X125413750Y-97693000D01*
X126073000Y-97693000D01*
X126073000Y-97063750D01*
X125914250Y-96905000D01*
X125892923Y-96901935D01*
X125768387Y-96913625D01*
X125648524Y-96949386D01*
X125537941Y-97007844D01*
X125440887Y-97086753D01*
X125361092Y-97183079D01*
X125301623Y-97293122D01*
X125264765Y-97412652D01*
X125255000Y-97534250D01*
X123075612Y-97534250D01*
X123075612Y-94621034D01*
X123079298Y-94583611D01*
X123070973Y-94499087D01*
X123064586Y-94434234D01*
X123021014Y-94290597D01*
X122950257Y-94158220D01*
X122855034Y-94042190D01*
X122825964Y-94018333D01*
X120747190Y-91939560D01*
X120758845Y-91917755D01*
X120803122Y-91771794D01*
X120818072Y-91620000D01*
X120818072Y-91280000D01*
X120803122Y-91128206D01*
X120758845Y-90982245D01*
X120686943Y-90847726D01*
X120590180Y-90729820D01*
X120531098Y-90681333D01*
X120591644Y-90631644D01*
X120687786Y-90514496D01*
X120759225Y-90380842D01*
X120803218Y-90235819D01*
X120818072Y-90085000D01*
X120818072Y-89715000D01*
X120803218Y-89564181D01*
X120759225Y-89419158D01*
X120745297Y-89393101D01*
X120758845Y-89367755D01*
X120803122Y-89221794D01*
X120818072Y-89070000D01*
X120818072Y-89059558D01*
X121919291Y-87958340D01*
X121930820Y-87964502D01*
X122050518Y-88000812D01*
X122175000Y-88013072D01*
X122231928Y-88012007D01*
X122231928Y-88335000D01*
X122246782Y-88485819D01*
X122251000Y-88499724D01*
X122251000Y-88696342D01*
X122246700Y-88740002D01*
X122251000Y-88783662D01*
X122251000Y-88783669D01*
X122263864Y-88914276D01*
X122314697Y-89081853D01*
X122370232Y-89185750D01*
X122397248Y-89236293D01*
X122476212Y-89332510D01*
X122508342Y-89371661D01*
X122542259Y-89399496D01*
X122652474Y-89509711D01*
X122667158Y-89545162D01*
X122770008Y-89699087D01*
X122900911Y-89829990D01*
X123054836Y-89932840D01*
X123225869Y-90003684D01*
X123407436Y-90039800D01*
X123592560Y-90039800D01*
X123774127Y-90003684D01*
X123945160Y-89932840D01*
X124099085Y-89829990D01*
X124229988Y-89699087D01*
X124332838Y-89545162D01*
X124403682Y-89374129D01*
X124439798Y-89192562D01*
X124439798Y-89093811D01*
X124445819Y-89093218D01*
X124590842Y-89049225D01*
X124724496Y-88977786D01*
X124841644Y-88881644D01*
X124937786Y-88764496D01*
X124938001Y-88764095D01*
X124938001Y-90009369D01*
X124860442Y-90086928D01*
X124600000Y-90086928D01*
X124431623Y-90103512D01*
X124269717Y-90152625D01*
X124120503Y-90232382D01*
X123989716Y-90339716D01*
X123882382Y-90470503D01*
X123802625Y-90619717D01*
X123753512Y-90781623D01*
X123736928Y-90950000D01*
X123736928Y-91400000D01*
X123753512Y-91568377D01*
X123802625Y-91730283D01*
X123882382Y-91879497D01*
X123940242Y-91950000D01*
X123882382Y-92020503D01*
X123802625Y-92169717D01*
X123753512Y-92331623D01*
X123736928Y-92500000D01*
X123736928Y-92950000D01*
X123753512Y-93118377D01*
X123802625Y-93280283D01*
X123882382Y-93429497D01*
X123989716Y-93560284D01*
X124120503Y-93667618D01*
X124269717Y-93747375D01*
X124431623Y-93796488D01*
X124600000Y-93813072D01*
X125100000Y-93813072D01*
X125225654Y-93800696D01*
X125225654Y-94290220D01*
X125221967Y-94327653D01*
X125236680Y-94477031D01*
X125280252Y-94620668D01*
X125351008Y-94753045D01*
X125391928Y-94802906D01*
X125391928Y-94825000D01*
X125406782Y-94975819D01*
X125450775Y-95120842D01*
X125493086Y-95200000D01*
X125450775Y-95279158D01*
X125406782Y-95424181D01*
X125391928Y-95575000D01*
X125391928Y-95845000D01*
X125406782Y-95995819D01*
X125450775Y-96140842D01*
X125522214Y-96274496D01*
X125618356Y-96391644D01*
X125735504Y-96487786D01*
X125869158Y-96559225D01*
X126014181Y-96603218D01*
X126165000Y-96618072D01*
X126535000Y-96618072D01*
X126685819Y-96603218D01*
X126763367Y-96579694D01*
X126764916Y-96580965D01*
X126746316Y-96625871D01*
X126710200Y-96807438D01*
X126710200Y-96937071D01*
X126631613Y-96913625D01*
X126507077Y-96901935D01*
X126485750Y-96905000D01*
X126327000Y-97063750D01*
X126327000Y-97693000D01*
X126986250Y-97693000D01*
X127050087Y-97629164D01*
X127050913Y-97629990D01*
X127204838Y-97732840D01*
X127375871Y-97803684D01*
X127557438Y-97839800D01*
X127742562Y-97839800D01*
X127745000Y-97839315D01*
X127745000Y-97917002D01*
X127903748Y-97917002D01*
X127745000Y-98075750D01*
X127755774Y-98192202D01*
X127793559Y-98311442D01*
X127815584Y-98351451D01*
X127800775Y-98379158D01*
X127756782Y-98524181D01*
X127741928Y-98675000D01*
X127741928Y-98945000D01*
X127756782Y-99095819D01*
X127800775Y-99240842D01*
X127811000Y-99259972D01*
X127811000Y-99314455D01*
X127745506Y-99349463D01*
X127648815Y-99428815D01*
X127569463Y-99525506D01*
X127510498Y-99635820D01*
X127474188Y-99755518D01*
X127461928Y-99880000D01*
X127461928Y-102380000D01*
X127474188Y-102504482D01*
X127510498Y-102624180D01*
X127569463Y-102734494D01*
X127648815Y-102831185D01*
X127745506Y-102910537D01*
X127855820Y-102969502D01*
X127975518Y-103005812D01*
X128100000Y-103018072D01*
X129300000Y-103018072D01*
X129424482Y-103005812D01*
X129544180Y-102969502D01*
X129654494Y-102910537D01*
X129700000Y-102873191D01*
X129745506Y-102910537D01*
X129855820Y-102969502D01*
X129975518Y-103005812D01*
X130100000Y-103018072D01*
X131300000Y-103018072D01*
X131424482Y-103005812D01*
X131544180Y-102969502D01*
X131654494Y-102910537D01*
X131751185Y-102831185D01*
X131830537Y-102734494D01*
X131889502Y-102624180D01*
X131925812Y-102504482D01*
X131938072Y-102380000D01*
X131961928Y-102380000D01*
X131974188Y-102504482D01*
X132010498Y-102624180D01*
X132069463Y-102734494D01*
X132148815Y-102831185D01*
X132245506Y-102910537D01*
X132355820Y-102969502D01*
X132475518Y-103005812D01*
X132600000Y-103018072D01*
X132914250Y-103015000D01*
X133073000Y-102856250D01*
X133073000Y-101257000D01*
X132123750Y-101257000D01*
X131965000Y-101415750D01*
X131961928Y-102380000D01*
X131938072Y-102380000D01*
X131938072Y-99880000D01*
X131961928Y-99880000D01*
X131965000Y-100844250D01*
X132123750Y-101003000D01*
X133073000Y-101003000D01*
X133073000Y-99403750D01*
X133327000Y-99403750D01*
X133327000Y-101003000D01*
X133347000Y-101003000D01*
X133347000Y-101257000D01*
X133327000Y-101257000D01*
X133327000Y-102856250D01*
X133485750Y-103015000D01*
X133800000Y-103018072D01*
X133908169Y-103007419D01*
X133923750Y-103023000D01*
X135273000Y-103023000D01*
X135273000Y-99423750D01*
X135114250Y-99265000D01*
X134400000Y-99261928D01*
X134275518Y-99274188D01*
X134155820Y-99310498D01*
X134118708Y-99330335D01*
X134044180Y-99290498D01*
X133924482Y-99254188D01*
X133800000Y-99241928D01*
X133485750Y-99245000D01*
X133327000Y-99403750D01*
X133073000Y-99403750D01*
X132914250Y-99245000D01*
X132600000Y-99241928D01*
X132475518Y-99254188D01*
X132355820Y-99290498D01*
X132245506Y-99349463D01*
X132148815Y-99428815D01*
X132069463Y-99525506D01*
X132010498Y-99635820D01*
X131974188Y-99755518D01*
X131961928Y-99880000D01*
X131938072Y-99880000D01*
X131925812Y-99755518D01*
X131889502Y-99635820D01*
X131830537Y-99525506D01*
X131751185Y-99428815D01*
X131654494Y-99349463D01*
X131589000Y-99314455D01*
X131589000Y-99259972D01*
X131599225Y-99240842D01*
X131643218Y-99095819D01*
X131658072Y-98945000D01*
X131658072Y-98675000D01*
X131643218Y-98524181D01*
X131599225Y-98379158D01*
X131584416Y-98351451D01*
X131606441Y-98311442D01*
X131644226Y-98192202D01*
X131655000Y-98075750D01*
X131496250Y-97917000D01*
X131036538Y-97917000D01*
X131035819Y-97916782D01*
X130885000Y-97901928D01*
X130515000Y-97901928D01*
X130364181Y-97916782D01*
X130363462Y-97917000D01*
X129903750Y-97917000D01*
X129745000Y-98075750D01*
X129755774Y-98192202D01*
X129793559Y-98311442D01*
X129815584Y-98351451D01*
X129800775Y-98379158D01*
X129756782Y-98524181D01*
X129741928Y-98675000D01*
X129741928Y-98945000D01*
X129756782Y-99095819D01*
X129800775Y-99240842D01*
X129811000Y-99259972D01*
X129811000Y-99314455D01*
X129745506Y-99349463D01*
X129700000Y-99386809D01*
X129654494Y-99349463D01*
X129589000Y-99314455D01*
X129589000Y-99259972D01*
X129599225Y-99240842D01*
X129643218Y-99095819D01*
X129658072Y-98945000D01*
X129658072Y-98675000D01*
X129643218Y-98524181D01*
X129599225Y-98379158D01*
X129584416Y-98351451D01*
X129606441Y-98311442D01*
X129644226Y-98192202D01*
X129655000Y-98075750D01*
X129496250Y-97917000D01*
X129036538Y-97917000D01*
X129035819Y-97916782D01*
X128885000Y-97901928D01*
X128553000Y-97901928D01*
X128553000Y-97673628D01*
X128696491Y-97733064D01*
X128878058Y-97769180D01*
X129063182Y-97769180D01*
X129244749Y-97733064D01*
X129413899Y-97663000D01*
X129496250Y-97663000D01*
X129655000Y-97504250D01*
X129652445Y-97476632D01*
X129700610Y-97428467D01*
X129781021Y-97308124D01*
X129755774Y-97387798D01*
X129745000Y-97504250D01*
X129903750Y-97663000D01*
X130573000Y-97663000D01*
X130573000Y-97043750D01*
X130827000Y-97043750D01*
X130827000Y-97663000D01*
X131496250Y-97663000D01*
X131655000Y-97504250D01*
X131644226Y-97387798D01*
X131606441Y-97268558D01*
X131546118Y-97158980D01*
X131465578Y-97063276D01*
X131367914Y-96985124D01*
X131256879Y-96927527D01*
X131136742Y-96892699D01*
X131012119Y-96881977D01*
X130985750Y-96885000D01*
X130827000Y-97043750D01*
X130573000Y-97043750D01*
X130414250Y-96885000D01*
X130387881Y-96881977D01*
X130263258Y-96892699D01*
X130143121Y-96927527D01*
X130032086Y-96985124D01*
X129934422Y-97063276D01*
X129853882Y-97158980D01*
X129843563Y-97177725D01*
X129874304Y-97103509D01*
X129910420Y-96921942D01*
X129910420Y-96736818D01*
X129887231Y-96620237D01*
X129936633Y-96579694D01*
X130014181Y-96603218D01*
X130165000Y-96618072D01*
X130535000Y-96618072D01*
X130685819Y-96603218D01*
X130830842Y-96559225D01*
X130964496Y-96487786D01*
X131081644Y-96391644D01*
X131177786Y-96274496D01*
X131249225Y-96140842D01*
X131293218Y-95995819D01*
X131308072Y-95845000D01*
X131308072Y-95575000D01*
X131293218Y-95424181D01*
X131249225Y-95279158D01*
X131206914Y-95200000D01*
X131249225Y-95120842D01*
X131293218Y-94975819D01*
X131308072Y-94825000D01*
X131308072Y-94555000D01*
X131293218Y-94404181D01*
X131249225Y-94259158D01*
X131177786Y-94125504D01*
X131112000Y-94045344D01*
X131112000Y-93811890D01*
X131268377Y-93796488D01*
X131430283Y-93747375D01*
X131579497Y-93667618D01*
X131710284Y-93560284D01*
X131817618Y-93429497D01*
X131897375Y-93280283D01*
X131946488Y-93118377D01*
X131963072Y-92950000D01*
X131963072Y-92500000D01*
X131946488Y-92331623D01*
X131897375Y-92169717D01*
X131817618Y-92020503D01*
X131759758Y-91950000D01*
X131817618Y-91879497D01*
X131897375Y-91730283D01*
X131946488Y-91568377D01*
X131963072Y-91400000D01*
X131963072Y-90950000D01*
X131946488Y-90781623D01*
X131897375Y-90619717D01*
X131817618Y-90470503D01*
X131710284Y-90339716D01*
X131612000Y-90259056D01*
X131612000Y-87286999D01*
X132256650Y-87286999D01*
X132265821Y-87291901D01*
X132385519Y-87328211D01*
X132510001Y-87340471D01*
X133971999Y-87340471D01*
X134096481Y-87328211D01*
X134216179Y-87291901D01*
X134326493Y-87232936D01*
X134423184Y-87153584D01*
X134502536Y-87056893D01*
X134561501Y-86946579D01*
X134597811Y-86826881D01*
X134604267Y-86761332D01*
X134631331Y-86763998D01*
%TA.AperFunction,Conductor*%
D23*
G36*
X134631331Y-86763998D02*
G01*
X135705167Y-86763998D01*
X135770503Y-86817618D01*
X135919717Y-86897375D01*
X136000492Y-86921877D01*
X134582855Y-88339515D01*
X134553779Y-88363377D01*
X134525242Y-88398150D01*
X134458556Y-88479407D01*
X134420736Y-88550164D01*
X134387799Y-88611785D01*
X134344227Y-88755422D01*
X134333674Y-88862574D01*
X134329515Y-88904799D01*
X134333201Y-88942222D01*
X134333202Y-95457768D01*
X134329515Y-95495201D01*
X134344228Y-95644579D01*
X134387800Y-95788216D01*
X134458556Y-95920593D01*
X134468085Y-95932205D01*
X134496316Y-96074129D01*
X134567160Y-96245162D01*
X134670010Y-96399087D01*
X134800913Y-96529990D01*
X134954838Y-96632840D01*
X135125871Y-96703684D01*
X135307438Y-96739800D01*
X135492562Y-96739800D01*
X135674129Y-96703684D01*
X135845162Y-96632840D01*
X135999087Y-96529990D01*
X136129990Y-96399087D01*
X136232840Y-96245162D01*
X136303684Y-96074129D01*
X136339800Y-95892562D01*
X136339800Y-95707438D01*
X136303684Y-95525871D01*
X136232840Y-95354838D01*
X136129990Y-95200913D01*
X135999087Y-95070010D01*
X135857201Y-94975204D01*
X135857201Y-94676701D01*
X135941218Y-94732840D01*
X136112251Y-94803684D01*
X136293818Y-94839800D01*
X136478942Y-94839800D01*
X136660509Y-94803684D01*
X136831542Y-94732840D01*
X136888000Y-94695116D01*
X136888000Y-95234370D01*
X136637649Y-95484721D01*
X136608579Y-95508578D01*
X136584722Y-95537648D01*
X136584721Y-95537649D01*
X136513355Y-95624608D01*
X136442599Y-95756985D01*
X136399027Y-95900622D01*
X136384314Y-96050000D01*
X136388001Y-96087433D01*
X136388001Y-99261980D01*
X135685750Y-99265000D01*
X135527000Y-99423750D01*
X135527000Y-103023000D01*
X135547000Y-103023000D01*
X135547000Y-103277000D01*
X135527000Y-103277000D01*
X135527000Y-106876250D01*
X135685750Y-107035000D01*
X135936292Y-107036078D01*
X135234370Y-107738000D01*
X131437422Y-107738000D01*
X131399999Y-107734314D01*
X131362576Y-107738000D01*
X131362574Y-107738000D01*
X131250622Y-107749026D01*
X131106985Y-107792598D01*
X130974608Y-107863355D01*
X130858578Y-107958578D01*
X130834721Y-107987648D01*
X128154198Y-110668172D01*
X128129990Y-110631943D01*
X127999087Y-110501040D01*
X127845162Y-110398190D01*
X127674129Y-110327346D01*
X127492562Y-110291230D01*
X127310898Y-110291230D01*
X127313072Y-110175000D01*
X127300812Y-110050518D01*
X127264502Y-109930820D01*
X127205537Y-109820506D01*
X127126185Y-109723815D01*
X127029494Y-109644463D01*
X126919180Y-109585498D01*
X126799482Y-109549188D01*
X126675000Y-109536928D01*
X126485750Y-109540000D01*
X126327000Y-109698750D01*
X126327000Y-110498000D01*
X126347000Y-110498000D01*
X126347000Y-110752000D01*
X126327000Y-110752000D01*
X126327000Y-110772000D01*
X126073000Y-110772000D01*
X126073000Y-110752000D01*
X126053000Y-110752000D01*
X126053000Y-110498000D01*
X126073000Y-110498000D01*
X126073000Y-109698750D01*
X125914250Y-109540000D01*
X125725000Y-109536928D01*
X125600518Y-109549188D01*
X125480820Y-109585498D01*
X125370506Y-109644463D01*
X125273815Y-109723815D01*
X125194463Y-109820506D01*
X125135498Y-109930820D01*
X125099188Y-110050518D01*
X125086928Y-110175000D01*
X125090000Y-110339250D01*
X125120750Y-110370000D01*
X125077000Y-110413750D01*
X125077000Y-111043000D01*
X125087527Y-111043000D01*
X125086928Y-111075000D01*
X125097000Y-111177266D01*
X125097000Y-111211928D01*
X124780000Y-111211928D01*
X124628206Y-111226878D01*
X124482245Y-111271155D01*
X124454472Y-111286000D01*
X124395528Y-111286000D01*
X124367755Y-111271155D01*
X124221794Y-111226878D01*
X124070000Y-111211928D01*
X123962000Y-111211928D01*
X123962000Y-111023000D01*
X124027000Y-111023000D01*
X124027000Y-111043000D01*
X124823000Y-111043000D01*
X124823000Y-110906250D01*
X124845000Y-110884250D01*
X124835235Y-110762652D01*
X124823000Y-110722974D01*
X124823000Y-110413750D01*
X124664250Y-110255000D01*
X124642923Y-110251935D01*
X124518387Y-110263625D01*
X124425000Y-110291487D01*
X124331613Y-110263625D01*
X124233758Y-110254440D01*
X124324333Y-110236423D01*
X124495366Y-110165579D01*
X124649291Y-110062729D01*
X124780194Y-109931826D01*
X124883044Y-109777901D01*
X124897728Y-109742450D01*
X126797742Y-107842437D01*
X126831659Y-107814602D01*
X126942753Y-107679234D01*
X127025303Y-107524794D01*
X127076136Y-107357217D01*
X127089000Y-107226610D01*
X127089000Y-107226603D01*
X127093300Y-107182943D01*
X127089000Y-107139283D01*
X127089000Y-106400000D01*
X133761928Y-106400000D01*
X133774188Y-106524482D01*
X133810498Y-106644180D01*
X133869463Y-106754494D01*
X133948815Y-106851185D01*
X134045506Y-106930537D01*
X134155820Y-106989502D01*
X134275518Y-107025812D01*
X134400000Y-107038072D01*
X135114250Y-107035000D01*
X135273000Y-106876250D01*
X135273000Y-103277000D01*
X133923750Y-103277000D01*
X133765000Y-103435750D01*
X133761928Y-106400000D01*
X127089000Y-106400000D01*
X127089000Y-102945545D01*
X127154494Y-102910537D01*
X127251185Y-102831185D01*
X127330537Y-102734494D01*
X127389502Y-102624180D01*
X127425812Y-102504482D01*
X127438072Y-102380000D01*
X127438072Y-99880000D01*
X127425812Y-99755518D01*
X127389502Y-99635820D01*
X127330537Y-99525506D01*
X127251185Y-99428815D01*
X127154494Y-99349463D01*
X127089000Y-99314455D01*
X127089000Y-99217244D01*
X127133122Y-99071794D01*
X127148072Y-98920000D01*
X127148072Y-98640000D01*
X127133122Y-98488206D01*
X127093172Y-98356509D01*
X127098377Y-98346878D01*
X127135235Y-98227348D01*
X127145000Y-98105750D01*
X126986250Y-97947000D01*
X126716108Y-97947000D01*
X126667755Y-97921155D01*
X126521794Y-97876878D01*
X126370000Y-97861928D01*
X126030000Y-97861928D01*
X125878206Y-97876878D01*
X125732245Y-97921155D01*
X125683892Y-97947000D01*
X125413750Y-97947000D01*
X125255000Y-98105750D01*
X125264765Y-98227348D01*
X125301623Y-98346878D01*
X125306828Y-98356509D01*
X125266878Y-98488206D01*
X125251928Y-98640000D01*
X125251928Y-98920000D01*
X125266878Y-99071794D01*
X125311000Y-99217244D01*
X125311000Y-99314455D01*
X125281292Y-99330335D01*
X125244180Y-99310498D01*
X125124482Y-99274188D01*
X125000000Y-99261928D01*
X124285750Y-99265000D01*
X124127000Y-99423750D01*
X124127000Y-103023000D01*
X124147000Y-103023000D01*
X124147000Y-103277000D01*
X124127000Y-103277000D01*
X124127000Y-106876250D01*
X124285750Y-107035000D01*
X125000000Y-107038072D01*
X125097209Y-107028498D01*
X123957619Y-108168089D01*
X123950974Y-108100622D01*
X123907402Y-107956985D01*
X123874465Y-107895364D01*
X123836645Y-107824607D01*
X123785552Y-107762351D01*
X123741422Y-107708578D01*
X123712346Y-107684716D01*
X123065421Y-107037791D01*
X123714250Y-107035000D01*
X123873000Y-106876250D01*
X123873000Y-103277000D01*
X123853000Y-103277000D01*
X123853000Y-103023000D01*
X123873000Y-103023000D01*
X123873000Y-99423750D01*
X123714250Y-99265000D01*
X123000000Y-99261928D01*
X122975620Y-99264329D01*
X123021014Y-99179403D01*
X123064586Y-99035766D01*
X123075612Y-98923814D01*
X123075612Y-98923811D01*
X123079298Y-98886388D01*
X123075612Y-98848965D01*
X123075612Y-97534250D01*
X125255000Y-97534250D01*
X125413750Y-97693000D01*
X126073000Y-97693000D01*
X126073000Y-97063750D01*
X125914250Y-96905000D01*
X125892923Y-96901935D01*
X125768387Y-96913625D01*
X125648524Y-96949386D01*
X125537941Y-97007844D01*
X125440887Y-97086753D01*
X125361092Y-97183079D01*
X125301623Y-97293122D01*
X125264765Y-97412652D01*
X125255000Y-97534250D01*
X123075612Y-97534250D01*
X123075612Y-94621034D01*
X123079298Y-94583611D01*
X123070973Y-94499087D01*
X123064586Y-94434234D01*
X123021014Y-94290597D01*
X122950257Y-94158220D01*
X122855034Y-94042190D01*
X122825964Y-94018333D01*
X120747190Y-91939560D01*
X120758845Y-91917755D01*
X120803122Y-91771794D01*
X120818072Y-91620000D01*
X120818072Y-91280000D01*
X120803122Y-91128206D01*
X120758845Y-90982245D01*
X120686943Y-90847726D01*
X120590180Y-90729820D01*
X120531098Y-90681333D01*
X120591644Y-90631644D01*
X120687786Y-90514496D01*
X120759225Y-90380842D01*
X120803218Y-90235819D01*
X120818072Y-90085000D01*
X120818072Y-89715000D01*
X120803218Y-89564181D01*
X120759225Y-89419158D01*
X120745297Y-89393101D01*
X120758845Y-89367755D01*
X120803122Y-89221794D01*
X120818072Y-89070000D01*
X120818072Y-89059558D01*
X121919291Y-87958340D01*
X121930820Y-87964502D01*
X122050518Y-88000812D01*
X122175000Y-88013072D01*
X122231928Y-88012007D01*
X122231928Y-88335000D01*
X122246782Y-88485819D01*
X122251000Y-88499724D01*
X122251000Y-88696342D01*
X122246700Y-88740002D01*
X122251000Y-88783662D01*
X122251000Y-88783669D01*
X122263864Y-88914276D01*
X122314697Y-89081853D01*
X122370232Y-89185750D01*
X122397248Y-89236293D01*
X122476212Y-89332510D01*
X122508342Y-89371661D01*
X122542259Y-89399496D01*
X122652474Y-89509711D01*
X122667158Y-89545162D01*
X122770008Y-89699087D01*
X122900911Y-89829990D01*
X123054836Y-89932840D01*
X123225869Y-90003684D01*
X123407436Y-90039800D01*
X123592560Y-90039800D01*
X123774127Y-90003684D01*
X123945160Y-89932840D01*
X124099085Y-89829990D01*
X124229988Y-89699087D01*
X124332838Y-89545162D01*
X124403682Y-89374129D01*
X124439798Y-89192562D01*
X124439798Y-89093811D01*
X124445819Y-89093218D01*
X124590842Y-89049225D01*
X124724496Y-88977786D01*
X124841644Y-88881644D01*
X124937786Y-88764496D01*
X124938001Y-88764095D01*
X124938001Y-90009369D01*
X124860442Y-90086928D01*
X124600000Y-90086928D01*
X124431623Y-90103512D01*
X124269717Y-90152625D01*
X124120503Y-90232382D01*
X123989716Y-90339716D01*
X123882382Y-90470503D01*
X123802625Y-90619717D01*
X123753512Y-90781623D01*
X123736928Y-90950000D01*
X123736928Y-91400000D01*
X123753512Y-91568377D01*
X123802625Y-91730283D01*
X123882382Y-91879497D01*
X123940242Y-91950000D01*
X123882382Y-92020503D01*
X123802625Y-92169717D01*
X123753512Y-92331623D01*
X123736928Y-92500000D01*
X123736928Y-92950000D01*
X123753512Y-93118377D01*
X123802625Y-93280283D01*
X123882382Y-93429497D01*
X123989716Y-93560284D01*
X124120503Y-93667618D01*
X124269717Y-93747375D01*
X124431623Y-93796488D01*
X124600000Y-93813072D01*
X125100000Y-93813072D01*
X125225654Y-93800696D01*
X125225654Y-94290220D01*
X125221967Y-94327653D01*
X125236680Y-94477031D01*
X125280252Y-94620668D01*
X125351008Y-94753045D01*
X125391928Y-94802906D01*
X125391928Y-94825000D01*
X125406782Y-94975819D01*
X125450775Y-95120842D01*
X125493086Y-95200000D01*
X125450775Y-95279158D01*
X125406782Y-95424181D01*
X125391928Y-95575000D01*
X125391928Y-95845000D01*
X125406782Y-95995819D01*
X125450775Y-96140842D01*
X125522214Y-96274496D01*
X125618356Y-96391644D01*
X125735504Y-96487786D01*
X125869158Y-96559225D01*
X126014181Y-96603218D01*
X126165000Y-96618072D01*
X126535000Y-96618072D01*
X126685819Y-96603218D01*
X126763367Y-96579694D01*
X126764916Y-96580965D01*
X126746316Y-96625871D01*
X126710200Y-96807438D01*
X126710200Y-96937071D01*
X126631613Y-96913625D01*
X126507077Y-96901935D01*
X126485750Y-96905000D01*
X126327000Y-97063750D01*
X126327000Y-97693000D01*
X126986250Y-97693000D01*
X127050087Y-97629164D01*
X127050913Y-97629990D01*
X127204838Y-97732840D01*
X127375871Y-97803684D01*
X127557438Y-97839800D01*
X127742562Y-97839800D01*
X127745000Y-97839315D01*
X127745000Y-97917002D01*
X127903748Y-97917002D01*
X127745000Y-98075750D01*
X127755774Y-98192202D01*
X127793559Y-98311442D01*
X127815584Y-98351451D01*
X127800775Y-98379158D01*
X127756782Y-98524181D01*
X127741928Y-98675000D01*
X127741928Y-98945000D01*
X127756782Y-99095819D01*
X127800775Y-99240842D01*
X127811000Y-99259972D01*
X127811000Y-99314455D01*
X127745506Y-99349463D01*
X127648815Y-99428815D01*
X127569463Y-99525506D01*
X127510498Y-99635820D01*
X127474188Y-99755518D01*
X127461928Y-99880000D01*
X127461928Y-102380000D01*
X127474188Y-102504482D01*
X127510498Y-102624180D01*
X127569463Y-102734494D01*
X127648815Y-102831185D01*
X127745506Y-102910537D01*
X127855820Y-102969502D01*
X127975518Y-103005812D01*
X128100000Y-103018072D01*
X129300000Y-103018072D01*
X129424482Y-103005812D01*
X129544180Y-102969502D01*
X129654494Y-102910537D01*
X129700000Y-102873191D01*
X129745506Y-102910537D01*
X129855820Y-102969502D01*
X129975518Y-103005812D01*
X130100000Y-103018072D01*
X131300000Y-103018072D01*
X131424482Y-103005812D01*
X131544180Y-102969502D01*
X131654494Y-102910537D01*
X131751185Y-102831185D01*
X131830537Y-102734494D01*
X131889502Y-102624180D01*
X131925812Y-102504482D01*
X131938072Y-102380000D01*
X131961928Y-102380000D01*
X131974188Y-102504482D01*
X132010498Y-102624180D01*
X132069463Y-102734494D01*
X132148815Y-102831185D01*
X132245506Y-102910537D01*
X132355820Y-102969502D01*
X132475518Y-103005812D01*
X132600000Y-103018072D01*
X132914250Y-103015000D01*
X133073000Y-102856250D01*
X133073000Y-101257000D01*
X132123750Y-101257000D01*
X131965000Y-101415750D01*
X131961928Y-102380000D01*
X131938072Y-102380000D01*
X131938072Y-99880000D01*
X131961928Y-99880000D01*
X131965000Y-100844250D01*
X132123750Y-101003000D01*
X133073000Y-101003000D01*
X133073000Y-99403750D01*
X133327000Y-99403750D01*
X133327000Y-101003000D01*
X133347000Y-101003000D01*
X133347000Y-101257000D01*
X133327000Y-101257000D01*
X133327000Y-102856250D01*
X133485750Y-103015000D01*
X133800000Y-103018072D01*
X133908169Y-103007419D01*
X133923750Y-103023000D01*
X135273000Y-103023000D01*
X135273000Y-99423750D01*
X135114250Y-99265000D01*
X134400000Y-99261928D01*
X134275518Y-99274188D01*
X134155820Y-99310498D01*
X134118708Y-99330335D01*
X134044180Y-99290498D01*
X133924482Y-99254188D01*
X133800000Y-99241928D01*
X133485750Y-99245000D01*
X133327000Y-99403750D01*
X133073000Y-99403750D01*
X132914250Y-99245000D01*
X132600000Y-99241928D01*
X132475518Y-99254188D01*
X132355820Y-99290498D01*
X132245506Y-99349463D01*
X132148815Y-99428815D01*
X132069463Y-99525506D01*
X132010498Y-99635820D01*
X131974188Y-99755518D01*
X131961928Y-99880000D01*
X131938072Y-99880000D01*
X131925812Y-99755518D01*
X131889502Y-99635820D01*
X131830537Y-99525506D01*
X131751185Y-99428815D01*
X131654494Y-99349463D01*
X131589000Y-99314455D01*
X131589000Y-99259972D01*
X131599225Y-99240842D01*
X131643218Y-99095819D01*
X131658072Y-98945000D01*
X131658072Y-98675000D01*
X131643218Y-98524181D01*
X131599225Y-98379158D01*
X131584416Y-98351451D01*
X131606441Y-98311442D01*
X131644226Y-98192202D01*
X131655000Y-98075750D01*
X131496250Y-97917000D01*
X131036538Y-97917000D01*
X131035819Y-97916782D01*
X130885000Y-97901928D01*
X130515000Y-97901928D01*
X130364181Y-97916782D01*
X130363462Y-97917000D01*
X129903750Y-97917000D01*
X129745000Y-98075750D01*
X129755774Y-98192202D01*
X129793559Y-98311442D01*
X129815584Y-98351451D01*
X129800775Y-98379158D01*
X129756782Y-98524181D01*
X129741928Y-98675000D01*
X129741928Y-98945000D01*
X129756782Y-99095819D01*
X129800775Y-99240842D01*
X129811000Y-99259972D01*
X129811000Y-99314455D01*
X129745506Y-99349463D01*
X129700000Y-99386809D01*
X129654494Y-99349463D01*
X129589000Y-99314455D01*
X129589000Y-99259972D01*
X129599225Y-99240842D01*
X129643218Y-99095819D01*
X129658072Y-98945000D01*
X129658072Y-98675000D01*
X129643218Y-98524181D01*
X129599225Y-98379158D01*
X129584416Y-98351451D01*
X129606441Y-98311442D01*
X129644226Y-98192202D01*
X129655000Y-98075750D01*
X129496250Y-97917000D01*
X129036538Y-97917000D01*
X129035819Y-97916782D01*
X128885000Y-97901928D01*
X128553000Y-97901928D01*
X128553000Y-97673628D01*
X128696491Y-97733064D01*
X128878058Y-97769180D01*
X129063182Y-97769180D01*
X129244749Y-97733064D01*
X129413899Y-97663000D01*
X129496250Y-97663000D01*
X129655000Y-97504250D01*
X129652445Y-97476632D01*
X129700610Y-97428467D01*
X129781021Y-97308124D01*
X129755774Y-97387798D01*
X129745000Y-97504250D01*
X129903750Y-97663000D01*
X130573000Y-97663000D01*
X130573000Y-97043750D01*
X130827000Y-97043750D01*
X130827000Y-97663000D01*
X131496250Y-97663000D01*
X131655000Y-97504250D01*
X131644226Y-97387798D01*
X131606441Y-97268558D01*
X131546118Y-97158980D01*
X131465578Y-97063276D01*
X131367914Y-96985124D01*
X131256879Y-96927527D01*
X131136742Y-96892699D01*
X131012119Y-96881977D01*
X130985750Y-96885000D01*
X130827000Y-97043750D01*
X130573000Y-97043750D01*
X130414250Y-96885000D01*
X130387881Y-96881977D01*
X130263258Y-96892699D01*
X130143121Y-96927527D01*
X130032086Y-96985124D01*
X129934422Y-97063276D01*
X129853882Y-97158980D01*
X129843563Y-97177725D01*
X129874304Y-97103509D01*
X129910420Y-96921942D01*
X129910420Y-96736818D01*
X129887231Y-96620237D01*
X129936633Y-96579694D01*
X130014181Y-96603218D01*
X130165000Y-96618072D01*
X130535000Y-96618072D01*
X130685819Y-96603218D01*
X130830842Y-96559225D01*
X130964496Y-96487786D01*
X131081644Y-96391644D01*
X131177786Y-96274496D01*
X131249225Y-96140842D01*
X131293218Y-95995819D01*
X131308072Y-95845000D01*
X131308072Y-95575000D01*
X131293218Y-95424181D01*
X131249225Y-95279158D01*
X131206914Y-95200000D01*
X131249225Y-95120842D01*
X131293218Y-94975819D01*
X131308072Y-94825000D01*
X131308072Y-94555000D01*
X131293218Y-94404181D01*
X131249225Y-94259158D01*
X131177786Y-94125504D01*
X131112000Y-94045344D01*
X131112000Y-93811890D01*
X131268377Y-93796488D01*
X131430283Y-93747375D01*
X131579497Y-93667618D01*
X131710284Y-93560284D01*
X131817618Y-93429497D01*
X131897375Y-93280283D01*
X131946488Y-93118377D01*
X131963072Y-92950000D01*
X131963072Y-92500000D01*
X131946488Y-92331623D01*
X131897375Y-92169717D01*
X131817618Y-92020503D01*
X131759758Y-91950000D01*
X131817618Y-91879497D01*
X131897375Y-91730283D01*
X131946488Y-91568377D01*
X131963072Y-91400000D01*
X131963072Y-90950000D01*
X131946488Y-90781623D01*
X131897375Y-90619717D01*
X131817618Y-90470503D01*
X131710284Y-90339716D01*
X131612000Y-90259056D01*
X131612000Y-87286999D01*
X132256650Y-87286999D01*
X132265821Y-87291901D01*
X132385519Y-87328211D01*
X132510001Y-87340471D01*
X133971999Y-87340471D01*
X134096481Y-87328211D01*
X134216179Y-87291901D01*
X134326493Y-87232936D01*
X134423184Y-87153584D01*
X134502536Y-87056893D01*
X134561501Y-86946579D01*
X134597811Y-86826881D01*
X134604267Y-86761332D01*
X134631331Y-86763998D01*
G37*
%TD.AperFunction*%
D22*
X120477000Y-111013000D02*
X120497000Y-111013000D01*
X120497000Y-111251928D01*
X120262000Y-111251928D01*
X120262000Y-111115630D01*
X120384630Y-110993000D01*
X120477000Y-110993000D01*
X120477000Y-111013000D01*
%TA.AperFunction,Conductor*%
D23*
G36*
X120477000Y-111013000D02*
G01*
X120497000Y-111013000D01*
X120497000Y-111251928D01*
X120262000Y-111251928D01*
X120262000Y-111115630D01*
X120384630Y-110993000D01*
X120477000Y-110993000D01*
X120477000Y-111013000D01*
G37*
%TD.AperFunction*%
D22*
X141509465Y-98814880D02*
X141314880Y-99009465D01*
X141236307Y-99127057D01*
X141136250Y-99027000D01*
X140507000Y-99027000D01*
X140507000Y-99686250D01*
X140665750Y-99845000D01*
X140787348Y-99835235D01*
X140906878Y-99798377D01*
X141006561Y-99744507D01*
X141003000Y-99762408D01*
X141003000Y-100037592D01*
X141056686Y-100307490D01*
X141161995Y-100561727D01*
X141314880Y-100790535D01*
X141509465Y-100985120D01*
X141738273Y-101138005D01*
X141815515Y-101170000D01*
X141738273Y-101201995D01*
X141509465Y-101354880D01*
X141314880Y-101549465D01*
X141161995Y-101778273D01*
X141056686Y-102032510D01*
X141003000Y-102302408D01*
X141003000Y-102577592D01*
X141056686Y-102847490D01*
X141161995Y-103101727D01*
X141314880Y-103330535D01*
X141509465Y-103525120D01*
X141738273Y-103678005D01*
X141815515Y-103710000D01*
X141738273Y-103741995D01*
X141509465Y-103894880D01*
X141314880Y-104089465D01*
X141161995Y-104318273D01*
X141056686Y-104572510D01*
X141003000Y-104842408D01*
X141003000Y-105117592D01*
X141056686Y-105387490D01*
X141161995Y-105641727D01*
X141314880Y-105870535D01*
X141509465Y-106065120D01*
X141738273Y-106218005D01*
X141809943Y-106247692D01*
X141796977Y-106252364D01*
X141681020Y-106314344D01*
X141614040Y-106554435D01*
X142400000Y-107340395D01*
X143185960Y-106554435D01*
X143118980Y-106314344D01*
X142983240Y-106250515D01*
X143061727Y-106218005D01*
X143290535Y-106065120D01*
X143485120Y-105870535D01*
X143573000Y-105739014D01*
X143573000Y-106791910D01*
X143365565Y-106734040D01*
X142579605Y-107520000D01*
X143365565Y-108305960D01*
X143573000Y-108248090D01*
X143573000Y-109300986D01*
X143485120Y-109169465D01*
X143290535Y-108974880D01*
X143061727Y-108821995D01*
X142990057Y-108792308D01*
X143003023Y-108787636D01*
X143118980Y-108725656D01*
X143185960Y-108485565D01*
X142400000Y-107699605D01*
X141614040Y-108485565D01*
X141681020Y-108725656D01*
X141816760Y-108789485D01*
X141738273Y-108821995D01*
X141509465Y-108974880D01*
X141422140Y-109062205D01*
X141406659Y-109043341D01*
X141271291Y-108932247D01*
X141116851Y-108849697D01*
X140968862Y-108804806D01*
X141000812Y-108699482D01*
X141013072Y-108575000D01*
X141010000Y-108410750D01*
X140851250Y-108252000D01*
X140027000Y-108252000D01*
X140027000Y-108272000D01*
X139773000Y-108272000D01*
X139773000Y-108252000D01*
X139753000Y-108252000D01*
X139753000Y-107998000D01*
X139773000Y-107998000D01*
X139773000Y-107198750D01*
X140027000Y-107198750D01*
X140027000Y-107998000D01*
X140851250Y-107998000D01*
X141010000Y-107839250D01*
X141012798Y-107689661D01*
X141039078Y-107864133D01*
X141132364Y-108123023D01*
X141194344Y-108238980D01*
X141434435Y-108305960D01*
X142220395Y-107520000D01*
X141434435Y-106734040D01*
X141194344Y-106801020D01*
X141077244Y-107050048D01*
X141010977Y-107317135D01*
X141000139Y-107548301D01*
X140964502Y-107430820D01*
X140905537Y-107320506D01*
X140826185Y-107223815D01*
X140729494Y-107144463D01*
X140619180Y-107085498D01*
X140499482Y-107049188D01*
X140375000Y-107036928D01*
X140185750Y-107040000D01*
X140027000Y-107198750D01*
X139773000Y-107198750D01*
X139662000Y-107087750D01*
X139662000Y-99838026D01*
X139711794Y-99833122D01*
X139843491Y-99793172D01*
X139853122Y-99798377D01*
X139972652Y-99835235D01*
X140094250Y-99845000D01*
X140253000Y-99686250D01*
X140253000Y-99416108D01*
X140278845Y-99367755D01*
X140323122Y-99221794D01*
X140338072Y-99070000D01*
X140338072Y-98858072D01*
X140545000Y-98858072D01*
X140695819Y-98843218D01*
X140840842Y-98799225D01*
X140889906Y-98773000D01*
X141136250Y-98773000D01*
X141247250Y-98662000D01*
X141738266Y-98662000D01*
X141509465Y-98814880D01*
%TA.AperFunction,Conductor*%
D23*
G36*
X141509465Y-98814880D02*
G01*
X141314880Y-99009465D01*
X141236307Y-99127057D01*
X141136250Y-99027000D01*
X140507000Y-99027000D01*
X140507000Y-99686250D01*
X140665750Y-99845000D01*
X140787348Y-99835235D01*
X140906878Y-99798377D01*
X141006561Y-99744507D01*
X141003000Y-99762408D01*
X141003000Y-100037592D01*
X141056686Y-100307490D01*
X141161995Y-100561727D01*
X141314880Y-100790535D01*
X141509465Y-100985120D01*
X141738273Y-101138005D01*
X141815515Y-101170000D01*
X141738273Y-101201995D01*
X141509465Y-101354880D01*
X141314880Y-101549465D01*
X141161995Y-101778273D01*
X141056686Y-102032510D01*
X141003000Y-102302408D01*
X141003000Y-102577592D01*
X141056686Y-102847490D01*
X141161995Y-103101727D01*
X141314880Y-103330535D01*
X141509465Y-103525120D01*
X141738273Y-103678005D01*
X141815515Y-103710000D01*
X141738273Y-103741995D01*
X141509465Y-103894880D01*
X141314880Y-104089465D01*
X141161995Y-104318273D01*
X141056686Y-104572510D01*
X141003000Y-104842408D01*
X141003000Y-105117592D01*
X141056686Y-105387490D01*
X141161995Y-105641727D01*
X141314880Y-105870535D01*
X141509465Y-106065120D01*
X141738273Y-106218005D01*
X141809943Y-106247692D01*
X141796977Y-106252364D01*
X141681020Y-106314344D01*
X141614040Y-106554435D01*
X142400000Y-107340395D01*
X143185960Y-106554435D01*
X143118980Y-106314344D01*
X142983240Y-106250515D01*
X143061727Y-106218005D01*
X143290535Y-106065120D01*
X143485120Y-105870535D01*
X143573000Y-105739014D01*
X143573000Y-106791910D01*
X143365565Y-106734040D01*
X142579605Y-107520000D01*
X143365565Y-108305960D01*
X143573000Y-108248090D01*
X143573000Y-109300986D01*
X143485120Y-109169465D01*
X143290535Y-108974880D01*
X143061727Y-108821995D01*
X142990057Y-108792308D01*
X143003023Y-108787636D01*
X143118980Y-108725656D01*
X143185960Y-108485565D01*
X142400000Y-107699605D01*
X141614040Y-108485565D01*
X141681020Y-108725656D01*
X141816760Y-108789485D01*
X141738273Y-108821995D01*
X141509465Y-108974880D01*
X141422140Y-109062205D01*
X141406659Y-109043341D01*
X141271291Y-108932247D01*
X141116851Y-108849697D01*
X140968862Y-108804806D01*
X141000812Y-108699482D01*
X141013072Y-108575000D01*
X141010000Y-108410750D01*
X140851250Y-108252000D01*
X140027000Y-108252000D01*
X140027000Y-108272000D01*
X139773000Y-108272000D01*
X139773000Y-108252000D01*
X139753000Y-108252000D01*
X139753000Y-107998000D01*
X139773000Y-107998000D01*
X139773000Y-107198750D01*
X140027000Y-107198750D01*
X140027000Y-107998000D01*
X140851250Y-107998000D01*
X141010000Y-107839250D01*
X141012798Y-107689661D01*
X141039078Y-107864133D01*
X141132364Y-108123023D01*
X141194344Y-108238980D01*
X141434435Y-108305960D01*
X142220395Y-107520000D01*
X141434435Y-106734040D01*
X141194344Y-106801020D01*
X141077244Y-107050048D01*
X141010977Y-107317135D01*
X141000139Y-107548301D01*
X140964502Y-107430820D01*
X140905537Y-107320506D01*
X140826185Y-107223815D01*
X140729494Y-107144463D01*
X140619180Y-107085498D01*
X140499482Y-107049188D01*
X140375000Y-107036928D01*
X140185750Y-107040000D01*
X140027000Y-107198750D01*
X139773000Y-107198750D01*
X139662000Y-107087750D01*
X139662000Y-99838026D01*
X139711794Y-99833122D01*
X139843491Y-99793172D01*
X139853122Y-99798377D01*
X139972652Y-99835235D01*
X140094250Y-99845000D01*
X140253000Y-99686250D01*
X140253000Y-99416108D01*
X140278845Y-99367755D01*
X140323122Y-99221794D01*
X140338072Y-99070000D01*
X140338072Y-98858072D01*
X140545000Y-98858072D01*
X140695819Y-98843218D01*
X140840842Y-98799225D01*
X140889906Y-98773000D01*
X141136250Y-98773000D01*
X141247250Y-98662000D01*
X141738266Y-98662000D01*
X141509465Y-98814880D01*
G37*
%TD.AperFunction*%
D22*
X115914880Y-105870535D02*
X116109465Y-106065120D01*
X116338273Y-106218005D01*
X116409943Y-106247692D01*
X116396977Y-106252364D01*
X116281020Y-106314344D01*
X116214040Y-106554435D01*
X117000000Y-107340395D01*
X117785960Y-106554435D01*
X117718980Y-106314344D01*
X117583240Y-106250515D01*
X117661727Y-106218005D01*
X117890535Y-106065120D01*
X118085120Y-105870535D01*
X118164322Y-105752001D01*
X118924371Y-105752001D01*
X119611944Y-106439575D01*
X119585750Y-106440000D01*
X119427000Y-106598750D01*
X119427000Y-107398000D01*
X119447000Y-107398000D01*
X119447000Y-107652000D01*
X119427000Y-107652000D01*
X119427000Y-107672000D01*
X119173000Y-107672000D01*
X119173000Y-107652000D01*
X119153000Y-107652000D01*
X119153000Y-107398000D01*
X119173000Y-107398000D01*
X119173000Y-106598750D01*
X119014250Y-106440000D01*
X118825000Y-106436928D01*
X118700518Y-106449188D01*
X118580820Y-106485498D01*
X118470506Y-106544463D01*
X118373815Y-106623815D01*
X118294463Y-106720506D01*
X118235498Y-106830820D01*
X118230461Y-106847426D01*
X118205656Y-106801020D01*
X117965565Y-106734040D01*
X117179605Y-107520000D01*
X117965565Y-108305960D01*
X118205656Y-108238980D01*
X118227447Y-108192639D01*
X118235498Y-108219180D01*
X118294463Y-108329494D01*
X118330700Y-108373649D01*
X118252625Y-108519717D01*
X118203512Y-108681623D01*
X118186928Y-108850000D01*
X118186928Y-108955836D01*
X118029210Y-109113555D01*
X117890535Y-108974880D01*
X117661727Y-108821995D01*
X117590057Y-108792308D01*
X117603023Y-108787636D01*
X117718980Y-108725656D01*
X117785960Y-108485565D01*
X117000000Y-107699605D01*
X116214040Y-108485565D01*
X116281020Y-108725656D01*
X116416760Y-108789485D01*
X116338273Y-108821995D01*
X116109465Y-108974880D01*
X115914880Y-109169465D01*
X115827000Y-109300986D01*
X115827000Y-108248090D01*
X116034435Y-108305960D01*
X116820395Y-107520000D01*
X116034435Y-106734040D01*
X115827000Y-106791910D01*
X115827000Y-105739014D01*
X115914880Y-105870535D01*
%TA.AperFunction,Conductor*%
D23*
G36*
X115914880Y-105870535D02*
G01*
X116109465Y-106065120D01*
X116338273Y-106218005D01*
X116409943Y-106247692D01*
X116396977Y-106252364D01*
X116281020Y-106314344D01*
X116214040Y-106554435D01*
X117000000Y-107340395D01*
X117785960Y-106554435D01*
X117718980Y-106314344D01*
X117583240Y-106250515D01*
X117661727Y-106218005D01*
X117890535Y-106065120D01*
X118085120Y-105870535D01*
X118164322Y-105752001D01*
X118924371Y-105752001D01*
X119611944Y-106439575D01*
X119585750Y-106440000D01*
X119427000Y-106598750D01*
X119427000Y-107398000D01*
X119447000Y-107398000D01*
X119447000Y-107652000D01*
X119427000Y-107652000D01*
X119427000Y-107672000D01*
X119173000Y-107672000D01*
X119173000Y-107652000D01*
X119153000Y-107652000D01*
X119153000Y-107398000D01*
X119173000Y-107398000D01*
X119173000Y-106598750D01*
X119014250Y-106440000D01*
X118825000Y-106436928D01*
X118700518Y-106449188D01*
X118580820Y-106485498D01*
X118470506Y-106544463D01*
X118373815Y-106623815D01*
X118294463Y-106720506D01*
X118235498Y-106830820D01*
X118230461Y-106847426D01*
X118205656Y-106801020D01*
X117965565Y-106734040D01*
X117179605Y-107520000D01*
X117965565Y-108305960D01*
X118205656Y-108238980D01*
X118227447Y-108192639D01*
X118235498Y-108219180D01*
X118294463Y-108329494D01*
X118330700Y-108373649D01*
X118252625Y-108519717D01*
X118203512Y-108681623D01*
X118186928Y-108850000D01*
X118186928Y-108955836D01*
X118029210Y-109113555D01*
X117890535Y-108974880D01*
X117661727Y-108821995D01*
X117590057Y-108792308D01*
X117603023Y-108787636D01*
X117718980Y-108725656D01*
X117785960Y-108485565D01*
X117000000Y-107699605D01*
X116214040Y-108485565D01*
X116281020Y-108725656D01*
X116416760Y-108789485D01*
X116338273Y-108821995D01*
X116109465Y-108974880D01*
X115914880Y-109169465D01*
X115827000Y-109300986D01*
X115827000Y-108248090D01*
X116034435Y-108305960D01*
X116820395Y-107520000D01*
X116034435Y-106734040D01*
X115827000Y-106791910D01*
X115827000Y-105739014D01*
X115914880Y-105870535D01*
G37*
%TD.AperFunction*%
D22*
X118413086Y-99728353D02*
X118485504Y-99787786D01*
X118619158Y-99859225D01*
X118764181Y-99903218D01*
X118915000Y-99918072D01*
X119250442Y-99918072D01*
X120138000Y-100805631D01*
X120138000Y-104810370D01*
X119805285Y-104477655D01*
X119781423Y-104448579D01*
X119665393Y-104353356D01*
X119533016Y-104282599D01*
X119389379Y-104239027D01*
X119277427Y-104228001D01*
X119277424Y-104228001D01*
X119240001Y-104224315D01*
X119202578Y-104228001D01*
X118177687Y-104228001D01*
X118085120Y-104089465D01*
X117890535Y-103894880D01*
X117661727Y-103741995D01*
X117584485Y-103710000D01*
X117661727Y-103678005D01*
X117890535Y-103525120D01*
X118085120Y-103330535D01*
X118238005Y-103101727D01*
X118343314Y-102847490D01*
X118397000Y-102577592D01*
X118397000Y-102302408D01*
X118343314Y-102032510D01*
X118238005Y-101778273D01*
X118085120Y-101549465D01*
X117890535Y-101354880D01*
X117661727Y-101201995D01*
X117584485Y-101170000D01*
X117661727Y-101138005D01*
X117890535Y-100985120D01*
X118085120Y-100790535D01*
X118238005Y-100561727D01*
X118343314Y-100307490D01*
X118397000Y-100037592D01*
X118397000Y-99762408D01*
X118388758Y-99720973D01*
X118413086Y-99728353D01*
%TA.AperFunction,Conductor*%
D23*
G36*
X118413086Y-99728353D02*
G01*
X118485504Y-99787786D01*
X118619158Y-99859225D01*
X118764181Y-99903218D01*
X118915000Y-99918072D01*
X119250442Y-99918072D01*
X120138000Y-100805631D01*
X120138000Y-104810370D01*
X119805285Y-104477655D01*
X119781423Y-104448579D01*
X119665393Y-104353356D01*
X119533016Y-104282599D01*
X119389379Y-104239027D01*
X119277427Y-104228001D01*
X119277424Y-104228001D01*
X119240001Y-104224315D01*
X119202578Y-104228001D01*
X118177687Y-104228001D01*
X118085120Y-104089465D01*
X117890535Y-103894880D01*
X117661727Y-103741995D01*
X117584485Y-103710000D01*
X117661727Y-103678005D01*
X117890535Y-103525120D01*
X118085120Y-103330535D01*
X118238005Y-103101727D01*
X118343314Y-102847490D01*
X118397000Y-102577592D01*
X118397000Y-102302408D01*
X118343314Y-102032510D01*
X118238005Y-101778273D01*
X118085120Y-101549465D01*
X117890535Y-101354880D01*
X117661727Y-101201995D01*
X117584485Y-101170000D01*
X117661727Y-101138005D01*
X117890535Y-100985120D01*
X118085120Y-100790535D01*
X118238005Y-100561727D01*
X118343314Y-100307490D01*
X118397000Y-100037592D01*
X118397000Y-99762408D01*
X118388758Y-99720973D01*
X118413086Y-99728353D01*
G37*
%TD.AperFunction*%
D22*
X141314880Y-95710535D02*
X141509465Y-95905120D01*
X141738273Y-96058005D01*
X141815515Y-96090000D01*
X141738273Y-96121995D01*
X141509465Y-96274880D01*
X141314880Y-96469465D01*
X141287098Y-96511043D01*
X141259225Y-96419158D01*
X141247051Y-96396382D01*
X141266375Y-96331613D01*
X141278065Y-96207077D01*
X141275000Y-96185750D01*
X141116250Y-96027000D01*
X140889906Y-96027000D01*
X140840842Y-96000775D01*
X140695819Y-95956782D01*
X140545000Y-95941928D01*
X140318072Y-95941928D01*
X140318072Y-95858072D01*
X140545000Y-95858072D01*
X140695819Y-95843218D01*
X140840842Y-95799225D01*
X140889906Y-95773000D01*
X141116250Y-95773000D01*
X141260340Y-95628910D01*
X141314880Y-95710535D01*
%TA.AperFunction,Conductor*%
D23*
G36*
X141314880Y-95710535D02*
G01*
X141509465Y-95905120D01*
X141738273Y-96058005D01*
X141815515Y-96090000D01*
X141738273Y-96121995D01*
X141509465Y-96274880D01*
X141314880Y-96469465D01*
X141287098Y-96511043D01*
X141259225Y-96419158D01*
X141247051Y-96396382D01*
X141266375Y-96331613D01*
X141278065Y-96207077D01*
X141275000Y-96185750D01*
X141116250Y-96027000D01*
X140889906Y-96027000D01*
X140840842Y-96000775D01*
X140695819Y-95956782D01*
X140545000Y-95941928D01*
X140318072Y-95941928D01*
X140318072Y-95858072D01*
X140545000Y-95858072D01*
X140695819Y-95843218D01*
X140840842Y-95799225D01*
X140889906Y-95773000D01*
X141116250Y-95773000D01*
X141260340Y-95628910D01*
X141314880Y-95710535D01*
G37*
%TD.AperFunction*%
D22*
X118208356Y-93181644D02*
X118325504Y-93277786D01*
X118459158Y-93349225D01*
X118604181Y-93393218D01*
X118755000Y-93408072D01*
X119025000Y-93408072D01*
X119175819Y-93393218D01*
X119320842Y-93349225D01*
X119400000Y-93306914D01*
X119479158Y-93349225D01*
X119624181Y-93393218D01*
X119775000Y-93408072D01*
X120045000Y-93408072D01*
X120059057Y-93406688D01*
X121551613Y-94899244D01*
X121551613Y-95373983D01*
X121155284Y-94977654D01*
X121131422Y-94948578D01*
X121015392Y-94853355D01*
X120883015Y-94782598D01*
X120739378Y-94739026D01*
X120627426Y-94728000D01*
X120627423Y-94728000D01*
X120590000Y-94724314D01*
X120552577Y-94728000D01*
X119733731Y-94728000D01*
X119714496Y-94712214D01*
X119580842Y-94640775D01*
X119435819Y-94596782D01*
X119285000Y-94581928D01*
X118915000Y-94581928D01*
X118764181Y-94596782D01*
X118619158Y-94640775D01*
X118485504Y-94712214D01*
X118466269Y-94728000D01*
X118397000Y-94728000D01*
X118397000Y-94682408D01*
X118343314Y-94412510D01*
X118238005Y-94158273D01*
X118085120Y-93929465D01*
X117890535Y-93734880D01*
X117661727Y-93581995D01*
X117584485Y-93550000D01*
X117661727Y-93518005D01*
X117890535Y-93365120D01*
X118085120Y-93170535D01*
X118090823Y-93162000D01*
X118192234Y-93162000D01*
X118208356Y-93181644D01*
%TA.AperFunction,Conductor*%
D23*
G36*
X118208356Y-93181644D02*
G01*
X118325504Y-93277786D01*
X118459158Y-93349225D01*
X118604181Y-93393218D01*
X118755000Y-93408072D01*
X119025000Y-93408072D01*
X119175819Y-93393218D01*
X119320842Y-93349225D01*
X119400000Y-93306914D01*
X119479158Y-93349225D01*
X119624181Y-93393218D01*
X119775000Y-93408072D01*
X120045000Y-93408072D01*
X120059057Y-93406688D01*
X121551613Y-94899244D01*
X121551613Y-95373983D01*
X121155284Y-94977654D01*
X121131422Y-94948578D01*
X121015392Y-94853355D01*
X120883015Y-94782598D01*
X120739378Y-94739026D01*
X120627426Y-94728000D01*
X120627423Y-94728000D01*
X120590000Y-94724314D01*
X120552577Y-94728000D01*
X119733731Y-94728000D01*
X119714496Y-94712214D01*
X119580842Y-94640775D01*
X119435819Y-94596782D01*
X119285000Y-94581928D01*
X118915000Y-94581928D01*
X118764181Y-94596782D01*
X118619158Y-94640775D01*
X118485504Y-94712214D01*
X118466269Y-94728000D01*
X118397000Y-94728000D01*
X118397000Y-94682408D01*
X118343314Y-94412510D01*
X118238005Y-94158273D01*
X118085120Y-93929465D01*
X117890535Y-93734880D01*
X117661727Y-93581995D01*
X117584485Y-93550000D01*
X117661727Y-93518005D01*
X117890535Y-93365120D01*
X118085120Y-93170535D01*
X118090823Y-93162000D01*
X118192234Y-93162000D01*
X118208356Y-93181644D01*
G37*
%TD.AperFunction*%
D22*
X142870189Y-72244376D02*
X143033850Y-72294022D01*
X143184672Y-72374638D01*
X143316870Y-72483130D01*
X143425362Y-72615328D01*
X143505978Y-72766150D01*
X143555624Y-72929811D01*
X143573000Y-73106234D01*
X143573000Y-73740986D01*
X143485120Y-73609465D01*
X143290535Y-73414880D01*
X143061727Y-73261995D01*
X142807490Y-73156686D01*
X142537592Y-73103000D01*
X142262408Y-73103000D01*
X141992510Y-73156686D01*
X141738273Y-73261995D01*
X141509465Y-73414880D01*
X141314880Y-73609465D01*
X141161995Y-73838273D01*
X141056686Y-74092510D01*
X141003000Y-74362408D01*
X141003000Y-74637592D01*
X141056686Y-74907490D01*
X141161995Y-75161727D01*
X141314880Y-75390535D01*
X141509465Y-75585120D01*
X141738273Y-75738005D01*
X141815515Y-75770000D01*
X141738273Y-75801995D01*
X141509465Y-75954880D01*
X141314880Y-76149465D01*
X141161995Y-76378273D01*
X141056686Y-76632510D01*
X141003000Y-76902408D01*
X141003000Y-77177592D01*
X141056686Y-77447490D01*
X141161995Y-77701727D01*
X141314880Y-77930535D01*
X141509465Y-78125120D01*
X141738273Y-78278005D01*
X141815515Y-78310000D01*
X141738273Y-78341995D01*
X141509465Y-78494880D01*
X141314880Y-78689465D01*
X141161995Y-78918273D01*
X141056686Y-79172510D01*
X141003000Y-79442408D01*
X141003000Y-79717592D01*
X141056686Y-79987490D01*
X141161995Y-80241727D01*
X141314880Y-80470535D01*
X141509465Y-80665120D01*
X141738273Y-80818005D01*
X141815515Y-80850000D01*
X141738273Y-80881995D01*
X141509465Y-81034880D01*
X141314880Y-81229465D01*
X141311762Y-81234131D01*
X140858072Y-80780442D01*
X140858072Y-80775000D01*
X140843218Y-80624181D01*
X140799225Y-80479158D01*
X140784416Y-80451451D01*
X140806441Y-80411442D01*
X140844226Y-80292202D01*
X140855000Y-80175750D01*
X140696250Y-80017000D01*
X140236538Y-80017000D01*
X140235819Y-80016782D01*
X140085000Y-80001928D01*
X139715000Y-80001928D01*
X139564181Y-80016782D01*
X139563462Y-80017000D01*
X139103750Y-80017000D01*
X138982750Y-80138000D01*
X132437422Y-80138000D01*
X132399999Y-80134314D01*
X132362576Y-80138000D01*
X132362574Y-80138000D01*
X132250622Y-80149026D01*
X132106985Y-80192598D01*
X131974608Y-80263355D01*
X131858578Y-80358578D01*
X131834720Y-80387649D01*
X131137649Y-81084721D01*
X131108579Y-81108578D01*
X131084722Y-81137648D01*
X131084721Y-81137649D01*
X131013355Y-81224608D01*
X130942599Y-81356985D01*
X130899027Y-81500622D01*
X130884314Y-81650000D01*
X130888001Y-81687433D01*
X130888000Y-83281574D01*
X130884314Y-83318998D01*
X130888000Y-83356421D01*
X130888000Y-83356423D01*
X130899026Y-83468375D01*
X130942598Y-83612012D01*
X130963236Y-83650623D01*
X131013355Y-83744390D01*
X131043930Y-83781645D01*
X131108578Y-83860420D01*
X131137653Y-83884281D01*
X131690721Y-84437350D01*
X131714579Y-84466421D01*
X131743649Y-84490278D01*
X131830608Y-84561644D01*
X131875001Y-84585372D01*
X131875001Y-84702000D01*
X131957149Y-84702000D01*
X131875001Y-84784148D01*
X131886146Y-84886340D01*
X131890516Y-84899999D01*
X131886146Y-84913657D01*
X131875001Y-85015849D01*
X132033751Y-85174599D01*
X132035431Y-85174599D01*
X132065698Y-85210362D01*
X132084508Y-85225328D01*
X132058816Y-85246413D01*
X132035028Y-85275399D01*
X132033751Y-85275399D01*
X131875001Y-85434149D01*
X131886146Y-85536341D01*
X131890868Y-85551099D01*
X131884189Y-85573116D01*
X131871929Y-85697598D01*
X131871929Y-85762999D01*
X131312423Y-85762999D01*
X131275000Y-85759313D01*
X131237577Y-85762999D01*
X131237575Y-85762999D01*
X131125623Y-85774025D01*
X130981986Y-85817597D01*
X130849609Y-85888354D01*
X130733579Y-85983577D01*
X130709717Y-86012653D01*
X130337649Y-86384721D01*
X130308579Y-86408578D01*
X130284722Y-86437648D01*
X130284721Y-86437649D01*
X130213355Y-86524608D01*
X130142599Y-86656985D01*
X130099027Y-86800622D01*
X130084314Y-86950000D01*
X130088001Y-86987433D01*
X130088000Y-90259056D01*
X129989716Y-90339716D01*
X129882382Y-90470503D01*
X129802625Y-90619717D01*
X129753512Y-90781623D01*
X129736928Y-90950000D01*
X129736928Y-91183822D01*
X129727000Y-91193750D01*
X129727000Y-91813000D01*
X129747000Y-91813000D01*
X129747000Y-91967981D01*
X129685622Y-91974026D01*
X129541985Y-92017598D01*
X129477758Y-92051928D01*
X129415000Y-92051928D01*
X129264181Y-92066782D01*
X129263462Y-92067000D01*
X128803750Y-92067000D01*
X128645000Y-92225750D01*
X128655774Y-92342202D01*
X128693559Y-92461442D01*
X128715584Y-92501451D01*
X128700775Y-92529158D01*
X128656782Y-92674181D01*
X128641928Y-92825000D01*
X128641928Y-93087203D01*
X128625000Y-93086928D01*
X128500518Y-93099188D01*
X128380820Y-93135498D01*
X128350000Y-93151972D01*
X128319180Y-93135498D01*
X128199482Y-93099188D01*
X128075000Y-93086928D01*
X127885750Y-93090000D01*
X127727000Y-93248750D01*
X127727000Y-94048000D01*
X128973000Y-94048000D01*
X128973000Y-94028000D01*
X129227000Y-94028000D01*
X129227000Y-94048000D01*
X129247000Y-94048000D01*
X129247000Y-94302000D01*
X129227000Y-94302000D01*
X129227000Y-94322000D01*
X128973000Y-94322000D01*
X128973000Y-94302000D01*
X127727000Y-94302000D01*
X127727000Y-94322000D01*
X127473000Y-94322000D01*
X127473000Y-94302000D01*
X127453000Y-94302000D01*
X127453000Y-94048000D01*
X127473000Y-94048000D01*
X127473000Y-93248750D01*
X127314250Y-93090000D01*
X127125000Y-93086928D01*
X127058072Y-93093520D01*
X127058072Y-92826807D01*
X127163258Y-92857301D01*
X127287881Y-92868023D01*
X127314250Y-92865000D01*
X127473000Y-92706250D01*
X127473000Y-92087000D01*
X127727000Y-92087000D01*
X127727000Y-92706250D01*
X127885750Y-92865000D01*
X127912119Y-92868023D01*
X128036742Y-92857301D01*
X128156879Y-92822473D01*
X128267914Y-92764876D01*
X128365578Y-92686724D01*
X128446118Y-92591020D01*
X128506441Y-92481442D01*
X128544226Y-92362202D01*
X128555000Y-92245750D01*
X128396250Y-92087000D01*
X127727000Y-92087000D01*
X127473000Y-92087000D01*
X126916250Y-92087000D01*
X126896250Y-92067000D01*
X126436538Y-92067000D01*
X126435819Y-92066782D01*
X126285000Y-92051928D01*
X126222242Y-92051928D01*
X126158015Y-92017598D01*
X126014378Y-91974026D01*
X125953000Y-91967981D01*
X125953000Y-91813000D01*
X125973000Y-91813000D01*
X125973000Y-91193750D01*
X125963072Y-91183822D01*
X125963072Y-91139558D01*
X126212346Y-90890284D01*
X126241422Y-90866422D01*
X126301857Y-90792781D01*
X126336645Y-90750393D01*
X126382956Y-90663750D01*
X126407402Y-90618015D01*
X126450974Y-90474378D01*
X126462000Y-90362426D01*
X126462000Y-90362423D01*
X126465686Y-90325000D01*
X126462000Y-90287577D01*
X126462000Y-87303482D01*
X126543519Y-87328211D01*
X126668001Y-87340471D01*
X128129999Y-87340471D01*
X128254481Y-87328211D01*
X128338001Y-87302876D01*
X128338001Y-87584368D01*
X127087654Y-88834716D01*
X127058578Y-88858578D01*
X127003473Y-88925725D01*
X126963355Y-88974608D01*
X126943831Y-89011136D01*
X126892598Y-89106986D01*
X126849026Y-89250623D01*
X126839300Y-89349378D01*
X126834314Y-89400000D01*
X126838000Y-89437424D01*
X126838001Y-90295344D01*
X126772214Y-90375504D01*
X126700775Y-90509158D01*
X126656782Y-90654181D01*
X126641928Y-90805000D01*
X126641928Y-91073193D01*
X126536742Y-91042699D01*
X126412119Y-91031977D01*
X126385750Y-91035000D01*
X126227000Y-91193750D01*
X126227000Y-91813000D01*
X126783750Y-91813000D01*
X126803750Y-91833000D01*
X127263462Y-91833000D01*
X127264181Y-91833218D01*
X127415000Y-91848072D01*
X127785000Y-91848072D01*
X127935819Y-91833218D01*
X127936538Y-91833000D01*
X128396250Y-91833000D01*
X128555000Y-91674250D01*
X128553150Y-91654250D01*
X128645000Y-91654250D01*
X128803750Y-91813000D01*
X129473000Y-91813000D01*
X129473000Y-91193750D01*
X129314250Y-91035000D01*
X129287881Y-91031977D01*
X129163258Y-91042699D01*
X129043121Y-91077527D01*
X128932086Y-91135124D01*
X128834422Y-91213276D01*
X128753882Y-91308980D01*
X128693559Y-91418558D01*
X128655774Y-91537798D01*
X128645000Y-91654250D01*
X128553150Y-91654250D01*
X128544226Y-91557798D01*
X128506441Y-91438558D01*
X128484416Y-91398549D01*
X128499225Y-91370842D01*
X128543218Y-91225819D01*
X128558072Y-91075000D01*
X128558072Y-90805000D01*
X128543218Y-90654181D01*
X128499225Y-90509158D01*
X128427786Y-90375504D01*
X128362000Y-90295344D01*
X128362000Y-89715630D01*
X129612352Y-88465279D01*
X129641422Y-88441422D01*
X129736645Y-88325392D01*
X129807402Y-88193015D01*
X129850974Y-88049378D01*
X129862000Y-87937426D01*
X129862000Y-87937424D01*
X129865686Y-87900001D01*
X129862000Y-87862578D01*
X129862000Y-86437423D01*
X129865686Y-86400000D01*
X129857152Y-86313355D01*
X129850974Y-86250622D01*
X129807402Y-86106985D01*
X129771850Y-86040471D01*
X129736645Y-85974607D01*
X129681148Y-85906985D01*
X129641422Y-85858578D01*
X129612347Y-85834717D01*
X129140285Y-85362655D01*
X129116423Y-85333579D01*
X129000393Y-85238356D01*
X128868016Y-85167599D01*
X128768071Y-85137281D01*
X128768071Y-85047599D01*
X128755811Y-84923117D01*
X128748799Y-84900000D01*
X128755811Y-84876883D01*
X128768071Y-84752401D01*
X128768071Y-84397601D01*
X128755811Y-84273119D01*
X128748798Y-84250001D01*
X128755811Y-84226884D01*
X128768071Y-84102402D01*
X128768071Y-83747602D01*
X128755811Y-83623120D01*
X128748798Y-83600002D01*
X128755811Y-83576883D01*
X128768071Y-83452401D01*
X128768071Y-83097601D01*
X128755811Y-82973119D01*
X128748798Y-82950002D01*
X128755811Y-82926884D01*
X128768071Y-82802402D01*
X128768071Y-82447602D01*
X128755811Y-82323120D01*
X128748798Y-82300002D01*
X128755811Y-82276883D01*
X128768071Y-82152401D01*
X128768071Y-81797601D01*
X128755811Y-81673119D01*
X128719501Y-81553421D01*
X128660536Y-81443107D01*
X128581184Y-81346416D01*
X128484493Y-81267064D01*
X128374179Y-81208099D01*
X128254481Y-81171789D01*
X128161000Y-81162582D01*
X128161000Y-80936423D01*
X128164686Y-80899000D01*
X128156905Y-80820000D01*
X128149974Y-80749622D01*
X128106402Y-80605985D01*
X128050085Y-80500623D01*
X128035645Y-80473607D01*
X127964279Y-80386648D01*
X127940422Y-80357578D01*
X127911352Y-80333721D01*
X127181881Y-79604250D01*
X138945000Y-79604250D01*
X139103750Y-79763000D01*
X139773000Y-79763000D01*
X139773000Y-79143750D01*
X140027000Y-79143750D01*
X140027000Y-79763000D01*
X140696250Y-79763000D01*
X140855000Y-79604250D01*
X140844226Y-79487798D01*
X140806441Y-79368558D01*
X140746118Y-79258980D01*
X140665578Y-79163276D01*
X140567914Y-79085124D01*
X140456879Y-79027527D01*
X140336742Y-78992699D01*
X140212119Y-78981977D01*
X140185750Y-78985000D01*
X140027000Y-79143750D01*
X139773000Y-79143750D01*
X139614250Y-78985000D01*
X139587881Y-78981977D01*
X139463258Y-78992699D01*
X139343121Y-79027527D01*
X139232086Y-79085124D01*
X139134422Y-79163276D01*
X139053882Y-79258980D01*
X138993559Y-79368558D01*
X138955774Y-79487798D01*
X138945000Y-79604250D01*
X127181881Y-79604250D01*
X126565284Y-78987654D01*
X126541422Y-78958578D01*
X126425392Y-78863355D01*
X126293015Y-78792598D01*
X126149378Y-78749026D01*
X126037426Y-78738000D01*
X126037423Y-78738000D01*
X126000000Y-78734314D01*
X125962577Y-78738000D01*
X121087423Y-78738000D01*
X121050000Y-78734314D01*
X121012577Y-78738000D01*
X121012574Y-78738000D01*
X120900622Y-78749026D01*
X120756985Y-78792598D01*
X120695364Y-78825535D01*
X120624607Y-78863355D01*
X120582219Y-78898143D01*
X120508578Y-78958578D01*
X120484716Y-78987654D01*
X119770442Y-79701928D01*
X119760000Y-79701928D01*
X119608206Y-79716878D01*
X119476509Y-79756828D01*
X119466878Y-79751623D01*
X119347348Y-79714765D01*
X119225750Y-79705000D01*
X119067000Y-79863750D01*
X119067000Y-80133892D01*
X119041155Y-80182245D01*
X118996878Y-80328206D01*
X118981928Y-80480000D01*
X118981928Y-80691928D01*
X118755000Y-80691928D01*
X118604181Y-80706782D01*
X118459158Y-80750775D01*
X118410094Y-80777000D01*
X118183750Y-80777000D01*
X118025000Y-80935750D01*
X118021935Y-80957077D01*
X118033625Y-81081613D01*
X118052949Y-81146382D01*
X118040775Y-81169158D01*
X118037060Y-81181405D01*
X117890535Y-81034880D01*
X117661727Y-80881995D01*
X117584485Y-80850000D01*
X117661727Y-80818005D01*
X117890535Y-80665120D01*
X118085120Y-80470535D01*
X118103611Y-80442861D01*
X118183750Y-80523000D01*
X118813000Y-80523000D01*
X118813000Y-79863750D01*
X118654250Y-79705000D01*
X118532652Y-79714765D01*
X118413122Y-79751623D01*
X118387474Y-79765484D01*
X118397000Y-79717592D01*
X118397000Y-79442408D01*
X118343314Y-79172510D01*
X118238005Y-78918273D01*
X118085120Y-78689465D01*
X117890535Y-78494880D01*
X117661727Y-78341995D01*
X117584485Y-78310000D01*
X117661727Y-78278005D01*
X117890535Y-78125120D01*
X118085120Y-77930535D01*
X118238005Y-77701727D01*
X118343314Y-77447490D01*
X118397000Y-77177592D01*
X118397000Y-76902408D01*
X118343314Y-76632510D01*
X118238005Y-76378273D01*
X118085120Y-76149465D01*
X117890535Y-75954880D01*
X117802535Y-75896080D01*
X117886482Y-75887812D01*
X118006180Y-75851502D01*
X118116494Y-75792537D01*
X118213185Y-75713185D01*
X118292537Y-75616494D01*
X118351502Y-75506180D01*
X118387812Y-75386482D01*
X118400072Y-75262000D01*
X118400072Y-73738000D01*
X118387812Y-73613518D01*
X118351502Y-73493820D01*
X118292537Y-73383506D01*
X118213185Y-73286815D01*
X118116494Y-73207463D01*
X118006180Y-73148498D01*
X117886482Y-73112188D01*
X117762000Y-73099928D01*
X116238000Y-73099928D01*
X116113518Y-73112188D01*
X115993820Y-73148498D01*
X115883506Y-73207463D01*
X115827000Y-73253836D01*
X115827000Y-73106234D01*
X115844376Y-72929811D01*
X115894022Y-72766150D01*
X115974638Y-72615328D01*
X116083130Y-72483130D01*
X116215328Y-72374638D01*
X116366150Y-72294022D01*
X116529811Y-72244376D01*
X116706234Y-72227000D01*
X142693766Y-72227000D01*
X142870189Y-72244376D01*
%TA.AperFunction,Conductor*%
D23*
G36*
X142870189Y-72244376D02*
G01*
X143033850Y-72294022D01*
X143184672Y-72374638D01*
X143316870Y-72483130D01*
X143425362Y-72615328D01*
X143505978Y-72766150D01*
X143555624Y-72929811D01*
X143573000Y-73106234D01*
X143573000Y-73740986D01*
X143485120Y-73609465D01*
X143290535Y-73414880D01*
X143061727Y-73261995D01*
X142807490Y-73156686D01*
X142537592Y-73103000D01*
X142262408Y-73103000D01*
X141992510Y-73156686D01*
X141738273Y-73261995D01*
X141509465Y-73414880D01*
X141314880Y-73609465D01*
X141161995Y-73838273D01*
X141056686Y-74092510D01*
X141003000Y-74362408D01*
X141003000Y-74637592D01*
X141056686Y-74907490D01*
X141161995Y-75161727D01*
X141314880Y-75390535D01*
X141509465Y-75585120D01*
X141738273Y-75738005D01*
X141815515Y-75770000D01*
X141738273Y-75801995D01*
X141509465Y-75954880D01*
X141314880Y-76149465D01*
X141161995Y-76378273D01*
X141056686Y-76632510D01*
X141003000Y-76902408D01*
X141003000Y-77177592D01*
X141056686Y-77447490D01*
X141161995Y-77701727D01*
X141314880Y-77930535D01*
X141509465Y-78125120D01*
X141738273Y-78278005D01*
X141815515Y-78310000D01*
X141738273Y-78341995D01*
X141509465Y-78494880D01*
X141314880Y-78689465D01*
X141161995Y-78918273D01*
X141056686Y-79172510D01*
X141003000Y-79442408D01*
X141003000Y-79717592D01*
X141056686Y-79987490D01*
X141161995Y-80241727D01*
X141314880Y-80470535D01*
X141509465Y-80665120D01*
X141738273Y-80818005D01*
X141815515Y-80850000D01*
X141738273Y-80881995D01*
X141509465Y-81034880D01*
X141314880Y-81229465D01*
X141311762Y-81234131D01*
X140858072Y-80780442D01*
X140858072Y-80775000D01*
X140843218Y-80624181D01*
X140799225Y-80479158D01*
X140784416Y-80451451D01*
X140806441Y-80411442D01*
X140844226Y-80292202D01*
X140855000Y-80175750D01*
X140696250Y-80017000D01*
X140236538Y-80017000D01*
X140235819Y-80016782D01*
X140085000Y-80001928D01*
X139715000Y-80001928D01*
X139564181Y-80016782D01*
X139563462Y-80017000D01*
X139103750Y-80017000D01*
X138982750Y-80138000D01*
X132437422Y-80138000D01*
X132399999Y-80134314D01*
X132362576Y-80138000D01*
X132362574Y-80138000D01*
X132250622Y-80149026D01*
X132106985Y-80192598D01*
X131974608Y-80263355D01*
X131858578Y-80358578D01*
X131834720Y-80387649D01*
X131137649Y-81084721D01*
X131108579Y-81108578D01*
X131084722Y-81137648D01*
X131084721Y-81137649D01*
X131013355Y-81224608D01*
X130942599Y-81356985D01*
X130899027Y-81500622D01*
X130884314Y-81650000D01*
X130888001Y-81687433D01*
X130888000Y-83281574D01*
X130884314Y-83318998D01*
X130888000Y-83356421D01*
X130888000Y-83356423D01*
X130899026Y-83468375D01*
X130942598Y-83612012D01*
X130963236Y-83650623D01*
X131013355Y-83744390D01*
X131043930Y-83781645D01*
X131108578Y-83860420D01*
X131137653Y-83884281D01*
X131690721Y-84437350D01*
X131714579Y-84466421D01*
X131743649Y-84490278D01*
X131830608Y-84561644D01*
X131875001Y-84585372D01*
X131875001Y-84702000D01*
X131957149Y-84702000D01*
X131875001Y-84784148D01*
X131886146Y-84886340D01*
X131890516Y-84899999D01*
X131886146Y-84913657D01*
X131875001Y-85015849D01*
X132033751Y-85174599D01*
X132035431Y-85174599D01*
X132065698Y-85210362D01*
X132084508Y-85225328D01*
X132058816Y-85246413D01*
X132035028Y-85275399D01*
X132033751Y-85275399D01*
X131875001Y-85434149D01*
X131886146Y-85536341D01*
X131890868Y-85551099D01*
X131884189Y-85573116D01*
X131871929Y-85697598D01*
X131871929Y-85762999D01*
X131312423Y-85762999D01*
X131275000Y-85759313D01*
X131237577Y-85762999D01*
X131237575Y-85762999D01*
X131125623Y-85774025D01*
X130981986Y-85817597D01*
X130849609Y-85888354D01*
X130733579Y-85983577D01*
X130709717Y-86012653D01*
X130337649Y-86384721D01*
X130308579Y-86408578D01*
X130284722Y-86437648D01*
X130284721Y-86437649D01*
X130213355Y-86524608D01*
X130142599Y-86656985D01*
X130099027Y-86800622D01*
X130084314Y-86950000D01*
X130088001Y-86987433D01*
X130088000Y-90259056D01*
X129989716Y-90339716D01*
X129882382Y-90470503D01*
X129802625Y-90619717D01*
X129753512Y-90781623D01*
X129736928Y-90950000D01*
X129736928Y-91183822D01*
X129727000Y-91193750D01*
X129727000Y-91813000D01*
X129747000Y-91813000D01*
X129747000Y-91967981D01*
X129685622Y-91974026D01*
X129541985Y-92017598D01*
X129477758Y-92051928D01*
X129415000Y-92051928D01*
X129264181Y-92066782D01*
X129263462Y-92067000D01*
X128803750Y-92067000D01*
X128645000Y-92225750D01*
X128655774Y-92342202D01*
X128693559Y-92461442D01*
X128715584Y-92501451D01*
X128700775Y-92529158D01*
X128656782Y-92674181D01*
X128641928Y-92825000D01*
X128641928Y-93087203D01*
X128625000Y-93086928D01*
X128500518Y-93099188D01*
X128380820Y-93135498D01*
X128350000Y-93151972D01*
X128319180Y-93135498D01*
X128199482Y-93099188D01*
X128075000Y-93086928D01*
X127885750Y-93090000D01*
X127727000Y-93248750D01*
X127727000Y-94048000D01*
X128973000Y-94048000D01*
X128973000Y-94028000D01*
X129227000Y-94028000D01*
X129227000Y-94048000D01*
X129247000Y-94048000D01*
X129247000Y-94302000D01*
X129227000Y-94302000D01*
X129227000Y-94322000D01*
X128973000Y-94322000D01*
X128973000Y-94302000D01*
X127727000Y-94302000D01*
X127727000Y-94322000D01*
X127473000Y-94322000D01*
X127473000Y-94302000D01*
X127453000Y-94302000D01*
X127453000Y-94048000D01*
X127473000Y-94048000D01*
X127473000Y-93248750D01*
X127314250Y-93090000D01*
X127125000Y-93086928D01*
X127058072Y-93093520D01*
X127058072Y-92826807D01*
X127163258Y-92857301D01*
X127287881Y-92868023D01*
X127314250Y-92865000D01*
X127473000Y-92706250D01*
X127473000Y-92087000D01*
X127727000Y-92087000D01*
X127727000Y-92706250D01*
X127885750Y-92865000D01*
X127912119Y-92868023D01*
X128036742Y-92857301D01*
X128156879Y-92822473D01*
X128267914Y-92764876D01*
X128365578Y-92686724D01*
X128446118Y-92591020D01*
X128506441Y-92481442D01*
X128544226Y-92362202D01*
X128555000Y-92245750D01*
X128396250Y-92087000D01*
X127727000Y-92087000D01*
X127473000Y-92087000D01*
X126916250Y-92087000D01*
X126896250Y-92067000D01*
X126436538Y-92067000D01*
X126435819Y-92066782D01*
X126285000Y-92051928D01*
X126222242Y-92051928D01*
X126158015Y-92017598D01*
X126014378Y-91974026D01*
X125953000Y-91967981D01*
X125953000Y-91813000D01*
X125973000Y-91813000D01*
X125973000Y-91193750D01*
X125963072Y-91183822D01*
X125963072Y-91139558D01*
X126212346Y-90890284D01*
X126241422Y-90866422D01*
X126301857Y-90792781D01*
X126336645Y-90750393D01*
X126382956Y-90663750D01*
X126407402Y-90618015D01*
X126450974Y-90474378D01*
X126462000Y-90362426D01*
X126462000Y-90362423D01*
X126465686Y-90325000D01*
X126462000Y-90287577D01*
X126462000Y-87303482D01*
X126543519Y-87328211D01*
X126668001Y-87340471D01*
X128129999Y-87340471D01*
X128254481Y-87328211D01*
X128338001Y-87302876D01*
X128338001Y-87584368D01*
X127087654Y-88834716D01*
X127058578Y-88858578D01*
X127003473Y-88925725D01*
X126963355Y-88974608D01*
X126943831Y-89011136D01*
X126892598Y-89106986D01*
X126849026Y-89250623D01*
X126839300Y-89349378D01*
X126834314Y-89400000D01*
X126838000Y-89437424D01*
X126838001Y-90295344D01*
X126772214Y-90375504D01*
X126700775Y-90509158D01*
X126656782Y-90654181D01*
X126641928Y-90805000D01*
X126641928Y-91073193D01*
X126536742Y-91042699D01*
X126412119Y-91031977D01*
X126385750Y-91035000D01*
X126227000Y-91193750D01*
X126227000Y-91813000D01*
X126783750Y-91813000D01*
X126803750Y-91833000D01*
X127263462Y-91833000D01*
X127264181Y-91833218D01*
X127415000Y-91848072D01*
X127785000Y-91848072D01*
X127935819Y-91833218D01*
X127936538Y-91833000D01*
X128396250Y-91833000D01*
X128555000Y-91674250D01*
X128553150Y-91654250D01*
X128645000Y-91654250D01*
X128803750Y-91813000D01*
X129473000Y-91813000D01*
X129473000Y-91193750D01*
X129314250Y-91035000D01*
X129287881Y-91031977D01*
X129163258Y-91042699D01*
X129043121Y-91077527D01*
X128932086Y-91135124D01*
X128834422Y-91213276D01*
X128753882Y-91308980D01*
X128693559Y-91418558D01*
X128655774Y-91537798D01*
X128645000Y-91654250D01*
X128553150Y-91654250D01*
X128544226Y-91557798D01*
X128506441Y-91438558D01*
X128484416Y-91398549D01*
X128499225Y-91370842D01*
X128543218Y-91225819D01*
X128558072Y-91075000D01*
X128558072Y-90805000D01*
X128543218Y-90654181D01*
X128499225Y-90509158D01*
X128427786Y-90375504D01*
X128362000Y-90295344D01*
X128362000Y-89715630D01*
X129612352Y-88465279D01*
X129641422Y-88441422D01*
X129736645Y-88325392D01*
X129807402Y-88193015D01*
X129850974Y-88049378D01*
X129862000Y-87937426D01*
X129862000Y-87937424D01*
X129865686Y-87900001D01*
X129862000Y-87862578D01*
X129862000Y-86437423D01*
X129865686Y-86400000D01*
X129857152Y-86313355D01*
X129850974Y-86250622D01*
X129807402Y-86106985D01*
X129771850Y-86040471D01*
X129736645Y-85974607D01*
X129681148Y-85906985D01*
X129641422Y-85858578D01*
X129612347Y-85834717D01*
X129140285Y-85362655D01*
X129116423Y-85333579D01*
X129000393Y-85238356D01*
X128868016Y-85167599D01*
X128768071Y-85137281D01*
X128768071Y-85047599D01*
X128755811Y-84923117D01*
X128748799Y-84900000D01*
X128755811Y-84876883D01*
X128768071Y-84752401D01*
X128768071Y-84397601D01*
X128755811Y-84273119D01*
X128748798Y-84250001D01*
X128755811Y-84226884D01*
X128768071Y-84102402D01*
X128768071Y-83747602D01*
X128755811Y-83623120D01*
X128748798Y-83600002D01*
X128755811Y-83576883D01*
X128768071Y-83452401D01*
X128768071Y-83097601D01*
X128755811Y-82973119D01*
X128748798Y-82950002D01*
X128755811Y-82926884D01*
X128768071Y-82802402D01*
X128768071Y-82447602D01*
X128755811Y-82323120D01*
X128748798Y-82300002D01*
X128755811Y-82276883D01*
X128768071Y-82152401D01*
X128768071Y-81797601D01*
X128755811Y-81673119D01*
X128719501Y-81553421D01*
X128660536Y-81443107D01*
X128581184Y-81346416D01*
X128484493Y-81267064D01*
X128374179Y-81208099D01*
X128254481Y-81171789D01*
X128161000Y-81162582D01*
X128161000Y-80936423D01*
X128164686Y-80899000D01*
X128156905Y-80820000D01*
X128149974Y-80749622D01*
X128106402Y-80605985D01*
X128050085Y-80500623D01*
X128035645Y-80473607D01*
X127964279Y-80386648D01*
X127940422Y-80357578D01*
X127911352Y-80333721D01*
X127181881Y-79604250D01*
X138945000Y-79604250D01*
X139103750Y-79763000D01*
X139773000Y-79763000D01*
X139773000Y-79143750D01*
X140027000Y-79143750D01*
X140027000Y-79763000D01*
X140696250Y-79763000D01*
X140855000Y-79604250D01*
X140844226Y-79487798D01*
X140806441Y-79368558D01*
X140746118Y-79258980D01*
X140665578Y-79163276D01*
X140567914Y-79085124D01*
X140456879Y-79027527D01*
X140336742Y-78992699D01*
X140212119Y-78981977D01*
X140185750Y-78985000D01*
X140027000Y-79143750D01*
X139773000Y-79143750D01*
X139614250Y-78985000D01*
X139587881Y-78981977D01*
X139463258Y-78992699D01*
X139343121Y-79027527D01*
X139232086Y-79085124D01*
X139134422Y-79163276D01*
X139053882Y-79258980D01*
X138993559Y-79368558D01*
X138955774Y-79487798D01*
X138945000Y-79604250D01*
X127181881Y-79604250D01*
X126565284Y-78987654D01*
X126541422Y-78958578D01*
X126425392Y-78863355D01*
X126293015Y-78792598D01*
X126149378Y-78749026D01*
X126037426Y-78738000D01*
X126037423Y-78738000D01*
X126000000Y-78734314D01*
X125962577Y-78738000D01*
X121087423Y-78738000D01*
X121050000Y-78734314D01*
X121012577Y-78738000D01*
X121012574Y-78738000D01*
X120900622Y-78749026D01*
X120756985Y-78792598D01*
X120695364Y-78825535D01*
X120624607Y-78863355D01*
X120582219Y-78898143D01*
X120508578Y-78958578D01*
X120484716Y-78987654D01*
X119770442Y-79701928D01*
X119760000Y-79701928D01*
X119608206Y-79716878D01*
X119476509Y-79756828D01*
X119466878Y-79751623D01*
X119347348Y-79714765D01*
X119225750Y-79705000D01*
X119067000Y-79863750D01*
X119067000Y-80133892D01*
X119041155Y-80182245D01*
X118996878Y-80328206D01*
X118981928Y-80480000D01*
X118981928Y-80691928D01*
X118755000Y-80691928D01*
X118604181Y-80706782D01*
X118459158Y-80750775D01*
X118410094Y-80777000D01*
X118183750Y-80777000D01*
X118025000Y-80935750D01*
X118021935Y-80957077D01*
X118033625Y-81081613D01*
X118052949Y-81146382D01*
X118040775Y-81169158D01*
X118037060Y-81181405D01*
X117890535Y-81034880D01*
X117661727Y-80881995D01*
X117584485Y-80850000D01*
X117661727Y-80818005D01*
X117890535Y-80665120D01*
X118085120Y-80470535D01*
X118103611Y-80442861D01*
X118183750Y-80523000D01*
X118813000Y-80523000D01*
X118813000Y-79863750D01*
X118654250Y-79705000D01*
X118532652Y-79714765D01*
X118413122Y-79751623D01*
X118387474Y-79765484D01*
X118397000Y-79717592D01*
X118397000Y-79442408D01*
X118343314Y-79172510D01*
X118238005Y-78918273D01*
X118085120Y-78689465D01*
X117890535Y-78494880D01*
X117661727Y-78341995D01*
X117584485Y-78310000D01*
X117661727Y-78278005D01*
X117890535Y-78125120D01*
X118085120Y-77930535D01*
X118238005Y-77701727D01*
X118343314Y-77447490D01*
X118397000Y-77177592D01*
X118397000Y-76902408D01*
X118343314Y-76632510D01*
X118238005Y-76378273D01*
X118085120Y-76149465D01*
X117890535Y-75954880D01*
X117802535Y-75896080D01*
X117886482Y-75887812D01*
X118006180Y-75851502D01*
X118116494Y-75792537D01*
X118213185Y-75713185D01*
X118292537Y-75616494D01*
X118351502Y-75506180D01*
X118387812Y-75386482D01*
X118400072Y-75262000D01*
X118400072Y-73738000D01*
X118387812Y-73613518D01*
X118351502Y-73493820D01*
X118292537Y-73383506D01*
X118213185Y-73286815D01*
X118116494Y-73207463D01*
X118006180Y-73148498D01*
X117886482Y-73112188D01*
X117762000Y-73099928D01*
X116238000Y-73099928D01*
X116113518Y-73112188D01*
X115993820Y-73148498D01*
X115883506Y-73207463D01*
X115827000Y-73253836D01*
X115827000Y-73106234D01*
X115844376Y-72929811D01*
X115894022Y-72766150D01*
X115974638Y-72615328D01*
X116083130Y-72483130D01*
X116215328Y-72374638D01*
X116366150Y-72294022D01*
X116529811Y-72244376D01*
X116706234Y-72227000D01*
X142693766Y-72227000D01*
X142870189Y-72244376D01*
G37*
%TD.AperFunction*%
D22*
X118981928Y-91491928D02*
X118793000Y-91491928D01*
X118793000Y-91323000D01*
X118813000Y-91323000D01*
X118813000Y-91303000D01*
X118981928Y-91303000D01*
X118981928Y-91491928D01*
%TA.AperFunction,Conductor*%
D23*
G36*
X118981928Y-91491928D02*
G01*
X118793000Y-91491928D01*
X118793000Y-91323000D01*
X118813000Y-91323000D01*
X118813000Y-91303000D01*
X118981928Y-91303000D01*
X118981928Y-91491928D01*
G37*
%TD.AperFunction*%
D22*
X141509465Y-90825120D02*
X141738273Y-90978005D01*
X141815515Y-91010000D01*
X141738273Y-91041995D01*
X141509465Y-91194880D01*
X141314880Y-91389465D01*
X141270408Y-91456022D01*
X141259225Y-91419158D01*
X141247051Y-91396382D01*
X141266375Y-91331613D01*
X141278065Y-91207077D01*
X141275000Y-91185750D01*
X141116250Y-91027000D01*
X140889906Y-91027000D01*
X140840842Y-91000775D01*
X140695819Y-90956782D01*
X140545000Y-90941928D01*
X140482940Y-90941928D01*
X140413778Y-90872766D01*
X140405924Y-90858072D01*
X140545000Y-90858072D01*
X140695819Y-90843218D01*
X140840842Y-90799225D01*
X140889906Y-90773000D01*
X141116250Y-90773000D01*
X141227250Y-90662000D01*
X141346345Y-90662000D01*
X141509465Y-90825120D01*
%TA.AperFunction,Conductor*%
D23*
G36*
X141509465Y-90825120D02*
G01*
X141738273Y-90978005D01*
X141815515Y-91010000D01*
X141738273Y-91041995D01*
X141509465Y-91194880D01*
X141314880Y-91389465D01*
X141270408Y-91456022D01*
X141259225Y-91419158D01*
X141247051Y-91396382D01*
X141266375Y-91331613D01*
X141278065Y-91207077D01*
X141275000Y-91185750D01*
X141116250Y-91027000D01*
X140889906Y-91027000D01*
X140840842Y-91000775D01*
X140695819Y-90956782D01*
X140545000Y-90941928D01*
X140482940Y-90941928D01*
X140413778Y-90872766D01*
X140405924Y-90858072D01*
X140545000Y-90858072D01*
X140695819Y-90843218D01*
X140840842Y-90799225D01*
X140889906Y-90773000D01*
X141116250Y-90773000D01*
X141227250Y-90662000D01*
X141346345Y-90662000D01*
X141509465Y-90825120D01*
G37*
%TD.AperFunction*%
D22*
X118206753Y-90690887D02*
X118127844Y-90787941D01*
X118069386Y-90898524D01*
X118033625Y-91018387D01*
X118021935Y-91142923D01*
X118025000Y-91164250D01*
X118183748Y-91322998D01*
X118025000Y-91322998D01*
X118025000Y-91329345D01*
X117890535Y-91194880D01*
X117661727Y-91041995D01*
X117584485Y-91010000D01*
X117661727Y-90978005D01*
X117890535Y-90825120D01*
X118053655Y-90662000D01*
X118241624Y-90662000D01*
X118206753Y-90690887D01*
%TA.AperFunction,Conductor*%
D23*
G36*
X118206753Y-90690887D02*
G01*
X118127844Y-90787941D01*
X118069386Y-90898524D01*
X118033625Y-91018387D01*
X118021935Y-91142923D01*
X118025000Y-91164250D01*
X118183748Y-91322998D01*
X118025000Y-91322998D01*
X118025000Y-91329345D01*
X117890535Y-91194880D01*
X117661727Y-91041995D01*
X117584485Y-91010000D01*
X117661727Y-90978005D01*
X117890535Y-90825120D01*
X118053655Y-90662000D01*
X118241624Y-90662000D01*
X118206753Y-90690887D01*
G37*
%TD.AperFunction*%
D22*
X139285504Y-81687786D02*
X139419158Y-81759225D01*
X139564181Y-81803218D01*
X139715000Y-81818072D01*
X139740442Y-81818072D01*
X140388000Y-82465631D01*
X140388001Y-83352567D01*
X140384314Y-83390000D01*
X140399027Y-83539378D01*
X140442599Y-83683015D01*
X140513355Y-83815392D01*
X140575313Y-83890887D01*
X140608579Y-83931422D01*
X140637649Y-83955279D01*
X141036477Y-84354107D01*
X141003000Y-84522408D01*
X141003000Y-84797592D01*
X141056686Y-85067490D01*
X141161995Y-85321727D01*
X141314880Y-85550535D01*
X141509465Y-85745120D01*
X141738273Y-85898005D01*
X141815515Y-85930000D01*
X141738273Y-85961995D01*
X141509465Y-86114880D01*
X141314880Y-86309465D01*
X141161995Y-86538273D01*
X141056686Y-86792510D01*
X141003000Y-87062408D01*
X141003000Y-87337592D01*
X141056686Y-87607490D01*
X141161995Y-87861727D01*
X141314880Y-88090535D01*
X141509465Y-88285120D01*
X141738273Y-88438005D01*
X141815515Y-88470000D01*
X141738273Y-88501995D01*
X141509465Y-88654880D01*
X141314880Y-88849465D01*
X141161995Y-89078273D01*
X141137255Y-89138000D01*
X141054656Y-89138000D01*
X140974496Y-89072214D01*
X140840842Y-89000775D01*
X140695819Y-88956782D01*
X140545000Y-88941928D01*
X140275000Y-88941928D01*
X140124181Y-88956782D01*
X139979158Y-89000775D01*
X139900000Y-89043086D01*
X139820842Y-89000775D01*
X139675819Y-88956782D01*
X139525000Y-88941928D01*
X139255000Y-88941928D01*
X139104181Y-88956782D01*
X138959158Y-89000775D01*
X138825504Y-89072214D01*
X138708356Y-89168356D01*
X138612214Y-89285504D01*
X138540775Y-89419158D01*
X138496782Y-89564181D01*
X138481928Y-89715000D01*
X138481928Y-90085000D01*
X138487148Y-90138000D01*
X138437422Y-90138000D01*
X138399999Y-90134314D01*
X138362576Y-90138000D01*
X138362574Y-90138000D01*
X138250622Y-90149026D01*
X138106985Y-90192598D01*
X137974608Y-90263355D01*
X137858578Y-90358578D01*
X137834720Y-90387649D01*
X137162000Y-91060370D01*
X137162000Y-89515630D01*
X139912346Y-86765284D01*
X139941422Y-86741422D01*
X140006110Y-86662599D01*
X140036645Y-86625393D01*
X140085230Y-86534495D01*
X140107402Y-86493015D01*
X140150974Y-86349378D01*
X140162000Y-86237426D01*
X140162000Y-86237423D01*
X140165686Y-86200000D01*
X140162000Y-86162577D01*
X140162000Y-83087422D01*
X140165686Y-83049999D01*
X140160921Y-83001623D01*
X140150974Y-82900622D01*
X140107402Y-82756985D01*
X140036645Y-82624608D01*
X139941422Y-82508578D01*
X139912353Y-82484722D01*
X139089630Y-81662000D01*
X139254084Y-81662000D01*
X139285504Y-81687786D01*
%TA.AperFunction,Conductor*%
D23*
G36*
X139285504Y-81687786D02*
G01*
X139419158Y-81759225D01*
X139564181Y-81803218D01*
X139715000Y-81818072D01*
X139740442Y-81818072D01*
X140388000Y-82465631D01*
X140388001Y-83352567D01*
X140384314Y-83390000D01*
X140399027Y-83539378D01*
X140442599Y-83683015D01*
X140513355Y-83815392D01*
X140575313Y-83890887D01*
X140608579Y-83931422D01*
X140637649Y-83955279D01*
X141036477Y-84354107D01*
X141003000Y-84522408D01*
X141003000Y-84797592D01*
X141056686Y-85067490D01*
X141161995Y-85321727D01*
X141314880Y-85550535D01*
X141509465Y-85745120D01*
X141738273Y-85898005D01*
X141815515Y-85930000D01*
X141738273Y-85961995D01*
X141509465Y-86114880D01*
X141314880Y-86309465D01*
X141161995Y-86538273D01*
X141056686Y-86792510D01*
X141003000Y-87062408D01*
X141003000Y-87337592D01*
X141056686Y-87607490D01*
X141161995Y-87861727D01*
X141314880Y-88090535D01*
X141509465Y-88285120D01*
X141738273Y-88438005D01*
X141815515Y-88470000D01*
X141738273Y-88501995D01*
X141509465Y-88654880D01*
X141314880Y-88849465D01*
X141161995Y-89078273D01*
X141137255Y-89138000D01*
X141054656Y-89138000D01*
X140974496Y-89072214D01*
X140840842Y-89000775D01*
X140695819Y-88956782D01*
X140545000Y-88941928D01*
X140275000Y-88941928D01*
X140124181Y-88956782D01*
X139979158Y-89000775D01*
X139900000Y-89043086D01*
X139820842Y-89000775D01*
X139675819Y-88956782D01*
X139525000Y-88941928D01*
X139255000Y-88941928D01*
X139104181Y-88956782D01*
X138959158Y-89000775D01*
X138825504Y-89072214D01*
X138708356Y-89168356D01*
X138612214Y-89285504D01*
X138540775Y-89419158D01*
X138496782Y-89564181D01*
X138481928Y-89715000D01*
X138481928Y-90085000D01*
X138487148Y-90138000D01*
X138437422Y-90138000D01*
X138399999Y-90134314D01*
X138362576Y-90138000D01*
X138362574Y-90138000D01*
X138250622Y-90149026D01*
X138106985Y-90192598D01*
X137974608Y-90263355D01*
X137858578Y-90358578D01*
X137834720Y-90387649D01*
X137162000Y-91060370D01*
X137162000Y-89515630D01*
X139912346Y-86765284D01*
X139941422Y-86741422D01*
X140006110Y-86662599D01*
X140036645Y-86625393D01*
X140085230Y-86534495D01*
X140107402Y-86493015D01*
X140150974Y-86349378D01*
X140162000Y-86237426D01*
X140162000Y-86237423D01*
X140165686Y-86200000D01*
X140162000Y-86162577D01*
X140162000Y-83087422D01*
X140165686Y-83049999D01*
X140160921Y-83001623D01*
X140150974Y-82900622D01*
X140107402Y-82756985D01*
X140036645Y-82624608D01*
X139941422Y-82508578D01*
X139912353Y-82484722D01*
X139089630Y-81662000D01*
X139254084Y-81662000D01*
X139285504Y-81687786D01*
G37*
%TD.AperFunction*%
D22*
X118981928Y-88941928D02*
X118793000Y-88941928D01*
X118793000Y-88773000D01*
X118813000Y-88773000D01*
X118813000Y-88753000D01*
X118981928Y-88753000D01*
X118981928Y-88941928D01*
%TA.AperFunction,Conductor*%
D23*
G36*
X118981928Y-88941928D02*
G01*
X118793000Y-88941928D01*
X118793000Y-88773000D01*
X118813000Y-88773000D01*
X118813000Y-88753000D01*
X118981928Y-88753000D01*
X118981928Y-88941928D01*
G37*
%TD.AperFunction*%
D22*
X118208356Y-88131644D02*
X118213156Y-88135583D01*
X118206753Y-88140887D01*
X118127844Y-88237941D01*
X118069386Y-88348524D01*
X118033625Y-88468387D01*
X118021935Y-88592923D01*
X118025000Y-88614250D01*
X118183748Y-88772998D01*
X118025000Y-88772998D01*
X118025000Y-88789345D01*
X117890535Y-88654880D01*
X117661727Y-88501995D01*
X117584485Y-88470000D01*
X117661727Y-88438005D01*
X117890535Y-88285120D01*
X118085120Y-88090535D01*
X118125285Y-88030423D01*
X118208356Y-88131644D01*
%TA.AperFunction,Conductor*%
D23*
G36*
X118208356Y-88131644D02*
G01*
X118213156Y-88135583D01*
X118206753Y-88140887D01*
X118127844Y-88237941D01*
X118069386Y-88348524D01*
X118033625Y-88468387D01*
X118021935Y-88592923D01*
X118025000Y-88614250D01*
X118183748Y-88772998D01*
X118025000Y-88772998D01*
X118025000Y-88789345D01*
X117890535Y-88654880D01*
X117661727Y-88501995D01*
X117584485Y-88470000D01*
X117661727Y-88438005D01*
X117890535Y-88285120D01*
X118085120Y-88090535D01*
X118125285Y-88030423D01*
X118208356Y-88131644D01*
G37*
%TD.AperFunction*%
D22*
X122752000Y-83273000D02*
X122772000Y-83273000D01*
X122772000Y-83527000D01*
X122752000Y-83527000D01*
X122752000Y-83836837D01*
X122686753Y-83890887D01*
X122607844Y-83987941D01*
X122549386Y-84098524D01*
X122513625Y-84218387D01*
X122501935Y-84342923D01*
X122505000Y-84364250D01*
X122663750Y-84523000D01*
X123293000Y-84523000D01*
X123293000Y-84503000D01*
X123461928Y-84503000D01*
X123461928Y-84820000D01*
X123476878Y-84971794D01*
X123521155Y-85117755D01*
X123538390Y-85150000D01*
X123521155Y-85182245D01*
X123476878Y-85328206D01*
X123461928Y-85480000D01*
X123461928Y-85797000D01*
X123293000Y-85797000D01*
X123293000Y-85777000D01*
X122663750Y-85777000D01*
X122505000Y-85935750D01*
X122501935Y-85957077D01*
X122513625Y-86081613D01*
X122549386Y-86201476D01*
X122607844Y-86312059D01*
X122686753Y-86409113D01*
X122752000Y-86463163D01*
X122752000Y-86773000D01*
X122772000Y-86773000D01*
X122772000Y-87027000D01*
X122752000Y-87027000D01*
X122752000Y-87047000D01*
X122498000Y-87047000D01*
X122498000Y-87027000D01*
X122478000Y-87027000D01*
X122478000Y-86773000D01*
X122498000Y-86773000D01*
X122498000Y-85948750D01*
X122412000Y-85862750D01*
X122412000Y-84957077D01*
X122501935Y-84957077D01*
X122513625Y-85081613D01*
X122534028Y-85150000D01*
X122513625Y-85218387D01*
X122501935Y-85342923D01*
X122505000Y-85364250D01*
X122663750Y-85523000D01*
X122846164Y-85523000D01*
X122893122Y-85548377D01*
X123012652Y-85585235D01*
X123134250Y-85595000D01*
X123206250Y-85523000D01*
X123293000Y-85523000D01*
X123293000Y-84777000D01*
X123206250Y-84777000D01*
X123134250Y-84705000D01*
X123012652Y-84714765D01*
X122893122Y-84751623D01*
X122846164Y-84777000D01*
X122663750Y-84777000D01*
X122505000Y-84935750D01*
X122501935Y-84957077D01*
X122412000Y-84957077D01*
X122412000Y-84437250D01*
X122498000Y-84351250D01*
X122498000Y-83527000D01*
X122478000Y-83527000D01*
X122478000Y-83273000D01*
X122498000Y-83273000D01*
X122498000Y-83253000D01*
X122752000Y-83253000D01*
X122752000Y-83273000D01*
%TA.AperFunction,Conductor*%
D23*
G36*
X122752000Y-83273000D02*
G01*
X122772000Y-83273000D01*
X122772000Y-83527000D01*
X122752000Y-83527000D01*
X122752000Y-83836837D01*
X122686753Y-83890887D01*
X122607844Y-83987941D01*
X122549386Y-84098524D01*
X122513625Y-84218387D01*
X122501935Y-84342923D01*
X122505000Y-84364250D01*
X122663750Y-84523000D01*
X123293000Y-84523000D01*
X123293000Y-84503000D01*
X123461928Y-84503000D01*
X123461928Y-84820000D01*
X123476878Y-84971794D01*
X123521155Y-85117755D01*
X123538390Y-85150000D01*
X123521155Y-85182245D01*
X123476878Y-85328206D01*
X123461928Y-85480000D01*
X123461928Y-85797000D01*
X123293000Y-85797000D01*
X123293000Y-85777000D01*
X122663750Y-85777000D01*
X122505000Y-85935750D01*
X122501935Y-85957077D01*
X122513625Y-86081613D01*
X122549386Y-86201476D01*
X122607844Y-86312059D01*
X122686753Y-86409113D01*
X122752000Y-86463163D01*
X122752000Y-86773000D01*
X122772000Y-86773000D01*
X122772000Y-87027000D01*
X122752000Y-87027000D01*
X122752000Y-87047000D01*
X122498000Y-87047000D01*
X122498000Y-87027000D01*
X122478000Y-87027000D01*
X122478000Y-86773000D01*
X122498000Y-86773000D01*
X122498000Y-85948750D01*
X122412000Y-85862750D01*
X122412000Y-84957077D01*
X122501935Y-84957077D01*
X122513625Y-85081613D01*
X122534028Y-85150000D01*
X122513625Y-85218387D01*
X122501935Y-85342923D01*
X122505000Y-85364250D01*
X122663750Y-85523000D01*
X122846164Y-85523000D01*
X122893122Y-85548377D01*
X123012652Y-85585235D01*
X123134250Y-85595000D01*
X123206250Y-85523000D01*
X123293000Y-85523000D01*
X123293000Y-84777000D01*
X123206250Y-84777000D01*
X123134250Y-84705000D01*
X123012652Y-84714765D01*
X122893122Y-84751623D01*
X122846164Y-84777000D01*
X122663750Y-84777000D01*
X122505000Y-84935750D01*
X122501935Y-84957077D01*
X122412000Y-84957077D01*
X122412000Y-84437250D01*
X122498000Y-84351250D01*
X122498000Y-83527000D01*
X122478000Y-83527000D01*
X122478000Y-83273000D01*
X122498000Y-83273000D01*
X122498000Y-83253000D01*
X122752000Y-83253000D01*
X122752000Y-83273000D01*
G37*
%TD.AperFunction*%
D22*
X118961928Y-86441928D02*
X118930806Y-86441928D01*
X118789378Y-86399026D01*
X118773000Y-86397413D01*
X118773000Y-86273000D01*
X118793000Y-86273000D01*
X118793000Y-86253000D01*
X118961928Y-86253000D01*
X118961928Y-86441928D01*
%TA.AperFunction,Conductor*%
D23*
G36*
X118961928Y-86441928D02*
G01*
X118930806Y-86441928D01*
X118789378Y-86399026D01*
X118773000Y-86397413D01*
X118773000Y-86273000D01*
X118793000Y-86273000D01*
X118793000Y-86253000D01*
X118961928Y-86253000D01*
X118961928Y-86441928D01*
G37*
%TD.AperFunction*%
D22*
X118112214Y-85514496D02*
X118204129Y-85626493D01*
X118186753Y-85640887D01*
X118107844Y-85737941D01*
X118049386Y-85848524D01*
X118013625Y-85968387D01*
X118001935Y-86092923D01*
X118005000Y-86114250D01*
X118163748Y-86272998D01*
X118048653Y-86272998D01*
X117890535Y-86114880D01*
X117661727Y-85961995D01*
X117584485Y-85930000D01*
X117661727Y-85898005D01*
X117890535Y-85745120D01*
X118085120Y-85550535D01*
X118110875Y-85511990D01*
X118112214Y-85514496D01*
%TA.AperFunction,Conductor*%
D23*
G36*
X118112214Y-85514496D02*
G01*
X118204129Y-85626493D01*
X118186753Y-85640887D01*
X118107844Y-85737941D01*
X118049386Y-85848524D01*
X118013625Y-85968387D01*
X118001935Y-86092923D01*
X118005000Y-86114250D01*
X118163748Y-86272998D01*
X118048653Y-86272998D01*
X117890535Y-86114880D01*
X117661727Y-85961995D01*
X117584485Y-85930000D01*
X117661727Y-85898005D01*
X117890535Y-85745120D01*
X118085120Y-85550535D01*
X118110875Y-85511990D01*
X118112214Y-85514496D01*
G37*
%TD.AperFunction*%
D22*
X135390000Y-84039250D02*
X135548750Y-84198000D01*
X136373000Y-84198000D01*
X136373000Y-84178000D01*
X136627000Y-84178000D01*
X136627000Y-84198000D01*
X136647000Y-84198000D01*
X136647000Y-84452000D01*
X136627000Y-84452000D01*
X136627000Y-84472000D01*
X136373000Y-84472000D01*
X136373000Y-84452000D01*
X135548750Y-84452000D01*
X135390000Y-84610750D01*
X135386928Y-84775000D01*
X135399188Y-84899482D01*
X135425432Y-84985998D01*
X134631331Y-84985998D01*
X134604037Y-84988686D01*
X134595854Y-84913657D01*
X134591484Y-84899999D01*
X134595854Y-84886340D01*
X134606999Y-84784148D01*
X134448249Y-84625398D01*
X134446569Y-84625398D01*
X134416302Y-84589635D01*
X134397492Y-84574669D01*
X134423184Y-84553584D01*
X134446972Y-84524598D01*
X134448249Y-84524598D01*
X134606999Y-84365848D01*
X134595854Y-84263656D01*
X134591132Y-84248898D01*
X134597811Y-84226881D01*
X134610071Y-84102399D01*
X134610071Y-84037001D01*
X135389958Y-84037001D01*
X135390000Y-84039250D01*
%TA.AperFunction,Conductor*%
D23*
G36*
X135390000Y-84039250D02*
G01*
X135548750Y-84198000D01*
X136373000Y-84198000D01*
X136373000Y-84178000D01*
X136627000Y-84178000D01*
X136627000Y-84198000D01*
X136647000Y-84198000D01*
X136647000Y-84452000D01*
X136627000Y-84452000D01*
X136627000Y-84472000D01*
X136373000Y-84472000D01*
X136373000Y-84452000D01*
X135548750Y-84452000D01*
X135390000Y-84610750D01*
X135386928Y-84775000D01*
X135399188Y-84899482D01*
X135425432Y-84985998D01*
X134631331Y-84985998D01*
X134604037Y-84988686D01*
X134595854Y-84913657D01*
X134591484Y-84899999D01*
X134595854Y-84886340D01*
X134606999Y-84784148D01*
X134448249Y-84625398D01*
X134446569Y-84625398D01*
X134416302Y-84589635D01*
X134397492Y-84574669D01*
X134423184Y-84553584D01*
X134446972Y-84524598D01*
X134448249Y-84524598D01*
X134606999Y-84365848D01*
X134595854Y-84263656D01*
X134591132Y-84248898D01*
X134597811Y-84226881D01*
X134610071Y-84102399D01*
X134610071Y-84037001D01*
X135389958Y-84037001D01*
X135390000Y-84039250D01*
G37*
%TD.AperFunction*%
D22*
X119001928Y-83085000D02*
X119016782Y-83235819D01*
X119017000Y-83236538D01*
X119017000Y-83511873D01*
X118996878Y-83578206D01*
X118981928Y-83730000D01*
X118981928Y-83941928D01*
X118884873Y-83941928D01*
X118809379Y-83919027D01*
X118793000Y-83917414D01*
X118793000Y-83773000D01*
X118813000Y-83773000D01*
X118813000Y-83113750D01*
X118763000Y-83063750D01*
X118763000Y-83027000D01*
X118743000Y-83027000D01*
X118743000Y-82825339D01*
X118815392Y-82786645D01*
X118856389Y-82753000D01*
X119001928Y-82753000D01*
X119001928Y-83085000D01*
%TA.AperFunction,Conductor*%
D23*
G36*
X119001928Y-83085000D02*
G01*
X119016782Y-83235819D01*
X119017000Y-83236538D01*
X119017000Y-83511873D01*
X118996878Y-83578206D01*
X118981928Y-83730000D01*
X118981928Y-83941928D01*
X118884873Y-83941928D01*
X118809379Y-83919027D01*
X118793000Y-83917414D01*
X118793000Y-83773000D01*
X118813000Y-83773000D01*
X118813000Y-83113750D01*
X118763000Y-83063750D01*
X118763000Y-83027000D01*
X118743000Y-83027000D01*
X118743000Y-82825339D01*
X118815392Y-82786645D01*
X118856389Y-82753000D01*
X119001928Y-82753000D01*
X119001928Y-83085000D01*
G37*
%TD.AperFunction*%
D22*
X117985000Y-83185750D02*
X117981977Y-83212119D01*
X117992699Y-83336742D01*
X118027527Y-83456879D01*
X118033605Y-83468597D01*
X118021935Y-83592923D01*
X118025000Y-83614250D01*
X118183748Y-83772998D01*
X118087481Y-83772998D01*
X118085120Y-83769465D01*
X117890535Y-83574880D01*
X117661727Y-83421995D01*
X117584485Y-83390000D01*
X117661727Y-83358005D01*
X117890535Y-83205120D01*
X118068653Y-83027002D01*
X118143748Y-83027002D01*
X117985000Y-83185750D01*
%TA.AperFunction,Conductor*%
D23*
G36*
X117985000Y-83185750D02*
G01*
X117981977Y-83212119D01*
X117992699Y-83336742D01*
X118027527Y-83456879D01*
X118033605Y-83468597D01*
X118021935Y-83592923D01*
X118025000Y-83614250D01*
X118183748Y-83772998D01*
X118087481Y-83772998D01*
X118085120Y-83769465D01*
X117890535Y-83574880D01*
X117661727Y-83421995D01*
X117584485Y-83390000D01*
X117661727Y-83358005D01*
X117890535Y-83205120D01*
X118068653Y-83027002D01*
X118143748Y-83027002D01*
X117985000Y-83185750D01*
G37*
%TD.AperFunction*%
%TD*%
M02*
