M48
; DRILL file {KiCad (5.1.9-0-10_14)} date Tuesday, May 04, 2021 at 03:57:33 PM
; FORMAT={-:-/ absolute / inch / decimal}
; #@! TF.CreationDate,2021-05-04T15:57:33-07:00
; #@! TF.GenerationSoftware,Kicad,Pcbnew,(5.1.9-0-10_14)
FMAT,2
INCH
T1C0.0120
T2C0.0300
T3C0.0394
%
G90
G05
T1
X4.5709Y-4.5433
X4.5787Y-4.4803
X4.6024Y-4.6929
X4.6417Y-3.185
X4.6417Y-3.2835
X4.6496Y-3.5866
X4.6516Y-3.3819
X4.6516Y-3.4803
X4.6527Y-4.5906
X4.6527Y-4.6531
X4.6673Y-4.1772
X4.6692Y-4.5194
X4.6693Y-4.437
X4.6929Y-4.5886
X4.7008Y-3.9724
X4.7008Y-4.0906
X4.7126Y-4.4882
X4.7165Y-3.7008
X4.7244Y-2.8543
X4.7244Y-3.0512
X4.7409Y-3.8307
X4.7559Y-4.3469
X4.7906Y-3.7854
X4.7906Y-3.874
X4.8169Y-3.3307
X4.8169Y-3.374
X4.8228Y-3.5433
X4.8228Y-3.6417
X4.8255Y-4.2736
X4.8255Y-4.4114
X4.8622Y-3.5079
X4.8701Y-3.2402
X4.878Y-4.3465
X4.8819Y-3.8858
X4.8819Y-4.2323
X4.8839Y-4.3044
X4.8878Y-4.5138
X4.8898Y-4.6811
X4.9173Y-4.3465
X4.9173Y-4.4646
X4.9213Y-2.8543
X4.9213Y-3.0512
X4.9646Y-4.6339
X5.0027Y-3.8504
X5.0157Y-4.3792
X5.0256Y-3.6614
X5.0256Y-3.815
X5.0472Y-4.4843
X5.0669Y-4.3346
X5.0709Y-4.1339
X5.0776Y-3.8122
X5.1024Y-4.624
X5.1181Y-2.8543
X5.1181Y-3.0512
X5.119Y-4.4181
X5.1477Y-4.4319
X5.1594Y-4.5846
X5.1929Y-4.2402
X5.1969Y-4.4009
X5.198Y-4.4967
X5.2165Y-3.5433
X5.2165Y-3.7402
X5.2165Y-4.1339
X5.2224Y-4.3484
X5.2303Y-4.6791
X5.2441Y-3.8858
X5.252Y-4.4961
X5.2539Y-4.4055
X5.2709Y-4.4529
X5.3031Y-3.3425
X5.315Y-2.8543
X5.315Y-3.0512
X5.315Y-4.5276
X5.315Y-4.6004
X5.315Y-4.6791
X5.3307Y-3.7717
X5.3307Y-3.8858
X5.3307Y-4.2323
X5.3346Y-3.8327
X5.3452Y-3.6159
X5.3695Y-3.6969
X5.3701Y-4.4055
X5.372Y-3.7539
X5.3944Y-3.6594
X5.4075Y-3.5787
X5.4134Y-4.5276
X5.4134Y-4.6791
X5.4291Y-4.3465
X5.4488Y-3.6181
X5.4488Y-3.6969
X5.4488Y-3.815
X5.4862Y-3.4606
X5.5079Y-3.1063
X5.5118Y-2.8543
X5.5118Y-3.0512
X5.5118Y-4.5276
X5.5118Y-4.6791
X5.5276Y-3.3386
X5.5315Y-4.0079
X5.5315Y-4.1575
X5.5669Y-3.5787
X5.5669Y-3.7854
X5.5669Y-3.8839
X5.6102Y-4.4291
X5.6102Y-4.5276
X5.6102Y-4.626
T2
X4.6063Y-2.9331
X4.6063Y-3.0331
X4.6063Y-3.1331
X4.6063Y-3.2331
X4.6063Y-3.3331
X4.6063Y-3.4331
X4.6063Y-3.5331
X4.6063Y-3.6331
X4.6063Y-3.7331
X4.6063Y-3.8331
X4.6063Y-3.9331
X4.6063Y-4.0331
X4.6063Y-4.1331
X4.6063Y-4.2331
X4.6063Y-4.3331
X5.6063Y-2.9331
X5.6063Y-3.0331
X5.6063Y-3.1331
X5.6063Y-3.2331
X5.6063Y-3.3331
X5.6063Y-3.4331
X5.6063Y-3.5331
X5.6063Y-3.6331
X5.6063Y-3.7331
X5.6063Y-3.8331
X5.6063Y-3.9331
X5.6063Y-4.0331
X5.6063Y-4.1331
X5.6063Y-4.2331
X5.6063Y-4.3331
T3
X4.4843Y-4.6614
T0
M30
