%TF.GenerationSoftware,KiCad,Pcbnew,(5.1.9-0-10_14)*%
%TF.CreationDate,2021-05-04T15:56:22-07:00*%
%TF.ProjectId,fm-streamer,666d2d73-7472-4656-916d-65722e6b6963,rev?*%
%TF.SameCoordinates,Original*%
%TF.FileFunction,Copper,L1,Top*%
%TF.FilePolarity,Positive*%
%FSLAX46Y46*%
G04 Gerber Fmt 4.6, Leading zero omitted, Abs format (unit mm)*
G04 Created by KiCad (PCBNEW (5.1.9-0-10_14)) date 2021-05-04 15:56:22*
%MOMM*%
%LPD*%
G01*
G04 APERTURE LIST*
%TA.AperFunction,ComponentPad*%
%ADD10C,1.524000*%
%TD*%
%TA.AperFunction,ComponentPad*%
%ADD11R,1.524000X1.524000*%
%TD*%
%TA.AperFunction,ComponentPad*%
%ADD12C,2.000000*%
%TD*%
%TA.AperFunction,ViaPad*%
%ADD13C,0.609600*%
%TD*%
%TA.AperFunction,Conductor*%
%ADD14C,0.508000*%
%TD*%
%TA.AperFunction,Conductor*%
%ADD15C,0.254000*%
%TD*%
%TA.AperFunction,Conductor*%
%ADD16C,0.100000*%
%TD*%
G04 APERTURE END LIST*
D10*
%TO.P,U1,30*%
%TO.N,Net-(U1-Pad30)*%
X142400000Y-74500000D03*
%TO.P,U1,29*%
%TO.N,Net-(U1-Pad29)*%
X142400000Y-77040000D03*
%TO.P,U1,28*%
%TO.N,Net-(U1-Pad28)*%
X142400000Y-79580000D03*
%TO.P,U1,27*%
%TO.N,Net-(U1-Pad27)*%
X142400000Y-82120000D03*
%TO.P,U1,26*%
%TO.N,DAC_~RST~*%
X142400000Y-84660000D03*
%TO.P,U1,25*%
%TO.N,Net-(U1-Pad25)*%
X142400000Y-87200000D03*
%TO.P,U1,24*%
%TO.N,/I2S_DATA_R*%
X142400000Y-89740000D03*
%TO.P,U1,23*%
%TO.N,Net-(U1-Pad23)*%
X142400000Y-92280000D03*
%TO.P,U1,22*%
%TO.N,/I2S_WCLK_R*%
X142400000Y-94820000D03*
%TO.P,U1,21*%
%TO.N,/I2S_DCLK_R*%
X142400000Y-97360000D03*
%TO.P,U1,20*%
%TO.N,Net-(U1-Pad20)*%
X142400000Y-99900000D03*
%TO.P,U1,19*%
%TO.N,Net-(U1-Pad19)*%
X142400000Y-102440000D03*
%TO.P,U1,18*%
%TO.N,Net-(U1-Pad18)*%
X142400000Y-104980000D03*
%TO.P,U1,17*%
%TO.N,GND*%
X142400000Y-107520000D03*
%TO.P,U1,16*%
%TO.N,+3V3*%
X142400000Y-110060000D03*
%TO.P,U1,15*%
%TO.N,+5V*%
X117000000Y-110060000D03*
%TO.P,U1,14*%
%TO.N,GND*%
X117000000Y-107520000D03*
%TO.P,U1,13*%
%TO.N,RADIO_~RST~*%
X117000000Y-104980000D03*
%TO.P,U1,12*%
%TO.N,Net-(U1-Pad12)*%
X117000000Y-102440000D03*
%TO.P,U1,11*%
%TO.N,Net-(U1-Pad11)*%
X117000000Y-99900000D03*
%TO.P,U1,10*%
%TO.N,I2C_SCL*%
X117000000Y-97360000D03*
%TO.P,U1,9*%
%TO.N,I2C_SDA*%
X117000000Y-94820000D03*
%TO.P,U1,8*%
%TO.N,/RAD_CLK_R*%
X117000000Y-92280000D03*
%TO.P,U1,7*%
%TO.N,/SPI_MOSI_R*%
X117000000Y-89740000D03*
%TO.P,U1,6*%
%TO.N,/SPI_CLK_R*%
X117000000Y-87200000D03*
%TO.P,U1,5*%
%TO.N,/SPI_CS_R*%
X117000000Y-84660000D03*
%TO.P,U1,4*%
%TO.N,/DAC_CLK_R*%
X117000000Y-82120000D03*
%TO.P,U1,3*%
%TO.N,Net-(U1-Pad3)*%
X117000000Y-79580000D03*
%TO.P,U1,2*%
%TO.N,Net-(U1-Pad2)*%
X117000000Y-77040000D03*
D11*
%TO.P,U1,1*%
%TO.N,Net-(U1-Pad1)*%
X117000000Y-74500000D03*
%TD*%
D12*
%TO.P,TP1,1*%
%TO.N,Net-(L1-Pad1)*%
X113900000Y-118400000D03*
%TD*%
D13*
%TO.N,GND*%
X139350000Y-87900000D03*
X140400000Y-84800000D03*
X136450000Y-95350000D03*
X137350000Y-90900000D03*
X135500000Y-97350000D03*
X131900000Y-107700000D03*
X128700000Y-110100000D03*
X128200000Y-113900000D03*
X119700000Y-114000000D03*
%TO.N,+5V*%
X124050204Y-109332739D03*
X118599990Y-112700000D03*
%TO.N,GND*%
X122350000Y-84600000D03*
X122350000Y-85700000D03*
X134700000Y-84900000D03*
X116300000Y-113800000D03*
X118177500Y-118187500D03*
X118100000Y-91100000D03*
X127650000Y-93000000D03*
X141400000Y-98650000D03*
X141400000Y-96150000D03*
X141400000Y-90900000D03*
X117900000Y-80900000D03*
X117900000Y-83400000D03*
X118150000Y-85900000D03*
X118150000Y-88400000D03*
X139900000Y-78900000D03*
X133200000Y-98700000D03*
X124000000Y-107500000D03*
X127068190Y-97800000D03*
X124200000Y-118900000D03*
X135400000Y-98700000D03*
X124000000Y-98699998D03*
X135400000Y-107500000D03*
X124900000Y-110400000D03*
X123900000Y-110400000D03*
X120800567Y-110411390D03*
X122568190Y-112050000D03*
X122568190Y-108550000D03*
X131999994Y-111781748D03*
X133400000Y-114200010D03*
X133450000Y-111900000D03*
X121681810Y-96150000D03*
X121681810Y-98400000D03*
X118550000Y-106100000D03*
X137018190Y-92950000D03*
X124150000Y-114650000D03*
X119200000Y-116550000D03*
X132030296Y-114215759D03*
X131050000Y-116450000D03*
X132650000Y-110450000D03*
X129600000Y-117450000D03*
X132850000Y-118850000D03*
X135000000Y-116850000D03*
X135000000Y-115000000D03*
X135000000Y-118850000D03*
X140000000Y-118850000D03*
X140000000Y-115000000D03*
X137500000Y-118850000D03*
X137500000Y-115000000D03*
X142500000Y-115000000D03*
X142500000Y-117500000D03*
X142500000Y-112500000D03*
X132500000Y-105000000D03*
X132500000Y-95000000D03*
X132500000Y-90000000D03*
X122500000Y-90000000D03*
X122500000Y-92500000D03*
X120000000Y-72500000D03*
X125000000Y-72500000D03*
X130000000Y-72500000D03*
X135000000Y-72500000D03*
X140000000Y-72500000D03*
X120000000Y-77500000D03*
X125000000Y-77500000D03*
X130000000Y-77500000D03*
X135000000Y-77500000D03*
X140000000Y-77500000D03*
X126100000Y-117700000D03*
X124900000Y-113400000D03*
X128800000Y-105000000D03*
X118177500Y-116600000D03*
X116100000Y-115400000D03*
X116900000Y-119200000D03*
X118598600Y-114792115D03*
X119400000Y-103900000D03*
X119400000Y-100900000D03*
X119800000Y-94000000D03*
X136400000Y-111900000D03*
X137900000Y-110400000D03*
X140500000Y-101800000D03*
X140500000Y-105600000D03*
%TO.N,+3V3*%
X123499998Y-89100000D03*
X123700000Y-82300000D03*
X133881810Y-113104799D03*
X120418190Y-97300000D03*
X127400000Y-111231030D03*
%TO.N,AUDIO_R*%
X128970620Y-96829380D03*
X130751688Y-112570082D03*
%TO.N,AUDIO_L*%
X127650000Y-96900000D03*
X130022155Y-112219035D03*
%TO.N,Net-(R28-Pad1)*%
X138400000Y-96900000D03*
X135400000Y-95800000D03*
%TO.N,Net-(R29-Pad1)*%
X138400000Y-91900000D03*
X135768190Y-91842842D03*
%TO.N,Net-(R30-Pad1)*%
X138400000Y-93900000D03*
X136386380Y-93900000D03*
%TD*%
D14*
%TO.N,+5V*%
X120251891Y-112700000D02*
X118599990Y-112700000D01*
X124050204Y-109332739D02*
X123619152Y-109332739D01*
X123619152Y-109332739D02*
X120251891Y-112700000D01*
%TO.N,+3V3*%
X123499998Y-82500002D02*
X123700000Y-82300000D01*
X123499998Y-89100000D02*
X123499998Y-82500002D01*
X123499998Y-89531052D02*
X123499998Y-89100000D01*
X123499998Y-95799998D02*
X123499998Y-89531052D01*
D15*
X123499998Y-95799998D02*
X121999996Y-97300000D01*
X121999996Y-97300000D02*
X120418190Y-97300000D01*
D14*
X123499998Y-95799998D02*
X127400000Y-99700000D01*
X133881810Y-113104799D02*
X133577011Y-113409598D01*
X127400000Y-99700000D02*
X127400000Y-111231030D01*
X133577011Y-113409598D02*
X129578568Y-113409598D01*
X129578568Y-113409598D02*
X127400000Y-111231030D01*
D15*
%TO.N,AUDIO_R*%
X128970620Y-96829380D02*
X130751688Y-98610448D01*
X130751688Y-98610448D02*
X130751688Y-112570082D01*
%TO.N,AUDIO_L*%
X130022155Y-99272155D02*
X130022155Y-112219035D01*
X127650000Y-96900000D02*
X130022155Y-99272155D01*
%TO.N,Net-(R28-Pad1)*%
X138400000Y-96900000D02*
X136400000Y-96900000D01*
X135400000Y-95900000D02*
X135400000Y-95800000D01*
X136400000Y-96900000D02*
X135400000Y-95900000D01*
%TO.N,Net-(R29-Pad1)*%
X135825348Y-91900000D02*
X135768190Y-91842842D01*
X138400000Y-91900000D02*
X135825348Y-91900000D01*
%TO.N,Net-(R30-Pad1)*%
X138400000Y-93900000D02*
X136386380Y-93900000D01*
%TD*%
%TO.N,GND*%
X142870189Y-72244376D02*
X143033850Y-72294022D01*
X143184672Y-72374638D01*
X143316870Y-72483130D01*
X143425362Y-72615328D01*
X143505978Y-72766150D01*
X143555624Y-72929811D01*
X143573000Y-73106234D01*
X143573000Y-73740986D01*
X143485120Y-73609465D01*
X143290535Y-73414880D01*
X143061727Y-73261995D01*
X142807490Y-73156686D01*
X142537592Y-73103000D01*
X142262408Y-73103000D01*
X141992510Y-73156686D01*
X141738273Y-73261995D01*
X141509465Y-73414880D01*
X141314880Y-73609465D01*
X141161995Y-73838273D01*
X141056686Y-74092510D01*
X141003000Y-74362408D01*
X141003000Y-74637592D01*
X141056686Y-74907490D01*
X141161995Y-75161727D01*
X141314880Y-75390535D01*
X141509465Y-75585120D01*
X141738273Y-75738005D01*
X141815515Y-75770000D01*
X141738273Y-75801995D01*
X141509465Y-75954880D01*
X141314880Y-76149465D01*
X141161995Y-76378273D01*
X141056686Y-76632510D01*
X141003000Y-76902408D01*
X141003000Y-77177592D01*
X141056686Y-77447490D01*
X141161995Y-77701727D01*
X141314880Y-77930535D01*
X141509465Y-78125120D01*
X141738273Y-78278005D01*
X141815515Y-78310000D01*
X141738273Y-78341995D01*
X141509465Y-78494880D01*
X141314880Y-78689465D01*
X141161995Y-78918273D01*
X141056686Y-79172510D01*
X141003000Y-79442408D01*
X141003000Y-79717592D01*
X141056686Y-79987490D01*
X141161995Y-80241727D01*
X141314880Y-80470535D01*
X141509465Y-80665120D01*
X141738273Y-80818005D01*
X141815515Y-80850000D01*
X141738273Y-80881995D01*
X141509465Y-81034880D01*
X141314880Y-81229465D01*
X141161995Y-81458273D01*
X141056686Y-81712510D01*
X141003000Y-81982408D01*
X141003000Y-82257592D01*
X141056686Y-82527490D01*
X141161995Y-82781727D01*
X141314880Y-83010535D01*
X141509465Y-83205120D01*
X141738273Y-83358005D01*
X141815515Y-83390000D01*
X141738273Y-83421995D01*
X141509465Y-83574880D01*
X141314880Y-83769465D01*
X141161995Y-83998273D01*
X141056686Y-84252510D01*
X141003000Y-84522408D01*
X141003000Y-84797592D01*
X141056686Y-85067490D01*
X141161995Y-85321727D01*
X141314880Y-85550535D01*
X141509465Y-85745120D01*
X141738273Y-85898005D01*
X141815515Y-85930000D01*
X141738273Y-85961995D01*
X141509465Y-86114880D01*
X141314880Y-86309465D01*
X141161995Y-86538273D01*
X141056686Y-86792510D01*
X141003000Y-87062408D01*
X141003000Y-87337592D01*
X141056686Y-87607490D01*
X141161995Y-87861727D01*
X141314880Y-88090535D01*
X141509465Y-88285120D01*
X141738273Y-88438005D01*
X141815515Y-88470000D01*
X141738273Y-88501995D01*
X141509465Y-88654880D01*
X141314880Y-88849465D01*
X141161995Y-89078273D01*
X141056686Y-89332510D01*
X141003000Y-89602408D01*
X141003000Y-89877592D01*
X141056686Y-90147490D01*
X141161995Y-90401727D01*
X141314880Y-90630535D01*
X141509465Y-90825120D01*
X141738273Y-90978005D01*
X141815515Y-91010000D01*
X141738273Y-91041995D01*
X141509465Y-91194880D01*
X141314880Y-91389465D01*
X141161995Y-91618273D01*
X141056686Y-91872510D01*
X141003000Y-92142408D01*
X141003000Y-92417592D01*
X141056686Y-92687490D01*
X141161995Y-92941727D01*
X141314880Y-93170535D01*
X141509465Y-93365120D01*
X141738273Y-93518005D01*
X141815515Y-93550000D01*
X141738273Y-93581995D01*
X141509465Y-93734880D01*
X141314880Y-93929465D01*
X141161995Y-94158273D01*
X141056686Y-94412510D01*
X141003000Y-94682408D01*
X141003000Y-94957592D01*
X141056686Y-95227490D01*
X141161995Y-95481727D01*
X141314880Y-95710535D01*
X141509465Y-95905120D01*
X141738273Y-96058005D01*
X141815515Y-96090000D01*
X141738273Y-96121995D01*
X141509465Y-96274880D01*
X141314880Y-96469465D01*
X141161995Y-96698273D01*
X141056686Y-96952510D01*
X141003000Y-97222408D01*
X141003000Y-97497592D01*
X141056686Y-97767490D01*
X141161995Y-98021727D01*
X141314880Y-98250535D01*
X141509465Y-98445120D01*
X141738273Y-98598005D01*
X141815515Y-98630000D01*
X141738273Y-98661995D01*
X141509465Y-98814880D01*
X141314880Y-99009465D01*
X141161995Y-99238273D01*
X141056686Y-99492510D01*
X141003000Y-99762408D01*
X141003000Y-100037592D01*
X141056686Y-100307490D01*
X141161995Y-100561727D01*
X141314880Y-100790535D01*
X141509465Y-100985120D01*
X141738273Y-101138005D01*
X141815515Y-101170000D01*
X141738273Y-101201995D01*
X141509465Y-101354880D01*
X141314880Y-101549465D01*
X141161995Y-101778273D01*
X141056686Y-102032510D01*
X141003000Y-102302408D01*
X141003000Y-102577592D01*
X141056686Y-102847490D01*
X141161995Y-103101727D01*
X141314880Y-103330535D01*
X141509465Y-103525120D01*
X141738273Y-103678005D01*
X141815515Y-103710000D01*
X141738273Y-103741995D01*
X141509465Y-103894880D01*
X141314880Y-104089465D01*
X141161995Y-104318273D01*
X141056686Y-104572510D01*
X141003000Y-104842408D01*
X141003000Y-105117592D01*
X141056686Y-105387490D01*
X141161995Y-105641727D01*
X141314880Y-105870535D01*
X141509465Y-106065120D01*
X141738273Y-106218005D01*
X141809943Y-106247692D01*
X141796977Y-106252364D01*
X141681020Y-106314344D01*
X141614040Y-106554435D01*
X142400000Y-107340395D01*
X143185960Y-106554435D01*
X143118980Y-106314344D01*
X142983240Y-106250515D01*
X143061727Y-106218005D01*
X143290535Y-106065120D01*
X143485120Y-105870535D01*
X143573000Y-105739014D01*
X143573000Y-106791910D01*
X143365565Y-106734040D01*
X142579605Y-107520000D01*
X143365565Y-108305960D01*
X143573000Y-108248090D01*
X143573000Y-109300986D01*
X143485120Y-109169465D01*
X143290535Y-108974880D01*
X143061727Y-108821995D01*
X142990057Y-108792308D01*
X143003023Y-108787636D01*
X143118980Y-108725656D01*
X143185960Y-108485565D01*
X142400000Y-107699605D01*
X141614040Y-108485565D01*
X141681020Y-108725656D01*
X141816760Y-108789485D01*
X141738273Y-108821995D01*
X141509465Y-108974880D01*
X141314880Y-109169465D01*
X141161995Y-109398273D01*
X141056686Y-109652510D01*
X141003000Y-109922408D01*
X141003000Y-110197592D01*
X141056686Y-110467490D01*
X141161995Y-110721727D01*
X141314880Y-110950535D01*
X141509465Y-111145120D01*
X141738273Y-111298005D01*
X141992510Y-111403314D01*
X142262408Y-111457000D01*
X142537592Y-111457000D01*
X142807490Y-111403314D01*
X143061727Y-111298005D01*
X143290535Y-111145120D01*
X143485120Y-110950535D01*
X143573000Y-110819014D01*
X143573000Y-118493766D01*
X143555624Y-118670189D01*
X143505978Y-118833850D01*
X143425362Y-118984672D01*
X143316870Y-119116870D01*
X143184672Y-119225362D01*
X143033850Y-119305978D01*
X142921694Y-119340000D01*
X116478306Y-119340000D01*
X116366150Y-119305978D01*
X116215328Y-119225362D01*
X116083130Y-119116870D01*
X115974638Y-118984672D01*
X115894022Y-118833850D01*
X115844376Y-118670189D01*
X115827000Y-118493766D01*
X115827000Y-112607438D01*
X117660190Y-112607438D01*
X117660190Y-112792562D01*
X117696306Y-112974129D01*
X117767150Y-113145162D01*
X117870000Y-113299087D01*
X118000903Y-113429990D01*
X118154828Y-113532840D01*
X118325861Y-113603684D01*
X118507428Y-113639800D01*
X118692552Y-113639800D01*
X118874119Y-113603684D01*
X118909569Y-113589000D01*
X120208231Y-113589000D01*
X120251891Y-113593300D01*
X120295551Y-113589000D01*
X120295558Y-113589000D01*
X120426165Y-113576136D01*
X120593742Y-113525303D01*
X120748182Y-113442753D01*
X120883550Y-113331659D01*
X120911390Y-113297736D01*
X123940081Y-110269046D01*
X123957642Y-110272539D01*
X124142766Y-110272539D01*
X124324333Y-110236423D01*
X124495366Y-110165579D01*
X124649291Y-110062729D01*
X124780194Y-109931826D01*
X124883044Y-109777901D01*
X124953888Y-109606868D01*
X124990004Y-109425301D01*
X124990004Y-109240177D01*
X124953888Y-109058610D01*
X124883044Y-108887577D01*
X124780194Y-108733652D01*
X124649291Y-108602749D01*
X124495366Y-108499899D01*
X124324333Y-108429055D01*
X124142766Y-108392939D01*
X123957642Y-108392939D01*
X123776075Y-108429055D01*
X123740625Y-108443739D01*
X123662811Y-108443739D01*
X123619151Y-108439439D01*
X123575491Y-108443739D01*
X123575485Y-108443739D01*
X123478076Y-108453333D01*
X123444876Y-108456603D01*
X123349401Y-108485565D01*
X123277301Y-108507436D01*
X123122861Y-108589986D01*
X122987493Y-108701080D01*
X122959658Y-108734997D01*
X119883656Y-111811000D01*
X118909569Y-111811000D01*
X118874119Y-111796316D01*
X118692552Y-111760200D01*
X118507428Y-111760200D01*
X118325861Y-111796316D01*
X118154828Y-111867160D01*
X118000903Y-111970010D01*
X117870000Y-112100913D01*
X117767150Y-112254838D01*
X117696306Y-112425871D01*
X117660190Y-112607438D01*
X115827000Y-112607438D01*
X115827000Y-110819014D01*
X115914880Y-110950535D01*
X116109465Y-111145120D01*
X116338273Y-111298005D01*
X116592510Y-111403314D01*
X116862408Y-111457000D01*
X117137592Y-111457000D01*
X117407490Y-111403314D01*
X117661727Y-111298005D01*
X117890535Y-111145120D01*
X118085120Y-110950535D01*
X118238005Y-110721727D01*
X118343314Y-110467490D01*
X118397000Y-110197592D01*
X118397000Y-109922408D01*
X118343314Y-109652510D01*
X118238005Y-109398273D01*
X118085120Y-109169465D01*
X117890535Y-108974880D01*
X117661727Y-108821995D01*
X117590057Y-108792308D01*
X117603023Y-108787636D01*
X117718980Y-108725656D01*
X117785960Y-108485565D01*
X117000000Y-107699605D01*
X116214040Y-108485565D01*
X116281020Y-108725656D01*
X116416760Y-108789485D01*
X116338273Y-108821995D01*
X116109465Y-108974880D01*
X115914880Y-109169465D01*
X115827000Y-109300986D01*
X115827000Y-108248090D01*
X116034435Y-108305960D01*
X116820395Y-107520000D01*
X117179605Y-107520000D01*
X117965565Y-108305960D01*
X118205656Y-108238980D01*
X118322756Y-107989952D01*
X118389023Y-107722865D01*
X118401910Y-107447983D01*
X118360922Y-107175867D01*
X118267636Y-106916977D01*
X118205656Y-106801020D01*
X117965565Y-106734040D01*
X117179605Y-107520000D01*
X116820395Y-107520000D01*
X116034435Y-106734040D01*
X115827000Y-106791910D01*
X115827000Y-105739014D01*
X115914880Y-105870535D01*
X116109465Y-106065120D01*
X116338273Y-106218005D01*
X116409943Y-106247692D01*
X116396977Y-106252364D01*
X116281020Y-106314344D01*
X116214040Y-106554435D01*
X117000000Y-107340395D01*
X117785960Y-106554435D01*
X117718980Y-106314344D01*
X117583240Y-106250515D01*
X117661727Y-106218005D01*
X117890535Y-106065120D01*
X118085120Y-105870535D01*
X118238005Y-105641727D01*
X118343314Y-105387490D01*
X118397000Y-105117592D01*
X118397000Y-104842408D01*
X118343314Y-104572510D01*
X118238005Y-104318273D01*
X118085120Y-104089465D01*
X117890535Y-103894880D01*
X117661727Y-103741995D01*
X117584485Y-103710000D01*
X117661727Y-103678005D01*
X117890535Y-103525120D01*
X118085120Y-103330535D01*
X118238005Y-103101727D01*
X118343314Y-102847490D01*
X118397000Y-102577592D01*
X118397000Y-102302408D01*
X118343314Y-102032510D01*
X118238005Y-101778273D01*
X118085120Y-101549465D01*
X117890535Y-101354880D01*
X117661727Y-101201995D01*
X117584485Y-101170000D01*
X117661727Y-101138005D01*
X117890535Y-100985120D01*
X118085120Y-100790535D01*
X118238005Y-100561727D01*
X118343314Y-100307490D01*
X118397000Y-100037592D01*
X118397000Y-99762408D01*
X118343314Y-99492510D01*
X118238005Y-99238273D01*
X118085120Y-99009465D01*
X117890535Y-98814880D01*
X117661727Y-98661995D01*
X117584485Y-98630000D01*
X117661727Y-98598005D01*
X117890535Y-98445120D01*
X118085120Y-98250535D01*
X118238005Y-98021727D01*
X118343314Y-97767490D01*
X118397000Y-97497592D01*
X118397000Y-97222408D01*
X118394023Y-97207438D01*
X119478390Y-97207438D01*
X119478390Y-97392562D01*
X119514506Y-97574129D01*
X119585350Y-97745162D01*
X119688200Y-97899087D01*
X119819103Y-98029990D01*
X119973028Y-98132840D01*
X120144061Y-98203684D01*
X120325628Y-98239800D01*
X120510752Y-98239800D01*
X120692319Y-98203684D01*
X120863352Y-98132840D01*
X120969371Y-98062000D01*
X121962573Y-98062000D01*
X121999996Y-98065686D01*
X122037419Y-98062000D01*
X122037422Y-98062000D01*
X122149374Y-98050974D01*
X122293011Y-98007402D01*
X122425388Y-97936645D01*
X122541418Y-97841422D01*
X122565280Y-97812346D01*
X123410196Y-96967431D01*
X126511000Y-100068236D01*
X126511001Y-110921448D01*
X126496316Y-110956901D01*
X126460200Y-111138468D01*
X126460200Y-111323592D01*
X126496316Y-111505159D01*
X126567160Y-111676192D01*
X126670010Y-111830117D01*
X126800913Y-111961020D01*
X126954838Y-112063870D01*
X126990289Y-112078554D01*
X128919069Y-114007334D01*
X128946909Y-114041257D01*
X129082277Y-114152351D01*
X129236717Y-114234901D01*
X129302626Y-114254894D01*
X129404292Y-114285734D01*
X129437492Y-114289004D01*
X129534901Y-114298598D01*
X129534907Y-114298598D01*
X129578567Y-114302898D01*
X129622227Y-114298598D01*
X133533351Y-114298598D01*
X133577011Y-114302898D01*
X133620671Y-114298598D01*
X133620678Y-114298598D01*
X133751285Y-114285734D01*
X133918862Y-114234901D01*
X134073302Y-114152351D01*
X134208670Y-114041257D01*
X134236510Y-114007334D01*
X134291521Y-113952323D01*
X134326972Y-113937639D01*
X134480897Y-113834789D01*
X134611800Y-113703886D01*
X134714650Y-113549961D01*
X134785494Y-113378928D01*
X134821610Y-113197361D01*
X134821610Y-113012237D01*
X134785494Y-112830670D01*
X134714650Y-112659637D01*
X134611800Y-112505712D01*
X134480897Y-112374809D01*
X134326972Y-112271959D01*
X134155939Y-112201115D01*
X133974372Y-112164999D01*
X133789248Y-112164999D01*
X133607681Y-112201115D01*
X133436648Y-112271959D01*
X133282723Y-112374809D01*
X133151820Y-112505712D01*
X133141873Y-112520598D01*
X131691488Y-112520598D01*
X131691488Y-112477520D01*
X131655372Y-112295953D01*
X131584528Y-112124920D01*
X131513688Y-112018901D01*
X131513688Y-107592017D01*
X140998090Y-107592017D01*
X141039078Y-107864133D01*
X141132364Y-108123023D01*
X141194344Y-108238980D01*
X141434435Y-108305960D01*
X142220395Y-107520000D01*
X141434435Y-106734040D01*
X141194344Y-106801020D01*
X141077244Y-107050048D01*
X141010977Y-107317135D01*
X140998090Y-107592017D01*
X131513688Y-107592017D01*
X131513688Y-98647871D01*
X131517374Y-98610448D01*
X131513688Y-98573022D01*
X131502662Y-98461070D01*
X131459090Y-98317433D01*
X131388334Y-98185057D01*
X131388333Y-98185055D01*
X131353545Y-98142667D01*
X131293110Y-98069026D01*
X131264035Y-98045165D01*
X129899180Y-96680310D01*
X129874304Y-96555251D01*
X129803460Y-96384218D01*
X129700610Y-96230293D01*
X129569707Y-96099390D01*
X129415782Y-95996540D01*
X129244749Y-95925696D01*
X129063182Y-95889580D01*
X128878058Y-95889580D01*
X128696491Y-95925696D01*
X128525458Y-95996540D01*
X128371533Y-96099390D01*
X128275000Y-96195923D01*
X128249087Y-96170010D01*
X128095162Y-96067160D01*
X127924129Y-95996316D01*
X127742562Y-95960200D01*
X127557438Y-95960200D01*
X127375871Y-95996316D01*
X127204838Y-96067160D01*
X127050913Y-96170010D01*
X126920010Y-96300913D01*
X126817160Y-96454838D01*
X126746316Y-96625871D01*
X126710200Y-96807438D01*
X126710200Y-96992562D01*
X126746316Y-97174129D01*
X126817160Y-97345162D01*
X126920010Y-97499087D01*
X127050913Y-97629990D01*
X127204838Y-97732840D01*
X127375871Y-97803684D01*
X127500930Y-97828560D01*
X129260155Y-99587786D01*
X129260156Y-111667853D01*
X129193626Y-111767421D01*
X128289000Y-110862795D01*
X128289000Y-99743660D01*
X128293300Y-99700000D01*
X128289000Y-99656340D01*
X128289000Y-99656333D01*
X128276136Y-99525726D01*
X128225303Y-99358149D01*
X128142753Y-99203709D01*
X128031659Y-99068341D01*
X127997743Y-99040507D01*
X124664674Y-95707438D01*
X134460200Y-95707438D01*
X134460200Y-95892562D01*
X134496316Y-96074129D01*
X134567160Y-96245162D01*
X134670010Y-96399087D01*
X134800913Y-96529990D01*
X134954838Y-96632840D01*
X135125871Y-96703684D01*
X135126099Y-96703729D01*
X135834716Y-97412346D01*
X135858578Y-97441422D01*
X135927022Y-97497592D01*
X135974607Y-97536645D01*
X136017123Y-97559370D01*
X136106985Y-97607402D01*
X136250622Y-97650974D01*
X136362574Y-97662000D01*
X136362577Y-97662000D01*
X136400000Y-97665686D01*
X136437423Y-97662000D01*
X137848819Y-97662000D01*
X137954838Y-97732840D01*
X138125871Y-97803684D01*
X138307438Y-97839800D01*
X138492562Y-97839800D01*
X138674129Y-97803684D01*
X138845162Y-97732840D01*
X138999087Y-97629990D01*
X139129990Y-97499087D01*
X139232840Y-97345162D01*
X139303684Y-97174129D01*
X139339800Y-96992562D01*
X139339800Y-96807438D01*
X139303684Y-96625871D01*
X139232840Y-96454838D01*
X139129990Y-96300913D01*
X138999087Y-96170010D01*
X138845162Y-96067160D01*
X138674129Y-95996316D01*
X138492562Y-95960200D01*
X138307438Y-95960200D01*
X138125871Y-95996316D01*
X137954838Y-96067160D01*
X137848819Y-96138000D01*
X136715630Y-96138000D01*
X136339800Y-95762170D01*
X136339800Y-95707438D01*
X136303684Y-95525871D01*
X136232840Y-95354838D01*
X136129990Y-95200913D01*
X135999087Y-95070010D01*
X135845162Y-94967160D01*
X135674129Y-94896316D01*
X135492562Y-94860200D01*
X135307438Y-94860200D01*
X135125871Y-94896316D01*
X134954838Y-94967160D01*
X134800913Y-95070010D01*
X134670010Y-95200913D01*
X134567160Y-95354838D01*
X134496316Y-95525871D01*
X134460200Y-95707438D01*
X124664674Y-95707438D01*
X124388998Y-95431763D01*
X124388998Y-93807438D01*
X135446580Y-93807438D01*
X135446580Y-93992562D01*
X135482696Y-94174129D01*
X135553540Y-94345162D01*
X135656390Y-94499087D01*
X135787293Y-94629990D01*
X135941218Y-94732840D01*
X136112251Y-94803684D01*
X136293818Y-94839800D01*
X136478942Y-94839800D01*
X136660509Y-94803684D01*
X136831542Y-94732840D01*
X136937561Y-94662000D01*
X137848819Y-94662000D01*
X137954838Y-94732840D01*
X138125871Y-94803684D01*
X138307438Y-94839800D01*
X138492562Y-94839800D01*
X138674129Y-94803684D01*
X138845162Y-94732840D01*
X138999087Y-94629990D01*
X139129990Y-94499087D01*
X139232840Y-94345162D01*
X139303684Y-94174129D01*
X139339800Y-93992562D01*
X139339800Y-93807438D01*
X139303684Y-93625871D01*
X139232840Y-93454838D01*
X139129990Y-93300913D01*
X138999087Y-93170010D01*
X138845162Y-93067160D01*
X138674129Y-92996316D01*
X138492562Y-92960200D01*
X138307438Y-92960200D01*
X138125871Y-92996316D01*
X137954838Y-93067160D01*
X137848819Y-93138000D01*
X136937561Y-93138000D01*
X136831542Y-93067160D01*
X136660509Y-92996316D01*
X136478942Y-92960200D01*
X136293818Y-92960200D01*
X136112251Y-92996316D01*
X135941218Y-93067160D01*
X135787293Y-93170010D01*
X135656390Y-93300913D01*
X135553540Y-93454838D01*
X135482696Y-93625871D01*
X135446580Y-93807438D01*
X124388998Y-93807438D01*
X124388998Y-91750280D01*
X134828390Y-91750280D01*
X134828390Y-91935404D01*
X134864506Y-92116971D01*
X134935350Y-92288004D01*
X135038200Y-92441929D01*
X135169103Y-92572832D01*
X135323028Y-92675682D01*
X135494061Y-92746526D01*
X135675628Y-92782642D01*
X135860752Y-92782642D01*
X136042319Y-92746526D01*
X136213352Y-92675682D01*
X136233828Y-92662000D01*
X137848819Y-92662000D01*
X137954838Y-92732840D01*
X138125871Y-92803684D01*
X138307438Y-92839800D01*
X138492562Y-92839800D01*
X138674129Y-92803684D01*
X138845162Y-92732840D01*
X138999087Y-92629990D01*
X139129990Y-92499087D01*
X139232840Y-92345162D01*
X139303684Y-92174129D01*
X139339800Y-91992562D01*
X139339800Y-91807438D01*
X139303684Y-91625871D01*
X139232840Y-91454838D01*
X139129990Y-91300913D01*
X138999087Y-91170010D01*
X138845162Y-91067160D01*
X138674129Y-90996316D01*
X138492562Y-90960200D01*
X138307438Y-90960200D01*
X138125871Y-90996316D01*
X137954838Y-91067160D01*
X137848819Y-91138000D01*
X136392425Y-91138000D01*
X136367277Y-91112852D01*
X136213352Y-91010002D01*
X136042319Y-90939158D01*
X135860752Y-90903042D01*
X135675628Y-90903042D01*
X135494061Y-90939158D01*
X135323028Y-91010002D01*
X135169103Y-91112852D01*
X135038200Y-91243755D01*
X134935350Y-91397680D01*
X134864506Y-91568713D01*
X134828390Y-91750280D01*
X124388998Y-91750280D01*
X124388998Y-89409579D01*
X124403682Y-89374129D01*
X124439798Y-89192562D01*
X124439798Y-89007438D01*
X124403682Y-88825871D01*
X124388998Y-88790421D01*
X124388998Y-82940079D01*
X124429990Y-82899087D01*
X124532840Y-82745162D01*
X124603684Y-82574129D01*
X124639800Y-82392562D01*
X124639800Y-82207438D01*
X124603684Y-82025871D01*
X124532840Y-81854838D01*
X124429990Y-81700913D01*
X124299087Y-81570010D01*
X124145162Y-81467160D01*
X123974129Y-81396316D01*
X123792562Y-81360200D01*
X123607438Y-81360200D01*
X123425871Y-81396316D01*
X123254838Y-81467160D01*
X123100913Y-81570010D01*
X122970010Y-81700913D01*
X122867160Y-81854838D01*
X122854663Y-81885008D01*
X122840505Y-81902260D01*
X122840503Y-81902262D01*
X122757246Y-82003711D01*
X122674696Y-82158150D01*
X122623862Y-82325728D01*
X122606698Y-82500002D01*
X122610999Y-82543672D01*
X122610998Y-88790420D01*
X122596314Y-88825871D01*
X122560198Y-89007438D01*
X122560198Y-89192562D01*
X122596314Y-89374129D01*
X122610998Y-89409579D01*
X122610998Y-89574718D01*
X122610999Y-89574728D01*
X122610998Y-95611367D01*
X121684366Y-96538000D01*
X120969371Y-96538000D01*
X120863352Y-96467160D01*
X120692319Y-96396316D01*
X120510752Y-96360200D01*
X120325628Y-96360200D01*
X120144061Y-96396316D01*
X119973028Y-96467160D01*
X119819103Y-96570010D01*
X119688200Y-96700913D01*
X119585350Y-96854838D01*
X119514506Y-97025871D01*
X119478390Y-97207438D01*
X118394023Y-97207438D01*
X118343314Y-96952510D01*
X118238005Y-96698273D01*
X118085120Y-96469465D01*
X117890535Y-96274880D01*
X117661727Y-96121995D01*
X117584485Y-96090000D01*
X117661727Y-96058005D01*
X117890535Y-95905120D01*
X118085120Y-95710535D01*
X118238005Y-95481727D01*
X118343314Y-95227490D01*
X118397000Y-94957592D01*
X118397000Y-94682408D01*
X118343314Y-94412510D01*
X118238005Y-94158273D01*
X118085120Y-93929465D01*
X117890535Y-93734880D01*
X117661727Y-93581995D01*
X117584485Y-93550000D01*
X117661727Y-93518005D01*
X117890535Y-93365120D01*
X118085120Y-93170535D01*
X118238005Y-92941727D01*
X118343314Y-92687490D01*
X118397000Y-92417592D01*
X118397000Y-92142408D01*
X118343314Y-91872510D01*
X118238005Y-91618273D01*
X118085120Y-91389465D01*
X117890535Y-91194880D01*
X117661727Y-91041995D01*
X117584485Y-91010000D01*
X117661727Y-90978005D01*
X117890535Y-90825120D01*
X118085120Y-90630535D01*
X118238005Y-90401727D01*
X118343314Y-90147490D01*
X118397000Y-89877592D01*
X118397000Y-89602408D01*
X118343314Y-89332510D01*
X118238005Y-89078273D01*
X118085120Y-88849465D01*
X117890535Y-88654880D01*
X117661727Y-88501995D01*
X117584485Y-88470000D01*
X117661727Y-88438005D01*
X117890535Y-88285120D01*
X118085120Y-88090535D01*
X118238005Y-87861727D01*
X118343314Y-87607490D01*
X118397000Y-87337592D01*
X118397000Y-87062408D01*
X118343314Y-86792510D01*
X118238005Y-86538273D01*
X118085120Y-86309465D01*
X117890535Y-86114880D01*
X117661727Y-85961995D01*
X117584485Y-85930000D01*
X117661727Y-85898005D01*
X117890535Y-85745120D01*
X118085120Y-85550535D01*
X118238005Y-85321727D01*
X118343314Y-85067490D01*
X118397000Y-84797592D01*
X118397000Y-84522408D01*
X118343314Y-84252510D01*
X118238005Y-83998273D01*
X118085120Y-83769465D01*
X117890535Y-83574880D01*
X117661727Y-83421995D01*
X117584485Y-83390000D01*
X117661727Y-83358005D01*
X117890535Y-83205120D01*
X118085120Y-83010535D01*
X118238005Y-82781727D01*
X118343314Y-82527490D01*
X118397000Y-82257592D01*
X118397000Y-81982408D01*
X118343314Y-81712510D01*
X118238005Y-81458273D01*
X118085120Y-81229465D01*
X117890535Y-81034880D01*
X117661727Y-80881995D01*
X117584485Y-80850000D01*
X117661727Y-80818005D01*
X117890535Y-80665120D01*
X118085120Y-80470535D01*
X118238005Y-80241727D01*
X118343314Y-79987490D01*
X118397000Y-79717592D01*
X118397000Y-79442408D01*
X118343314Y-79172510D01*
X118238005Y-78918273D01*
X118085120Y-78689465D01*
X117890535Y-78494880D01*
X117661727Y-78341995D01*
X117584485Y-78310000D01*
X117661727Y-78278005D01*
X117890535Y-78125120D01*
X118085120Y-77930535D01*
X118238005Y-77701727D01*
X118343314Y-77447490D01*
X118397000Y-77177592D01*
X118397000Y-76902408D01*
X118343314Y-76632510D01*
X118238005Y-76378273D01*
X118085120Y-76149465D01*
X117890535Y-75954880D01*
X117802535Y-75896080D01*
X117886482Y-75887812D01*
X118006180Y-75851502D01*
X118116494Y-75792537D01*
X118213185Y-75713185D01*
X118292537Y-75616494D01*
X118351502Y-75506180D01*
X118387812Y-75386482D01*
X118400072Y-75262000D01*
X118400072Y-73738000D01*
X118387812Y-73613518D01*
X118351502Y-73493820D01*
X118292537Y-73383506D01*
X118213185Y-73286815D01*
X118116494Y-73207463D01*
X118006180Y-73148498D01*
X117886482Y-73112188D01*
X117762000Y-73099928D01*
X116238000Y-73099928D01*
X116113518Y-73112188D01*
X115993820Y-73148498D01*
X115883506Y-73207463D01*
X115827000Y-73253836D01*
X115827000Y-73106234D01*
X115844376Y-72929811D01*
X115894022Y-72766150D01*
X115974638Y-72615328D01*
X116083130Y-72483130D01*
X116215328Y-72374638D01*
X116366150Y-72294022D01*
X116529811Y-72244376D01*
X116706234Y-72227000D01*
X142693766Y-72227000D01*
X142870189Y-72244376D01*
%TA.AperFunction,Conductor*%
D16*
G36*
X142870189Y-72244376D02*
G01*
X143033850Y-72294022D01*
X143184672Y-72374638D01*
X143316870Y-72483130D01*
X143425362Y-72615328D01*
X143505978Y-72766150D01*
X143555624Y-72929811D01*
X143573000Y-73106234D01*
X143573000Y-73740986D01*
X143485120Y-73609465D01*
X143290535Y-73414880D01*
X143061727Y-73261995D01*
X142807490Y-73156686D01*
X142537592Y-73103000D01*
X142262408Y-73103000D01*
X141992510Y-73156686D01*
X141738273Y-73261995D01*
X141509465Y-73414880D01*
X141314880Y-73609465D01*
X141161995Y-73838273D01*
X141056686Y-74092510D01*
X141003000Y-74362408D01*
X141003000Y-74637592D01*
X141056686Y-74907490D01*
X141161995Y-75161727D01*
X141314880Y-75390535D01*
X141509465Y-75585120D01*
X141738273Y-75738005D01*
X141815515Y-75770000D01*
X141738273Y-75801995D01*
X141509465Y-75954880D01*
X141314880Y-76149465D01*
X141161995Y-76378273D01*
X141056686Y-76632510D01*
X141003000Y-76902408D01*
X141003000Y-77177592D01*
X141056686Y-77447490D01*
X141161995Y-77701727D01*
X141314880Y-77930535D01*
X141509465Y-78125120D01*
X141738273Y-78278005D01*
X141815515Y-78310000D01*
X141738273Y-78341995D01*
X141509465Y-78494880D01*
X141314880Y-78689465D01*
X141161995Y-78918273D01*
X141056686Y-79172510D01*
X141003000Y-79442408D01*
X141003000Y-79717592D01*
X141056686Y-79987490D01*
X141161995Y-80241727D01*
X141314880Y-80470535D01*
X141509465Y-80665120D01*
X141738273Y-80818005D01*
X141815515Y-80850000D01*
X141738273Y-80881995D01*
X141509465Y-81034880D01*
X141314880Y-81229465D01*
X141161995Y-81458273D01*
X141056686Y-81712510D01*
X141003000Y-81982408D01*
X141003000Y-82257592D01*
X141056686Y-82527490D01*
X141161995Y-82781727D01*
X141314880Y-83010535D01*
X141509465Y-83205120D01*
X141738273Y-83358005D01*
X141815515Y-83390000D01*
X141738273Y-83421995D01*
X141509465Y-83574880D01*
X141314880Y-83769465D01*
X141161995Y-83998273D01*
X141056686Y-84252510D01*
X141003000Y-84522408D01*
X141003000Y-84797592D01*
X141056686Y-85067490D01*
X141161995Y-85321727D01*
X141314880Y-85550535D01*
X141509465Y-85745120D01*
X141738273Y-85898005D01*
X141815515Y-85930000D01*
X141738273Y-85961995D01*
X141509465Y-86114880D01*
X141314880Y-86309465D01*
X141161995Y-86538273D01*
X141056686Y-86792510D01*
X141003000Y-87062408D01*
X141003000Y-87337592D01*
X141056686Y-87607490D01*
X141161995Y-87861727D01*
X141314880Y-88090535D01*
X141509465Y-88285120D01*
X141738273Y-88438005D01*
X141815515Y-88470000D01*
X141738273Y-88501995D01*
X141509465Y-88654880D01*
X141314880Y-88849465D01*
X141161995Y-89078273D01*
X141056686Y-89332510D01*
X141003000Y-89602408D01*
X141003000Y-89877592D01*
X141056686Y-90147490D01*
X141161995Y-90401727D01*
X141314880Y-90630535D01*
X141509465Y-90825120D01*
X141738273Y-90978005D01*
X141815515Y-91010000D01*
X141738273Y-91041995D01*
X141509465Y-91194880D01*
X141314880Y-91389465D01*
X141161995Y-91618273D01*
X141056686Y-91872510D01*
X141003000Y-92142408D01*
X141003000Y-92417592D01*
X141056686Y-92687490D01*
X141161995Y-92941727D01*
X141314880Y-93170535D01*
X141509465Y-93365120D01*
X141738273Y-93518005D01*
X141815515Y-93550000D01*
X141738273Y-93581995D01*
X141509465Y-93734880D01*
X141314880Y-93929465D01*
X141161995Y-94158273D01*
X141056686Y-94412510D01*
X141003000Y-94682408D01*
X141003000Y-94957592D01*
X141056686Y-95227490D01*
X141161995Y-95481727D01*
X141314880Y-95710535D01*
X141509465Y-95905120D01*
X141738273Y-96058005D01*
X141815515Y-96090000D01*
X141738273Y-96121995D01*
X141509465Y-96274880D01*
X141314880Y-96469465D01*
X141161995Y-96698273D01*
X141056686Y-96952510D01*
X141003000Y-97222408D01*
X141003000Y-97497592D01*
X141056686Y-97767490D01*
X141161995Y-98021727D01*
X141314880Y-98250535D01*
X141509465Y-98445120D01*
X141738273Y-98598005D01*
X141815515Y-98630000D01*
X141738273Y-98661995D01*
X141509465Y-98814880D01*
X141314880Y-99009465D01*
X141161995Y-99238273D01*
X141056686Y-99492510D01*
X141003000Y-99762408D01*
X141003000Y-100037592D01*
X141056686Y-100307490D01*
X141161995Y-100561727D01*
X141314880Y-100790535D01*
X141509465Y-100985120D01*
X141738273Y-101138005D01*
X141815515Y-101170000D01*
X141738273Y-101201995D01*
X141509465Y-101354880D01*
X141314880Y-101549465D01*
X141161995Y-101778273D01*
X141056686Y-102032510D01*
X141003000Y-102302408D01*
X141003000Y-102577592D01*
X141056686Y-102847490D01*
X141161995Y-103101727D01*
X141314880Y-103330535D01*
X141509465Y-103525120D01*
X141738273Y-103678005D01*
X141815515Y-103710000D01*
X141738273Y-103741995D01*
X141509465Y-103894880D01*
X141314880Y-104089465D01*
X141161995Y-104318273D01*
X141056686Y-104572510D01*
X141003000Y-104842408D01*
X141003000Y-105117592D01*
X141056686Y-105387490D01*
X141161995Y-105641727D01*
X141314880Y-105870535D01*
X141509465Y-106065120D01*
X141738273Y-106218005D01*
X141809943Y-106247692D01*
X141796977Y-106252364D01*
X141681020Y-106314344D01*
X141614040Y-106554435D01*
X142400000Y-107340395D01*
X143185960Y-106554435D01*
X143118980Y-106314344D01*
X142983240Y-106250515D01*
X143061727Y-106218005D01*
X143290535Y-106065120D01*
X143485120Y-105870535D01*
X143573000Y-105739014D01*
X143573000Y-106791910D01*
X143365565Y-106734040D01*
X142579605Y-107520000D01*
X143365565Y-108305960D01*
X143573000Y-108248090D01*
X143573000Y-109300986D01*
X143485120Y-109169465D01*
X143290535Y-108974880D01*
X143061727Y-108821995D01*
X142990057Y-108792308D01*
X143003023Y-108787636D01*
X143118980Y-108725656D01*
X143185960Y-108485565D01*
X142400000Y-107699605D01*
X141614040Y-108485565D01*
X141681020Y-108725656D01*
X141816760Y-108789485D01*
X141738273Y-108821995D01*
X141509465Y-108974880D01*
X141314880Y-109169465D01*
X141161995Y-109398273D01*
X141056686Y-109652510D01*
X141003000Y-109922408D01*
X141003000Y-110197592D01*
X141056686Y-110467490D01*
X141161995Y-110721727D01*
X141314880Y-110950535D01*
X141509465Y-111145120D01*
X141738273Y-111298005D01*
X141992510Y-111403314D01*
X142262408Y-111457000D01*
X142537592Y-111457000D01*
X142807490Y-111403314D01*
X143061727Y-111298005D01*
X143290535Y-111145120D01*
X143485120Y-110950535D01*
X143573000Y-110819014D01*
X143573000Y-118493766D01*
X143555624Y-118670189D01*
X143505978Y-118833850D01*
X143425362Y-118984672D01*
X143316870Y-119116870D01*
X143184672Y-119225362D01*
X143033850Y-119305978D01*
X142921694Y-119340000D01*
X116478306Y-119340000D01*
X116366150Y-119305978D01*
X116215328Y-119225362D01*
X116083130Y-119116870D01*
X115974638Y-118984672D01*
X115894022Y-118833850D01*
X115844376Y-118670189D01*
X115827000Y-118493766D01*
X115827000Y-112607438D01*
X117660190Y-112607438D01*
X117660190Y-112792562D01*
X117696306Y-112974129D01*
X117767150Y-113145162D01*
X117870000Y-113299087D01*
X118000903Y-113429990D01*
X118154828Y-113532840D01*
X118325861Y-113603684D01*
X118507428Y-113639800D01*
X118692552Y-113639800D01*
X118874119Y-113603684D01*
X118909569Y-113589000D01*
X120208231Y-113589000D01*
X120251891Y-113593300D01*
X120295551Y-113589000D01*
X120295558Y-113589000D01*
X120426165Y-113576136D01*
X120593742Y-113525303D01*
X120748182Y-113442753D01*
X120883550Y-113331659D01*
X120911390Y-113297736D01*
X123940081Y-110269046D01*
X123957642Y-110272539D01*
X124142766Y-110272539D01*
X124324333Y-110236423D01*
X124495366Y-110165579D01*
X124649291Y-110062729D01*
X124780194Y-109931826D01*
X124883044Y-109777901D01*
X124953888Y-109606868D01*
X124990004Y-109425301D01*
X124990004Y-109240177D01*
X124953888Y-109058610D01*
X124883044Y-108887577D01*
X124780194Y-108733652D01*
X124649291Y-108602749D01*
X124495366Y-108499899D01*
X124324333Y-108429055D01*
X124142766Y-108392939D01*
X123957642Y-108392939D01*
X123776075Y-108429055D01*
X123740625Y-108443739D01*
X123662811Y-108443739D01*
X123619151Y-108439439D01*
X123575491Y-108443739D01*
X123575485Y-108443739D01*
X123478076Y-108453333D01*
X123444876Y-108456603D01*
X123349401Y-108485565D01*
X123277301Y-108507436D01*
X123122861Y-108589986D01*
X122987493Y-108701080D01*
X122959658Y-108734997D01*
X119883656Y-111811000D01*
X118909569Y-111811000D01*
X118874119Y-111796316D01*
X118692552Y-111760200D01*
X118507428Y-111760200D01*
X118325861Y-111796316D01*
X118154828Y-111867160D01*
X118000903Y-111970010D01*
X117870000Y-112100913D01*
X117767150Y-112254838D01*
X117696306Y-112425871D01*
X117660190Y-112607438D01*
X115827000Y-112607438D01*
X115827000Y-110819014D01*
X115914880Y-110950535D01*
X116109465Y-111145120D01*
X116338273Y-111298005D01*
X116592510Y-111403314D01*
X116862408Y-111457000D01*
X117137592Y-111457000D01*
X117407490Y-111403314D01*
X117661727Y-111298005D01*
X117890535Y-111145120D01*
X118085120Y-110950535D01*
X118238005Y-110721727D01*
X118343314Y-110467490D01*
X118397000Y-110197592D01*
X118397000Y-109922408D01*
X118343314Y-109652510D01*
X118238005Y-109398273D01*
X118085120Y-109169465D01*
X117890535Y-108974880D01*
X117661727Y-108821995D01*
X117590057Y-108792308D01*
X117603023Y-108787636D01*
X117718980Y-108725656D01*
X117785960Y-108485565D01*
X117000000Y-107699605D01*
X116214040Y-108485565D01*
X116281020Y-108725656D01*
X116416760Y-108789485D01*
X116338273Y-108821995D01*
X116109465Y-108974880D01*
X115914880Y-109169465D01*
X115827000Y-109300986D01*
X115827000Y-108248090D01*
X116034435Y-108305960D01*
X116820395Y-107520000D01*
X117179605Y-107520000D01*
X117965565Y-108305960D01*
X118205656Y-108238980D01*
X118322756Y-107989952D01*
X118389023Y-107722865D01*
X118401910Y-107447983D01*
X118360922Y-107175867D01*
X118267636Y-106916977D01*
X118205656Y-106801020D01*
X117965565Y-106734040D01*
X117179605Y-107520000D01*
X116820395Y-107520000D01*
X116034435Y-106734040D01*
X115827000Y-106791910D01*
X115827000Y-105739014D01*
X115914880Y-105870535D01*
X116109465Y-106065120D01*
X116338273Y-106218005D01*
X116409943Y-106247692D01*
X116396977Y-106252364D01*
X116281020Y-106314344D01*
X116214040Y-106554435D01*
X117000000Y-107340395D01*
X117785960Y-106554435D01*
X117718980Y-106314344D01*
X117583240Y-106250515D01*
X117661727Y-106218005D01*
X117890535Y-106065120D01*
X118085120Y-105870535D01*
X118238005Y-105641727D01*
X118343314Y-105387490D01*
X118397000Y-105117592D01*
X118397000Y-104842408D01*
X118343314Y-104572510D01*
X118238005Y-104318273D01*
X118085120Y-104089465D01*
X117890535Y-103894880D01*
X117661727Y-103741995D01*
X117584485Y-103710000D01*
X117661727Y-103678005D01*
X117890535Y-103525120D01*
X118085120Y-103330535D01*
X118238005Y-103101727D01*
X118343314Y-102847490D01*
X118397000Y-102577592D01*
X118397000Y-102302408D01*
X118343314Y-102032510D01*
X118238005Y-101778273D01*
X118085120Y-101549465D01*
X117890535Y-101354880D01*
X117661727Y-101201995D01*
X117584485Y-101170000D01*
X117661727Y-101138005D01*
X117890535Y-100985120D01*
X118085120Y-100790535D01*
X118238005Y-100561727D01*
X118343314Y-100307490D01*
X118397000Y-100037592D01*
X118397000Y-99762408D01*
X118343314Y-99492510D01*
X118238005Y-99238273D01*
X118085120Y-99009465D01*
X117890535Y-98814880D01*
X117661727Y-98661995D01*
X117584485Y-98630000D01*
X117661727Y-98598005D01*
X117890535Y-98445120D01*
X118085120Y-98250535D01*
X118238005Y-98021727D01*
X118343314Y-97767490D01*
X118397000Y-97497592D01*
X118397000Y-97222408D01*
X118394023Y-97207438D01*
X119478390Y-97207438D01*
X119478390Y-97392562D01*
X119514506Y-97574129D01*
X119585350Y-97745162D01*
X119688200Y-97899087D01*
X119819103Y-98029990D01*
X119973028Y-98132840D01*
X120144061Y-98203684D01*
X120325628Y-98239800D01*
X120510752Y-98239800D01*
X120692319Y-98203684D01*
X120863352Y-98132840D01*
X120969371Y-98062000D01*
X121962573Y-98062000D01*
X121999996Y-98065686D01*
X122037419Y-98062000D01*
X122037422Y-98062000D01*
X122149374Y-98050974D01*
X122293011Y-98007402D01*
X122425388Y-97936645D01*
X122541418Y-97841422D01*
X122565280Y-97812346D01*
X123410196Y-96967431D01*
X126511000Y-100068236D01*
X126511001Y-110921448D01*
X126496316Y-110956901D01*
X126460200Y-111138468D01*
X126460200Y-111323592D01*
X126496316Y-111505159D01*
X126567160Y-111676192D01*
X126670010Y-111830117D01*
X126800913Y-111961020D01*
X126954838Y-112063870D01*
X126990289Y-112078554D01*
X128919069Y-114007334D01*
X128946909Y-114041257D01*
X129082277Y-114152351D01*
X129236717Y-114234901D01*
X129302626Y-114254894D01*
X129404292Y-114285734D01*
X129437492Y-114289004D01*
X129534901Y-114298598D01*
X129534907Y-114298598D01*
X129578567Y-114302898D01*
X129622227Y-114298598D01*
X133533351Y-114298598D01*
X133577011Y-114302898D01*
X133620671Y-114298598D01*
X133620678Y-114298598D01*
X133751285Y-114285734D01*
X133918862Y-114234901D01*
X134073302Y-114152351D01*
X134208670Y-114041257D01*
X134236510Y-114007334D01*
X134291521Y-113952323D01*
X134326972Y-113937639D01*
X134480897Y-113834789D01*
X134611800Y-113703886D01*
X134714650Y-113549961D01*
X134785494Y-113378928D01*
X134821610Y-113197361D01*
X134821610Y-113012237D01*
X134785494Y-112830670D01*
X134714650Y-112659637D01*
X134611800Y-112505712D01*
X134480897Y-112374809D01*
X134326972Y-112271959D01*
X134155939Y-112201115D01*
X133974372Y-112164999D01*
X133789248Y-112164999D01*
X133607681Y-112201115D01*
X133436648Y-112271959D01*
X133282723Y-112374809D01*
X133151820Y-112505712D01*
X133141873Y-112520598D01*
X131691488Y-112520598D01*
X131691488Y-112477520D01*
X131655372Y-112295953D01*
X131584528Y-112124920D01*
X131513688Y-112018901D01*
X131513688Y-107592017D01*
X140998090Y-107592017D01*
X141039078Y-107864133D01*
X141132364Y-108123023D01*
X141194344Y-108238980D01*
X141434435Y-108305960D01*
X142220395Y-107520000D01*
X141434435Y-106734040D01*
X141194344Y-106801020D01*
X141077244Y-107050048D01*
X141010977Y-107317135D01*
X140998090Y-107592017D01*
X131513688Y-107592017D01*
X131513688Y-98647871D01*
X131517374Y-98610448D01*
X131513688Y-98573022D01*
X131502662Y-98461070D01*
X131459090Y-98317433D01*
X131388334Y-98185057D01*
X131388333Y-98185055D01*
X131353545Y-98142667D01*
X131293110Y-98069026D01*
X131264035Y-98045165D01*
X129899180Y-96680310D01*
X129874304Y-96555251D01*
X129803460Y-96384218D01*
X129700610Y-96230293D01*
X129569707Y-96099390D01*
X129415782Y-95996540D01*
X129244749Y-95925696D01*
X129063182Y-95889580D01*
X128878058Y-95889580D01*
X128696491Y-95925696D01*
X128525458Y-95996540D01*
X128371533Y-96099390D01*
X128275000Y-96195923D01*
X128249087Y-96170010D01*
X128095162Y-96067160D01*
X127924129Y-95996316D01*
X127742562Y-95960200D01*
X127557438Y-95960200D01*
X127375871Y-95996316D01*
X127204838Y-96067160D01*
X127050913Y-96170010D01*
X126920010Y-96300913D01*
X126817160Y-96454838D01*
X126746316Y-96625871D01*
X126710200Y-96807438D01*
X126710200Y-96992562D01*
X126746316Y-97174129D01*
X126817160Y-97345162D01*
X126920010Y-97499087D01*
X127050913Y-97629990D01*
X127204838Y-97732840D01*
X127375871Y-97803684D01*
X127500930Y-97828560D01*
X129260155Y-99587786D01*
X129260156Y-111667853D01*
X129193626Y-111767421D01*
X128289000Y-110862795D01*
X128289000Y-99743660D01*
X128293300Y-99700000D01*
X128289000Y-99656340D01*
X128289000Y-99656333D01*
X128276136Y-99525726D01*
X128225303Y-99358149D01*
X128142753Y-99203709D01*
X128031659Y-99068341D01*
X127997743Y-99040507D01*
X124664674Y-95707438D01*
X134460200Y-95707438D01*
X134460200Y-95892562D01*
X134496316Y-96074129D01*
X134567160Y-96245162D01*
X134670010Y-96399087D01*
X134800913Y-96529990D01*
X134954838Y-96632840D01*
X135125871Y-96703684D01*
X135126099Y-96703729D01*
X135834716Y-97412346D01*
X135858578Y-97441422D01*
X135927022Y-97497592D01*
X135974607Y-97536645D01*
X136017123Y-97559370D01*
X136106985Y-97607402D01*
X136250622Y-97650974D01*
X136362574Y-97662000D01*
X136362577Y-97662000D01*
X136400000Y-97665686D01*
X136437423Y-97662000D01*
X137848819Y-97662000D01*
X137954838Y-97732840D01*
X138125871Y-97803684D01*
X138307438Y-97839800D01*
X138492562Y-97839800D01*
X138674129Y-97803684D01*
X138845162Y-97732840D01*
X138999087Y-97629990D01*
X139129990Y-97499087D01*
X139232840Y-97345162D01*
X139303684Y-97174129D01*
X139339800Y-96992562D01*
X139339800Y-96807438D01*
X139303684Y-96625871D01*
X139232840Y-96454838D01*
X139129990Y-96300913D01*
X138999087Y-96170010D01*
X138845162Y-96067160D01*
X138674129Y-95996316D01*
X138492562Y-95960200D01*
X138307438Y-95960200D01*
X138125871Y-95996316D01*
X137954838Y-96067160D01*
X137848819Y-96138000D01*
X136715630Y-96138000D01*
X136339800Y-95762170D01*
X136339800Y-95707438D01*
X136303684Y-95525871D01*
X136232840Y-95354838D01*
X136129990Y-95200913D01*
X135999087Y-95070010D01*
X135845162Y-94967160D01*
X135674129Y-94896316D01*
X135492562Y-94860200D01*
X135307438Y-94860200D01*
X135125871Y-94896316D01*
X134954838Y-94967160D01*
X134800913Y-95070010D01*
X134670010Y-95200913D01*
X134567160Y-95354838D01*
X134496316Y-95525871D01*
X134460200Y-95707438D01*
X124664674Y-95707438D01*
X124388998Y-95431763D01*
X124388998Y-93807438D01*
X135446580Y-93807438D01*
X135446580Y-93992562D01*
X135482696Y-94174129D01*
X135553540Y-94345162D01*
X135656390Y-94499087D01*
X135787293Y-94629990D01*
X135941218Y-94732840D01*
X136112251Y-94803684D01*
X136293818Y-94839800D01*
X136478942Y-94839800D01*
X136660509Y-94803684D01*
X136831542Y-94732840D01*
X136937561Y-94662000D01*
X137848819Y-94662000D01*
X137954838Y-94732840D01*
X138125871Y-94803684D01*
X138307438Y-94839800D01*
X138492562Y-94839800D01*
X138674129Y-94803684D01*
X138845162Y-94732840D01*
X138999087Y-94629990D01*
X139129990Y-94499087D01*
X139232840Y-94345162D01*
X139303684Y-94174129D01*
X139339800Y-93992562D01*
X139339800Y-93807438D01*
X139303684Y-93625871D01*
X139232840Y-93454838D01*
X139129990Y-93300913D01*
X138999087Y-93170010D01*
X138845162Y-93067160D01*
X138674129Y-92996316D01*
X138492562Y-92960200D01*
X138307438Y-92960200D01*
X138125871Y-92996316D01*
X137954838Y-93067160D01*
X137848819Y-93138000D01*
X136937561Y-93138000D01*
X136831542Y-93067160D01*
X136660509Y-92996316D01*
X136478942Y-92960200D01*
X136293818Y-92960200D01*
X136112251Y-92996316D01*
X135941218Y-93067160D01*
X135787293Y-93170010D01*
X135656390Y-93300913D01*
X135553540Y-93454838D01*
X135482696Y-93625871D01*
X135446580Y-93807438D01*
X124388998Y-93807438D01*
X124388998Y-91750280D01*
X134828390Y-91750280D01*
X134828390Y-91935404D01*
X134864506Y-92116971D01*
X134935350Y-92288004D01*
X135038200Y-92441929D01*
X135169103Y-92572832D01*
X135323028Y-92675682D01*
X135494061Y-92746526D01*
X135675628Y-92782642D01*
X135860752Y-92782642D01*
X136042319Y-92746526D01*
X136213352Y-92675682D01*
X136233828Y-92662000D01*
X137848819Y-92662000D01*
X137954838Y-92732840D01*
X138125871Y-92803684D01*
X138307438Y-92839800D01*
X138492562Y-92839800D01*
X138674129Y-92803684D01*
X138845162Y-92732840D01*
X138999087Y-92629990D01*
X139129990Y-92499087D01*
X139232840Y-92345162D01*
X139303684Y-92174129D01*
X139339800Y-91992562D01*
X139339800Y-91807438D01*
X139303684Y-91625871D01*
X139232840Y-91454838D01*
X139129990Y-91300913D01*
X138999087Y-91170010D01*
X138845162Y-91067160D01*
X138674129Y-90996316D01*
X138492562Y-90960200D01*
X138307438Y-90960200D01*
X138125871Y-90996316D01*
X137954838Y-91067160D01*
X137848819Y-91138000D01*
X136392425Y-91138000D01*
X136367277Y-91112852D01*
X136213352Y-91010002D01*
X136042319Y-90939158D01*
X135860752Y-90903042D01*
X135675628Y-90903042D01*
X135494061Y-90939158D01*
X135323028Y-91010002D01*
X135169103Y-91112852D01*
X135038200Y-91243755D01*
X134935350Y-91397680D01*
X134864506Y-91568713D01*
X134828390Y-91750280D01*
X124388998Y-91750280D01*
X124388998Y-89409579D01*
X124403682Y-89374129D01*
X124439798Y-89192562D01*
X124439798Y-89007438D01*
X124403682Y-88825871D01*
X124388998Y-88790421D01*
X124388998Y-82940079D01*
X124429990Y-82899087D01*
X124532840Y-82745162D01*
X124603684Y-82574129D01*
X124639800Y-82392562D01*
X124639800Y-82207438D01*
X124603684Y-82025871D01*
X124532840Y-81854838D01*
X124429990Y-81700913D01*
X124299087Y-81570010D01*
X124145162Y-81467160D01*
X123974129Y-81396316D01*
X123792562Y-81360200D01*
X123607438Y-81360200D01*
X123425871Y-81396316D01*
X123254838Y-81467160D01*
X123100913Y-81570010D01*
X122970010Y-81700913D01*
X122867160Y-81854838D01*
X122854663Y-81885008D01*
X122840505Y-81902260D01*
X122840503Y-81902262D01*
X122757246Y-82003711D01*
X122674696Y-82158150D01*
X122623862Y-82325728D01*
X122606698Y-82500002D01*
X122610999Y-82543672D01*
X122610998Y-88790420D01*
X122596314Y-88825871D01*
X122560198Y-89007438D01*
X122560198Y-89192562D01*
X122596314Y-89374129D01*
X122610998Y-89409579D01*
X122610998Y-89574718D01*
X122610999Y-89574728D01*
X122610998Y-95611367D01*
X121684366Y-96538000D01*
X120969371Y-96538000D01*
X120863352Y-96467160D01*
X120692319Y-96396316D01*
X120510752Y-96360200D01*
X120325628Y-96360200D01*
X120144061Y-96396316D01*
X119973028Y-96467160D01*
X119819103Y-96570010D01*
X119688200Y-96700913D01*
X119585350Y-96854838D01*
X119514506Y-97025871D01*
X119478390Y-97207438D01*
X118394023Y-97207438D01*
X118343314Y-96952510D01*
X118238005Y-96698273D01*
X118085120Y-96469465D01*
X117890535Y-96274880D01*
X117661727Y-96121995D01*
X117584485Y-96090000D01*
X117661727Y-96058005D01*
X117890535Y-95905120D01*
X118085120Y-95710535D01*
X118238005Y-95481727D01*
X118343314Y-95227490D01*
X118397000Y-94957592D01*
X118397000Y-94682408D01*
X118343314Y-94412510D01*
X118238005Y-94158273D01*
X118085120Y-93929465D01*
X117890535Y-93734880D01*
X117661727Y-93581995D01*
X117584485Y-93550000D01*
X117661727Y-93518005D01*
X117890535Y-93365120D01*
X118085120Y-93170535D01*
X118238005Y-92941727D01*
X118343314Y-92687490D01*
X118397000Y-92417592D01*
X118397000Y-92142408D01*
X118343314Y-91872510D01*
X118238005Y-91618273D01*
X118085120Y-91389465D01*
X117890535Y-91194880D01*
X117661727Y-91041995D01*
X117584485Y-91010000D01*
X117661727Y-90978005D01*
X117890535Y-90825120D01*
X118085120Y-90630535D01*
X118238005Y-90401727D01*
X118343314Y-90147490D01*
X118397000Y-89877592D01*
X118397000Y-89602408D01*
X118343314Y-89332510D01*
X118238005Y-89078273D01*
X118085120Y-88849465D01*
X117890535Y-88654880D01*
X117661727Y-88501995D01*
X117584485Y-88470000D01*
X117661727Y-88438005D01*
X117890535Y-88285120D01*
X118085120Y-88090535D01*
X118238005Y-87861727D01*
X118343314Y-87607490D01*
X118397000Y-87337592D01*
X118397000Y-87062408D01*
X118343314Y-86792510D01*
X118238005Y-86538273D01*
X118085120Y-86309465D01*
X117890535Y-86114880D01*
X117661727Y-85961995D01*
X117584485Y-85930000D01*
X117661727Y-85898005D01*
X117890535Y-85745120D01*
X118085120Y-85550535D01*
X118238005Y-85321727D01*
X118343314Y-85067490D01*
X118397000Y-84797592D01*
X118397000Y-84522408D01*
X118343314Y-84252510D01*
X118238005Y-83998273D01*
X118085120Y-83769465D01*
X117890535Y-83574880D01*
X117661727Y-83421995D01*
X117584485Y-83390000D01*
X117661727Y-83358005D01*
X117890535Y-83205120D01*
X118085120Y-83010535D01*
X118238005Y-82781727D01*
X118343314Y-82527490D01*
X118397000Y-82257592D01*
X118397000Y-81982408D01*
X118343314Y-81712510D01*
X118238005Y-81458273D01*
X118085120Y-81229465D01*
X117890535Y-81034880D01*
X117661727Y-80881995D01*
X117584485Y-80850000D01*
X117661727Y-80818005D01*
X117890535Y-80665120D01*
X118085120Y-80470535D01*
X118238005Y-80241727D01*
X118343314Y-79987490D01*
X118397000Y-79717592D01*
X118397000Y-79442408D01*
X118343314Y-79172510D01*
X118238005Y-78918273D01*
X118085120Y-78689465D01*
X117890535Y-78494880D01*
X117661727Y-78341995D01*
X117584485Y-78310000D01*
X117661727Y-78278005D01*
X117890535Y-78125120D01*
X118085120Y-77930535D01*
X118238005Y-77701727D01*
X118343314Y-77447490D01*
X118397000Y-77177592D01*
X118397000Y-76902408D01*
X118343314Y-76632510D01*
X118238005Y-76378273D01*
X118085120Y-76149465D01*
X117890535Y-75954880D01*
X117802535Y-75896080D01*
X117886482Y-75887812D01*
X118006180Y-75851502D01*
X118116494Y-75792537D01*
X118213185Y-75713185D01*
X118292537Y-75616494D01*
X118351502Y-75506180D01*
X118387812Y-75386482D01*
X118400072Y-75262000D01*
X118400072Y-73738000D01*
X118387812Y-73613518D01*
X118351502Y-73493820D01*
X118292537Y-73383506D01*
X118213185Y-73286815D01*
X118116494Y-73207463D01*
X118006180Y-73148498D01*
X117886482Y-73112188D01*
X117762000Y-73099928D01*
X116238000Y-73099928D01*
X116113518Y-73112188D01*
X115993820Y-73148498D01*
X115883506Y-73207463D01*
X115827000Y-73253836D01*
X115827000Y-73106234D01*
X115844376Y-72929811D01*
X115894022Y-72766150D01*
X115974638Y-72615328D01*
X116083130Y-72483130D01*
X116215328Y-72374638D01*
X116366150Y-72294022D01*
X116529811Y-72244376D01*
X116706234Y-72227000D01*
X142693766Y-72227000D01*
X142870189Y-72244376D01*
G37*
%TD.AperFunction*%
%TD*%
M02*
